<svg xmlns="http://www.w3.org/2000/svg" viewBox="0 0 21.9 21.9"><defs><style>.cls-1{fill:#4d4d4f;}</style></defs><title>Ресурс 2</title><g id="Слой_2" data-name="Слой 2"><g id="Слой_1-2" data-name="Слой 1"><path class="cls-1" d="M14.1,11.3a.48.48,0,0,1,0-.7l7.5-7.5a1.08,1.08,0,0,0,.3-.7,1.08,1.08,0,0,0-.3-.7L20.2.3a1.08,1.08,0,0,0-.7-.3.91.91,0,0,0-.7.3L11.3,7.8a.48.48,0,0,1-.7,0L3.1.3A1.08,1.08,0,0,0,2.4,0a1.08,1.08,0,0,0-.7.3L.3,1.7a1.08,1.08,0,0,0-.3.7,1.08,1.08,0,0,0,.3.7l7.5,7.5a.48.48,0,0,1,0,.7L.3,18.8a1,1,0,0,0,0,1.4l1.4,1.4a1.08,1.08,0,0,0,.7.3,1.08,1.08,0,0,0,.7-.3l7.5-7.5a.48.48,0,0,1,.7,0l7.5,7.5a1,1,0,0,0,1.4,0l1.4-1.4a1,1,0,0,0,0-1.4Z"/></g></g></svg>