<?xml version="1.0" standalone="no"?>
<!DOCTYPE svg PUBLIC "-//W3C//DTD SVG 1.1//EN" "http://www.w3.org/Graphics/SVG/1.1/DTD/svg11.dtd" >
<svg xmlns="http://www.w3.org/2000/svg" xmlns:xlink="http://www.w3.org/1999/xlink" version="1.1">
<metadata></metadata>
<defs>
<font id="deposit_prolight" horiz-adv-x="454" >
<font-face units-per-em="2048" ascent="1536" descent="-512" />
<missing-glyph horiz-adv-x="505" />
<glyph horiz-adv-x="0" />
<glyph unicode="&#xd;" horiz-adv-x="681" />
<glyph unicode=" "  horiz-adv-x="505" />
<glyph unicode="&#x09;" horiz-adv-x="505" />
<glyph unicode="&#xa0;" horiz-adv-x="505" />
<glyph unicode="!" d="M145 68q0 35 24 58.5t58.5 23.5t58 -24t23.5 -58q0 -33 -23.5 -56.5t-58 -23.5t-58.5 23.5t-24 56.5zM172 879v555h113v-555l-11 -510h-94z" />
<glyph unicode="&#x22;" horiz-adv-x="581" d="M117 1434h100l-6 -394h-88zM358 1434h101l-6 -394h-88z" />
<glyph unicode="#" horiz-adv-x="1515" d="M90 387l14 92h289l66 475h-289l14 93h287l55 387h92l-55 -387h479l56 387h90l-55 -387h288l-12 -93h-289l-65 -475h286l-12 -92h-289l-53 -387h-90l53 387h-479l-53 -387h-92l53 387h-289zM485 479h480l65 475h-479z" />
<glyph unicode="$" horiz-adv-x="1396" d="M143 178v264h113v-217q141 -123 403 -135v586q-264 78 -383.5 161.5t-119.5 239.5q0 174 137 269.5t366 99.5v90h70v-92q94 -4 177 -24.5t133.5 -48.5t87 -53.5t51.5 -43.5l14 -19v-266h-113v221q-125 119 -350 131v-567q82 -25 121 -36t106.5 -34.5t100.5 -43t78 -51 t66.5 -64.5t36.5 -79t15 -99q0 -174 -138 -272.5t-386 -106.5v-90h-70v90q-109 2 -200.5 23.5t-147 48t-96.5 54t-55 46.5zM268 1087q0 -111 95.5 -171t295.5 -121v548q-174 -4 -282.5 -72.5t-108.5 -183.5zM729 90q188 6 300 78.5t112 193.5q0 49 -23.5 90.5t-54.5 68 t-95.5 54t-107.5 41t-131 39.5v-565z" />
<glyph unicode="%" horiz-adv-x="1734" d="M96 1075q0 158 86 264.5t217 106.5t219.5 -106.5t88.5 -264.5q0 -160 -87.5 -265t-220.5 -105q-131 0 -217 105t-86 265zM180 1075q0 -123 62.5 -205t156.5 -82q96 0 161 82t65 205q0 125 -64.5 207t-161.5 82q-94 0 -156.5 -82t-62.5 -207zM381 0l864 1434h107 l-865 -1434h-106zM1030 358q0 158 86 264.5t217 106.5t218 -106.5t87 -264.5q0 -160 -87 -265t-218 -105t-217 105t-86 265zM1112 358q0 -123 62.5 -205.5t158.5 -82.5q94 0 158.5 83t64.5 205q0 125 -63 207t-159.5 82t-159 -82t-62.5 -207z" />
<glyph unicode="&#x26;" horiz-adv-x="1488" d="M113 397q0 135 99 234.5t261 140.5q-129 37 -206 121t-77 194q0 154 141.5 256.5t346.5 102.5q86 0 159.5 -19.5t118.5 -48t77 -57.5t44 -47l15 -21v-202h-107v166q-10 14 -29.5 35.5t-98.5 57.5t-179 36q-158 0 -266.5 -75t-108.5 -189.5t108.5 -189.5t276.5 -75v-94 q-199 0 -331 -91t-132 -231q0 -135 123 -224t307 -89q201 0 321 107.5t120 261.5v266h-207v92h526v-92h-207v-266q0 -195 -150.5 -332t-400.5 -137q-231 0 -387.5 116.5t-156.5 292.5z" />
<glyph unicode="'" horiz-adv-x="333" d="M117 1434h100l-6 -394h-88z" />
<glyph unicode="(" horiz-adv-x="581" d="M113 614q0 172 33.5 330t80.5 261.5t95.5 182t83.5 113.5l32 35h88q-12 -12 -31.5 -36.5t-70.5 -110.5t-90 -184.5t-71 -258.5t-32 -332t31 -329.5t74 -261t86 -182.5t74 -113l30 -35h-88q-4 0 -35.5 35.5t-81 113.5t-95.5 181.5t-79.5 261t-33.5 329.5z" />
<glyph unicode=")" horiz-adv-x="581" d="M55 -307q12 12 31.5 36.5t71 110.5t90.5 184.5t70.5 258t31.5 331.5t-30.5 330t-73.5 261.5t-86 182t-74 113.5l-31 35h88q12 -12 35 -36.5t79 -110.5t99 -184.5t78 -258.5t35 -332t-34 -329.5t-80 -261t-95 -181.5t-81 -113.5t-36 -35.5h-88z" />
<glyph unicode="*" horiz-adv-x="870" d="M104 1161l27 82l266 -90l-4 281h86l-6 -281l266 92l27 -80l-268 -84l170 -223l-68 -51l-164 229l-164 -231l-69 49l170 225z" />
<glyph unicode="+" horiz-adv-x="1331" d="M219 672v92h402v399h90v-399h401v-92h-401v-400h-90v400h-402z" />
<glyph unicode="," d="M115 -154q10 4 24.5 11.5t44 44.5t39.5 86q-31 2 -53.5 23.5t-22.5 54t24 56t56 23.5q35 0 57.5 -23.5t22.5 -55.5v-7q-2 -63 -21.5 -114t-48 -78t-56 -44.5t-46.5 -23.5l-20 -4v51z" />
<glyph unicode="-" horiz-adv-x="722" d="M104 514v90h512v-90h-512z" />
<glyph unicode="." d="M145 68q0 35 24 58.5t58.5 23.5t58 -24t23.5 -58q0 -33 -23.5 -56.5t-58 -23.5t-58.5 23.5t-24 56.5z" />
<glyph unicode="/" horiz-adv-x="843" d="M0 -307l743 1843h101l-744 -1843h-100z" />
<glyph unicode="0" horiz-adv-x="1431" d="M113 717q0 311 172 520t430 209q260 0 432 -209t172 -520t-172 -520t-432 -209q-258 0 -430 209t-172 520zM225 716.5q0 -270.5 139.5 -449.5t350.5 -179t351 179t140 449.5t-140 450t-351 179.5t-350.5 -179.5t-139.5 -450z" />
<glyph unicode="1" horiz-adv-x="1058" d="M178 1133v98l397 203h50v-1342h319v-92h-749v92h317v1211z" />
<glyph unicode="2" horiz-adv-x="1280" d="M123 0v76q0 80 66.5 160.5t166 148.5t215 147.5t215 154.5t166 174.5t66.5 203.5q0 100 -61.5 165.5t-140.5 89t-171 23.5q-229 0 -385 -149v-229h-113v264q6 8 18.5 23.5t57.5 52t99.5 65.5t144.5 52.5t192 23.5q215 0 346.5 -97.5t131.5 -273.5q0 -137 -86 -262 t-213 -218t-254 -175t-224.5 -165t-111.5 -155h813v181h102v-281h-1040z" />
<glyph unicode="3" horiz-adv-x="1376" d="M133 193v262h113v-219q170 -146 424 -146q203 0 333 95.5t130 256.5q0 158 -129.5 237t-335.5 79h-64l-26 67q57 63 220 250t228 258h-752v-207h-102v308h1010v-76l-453 -506q250 -14 386 -118.5t136 -291.5q0 -211 -163.5 -332.5t-417.5 -121.5q-102 0 -194.5 21.5 t-153 51t-105.5 59.5t-65 52z" />
<glyph unicode="4" horiz-adv-x="1413" d="M104 383v92l793 959h137v-959h275v-92h-275v-291h213v-92h-538v92h213v291h-818zM231 475h691v838z" />
<glyph unicode="5" horiz-adv-x="1376" d="M133 193v258h113v-215q164 -145 420 -146q205 0 336 102.5t131 268.5t-134.5 248t-347.5 82q-100 0 -202.5 -16.5t-153.5 -33.5l-53 -18l-58 72l56 639h888v-308h-104v207h-684l-45 -499q180 57 369 57q272 0 429.5 -113.5t157.5 -320.5q0 -217 -163.5 -343t-419.5 -126 q-100 0 -192.5 21.5t-152 51t-104.5 59.5t-65 52z" />
<glyph unicode="6" horiz-adv-x="1404" d="M119 682q0 346 150.5 555t465.5 209q141 0 264 -43t175 -84l51 -43v-254h-111v207q-160 115 -383 114q-248 0 -368.5 -172t-129.5 -542q27 129 166.5 210t325.5 81q240 0 401.5 -134.5t161.5 -334.5q0 -199 -162.5 -331t-425.5 -132q-581 0 -581 694zM270 453 q0 -160 122 -262.5t322.5 -102.5t331 103.5t130.5 259.5q0 160 -129 263t-334 103q-203 0 -323 -103t-120 -261z" />
<glyph unicode="7" horiz-adv-x="1261" d="M111 1126v308h1052v-76l-631 -1358h-124l622 1339h-815v-213h-104z" />
<glyph unicode="8" horiz-adv-x="1374" d="M113 395q0 129 92 229.5t250 147.5q-121 45 -193 129.5t-72 188.5q0 154 142.5 255t355.5 101t355.5 -101.5t142.5 -254.5q0 -104 -72 -189.5t-192 -128.5q156 -47 248 -147.5t92 -229.5q0 -174 -164 -290.5t-410 -116.5t-410.5 116.5t-164.5 290.5zM225 401 q0 -135 132 -224t331 -89t331 89t132 224q0 137 -132 227.5t-331 90.5t-331 -90.5t-132 -227.5zM303 1081q0 -113 109.5 -187.5t275.5 -74.5t274.5 75t108.5 187q0 115 -108.5 190t-274.5 75t-275.5 -75t-109.5 -190z" />
<glyph unicode="9" horiz-adv-x="1404" d="M176 993.5q0 196.5 150.5 324.5t402.5 128q559 0 559 -694q0 -348 -145.5 -556t-462.5 -208q-139 0 -259 41t-171 82l-49 41v254h112v-207q147 -109 373 -109q254 0 369.5 175t120.5 560q-27 -129 -161 -209.5t-313 -80.5q-229 0 -377.5 131t-148.5 327.5zM289 991 q0 -156 116.5 -256t311.5 -100q193 0 307.5 100t114.5 254q0 156 -117 256.5t-309 100.5q-190 0 -307 -100.5t-117 -254.5z" />
<glyph unicode=":" d="M145 68q0 35 24 58.5t58.5 23.5t58 -24t23.5 -58q0 -33 -23.5 -56.5t-58 -23.5t-58.5 23.5t-24 56.5zM145 854q0 33 24 56.5t58.5 23.5t58 -23.5t23.5 -56.5q0 -35 -23.5 -58.5t-58 -23.5t-58.5 23.5t-24 58.5z" />
<glyph unicode=";" d="M115 -154q10 4 24.5 11.5t44 44.5t39.5 86q-31 2 -53.5 23.5t-22.5 54t24 56t56 23.5q35 0 57.5 -23.5t22.5 -55.5v-7q-2 -63 -21.5 -114t-48 -78t-56 -44.5t-46.5 -23.5l-20 -4v51zM145 854q0 33 24 56.5t58.5 23.5t58 -23.5t23.5 -56.5q0 -35 -23.5 -58.5t-58 -23.5 t-58.5 23.5t-24 58.5z" />
<glyph unicode="&#x3c;" horiz-adv-x="1331" d="M207 666v94l905 379v-95l-793 -331l793 -330v-94z" />
<glyph unicode="=" horiz-adv-x="1331" d="M219 446v93h893v-93h-893zM219 889v92h893v-92h-893z" />
<glyph unicode="&#x3e;" horiz-adv-x="1331" d="M231 289v94l781 330l-781 331v95l893 -379v-94z" />
<glyph unicode="?" horiz-adv-x="1202" d="M113 1026v229q6 8 17 20.5t55 45.5t95.5 58.5t137.5 46t182 20.5q221 0 348 -96.5t127 -251.5q0 -88 -45 -170t-109.5 -135.5t-130 -94.5t-110.5 -59l-45 -18l-8 -252h-95l-10 307q18 6 47 17.5t104 52t132 86t104 116t47 146.5q0 117 -100 184.5t-264 67.5 q-227 0 -367 -121v-199h-112zM498 68q0 35 23.5 58.5t58 23.5t58.5 -24t24 -58q0 -33 -24 -56.5t-58.5 -23.5t-58 23.5t-23.5 56.5z" />
<glyph unicode="@" horiz-adv-x="2293" d="M113 461q0 418 298 701.5t736 283.5q287 0 524.5 -129t373.5 -356.5t136 -501.5q0 -242 -121 -459h-561v170q-16 -20 -40.5 -43t-75 -58.5t-124 -58t-155.5 -22.5q-207 0 -346.5 136t-139.5 333q0 209 152 343t362.5 134t374.5 -150l35 138h70v-830h373q84 172 83 369 q0 379 -264 633t-659 254q-391 0 -655.5 -254t-264.5 -633q0 -381 263.5 -634t662.5 -253q104 0 206.5 19.5t174.5 47t128 56.5t85 49l27 18l69 -77q-10 -8 -31.5 -22.5t-90 -51.5t-143.5 -64.5t-189.5 -50t-231.5 -22.5q-446 0 -744 283.5t-298 701.5zM729 461 q0 -160 117.5 -267.5t279.5 -107.5q74 0 141.5 23.5t116 60.5t73 61.5t42.5 47.5v376q-145 180 -366 181q-168 0 -286 -107.5t-118 -267.5z" />
<glyph unicode="A" horiz-adv-x="1851" d="M63 0v92h209l547 1249h-194v93h368l584 -1342h213v-92h-297l-188 430h-760l-187 -430h-295zM586 524h678l-338 776z" />
<glyph unicode="B" horiz-adv-x="1501" d="M98 0v92h209v1249h-209v93h750q199 0 324.5 -101.5t125.5 -259.5q0 -111 -67.5 -198t-183.5 -127q150 -33 242.5 -133.5t92.5 -235.5q0 -164 -131 -271.5t-329 -107.5h-824zM424 94h498q147 0 245.5 86t98.5 213q0 129 -97 214t-247 85h-498v-598zM424 782h424 q147 0 241.5 79t94.5 200t-94.5 199.5t-241.5 78.5h-424v-557z" />
<glyph unicode="C" horiz-adv-x="1560" d="M113 717q0 313 214 521t543 208q150 0 284 -45t194 -90l59 -43v-267h-113v216q-187 126 -422 126h-4q-279 0 -458 -178t-179 -448.5t179.5 -448.5t461.5 -178q246 0 422 133v221h113v-264q-8 -8 -21.5 -20.5t-63.5 -46t-107.5 -59t-149.5 -46t-191 -20.5 q-336 0 -548.5 206.5t-212.5 522.5z" />
<glyph unicode="D" horiz-adv-x="1685" d="M98 0v92h209v1249h-209v93h729q322 0 534 -203t212 -514t-212 -514t-534 -203h-729zM424 94h403q272 0 449.5 177.5t177.5 445.5t-177.5 445t-449.5 177h-403v-1245z" />
<glyph unicode="E" horiz-adv-x="1435" d="M98 0v92h209v1249h-209v93h1225v-308h-113v213h-786v-555h682v-94h-682v-596h797v213h112v-307h-1235z" />
<glyph unicode="F" horiz-adv-x="1398" d="M98 0v92h209v1249h-209v93h1198v-308h-112v213h-760v-575h649v-94h-649v-578h264v-92h-590z" />
<glyph unicode="G" horiz-adv-x="1570" d="M113 716.5q0 313.5 217 521.5t549 208q150 0 284.5 -45t194.5 -90l59 -43v-267h-110v216q-189 126 -426 126h-4q-281 0 -463.5 -178t-182.5 -448.5t181.5 -448.5t466.5 -178q252 0 428 133v406h-394v94h504v-543q-8 -8 -22.5 -20.5t-64.5 -46t-106.5 -59t-149.5 -46 t-191 -20.5q-338 0 -554 207.5t-216 521z" />
<glyph unicode="H" horiz-adv-x="1796" d="M98 0v92h209v1249h-209v93h535v-93h-209v-557h946v557h-207v93h533v-93h-207v-1249h207v-92h-533v92h207v598h-946v-598h209v-92h-535z" />
<glyph unicode="I" horiz-adv-x="731" d="M98 0v92h209v1249h-209v93h535v-93h-209v-1249h209v-92h-535z" />
<glyph unicode="J" horiz-adv-x="1353" d="M70 432h118q0 -152 104.5 -247t260.5 -95q168 0 272.5 112.5t104.5 293.5v845h-264v93h589v-93h-206v-845q0 -225 -136.5 -366.5t-359.5 -141.5q-211 0 -347 124t-136 320z" />
<glyph unicode="K" horiz-adv-x="1595" d="M98 0v92h209v1249h-209v93h535v-93h-209v-557h272l494 650h280v-93h-213l-462 -610l489 -639h211v-92h-283l-524 690h-264v-598h209v-92h-535z" />
<glyph unicode="L" horiz-adv-x="1343" d="M98 0v92h209v1249h-209v93h535v-93h-209v-1247h704v213h113v-307h-1143z" />
<glyph unicode="M" horiz-adv-x="2174" d="M98 0v92h209v1249h-209v93h359l630 -1270l633 1270h357v-93h-209v-1249h209v-92h-529v92h209v1184l-608 -1235h-123l-608 1233v-1182h209v-92h-529z" />
<glyph unicode="N" horiz-adv-x="1781" d="M98 0v92h209v1249h-209v93h326l967 -1252v1159h-207v93h532v-93h-207v-1341h-118l-967 1253v-1161h209v-92h-535z" />
<glyph unicode="O" horiz-adv-x="1726" d="M113 717q0 311 214 520t535.5 209t536.5 -209t215 -520t-215 -520t-536.5 -209t-535.5 209t-214 520zM231 717q0 -268 179.5 -447.5t452 -179.5t452.5 179.5t180 447.5t-180 447t-452.5 179t-452 -179t-179.5 -447z" />
<glyph unicode="P" horiz-adv-x="1388" d="M98 0v92h209v1249h-209v93h729q201 0 331 -115t130 -291q0 -174 -130 -288.5t-331 -114.5h-403v-533h264v-92h-590zM424 719h403q150 0 247 89t97 222t-97 221t-247 88h-403v-620z" />
<glyph unicode="Q" horiz-adv-x="1726" d="M113 717q0 311 215 520t536 209q319 0 534.5 -209t215.5 -520q0 -340 -248 -551l180 -229l-86 -66l-180 231q-182 -114 -412 -114h-4q-322 0 -536.5 209t-214.5 520zM231 717q0 -268 180.5 -447.5t452.5 -179.5q199 0 350 98l-233 301l86 66l231 -301q197 180 197 463 q0 268 -179 447t-451.5 179t-453 -179t-180.5 -447z" />
<glyph unicode="R" horiz-adv-x="1562" d="M98 0v92h209v1249h-209v93h776q201 0 331 -113t130 -287q0 -154 -104.5 -261t-269.5 -130l290 -551h211v-92h-288l-340 637h-410v-545h209v-92h-535zM424 731h450q150 0 247.5 87t97.5 218t-97.5 217t-247.5 86h-450v-608z" />
<glyph unicode="S" horiz-adv-x="1396" d="M143 178v264h113v-217q162 -135 442 -135q203 0 323 74t120 198q0 82 -66.5 141.5t-134.5 85t-219 68.5q-27 8 -41 13q-276 80 -400 164.5t-124 242.5q0 178 145 273.5t381 95.5q104 0 195.5 -19.5t146.5 -47t95 -56.5t57 -49l16 -19v-266h-113v221q-133 133 -397 133 q-182 0 -298 -68.5t-116 -187.5q0 -43 14.5 -77.5t48.5 -64.5t66.5 -50.5t95 -44t103.5 -35.5t123 -37q90 -27 122.5 -36t107.5 -35.5t104.5 -44t78 -50t69 -65.5t36.5 -79t16 -101q0 -180 -147.5 -279.5t-407.5 -99.5q-113 0 -212 19.5t-158.5 47t-103.5 56t-62 49.5z" />
<glyph unicode="T" horiz-adv-x="1613" d="M102 1126v308h1411v-308h-112v213h-535v-1247h262v-92h-643v92h263v1247h-533v-213h-113z" />
<glyph unicode="U" horiz-adv-x="1796" d="M98 1341v93h535v-93h-209v-852q0 -176 133 -287.5t340 -111.5q205 0 339 113.5t134 292.5v845h-207v93h533v-93h-207v-845q0 -223 -165 -365.5t-427 -142.5t-426 139t-164 362v852h-209z" />
<glyph unicode="V" horiz-adv-x="1871" d="M70 1341v93h292l574 -1293l573 1293h293v-93h-211l-594 -1341h-123q-457 1026 -595 1341h-209z" />
<glyph unicode="W" horiz-adv-x="2725" d="M70 1341v93h297l477 -1293l456 1272h123l457 -1272l479 1293h295v-93h-207l-505 -1341h-121l-459 1243l-457 -1243h-123q-387 1026 -506 1341h-206z" />
<glyph unicode="X" horiz-adv-x="1730" d="M98 0v92h211l486 637l-465 612h-209v93h276l467 -615l467 615h279v-93h-211l-467 -612l485 -637h215v-92h-282l-486 639l-485 -639h-281z" />
<glyph unicode="Y" horiz-adv-x="1630" d="M70 1341v93h282l461 -697l463 697h283v-93h-211l-476 -704v-545h207v-92h-532v92h207v545l-475 704h-209z" />
<glyph unicode="Z" horiz-adv-x="1503" d="M125 0v76q152 174 558.5 650t524.5 613h-958v-213h-105v308h1227v-76l-1083 -1264h985v213h104v-307h-1253z" />
<glyph unicode="[" horiz-adv-x="669" d="M174 -293v1815h31v14h381v-92h-299v-1659h299v-92h-381v14h-31z" />
<glyph unicode="\" horiz-adv-x="843" d="M0 1536h100l744 -1843h-101z" />
<glyph unicode="]" horiz-adv-x="669" d="M84 -215h299v1659h-299v92h381v-14h31v-1815h-31v-14h-381v92z" />
<glyph unicode="^" horiz-adv-x="884" d="M98 1073l312 361h65l311 -361h-104l-240 273l-239 -273h-105z" />
<glyph unicode="_" horiz-adv-x="1024" d="M0 -102h1024v-91h-1024v91z" />
<glyph unicode="`" horiz-adv-x="540" d="M111 1346h137l182 -273h-80z" />
<glyph unicode="a" horiz-adv-x="1181" d="M119 231q0 131 106.5 210t306.5 79h299v121q0 90 -79.5 143.5t-210.5 53.5q-84 0 -149.5 -22.5t-90.5 -45.5l-25 -22v-142h-106v191q4 6 12 15t39 32.5t70 42t106.5 33t145.5 14.5q182 0 290.5 -71.5t108.5 -192.5v-578h186v-92h-297v160q-172 -172 -409 -172 q-139 0 -221 64.5t-82 178.5zM231 242q0 -76 58.5 -118t156.5 -42q213 0 385 184v168h-299q-147 0 -224 -54t-77 -138z" />
<glyph unicode="b" horiz-adv-x="1265" d="M-8 1444v92h299v-772q25 29 60.5 59.5t131 70.5t199.5 40q211 0 350 -136t139 -333q0 -209 -151.5 -343t-362.5 -134q-217 0 -374 147l-35 -135h-70v1444h-186zM291 266q18 -23 43.5 -47t71 -58t110.5 -54.5t139 -20.5q168 0 286 107.5t118 267.5t-117 267.5t-280 107.5 q-94 0 -182.5 -41t-125.5 -75t-63 -65v-389z" />
<glyph unicode="c" horiz-adv-x="1153" d="M94 463q0 201 147.5 336t374.5 135q84 0 156 -19.5t116 -47t75.5 -56.5t44.5 -49l14 -19v-202h-107v166q-10 14 -29.5 35.5t-96 57.5t-171.5 36q-178 0 -294.5 -106.5t-116.5 -266.5t116.5 -268.5t297.5 -108.5q98 0 185 35t124 69l39 35l57 -59q-6 -8 -16.5 -19.5 t-48 -42t-81.5 -54t-115 -43t-149 -19.5q-221 0 -371.5 136t-150.5 339z" />
<glyph unicode="d" horiz-adv-x="1327" d="M94 457q0 209 152.5 343t363.5 134q207 0 367 -141v651h-189v92h299v-1444h189v-92h-299v160q-20 -27 -56 -57.5t-132.5 -72.5t-204.5 -42q-211 0 -350.5 136t-139.5 333zM207 461q0 -160 116.5 -267.5t282.5 -107.5q94 0 183.5 42t126 76t61.5 64v385q-25 33 -61.5 68 t-122.5 75t-183 40q-168 0 -285.5 -107.5t-117.5 -267.5z" />
<glyph unicode="e" horiz-adv-x="1155" d="M94 463q0 203 143.5 337t368.5 134q207 0 326 -116t119 -292l-9 -98h-837q12 -150 121.5 -246t281.5 -96q100 0 190.5 35t131.5 69l39 35l57 -59q-6 -8 -17.5 -19.5t-51 -42t-85 -54t-118 -43t-150.5 -19.5q-221 0 -365.5 135t-144.5 340zM209 514h735q0 150 -89 236 t-247 86q-166 0 -274.5 -90.5t-124.5 -231.5z" />
<glyph unicode="f" horiz-adv-x="796" d="M88 0v92h186v737h-186v93h186q-14 174 -16 266v20q0 156 90 245q96 95 268 95q78 0 139.5 -19.5t84.5 -37.5l22 -21v-223h-98v164q-49 39 -152 39q-119 0 -183 -68q-59 -61 -59 -174q0 -11 1 -22q2 -96 16 -264h303v-93h-303v-737h242v-92h-541z" />
<glyph unicode="g" horiz-adv-x="1265" d="M94 457q0 209 152.5 343t363.5 134q215 0 375 -150l33 138h69v-1028q0 -190 -137 -304t-364 -114q-88 0 -166 17.5t-128 43t-88 51t-54 43.5l-17 17v207h105v-166q14 -12 39.5 -31.5t116.5 -51.5t192 -32q176 0 283.5 85t107.5 237v264q-20 -27 -56 -57.5t-132.5 -72.5 t-204.5 -42q-211 0 -350.5 136t-139.5 333zM207 461q0 -160 116.5 -267.5t282.5 -107.5q94 0 183.5 42t126 76t61.5 64v385q-25 33 -61.5 68t-122.5 75t-183 40q-168 0 -285.5 -107.5t-117.5 -267.5z" />
<glyph unicode="h" horiz-adv-x="1370" d="M53 0v92h187v1352h-187v92h299v-801q25 31 67 68t151.5 84t232.5 47q162 0 244.5 -82t82.5 -227v-533h189v-92h-488v92h187v533q0 217 -240 217q-104 0 -206.5 -47t-147.5 -86t-72 -72v-545h187v-92h-486z" />
<glyph unicode="i" horiz-adv-x="626" d="M88 0v92h186v737h-186v93h299v-830h186v-92h-485zM244 1224.5q0 30.5 21.5 52t52 21.5t52 -21.5t21.5 -52t-21.5 -52t-52 -21.5t-52 21.5t-21.5 52z" />
<glyph unicode="j" horiz-adv-x="530" d="M14 -432q115 0 170.5 44t55.5 173v1044h-187v93h299v-1137q0 -168 -74.5 -238.5t-263.5 -70.5v92zM209 1224.5q0 30.5 20.5 52t53.5 21.5q31 0 52 -21.5t21 -52t-21.5 -52t-51.5 -21.5q-33 0 -53.5 21.5t-20.5 52z" />
<glyph unicode="k" horiz-adv-x="1185" d="M53 0v92h187v1352h-187v92h299v-993h178l320 379h244v-93h-181l-286 -331l336 -406h170v-92h-234l-371 451h-176v-359h187v-92h-486z" />
<glyph unicode="l" horiz-adv-x="591" d="M53 0v92h187v1352h-187v92h299v-1444h187v-92h-486z" />
<glyph unicode="m" horiz-adv-x="2058" d="M88 0v92h186v737h-186v93h299v-185q12 23 33.5 47.5t66.5 63.5t121 62.5t170 23.5q248 0 307 -189q14 25 39 50.5t72 60.5t123 56.5t166 21.5q170 0 253 -81t83 -228v-533h186v-92h-487v92h188v533q0 217 -244 217q-223 0 -362 -174q0 -8 1 -22.5t1 -20.5v-533h186v-92 h-485v92h186v533q0 217 -237 217q-78 0 -146.5 -23.5t-113.5 -61.5t-69 -64.5t-38 -51.5v-549h186v-92h-485z" />
<glyph unicode="n" horiz-adv-x="1404" d="M88 0v92h186v737h-186v93h299v-187q25 31 67 68t151.5 84t232.5 47q162 0 244.5 -82t82.5 -227v-533h189v-92h-488v92h189v533q0 217 -242 217q-104 0 -206.5 -47t-147.5 -86t-72 -72v-545h186v-92h-485z" />
<glyph unicode="o" horiz-adv-x="1234" d="M94 461q0 201 150.5 337t372 136t372 -136t150.5 -337t-150.5 -337t-372 -136t-372 136t-150.5 337zM207 461q0 -160 117.5 -267.5t292 -107.5t292 107.5t117.5 267.5q0 162 -116.5 268.5t-293.5 106.5q-174 0 -291.5 -107.5t-117.5 -267.5z" />
<glyph unicode="p" horiz-adv-x="1327" d="M53 -420h187v1249h-187v93h299v-158q25 29 61 59.5t131 70.5t199 40q211 0 350.5 -136t139.5 -333q0 -209 -151.5 -343t-362.5 -134q-217 0 -367 141v-549h242v-92h-541v92zM352 266q18 -23 44 -47t71 -58t110.5 -54.5t139.5 -20.5q168 0 285.5 107.5t117.5 267.5 t-116.5 267.5t-280.5 107.5q-94 0 -182 -41t-125 -75t-64 -65v-389z" />
<glyph unicode="q" horiz-adv-x="1265" d="M94 457q0 209 152.5 343t363.5 134q215 0 375 -150l33 138h69v-1342h189v-92h-543v92h244v580q-20 -27 -56 -57.5t-132.5 -72.5t-204.5 -42q-211 0 -350.5 136t-139.5 333zM207 461q0 -160 116.5 -267.5t282.5 -107.5q94 0 183.5 42t126 76t61.5 64v385q-25 33 -61.5 68 t-122.5 75t-183 40q-168 0 -285.5 -107.5t-117.5 -267.5z" />
<glyph unicode="r" horiz-adv-x="917" d="M88 0v92h186v737h-186v93h299v-240q16 29 40 59.5t72 79.5t117.5 81t147.5 32l70 -6v-115q-29 10 -76 10q-70 0 -136.5 -30.5t-115.5 -77.5t-74.5 -79t-44.5 -58v-486h242v-92h-541z" />
<glyph unicode="s" horiz-adv-x="1048" d="M119 109v202h106v-143q8 -10 27.5 -23.5t98.5 -37t181 -23.5q289 0 289 154q0 35 -17.5 61.5t-42 43.5t-73.5 33.5t-87 27t-107 24.5q-188 41 -277.5 94t-89.5 166q0 123 104.5 184.5t280.5 61.5q129 0 223 -32t125 -62l31 -33v-197h-107v142q-2 4 -8 9t-27.5 20.5 t-50 26.5t-78 20.5t-108.5 9.5q-123 0 -198.5 -38t-75.5 -110q0 -39 22.5 -67.5t77.5 -50t93 -32t124 -28.5q188 -41 282.5 -98.5t94.5 -173.5q0 -125 -107.5 -188.5t-298.5 -63.5q-133 0 -234.5 30.5t-135.5 59.5z" />
<glyph unicode="t" horiz-adv-x="731" d="M63 829v93h189v309l110 39v-348h250v-93h-250v-553q0 -196 173 -196h2l75 8v-88q-27 -12 -92 -12q-268 0 -268 288v553h-189z" />
<glyph unicode="u" horiz-adv-x="1349" d="M53 829v93h299v-631q0 -102 61.5 -156.5t174.5 -54.5q80 0 154.5 25.5t128 64.5t82 65.5t44.5 47.5v546h-186v93h299v-830h188v-92h-301v186q-14 -20 -42.5 -45.5t-82 -64.5t-135.5 -63.5t-174 -24.5q-158 0 -240.5 79.5t-82.5 223.5v538h-187z" />
<glyph unicode="v" horiz-adv-x="1351" d="M49 829v93h246l381 -795l381 795h246v-93h-168l-400 -829h-119q-289 596 -399 829h-168z" />
<glyph unicode="w" horiz-adv-x="1906" d="M49 829v93h252l297 -795l301 784h111l299 -784l297 795h252v-93h-166l-324 -829h-119q-227 586 -295 764l-297 -764h-118q-236 598 -324 829h-166z" />
<glyph unicode="x" horiz-adv-x="1159" d="M53 0v92h166l293 391l-262 346h-178v93h245q123 -162 263 -349l262 349h245v-93h-180l-258 -346l291 -391h168v-92h-231l-297 391l-293 -391h-234z" />
<glyph unicode="y" horiz-adv-x="1323" d="M49 829v93h246l367 -795l366 795h246v-93h-166q-334 -731 -633 -1341h-305v92h229l203 420q-279 596 -387 829h-166z" />
<glyph unicode="z" horiz-adv-x="1124" d="M145 0v76l684 753h-571v-180h-104v273h835v-76l-686 -754h592v180h104v-272h-854z" />
<glyph unicode="{" horiz-adv-x="692" d="M84 569v90q193 0 192 203v373q0 158 80 235.5t250 77.5v-90q-217 0 -217 -221v-375q0 -188 -156 -248q156 -59 156 -247v-375q0 -221 217 -221v-90q-170 0 -250 77.5t-80 235.5v373q0 203 -192 202z" />
<glyph unicode="|" horiz-adv-x="456" d="M190 -307v1843h91v-1843h-91z" />
<glyph unicode="}" horiz-adv-x="692" d="M84 -229q217 0 217 221v375q0 188 154 247q-154 60 -154 248v375q0 221 -217 221v90q170 0 250 -77.5t80 -235.5v-373q0 -203 192 -203v-90q-193 0 -192 -202v-373q0 -158 -80 -235.5t-250 -77.5v90z" />
<glyph unicode="~" horiz-adv-x="1333" d="M219 588q0 113 69.5 186.5t188.5 73.5q66 0 119 -26.5t82 -58.5t75 -58.5t101 -26.5q84 0 127 50t43 120h90q0 -115 -68.5 -187.5t-187.5 -72.5q-68 0 -121 26.5t-81.5 58.5t-76 58.5t-102.5 26.5q-84 0 -127 -51.5t-43 -118.5h-88z" />
<glyph unicode="&#xad;" horiz-adv-x="722" d="M104 514v90h512v-90h-512z" />
<glyph unicode="&#x400;" horiz-adv-x="1435" d="M98 0v92h209v1249h-209v93h1225v-308h-113v213h-786v-555h682v-94h-682v-596h797v213h112v-307h-1235zM498 1858h137l180 -273h-80z" />
<glyph unicode="&#x401;" horiz-adv-x="1435" d="M98 0v92h209v1249h-209v93h1225v-308h-113v213h-786v-555h682v-94h-682v-596h797v213h112v-307h-1235zM434 1659q0 29 19.5 49.5t48 20.5t49 -20.5t20.5 -49.5t-20.5 -49.5t-49 -20.5t-48 20.5t-19.5 49.5zM862 1659q0 29 20.5 49.5t49.5 20.5t49 -20.5t20 -49.5 t-20 -49.5t-49 -20.5t-49.5 20.5t-20.5 49.5z" />
<glyph unicode="&#x402;" horiz-adv-x="2054" d="M102 1126v308h1411v-308h-112v213h-535v-645q29 23 77 49.5t164 61.5t236 35q213 0 309.5 -96.5t96.5 -256.5v-147q0 -168 -112.5 -260t-333.5 -92v92q145 0 236 65.5t91 194.5v147q0 250 -313 250q-109 0 -216.5 -33.5t-155.5 -60.5t-79 -51v-500h213v-92h-544v92h213 v1247h-535v-213h-111z" />
<glyph unicode="&#x403;" horiz-adv-x="1343" d="M98 0v92h209v1249h-209v93h1143v-308h-113v213h-704v-1247h264v-92h-590zM573 1581l181 270h137l-238 -270h-80z" />
<glyph unicode="&#x404;" horiz-adv-x="1560" d="M125 717q0 313 213 521t545 208q150 0 283.5 -45t193.5 -90l57 -43v-267h-110v216q-188 127 -426 126q-268 0 -443.5 -160.5t-193.5 -410.5h823v-94h-825q14 -258 191 -423t450 -165q248 0 424 133v221h110v-264q-8 -8 -21.5 -20.5t-63.5 -46t-106.5 -59t-149.5 -46 t-191 -20.5q-336 0 -548 206.5t-212 522.5z" />
<glyph unicode="&#x405;" horiz-adv-x="1396" d="M143 178v264h113v-217q162 -135 442 -135q203 0 323 74t120 198q0 82 -66.5 141.5t-134.5 85t-219 68.5q-27 8 -41 13q-276 80 -400 164.5t-124 242.5q0 178 145 273.5t381 95.5q104 0 195.5 -19.5t146.5 -47t95 -56.5t57 -49l16 -19v-266h-113v221q-133 133 -397 133 q-182 0 -298 -68.5t-116 -187.5q0 -43 14.5 -77.5t48.5 -64.5t66.5 -50.5t95 -44t103.5 -35.5t123 -37q90 -27 122.5 -36t107.5 -35.5t104.5 -44t78 -50t69 -65.5t36.5 -79t16 -101q0 -180 -147.5 -279.5t-407.5 -99.5q-113 0 -212 19.5t-158.5 47t-103.5 56t-62 49.5z" />
<glyph unicode="&#x406;" horiz-adv-x="731" d="M98 0v92h209v1249h-209v93h535v-93h-209v-1249h209v-92h-535z" />
<glyph unicode="&#x407;" horiz-adv-x="731" d="M82 1659q0 29 20.5 49.5t49 20.5t49 -20.5t20.5 -49.5t-20.5 -49.5t-49 -20.5t-49 20.5t-20.5 49.5zM98 0v92h209v1249h-209v93h535v-93h-209v-1249h209v-92h-535zM510 1659q0 29 20.5 49.5t49 20.5t49 -20.5t20.5 -49.5t-20.5 -49.5t-49 -20.5t-49 20.5t-20.5 49.5z" />
<glyph unicode="&#x408;" horiz-adv-x="1353" d="M70 432h118q0 -152 104.5 -247t260.5 -95q168 0 272.5 112.5t104.5 293.5v845h-264v93h589v-93h-206v-845q0 -225 -136.5 -366.5t-359.5 -141.5q-211 0 -347 124t-136 320z" />
<glyph unicode="&#x409;" horiz-adv-x="2379" d="M70 8v94q57 -23 118 -22q51 0 88 21.5t76 92t63.5 193.5t40 339t15.5 513v102h-207v93h1340v-93h-207v-532h422q201 0 331.5 -114.5t130.5 -288.5q0 -176 -131 -291t-331 -115h-748v92h207v1247h-694v-100q0 -391 -23.5 -643t-76 -383t-115 -178t-158.5 -47q-35 0 -71 5 t-54 11zM1397 94h422q150 0 247 88t97 221q0 135 -97 223.5t-247 88.5h-422v-621z" />
<glyph unicode="&#x40a;" horiz-adv-x="2471" d="M98 0v92h209v1249h-209v93h535v-93h-209v-557h946v557h-207v93h533v-93h-207v-532h424q201 0 331 -114.5t130 -288.5q0 -176 -130 -291t-331 -115h-750v92h207v598h-946v-598h209v-92h-535zM1489 94h424q147 0 244.5 88t97.5 221.5t-96 222.5t-246 89h-424v-621z" />
<glyph unicode="&#x40b;" horiz-adv-x="2054" d="M102 1126v308h1411v-308h-112v213h-535v-645q29 23 77 49.5t164 61.5t236 35q213 0 309.5 -96.5t96.5 -256.5v-395h207v-92h-533v92h205v395q0 250 -311 250q-109 0 -216.5 -33.5t-155.5 -60.5t-79 -51v-500h213v-92h-544v92h213v1247h-535v-213h-111z" />
<glyph unicode="&#x40c;" horiz-adv-x="1595" d="M98 0v92h209v1249h-209v93h535v-93h-209v-557h272l494 650h280v-93h-213l-462 -610l489 -639h211v-92h-283l-524 690h-264v-598h209v-92h-535zM698 1581l183 270h137l-240 -270h-80z" />
<glyph unicode="&#x40d;" horiz-adv-x="1837" d="M98 0v92h209v1249h-209v93h535v-93h-209v-1163l987 1256h326v-93h-207v-1249h207v-92h-533v92h207v1163l-987 -1255h-326zM696 1858h138l182 -273h-80z" />
<glyph unicode="&#x40e;" horiz-adv-x="1738" d="M70 1341v93h292l523 -910l487 910h297v-93h-215l-506 -931l-221 -410h-340l-2 94h268l168 318q-4 8 -107.5 186t-235.5 407.5t-193 335.5h-215zM543 1741v123h98v-84q8 -10 23.5 -26.5t74 -43.5t130 -27t129 25t77.5 49l21 23v84h98v-123l-11 -16.5t-36 -37t-63.5 -46 t-92 -36t-123 -16.5t-123 15.5t-92.5 38t-61.5 45t-38.5 36.5z" />
<glyph unicode="&#x40f;" horiz-adv-x="1769" d="M98 0v92h209v1249h-209v93h535v-93h-209v-1247h919v1247h-206v93h532v-93h-207v-1249h207v-92h-729v-348h-111v348h-731z" />
<glyph unicode="&#x410;" horiz-adv-x="1851" d="M63 0v92h209l549 1256h-196v86h368l584 -1342h213v-92h-297l-188 430h-760l-187 -430h-295zM586 524h678l-338 776z" />
<glyph unicode="&#x411;" horiz-adv-x="1409" d="M98 0v92h209v1249h-209v93h1114v-308h-112v213h-676v-536h424q199 0 330 -114t131 -288t-131 -287.5t-330 -113.5h-750zM424 94h424q150 0 247 87t97 220.5t-97 220.5t-247 87h-424v-615z" />
<glyph unicode="&#x412;" horiz-adv-x="1501" d="M98 0v92h209v1249h-209v93h750q199 0 324.5 -101.5t125.5 -259.5q0 -111 -67.5 -198t-183.5 -127q150 -33 242.5 -133.5t92.5 -235.5q0 -164 -131 -271.5t-329 -107.5h-824zM424 94h498q147 0 245.5 86t98.5 213q0 129 -97 214t-247 85h-498v-598zM424 782h424 q147 0 241.5 79t94.5 200t-94.5 199.5t-241.5 78.5h-424v-557z" />
<glyph unicode="&#x413;" horiz-adv-x="1343" d="M98 0v92h209v1249h-209v93h1143v-308h-113v213h-704v-1247h264v-92h-590z" />
<glyph unicode="&#x414;" horiz-adv-x="1796" d="M98 94h185q61 27 101 125t64.5 350t24.5 670v102h-209v93h1374v-93h-208v-1247h268v-442h-113v348h-1374v-348h-113v442zM440 94h873v1245h-727v-100q0 -510 -35 -775t-111 -370z" />
<glyph unicode="&#x415;" horiz-adv-x="1435" d="M98 0v92h209v1249h-209v93h1225v-308h-113v213h-786v-555h682v-94h-682v-596h797v213h112v-307h-1235z" />
<glyph unicode="&#x416;" horiz-adv-x="2369" d="M98 0v92h213l445 639l-420 610h-213v93h280l453 -650h272v557h-206v93h526v-93h-207v-557h272l453 650h279v-93h-211l-420 -610l444 -639h213v-92h-284l-482 690h-264v-598h207v-92h-526v92h206v598h-264l-481 -690h-285z" />
<glyph unicode="&#x417;" horiz-adv-x="1462" d="M154 182v264h112v-219q180 -137 459 -137q217 0 358.5 87t141.5 224q0 117 -98.5 203t-243.5 86h-353v94h279q147 0 253.5 80t106.5 195q0 125 -128 204.5t-322 79.5q-250 0 -453 -129v-215h-112v267q8 8 24.5 19t72.5 43t116.5 55.5t155.5 43t194 19.5 q246 0 406.5 -105.5t160.5 -269.5q0 -115 -79 -202t-201 -124q150 -27 244.5 -127t94.5 -229q0 -178 -177 -289.5t-443 -111.5q-109 0 -207 20.5t-160.5 49t-110.5 56t-69 48.5z" />
<glyph unicode="&#x418;" horiz-adv-x="1837" d="M98 0v92h209v1249h-209v93h535v-93h-209v-1163l987 1256h326v-93h-207v-1249h207v-92h-533v92h207v1163l-987 -1255h-326z" />
<glyph unicode="&#x419;" horiz-adv-x="1837" d="M98 0v92h209v1249h-209v93h535v-93h-209v-1163l987 1256h326v-93h-207v-1249h207v-92h-533v92h207v1163l-987 -1255h-326zM594 1741v123h100v-84q6 -10 21.5 -26.5t74 -43.5t130 -27t129 25t77.5 49l21 23v84h98v-123l-11 -16.5t-36 -37t-63.5 -46t-92 -36t-123 -16.5 t-123 15.5t-92 38t-61.5 45t-37 36.5z" />
<glyph unicode="&#x41a;" horiz-adv-x="1595" d="M98 0v92h209v1249h-209v93h535v-93h-209v-557h272l494 650h280v-93h-213l-462 -610l489 -639h211v-92h-283l-524 690h-264v-598h209v-92h-535z" />
<glyph unicode="&#x41b;" horiz-adv-x="1701" d="M70 8v94q57 -23 118 -22q51 0 88 21.5t76 92t63.5 193.5t40 339t15.5 513v102h-207v93h1340v-93h-207v-1249h207v-92h-533v92h207v1247h-694v-100q0 -391 -23.5 -643t-76 -383t-115 -178t-158.5 -47q-35 0 -71 5t-54 11z" />
<glyph unicode="&#x41c;" horiz-adv-x="2174" d="M98 0v92h209v1249h-209v93h359l630 -1270l633 1270h357v-93h-209v-1249h209v-92h-529v92h209v1184l-608 -1235h-123l-608 1233v-1182h209v-92h-529z" />
<glyph unicode="&#x41d;" horiz-adv-x="1796" d="M98 0v92h209v1249h-209v93h535v-93h-209v-557h946v557h-207v93h533v-93h-207v-1249h207v-92h-533v92h207v598h-946v-598h209v-92h-535z" />
<glyph unicode="&#x41e;" horiz-adv-x="1726" d="M113 717q0 311 214 520t535.5 209t536.5 -209t215 -520t-215 -520t-536.5 -209t-535.5 209t-214 520zM231 717q0 -268 179.5 -447.5t452 -179.5t452.5 179.5t180 447.5t-180 447t-452.5 179t-452 -179t-179.5 -447z" />
<glyph unicode="&#x41f;" horiz-adv-x="1796" d="M98 0v92h209v1249h-209v93h1598v-93h-207v-1249h207v-92h-533v92h207v1247h-946v-1247h209v-92h-535z" />
<glyph unicode="&#x420;" horiz-adv-x="1388" d="M98 0v92h209v1249h-209v93h729q201 0 331 -115t130 -291q0 -174 -130 -288.5t-331 -114.5h-403v-533h264v-92h-590zM424 719h403q150 0 247 89t97 222t-97 221t-247 88h-403v-620z" />
<glyph unicode="&#x421;" horiz-adv-x="1560" d="M113 717q0 313 214 521t543 208q150 0 284 -45t194 -90l59 -43v-267h-113v216q-188 127 -426 126q-279 0 -458 -178t-179 -448.5t179.5 -448.5t461.5 -178q246 0 422 133v221h113v-264q-8 -8 -21.5 -20.5t-63.5 -46t-107.5 -59t-149.5 -46t-191 -20.5 q-336 0 -548.5 206.5t-212.5 522.5z" />
<glyph unicode="&#x422;" horiz-adv-x="1613" d="M102 1126v308h1411v-308h-112v213h-535v-1247h262v-92h-643v92h263v1247h-533v-213h-113z" />
<glyph unicode="&#x423;" horiz-adv-x="1738" d="M70 1341v93h292l523 -910l487 910h297v-93h-215l-506 -931l-221 -410h-340l-2 94h268l168 318q-4 8 -107.5 186t-235.5 407.5t-193 335.5h-215z" />
<glyph unicode="&#x424;" horiz-adv-x="1761" d="M102 725q0 248 191.5 385t531.5 141v121h-209v90h529v-90h-209v-121q340 -4 531.5 -141t191.5 -385t-191.5 -384t-531.5 -140v-121h209v-92h-529v92h209v121q-340 4 -531.5 140t-191.5 384zM221 725q0 -199 158 -308.5t446 -113.5v844q-289 -4 -446.5 -113.5 t-157.5 -308.5zM936 303q287 4 446.5 113.5t159.5 308.5t-159.5 308.5t-446.5 113.5v-844z" />
<glyph unicode="&#x425;" horiz-adv-x="1730" d="M98 0v92h211l486 637l-465 612h-209v93h276l467 -615l467 615h279v-93h-211l-467 -612l485 -637h215v-92h-282l-486 639l-485 -639h-281z" />
<glyph unicode="&#x426;" horiz-adv-x="1835" d="M98 0v92h209v1249h-209v93h535v-93h-209v-1247h919v1247h-206v93h532v-93h-207v-1247h275v-442h-113v348h-1526z" />
<glyph unicode="&#x427;" horiz-adv-x="1658" d="M70 1341v93h532v-93h-207v-436q0 -250 340 -250q121 0 242 35t169 60.5t83 50.5v540h-213v93h545v-93h-213v-1249h213v-92h-594v92h262v606q-27 -20 -78 -47.5t-177 -62.5t-259 -35q-229 0 -332.5 96t-103.5 256v436h-209z" />
<glyph unicode="&#x428;" horiz-adv-x="2686" d="M98 0v92h209v1249h-209v93h535v-93h-209v-1247h856v1247h-207v93h533v-93h-207v-1247h856v1247h-209v93h534v-93h-208v-1249h208v-92h-2482z" />
<glyph unicode="&#x429;" horiz-adv-x="2742" d="M98 0v92h209v1249h-209v93h535v-93h-209v-1247h856v1247h-207v93h533v-93h-207v-1247h856v1247h-209v93h534v-93h-208v-1247h272v-442h-113v348h-2433z" />
<glyph unicode="&#x42a;" horiz-adv-x="1736" d="M102 1126v308h859v-93h-207v-532h422q201 0 330.5 -114.5t129.5 -288.5q0 -176 -130 -291t-330 -115h-748v92h207v1247h-420v-213h-113zM754 94h422q150 0 247 88t97 221q0 135 -97 223.5t-247 88.5h-422v-621z" />
<glyph unicode="&#x42b;" horiz-adv-x="2076" d="M98 0v92h209v1249h-209v93h535v-93h-209v-532h424q201 0 331 -114.5t130 -288.5q0 -176 -130 -291t-331 -115h-750zM424 94h424q150 0 247 88t97 221.5t-97 222.5t-247 89h-424v-621zM1444 0v92h209v1249h-209v93h534v-93h-209v-1249h209v-92h-534z" />
<glyph unicode="&#x42c;" horiz-adv-x="1409" d="M98 0v92h209v1249h-209v93h535v-93h-209v-532h424q201 0 331 -114.5t130 -288.5q0 -176 -130 -291t-331 -115h-750zM424 94h424q150 0 247 88t97 221.5t-97 222.5t-247 89h-424v-621z" />
<glyph unicode="&#x42d;" horiz-adv-x="1560" d="M125 180v264h111v-221q172 -133 423 -133q272 0 448.5 165t190.5 423h-733v94h733q-20 250 -195 410.5t-441 160.5q-238 0 -426 -126v-216h-111v267q8 8 23.5 19t67.5 42t110.5 54.5t148.5 43t184 19.5q332 0 545 -208t213 -521q0 -315 -212 -522t-548 -207 q-98 0 -190 19.5t-151.5 48t-104.5 57t-66 47.5z" />
<glyph unicode="&#x42e;" horiz-adv-x="2347" d="M98 0v92h209v1249h-209v93h535v-93h-209v-557h424q23 287 217.5 474.5t474.5 187.5q297 0 495.5 -209t198.5 -520t-198.5 -520t-495.5 -209q-291 0 -487.5 199.5t-206.5 502.5h-422v-598h209v-92h-535zM963 717q0 -268 164.5 -447.5t412.5 -179.5t413 179.5t165 447.5 t-165 447t-413 179t-412.5 -179t-164.5 -447z" />
<glyph unicode="&#x42f;" horiz-adv-x="1536" d="M98 0v92h213l299 547q-178 16 -291.5 125.5t-113.5 269.5q0 174 130 287t331 113h770v-93h-207v-1249h207v-92h-533v92h207v545h-383l-338 -637h-291zM324 1036q0 -131 97 -218t245 -87h444v608h-444q-150 0 -246 -86t-96 -217z" />
<glyph unicode="&#x430;" horiz-adv-x="1181" d="M119 231q0 131 106.5 210t306.5 79h299v121q0 90 -79.5 143.5t-210.5 53.5q-84 0 -149.5 -22.5t-90.5 -45.5l-25 -22v-142h-106v191q4 6 12 15t39 32.5t70 42t106.5 33t145.5 14.5q182 0 290.5 -71.5t108.5 -192.5v-578h186v-92h-297v160q-172 -172 -409 -172 q-139 0 -221 64.5t-82 178.5zM231 242q0 -76 58.5 -118t156.5 -42q213 0 385 184v168h-299q-147 0 -224 -54t-77 -138z" />
<glyph unicode="&#x431;" horiz-adv-x="1241" d="M113 702q0 307 100 451.5t324 202.5l372 94v94h107v-170l-457 -123q-184 -49 -262 -161.5t-82 -344.5q20 23 49 48.5t83 60.5t133 57.5t169 22.5q223 0 359.5 -136t136.5 -339q0 -205 -139.5 -338t-376.5 -133q-516 0 -516 714zM225 651q8 -303 112.5 -434t295.5 -131 q188 0 293.5 104.5t105.5 266.5q0 166 -111.5 271.5t-289.5 105.5q-244 0 -406 -183z" />
<glyph unicode="&#x432;" horiz-adv-x="1212" d="M88 0v92h186v737h-186v93h664q152 0 232.5 -68t80.5 -170q0 -68 -40 -122t-114 -83q94 -25 144.5 -88t50.5 -147q0 -104 -83 -174t-232 -70h-703zM387 92h393q102 0 154.5 49t52.5 117t-52.5 120t-154.5 52h-393v-338zM387 516h352q102 0 154.5 46t52.5 108 q0 63 -52.5 111t-154.5 48h-352v-313z" />
<glyph unicode="&#x433;" horiz-adv-x="1107" d="M88 0v92h186v737h-186v93h916v-285h-107v192h-510v-737h242v-92h-541z" />
<glyph unicode="&#x434;" horiz-adv-x="1435" d="M82 92h174q125 80 125 635v102h-188v93h1112v-93h-187v-737h236v-375h-105v283h-1061v-283h-106v375zM389 92h617v737h-514v-102q0 -494 -103 -635z" />
<glyph unicode="&#x435;" horiz-adv-x="1157" d="M94 463q0 203 143.5 337t368.5 134q207 0 326 -116t119 -292l-9 -98h-837q12 -150 121.5 -246t281.5 -96q100 0 190.5 35t131.5 69l39 35l57 -59q-6 -8 -17.5 -19.5t-51 -42t-85 -54t-118 -43t-150.5 -19.5q-219 0 -364.5 135t-145.5 340zM209 514h735q0 150 -89 236 t-247 86q-166 0 -274.5 -90.5t-124.5 -231.5z" />
<glyph unicode="&#x436;" horiz-adv-x="1763" d="M39 0v92h170l356 400l-311 337h-178v93h243l338 -385h168v292h-186v93h485v-93h-186v-292h168l338 385h244v-93h-183l-307 -337l352 -400h174v-92h-233l-391 444h-162v-352h186v-92h-485v92h186v352h-163l-392 -444h-231z" />
<glyph unicode="&#x437;" horiz-adv-x="1075" d="M100 141v183h107v-146q10 -10 32.5 -25.5t105.5 -41t183 -25.5q152 0 237 51t85 129q0 61 -49 111.5t-152 50.5h-246v86h205q102 0 151.5 45t49.5 103q0 72 -73.5 123t-221.5 51q-98 0 -175 -24t-106 -46l-26 -25v-145h-107v182q4 6 13.5 16.5t45.5 38t79 48t120.5 37 t165.5 16.5q193 0 297.5 -71.5t104.5 -182.5q0 -66 -37 -122t-109 -83q92 -23 139.5 -84t47.5 -137q0 -121 -117 -193.5t-313 -72.5q-139 0 -249 39t-149 75z" />
<glyph unicode="&#x438;" horiz-adv-x="1454" d="M88 0v92h186v737h-186v93h485v-93h-186v-679l682 772h299v-93h-188v-737h188v-92h-487v92h188v680l-682 -772h-299z" />
<glyph unicode="&#x439;" horiz-adv-x="1454" d="M88 0v92h186v737h-186v93h485v-93h-186v-679l682 772h299v-93h-188v-737h188v-92h-487v92h188v680l-682 -772h-299zM401 1229v123h99v-84q8 -10 23.5 -26.5t73.5 -43.5t130 -27t128 25t77 49l20 23v84h101v-123q-4 -6 -11.5 -16.5t-36 -37t-63.5 -46t-92 -36 t-122.5 -16.5t-123 15.5t-92.5 38t-61.5 45t-36.5 36.5z" />
<glyph unicode="&#x43a;" horiz-adv-x="1241" d="M88 0v92h186v737h-186v93h485v-93h-186v-292h182l338 385h244v-93h-182l-307 -337l354 -400h172v-92h-234l-391 444h-176v-352h186v-92h-485z" />
<glyph unicode="&#x43b;" horiz-adv-x="1335" d="M53 0v88q41 -8 78 -8q66 0 107 42t70.5 191.5t29.5 413.5v102h-186v93h1097v-93h-186v-737h186v-92h-485v92h186v737h-499v-102q0 -289 -34 -452.5t-95.5 -225t-163.5 -61.5q-29 0 -54.5 3t-37.5 5z" />
<glyph unicode="&#x43c;" horiz-adv-x="1665" d="M88 0v92h186v737h-186v93h336l407 -783l412 783h334v-93h-186v-737h186v-92h-477v92h186v707l-405 -789h-97q-283 547 -407 793v-711h188v-92h-477z" />
<glyph unicode="&#x43d;" horiz-adv-x="1437" d="M88 0v92h186v737h-186v93h485v-93h-186v-313h664v313h-187v93h486v-93h-187v-737h187v-92h-486v92h187v334h-664v-334h186v-92h-485z" />
<glyph unicode="&#x43e;" horiz-adv-x="1234" d="M94 461q0 201 150.5 337t372 136t372 -136t150.5 -337t-150.5 -337t-372 -136t-372 136t-150.5 337zM207 461q0 -160 117.5 -267.5t292 -107.5t292 107.5t117.5 267.5q0 162 -116.5 268.5t-293.5 106.5q-174 0 -291.5 -107.5t-117.5 -267.5z" />
<glyph unicode="&#x43f;" horiz-adv-x="1400" d="M88 0v92h186v737h-186v93h1225v-93h-187v-737h187v-92h-486v92h187v737h-627v-737h186v-92h-485z" />
<glyph unicode="&#x440;" horiz-adv-x="1327" d="M53 -420h187v1249h-187v93h299v-158q25 29 61 59.5t131 70.5t199 40q211 0 350.5 -136t139.5 -333q0 -209 -151.5 -343t-362.5 -134q-217 0 -367 141v-549h242v-92h-541v92zM352 266q18 -23 44 -47t71 -58t110.5 -54.5t139.5 -20.5q168 0 285.5 107.5t117.5 267.5 t-116.5 267.5t-280.5 107.5q-94 0 -182 -41t-125 -75t-64 -65v-389z" />
<glyph unicode="&#x441;" horiz-adv-x="1153" d="M94 463q0 201 147.5 336t374.5 135q84 0 156 -19.5t116 -47t75.5 -56.5t44.5 -49l14 -19v-202h-107v166q-10 14 -29.5 35.5t-96 57.5t-171.5 36q-178 0 -294.5 -106.5t-116.5 -266.5t116.5 -268.5t297.5 -108.5q98 0 185 35t124 69l39 35l57 -59q-6 -8 -16.5 -19.5 t-48 -42t-81.5 -54t-115 -43t-149 -19.5q-221 0 -371.5 136t-150.5 339z" />
<glyph unicode="&#x442;" horiz-adv-x="1230" d="M104 637v285h1022v-285h-106v192h-348v-737h186v-92h-485v92h186v737h-348v-192h-107z" />
<glyph unicode="&#x443;" horiz-adv-x="1323" d="M49 829v93h246l367 -795l366 795h246v-93h-166q-334 -731 -633 -1341h-305v92h229l203 420q-279 596 -387 829h-166z" />
<glyph unicode="&#x444;" horiz-adv-x="1587" d="M94 461q0 201 150.5 337t369.5 136q66 0 123 -19v529h-186v92h299v-621q55 18 123 19q219 0 369.5 -136t150.5 -337t-149.5 -337t-370.5 -136q-61 0 -123 16v-424h186v-92h-485v92h186v424q-61 -16 -123 -16q-221 0 -370.5 136t-149.5 337zM207 461q0 -160 116.5 -267.5 t290.5 -107.5q63 0 123 25v696q-61 29 -123 29q-174 0 -290.5 -106.5t-116.5 -268.5zM850 109q55 -23 121 -23q174 0 291.5 107.5t117.5 267.5q0 162 -116.5 268.5t-290.5 106.5q-70 0 -123 -29v-698z" />
<glyph unicode="&#x445;" horiz-adv-x="1159" d="M53 0v92h166l293 391l-262 346h-178v93h245q123 -162 263 -349l262 349h245v-93h-180l-258 -346l291 -391h168v-92h-231l-297 391l-293 -391h-234z" />
<glyph unicode="&#x446;" horiz-adv-x="1423" d="M88 0v92h186v737h-186v93h485v-93h-186v-737h606v737h-186v93h485v-93h-186v-737h237v-375h-106v283h-1149z" />
<glyph unicode="&#x447;" horiz-adv-x="1343" d="M53 829v93h486v-93h-187v-206q0 -199 234 -199q90 0 178 31.5t127 56.5t65 49v268h-186v93h487v-93h-188v-737h188v-92h-542v92h241v373q-160 -135 -395 -135q-156 0 -238.5 73.5t-82.5 219.5v206h-187z" />
<glyph unicode="&#x448;" horiz-adv-x="2064" d="M88 0v92h186v737h-186v93h485v-93h-186v-737h590v737h-189v93h488v-93h-189v-737h590v737h-186v93h485v-93h-186v-737h186v-92h-1888z" />
<glyph unicode="&#x449;" horiz-adv-x="2109" d="M88 0v92h186v737h-186v93h485v-93h-186v-737h590v737h-189v93h488v-93h-189v-737h590v737h-186v93h485v-93h-186v-737h238v-375h-107v283h-1833z" />
<glyph unicode="&#x44a;" horiz-adv-x="1370" d="M82 637v285h702v-93h-186v-284h379q152 0 231.5 -78t79.5 -196.5t-82 -194.5t-231 -76h-676v92h186v737h-297v-192h-106zM598 92h365q104 0 156 52.5t52 123.5q0 74 -52 129.5t-154 55.5h-367v-361z" />
<glyph unicode="&#x44b;" horiz-adv-x="1701" d="M88 0v92h186v737h-186v93h485v-93h-186v-284h379q152 0 231.5 -78t79.5 -196.5t-82 -194.5t-231 -76h-676zM387 92h365q104 0 155 52.5t51 123.5q0 74 -51 129.5t-153 55.5h-367v-361zM1133 0v92h188v737h-188v93h487v-93h-186v-737h186v-92h-487z" />
<glyph unicode="&#x44c;" horiz-adv-x="1159" d="M88 0v92h186v737h-186v93h485v-93h-186v-284h379q152 0 231.5 -78t79.5 -196.5t-82 -194.5t-231 -76h-676zM387 92h365q104 0 155 52.5t51 123.5q0 74 -51 129.5t-153 55.5h-367v-361z" />
<glyph unicode="&#x44d;" horiz-adv-x="1153" d="M100 162v182h107v-145q10 -12 32.5 -30.5t100.5 -50.5t168 -32q168 0 278.5 94t126.5 242h-469v92h467q-18 141 -129.5 231.5t-277.5 90.5q-92 0 -167 -29t-104 -57l-26 -29v-146h-107v183q4 6 14.5 18t45.5 43t78 53.5t114.5 42t153.5 19.5q233 0 377.5 -133t144.5 -338 t-147.5 -340t-370.5 -135q-78 0 -148.5 18.5t-116.5 43t-80 50t-50 43.5z" />
<glyph unicode="&#x44e;" horiz-adv-x="1654" d="M88 0v92h186v737h-186v93h485v-93h-186v-313h270q18 180 145.5 299t305.5 119q190 0 321.5 -136t131.5 -337t-131.5 -337t-321.5 -136q-184 0 -312 125t-141 313h-268v-334h186v-92h-485zM768 461q0 -160 97.5 -267.5t242.5 -107.5t242.5 107.5t97.5 267.5 q0 162 -97.5 268.5t-242.5 106.5t-242.5 -106.5t-97.5 -268.5z" />
<glyph unicode="&#x44f;" horiz-adv-x="1232" d="M82 0v92h154l178 305q-139 8 -211 82t-72 183q0 113 82 186.5t231 73.5h701v-93h-187v-737h187v-92h-488v92h189v305h-307l-232 -397h-225zM250 664q0 -70 52.5 -122.5t152.5 -52.5h391v340h-389q-102 0 -154.5 -49t-52.5 -116z" />
<glyph unicode="&#x450;" horiz-adv-x="1157" d="M94 463q0 203 143.5 337t368.5 134q207 0 326 -116t119 -292l-9 -98h-837q12 -150 121.5 -246t281.5 -96q100 0 190.5 35t131.5 69l39 35l57 -59q-6 -8 -17.5 -19.5t-51 -42t-85 -54t-118 -43t-150.5 -19.5q-219 0 -364.5 135t-145.5 340zM209 514h735q0 150 -89 236 t-247 86q-166 0 -274.5 -90.5t-124.5 -231.5zM356 1346h138l182 -273h-80z" />
<glyph unicode="&#x451;" horiz-adv-x="1157" d="M94 463q0 203 143.5 337t368.5 134q207 0 326 -116t119 -292l-9 -98h-837q12 -150 121.5 -246t281.5 -96q100 0 190.5 35t131.5 69l39 35l57 -59q-6 -8 -17.5 -19.5t-51 -42t-85 -54t-118 -43t-150.5 -19.5q-219 0 -364.5 135t-145.5 340zM209 514h735q0 150 -89 236 t-247 86q-166 0 -274.5 -90.5t-124.5 -231.5zM295 1147q0 29 20.5 49.5t49 20.5t49 -20.5t20.5 -49.5t-20.5 -49.5t-49 -20.5t-49 20.5t-20.5 49.5zM723 1147q0 29 20.5 49.5t49 20.5t49 -20.5t20.5 -49.5t-20.5 -49.5t-49 -20.5t-49 20.5t-20.5 49.5z" />
<glyph unicode="&#x452;" horiz-adv-x="1308" d="M33 1124v72h207v248h-187v92h299v-340h441v-72h-441v-389q25 31 67 68t151.5 84t232.5 47q162 0 244.5 -82t82.5 -227v-840q0 -168 -74.5 -238.5t-262.5 -70.5v92q115 0 170 44t55 173v840q0 217 -240 217q-104 0 -206.5 -47t-147.5 -86t-72 -72v-545h187v-92h-486v92 h187v1032h-207z" />
<glyph unicode="&#x453;" horiz-adv-x="1107" d="M88 0v92h186v737h-186v93h916v-285h-107v192h-510v-737h242v-92h-541zM459 1069l180 270h137l-237 -270h-80z" />
<glyph unicode="&#x454;" horiz-adv-x="1153" d="M94 463q0 201 147.5 336t374.5 135q84 0 156 -19.5t116 -47t75.5 -56.5t44.5 -49l14 -19v-202h-107v166q-10 14 -29.5 35.5t-96 57.5t-171.5 36q-164 0 -276.5 -90.5t-130.5 -231.5h522v-92h-524q16 -147 129 -241.5t283 -94.5q98 0 185 35t124 69l39 35l57 -59 q-6 -8 -16.5 -19.5t-48 -42t-81.5 -54t-115 -43t-149 -19.5q-221 0 -371.5 136t-150.5 339z" />
<glyph unicode="&#x455;" horiz-adv-x="1048" d="M119 109v202h106v-141q4 -4 10.5 -9t32 -20.5t57 -27t88 -20.5t119.5 -9q135 0 212 39t77 115q0 35 -18.5 61.5t-42 43.5t-73.5 33.5t-87 26t-106 25.5q-186 39 -276.5 95t-90.5 167q0 123 105.5 183.5t279.5 60.5q129 0 223 -32t125 -62l31 -33v-197h-107v142q-2 4 -8 9 t-27.5 20.5t-50 26.5t-78 20.5t-108.5 9.5q-123 0 -198.5 -38t-75.5 -110q0 -39 22.5 -67.5t79.5 -50t92 -31t123 -29.5q188 -41 282.5 -98.5t94.5 -173.5q0 -125 -107.5 -188.5t-298.5 -63.5q-133 0 -234.5 30.5t-135.5 59.5z" />
<glyph unicode="&#x456;" horiz-adv-x="626" d="M88 0v92h186v737h-186v93h299v-830h186v-92h-485zM244 1224.5q0 30.5 21.5 52t52 21.5t52 -21.5t21.5 -52t-21.5 -52t-52 -21.5t-52 21.5t-21.5 52z" />
<glyph unicode="&#x457;" horiz-adv-x="626" d="M39 1171.5q0 28.5 20.5 49t49 20.5t49 -20.5t20.5 -49t-20.5 -48t-49 -19.5t-49 19.5t-20.5 48zM88 0v92h186v737h-186v93h299v-830h186v-92h-485zM399 1171.5q0 28.5 19.5 49t48.5 20.5q31 0 50.5 -20.5t19.5 -49t-19.5 -48t-50.5 -19.5q-29 0 -48.5 19.5t-19.5 48z" />
<glyph unicode="&#x458;" horiz-adv-x="530" d="M14 -432q115 0 170.5 44t55.5 173v1044h-187v93h299v-1137q0 -168 -74.5 -238.5t-263.5 -70.5v92zM209 1224.5q0 30.5 20.5 52t53.5 21.5q31 0 52 -21.5t21 -52t-21.5 -52t-51.5 -21.5q-33 0 -53.5 21.5t-20.5 52z" />
<glyph unicode="&#x459;" horiz-adv-x="1835" d="M53 0v88q41 -8 78 -8q66 0 107 42t70.5 191.5t29.5 413.5v102h-186v93h1097v-93h-186v-284h377q152 0 232.5 -78t80.5 -196.5t-82 -194.5t-231 -76h-676v92h186v737h-499v-102q0 -289 -34 -452.5t-95.5 -225t-163.5 -61.5q-29 0 -54.5 3t-37.5 5zM1063 92h364 q104 0 155.5 52.5t51.5 123.5q0 74 -51 129.5t-153 55.5h-367v-361z" />
<glyph unicode="&#x45a;" horiz-adv-x="1912" d="M88 0v92h186v737h-186v93h485v-93h-186v-294h643v294h-186v93h485v-93h-186v-294h379q154 0 232.5 -76t78.5 -195q0 -117 -81 -190.5t-232 -73.5h-676v92h186v350h-643v-350h186v-92h-485zM1143 92h364q104 0 156.5 50.5t52.5 119.5q0 74 -52.5 127t-154.5 53h-366v-350z " />
<glyph unicode="&#x45b;" horiz-adv-x="1370" d="M33 1124v72h207v248h-187v92h299v-340h441v-72h-441v-389q25 31 67 68t151.5 84t232.5 47q162 0 244.5 -82t82.5 -227v-533h189v-92h-488v92h187v533q0 217 -240 217q-104 0 -206.5 -47t-147.5 -86t-72 -72v-545h187v-92h-486v92h187v1032h-207z" />
<glyph unicode="&#x45c;" horiz-adv-x="1241" d="M88 0v92h186v737h-186v93h485v-93h-186v-292h182l338 385h244v-93h-182l-307 -337l354 -400h172v-92h-234l-391 444h-176v-352h186v-92h-485zM524 1069l183 270h137l-240 -270h-80z" />
<glyph unicode="&#x45d;" horiz-adv-x="1454" d="M88 0v92h186v737h-186v93h485v-93h-186v-679l682 772h299v-93h-188v-737h188v-92h-487v92h188v680l-682 -772h-299zM506 1346h137l182 -273h-80z" />
<glyph unicode="&#x45e;" horiz-adv-x="1323" d="M35 829v93h246l381 -795l380 795h246v-93h-170l-643 -1341h-305v92h229l203 420q-289 596 -399 829h-168zM344 1251v123h98v-84q8 -10 23.5 -26.5t74 -43t130.5 -26.5q45 0 85 10t65.5 23.5t43 28t25.5 24.5l8 10v84h98v-123q-4 -6 -11 -16t-35.5 -35.5t-63.5 -45 t-92.5 -36t-123 -16.5t-123 15.5t-92 37t-61 44t-37.5 38.5z" />
<glyph unicode="&#x45f;" horiz-adv-x="1380" d="M88 0v92h186v737h-186v93h485v-93h-186v-737h606v737h-186v93h485v-93h-186v-737h186v-92h-549v-283h-106v283h-549z" />
<glyph unicode="&#x490;" horiz-adv-x="1290" d="M98 0v92h209v1249h-209v93h973v239h111v-334h-758v-1247h264v-92h-590z" />
<glyph unicode="&#x491;" horiz-adv-x="1054" d="M82 0v92h186v737h-186v93h762v192h106v-285h-569v-737h242v-92h-541z" />
<glyph unicode="&#x4d8;" horiz-adv-x="1652" d="M113 696l4 62h1302q-12 256 -188 420.5t-453 164.5q-254 0 -456 -129v-213h-113v267q8 8 25.5 19t74 42t118.5 54.5t157.5 43t191.5 19.5q338 0 551 -206t213 -517q0 -315 -214 -525t-529 -210q-307 0 -495.5 204.5t-188.5 503.5zM233 664q10 -256 161 -415t401 -159 q254 0 429 161t195 413h-1186z" />
<glyph unicode="&#x4d9;" horiz-adv-x="1157" d="M94 395l10 99h836q-12 150 -120.5 246t-280.5 96q-100 0 -190.5 -35t-131.5 -70l-39 -35l-59 60q6 8 17 19t51 42t85 54.5t118 43t151 19.5q221 0 365.5 -135t144.5 -340q0 -203 -142.5 -337t-367.5 -134q-207 0 -327 115.5t-120 291.5zM203 408q0 -152 89 -237t245 -85 q164 0 273.5 89t127.5 233h-735z" />
<glyph unicode="&#x2000;" horiz-adv-x="932" />
<glyph unicode="&#x2001;" horiz-adv-x="1864" />
<glyph unicode="&#x2002;" horiz-adv-x="932" />
<glyph unicode="&#x2003;" horiz-adv-x="1864" />
<glyph unicode="&#x2004;" horiz-adv-x="621" />
<glyph unicode="&#x2005;" horiz-adv-x="466" />
<glyph unicode="&#x2006;" horiz-adv-x="310" />
<glyph unicode="&#x2007;" horiz-adv-x="310" />
<glyph unicode="&#x2008;" horiz-adv-x="233" />
<glyph unicode="&#x2009;" horiz-adv-x="372" />
<glyph unicode="&#x200a;" horiz-adv-x="103" />
<glyph unicode="&#x2010;" horiz-adv-x="722" d="M104 514v90h512v-90h-512z" />
<glyph unicode="&#x2011;" horiz-adv-x="722" d="M104 514v90h512v-90h-512z" />
<glyph unicode="&#x2012;" horiz-adv-x="722" d="M104 514v90h512v-90h-512z" />
<glyph unicode="&#x2013;" horiz-adv-x="1234" d="M104 514v90h1024v-90h-1024z" />
<glyph unicode="&#x2014;" horiz-adv-x="2258" d="M104 514v90h2048v-90h-2048z" />
<glyph unicode="&#x202f;" horiz-adv-x="372" />
<glyph unicode="&#x205f;" horiz-adv-x="466" />
<glyph unicode="&#x25fc;" horiz-adv-x="921" d="M0 0v922h922v-922h-922z" />
</font>
</defs>
</svg>
