<?xml version="1.0" standalone="no"?>
<!DOCTYPE svg PUBLIC "-//W3C//DTD SVG 1.1//EN" "http://www.w3.org/Graphics/SVG/1.1/DTD/svg11.dtd" >
<svg xmlns="http://www.w3.org/2000/svg" xmlns:xlink="http://www.w3.org/1999/xlink" version="1.1">
<metadata></metadata>
<defs>
<font id="drugsregular" horiz-adv-x="1259" >
<font-face units-per-em="2048" ascent="1638" descent="-410" />
<missing-glyph horiz-adv-x="471" />
<glyph horiz-adv-x="0" />
<glyph horiz-adv-x="682" />
<glyph unicode=" "  horiz-adv-x="471" />
<glyph unicode="&#x09;" horiz-adv-x="471" />
<glyph unicode="&#xa0;" horiz-adv-x="471" />
<glyph unicode="!" horiz-adv-x="552" d="M215 41q0 23 19 42t42 19t42.5 -19t19.5 -42t-19.5 -42t-42.5 -19t-42 19t-19 42zM246 696v738h61v-738l-20 -368h-21z" />
<glyph unicode="&#x22;" horiz-adv-x="696" d="M154 1167v267h61v-267l-20 -245h-21zM481 1167v267h62v-267l-21 -245h-20z" />
<glyph unicode="#" horiz-adv-x="1474" d="M41 451l10 41h318l163 491h-317l10 41h318l143 451h62l-144 -451h451l143 451h62l-144 -451h318l-11 -41h-317l-164 -491h318l-11 -41h-317l-144 -451h-61l143 451h-450l-144 -451h-61l143 451h-317zM430 492h451l163 491h-450z" />
<glyph unicode="$" d="M82 276l31 21q3 -6 9.5 -17t30 -41.5t50.5 -58.5t73.5 -62.5t97.5 -59t122.5 -41.5t148.5 -17q101 0 186.5 30t143 81t89.5 118t32 140q0 79 -51 139t-132 99t-179.5 73t-197 70t-179.5 80t-132 114.5t-51 161.5q0 65 33.5 129.5t90 116.5t140 85.5t176.5 37.5v204h41 v-204q63 0 122.5 -14t105 -36.5t86.5 -50t69 -55t48.5 -50t29.5 -36.5l10 -14l-30 -21q-6 10 -18 25.5t-54.5 56.5t-89.5 72t-123 56.5t-156 25.5q-184 0 -301.5 -99t-117.5 -229q0 -79 51 -139t132 -99t179 -73t196.5 -70t179.5 -80t132 -114.5t51 -161.5 q0 -108 -60.5 -201t-177 -151t-264.5 -58v-205h-41v205q-71 0 -138.5 17.5t-119 45.5t-97.5 61.5t-77.5 67.5t-54.5 62t-34 45z" />
<glyph unicode="%" horiz-adv-x="1699" d="M82 1126q0 152 94 250.5t234 98.5q139 0 233 -98.5t94 -250.5t-93.5 -250t-233.5 -98t-234 98t-94 250zM143 1126q0 -135 78.5 -221t188.5 -86t188 86t78 221t-78 221.5t-188 86.5t-188.5 -86.5t-78.5 -221.5zM389 0l860 1434h62l-860 -1434h-62zM963 307q0 152 93.5 250 t233.5 98t234 -98t94 -250t-94 -250t-234 -98t-233.5 98t-93.5 250zM1024 307q0 -135 78 -221t188 -86t188 86t78 221t-78 221t-188 86t-188 -86t-78 -221z" />
<glyph unicode="&#x26;" horiz-adv-x="1361" d="M102 369q0 86 37 167t89.5 135.5t105.5 96.5t90 62l37 20v10q-6 6 -16.5 17.5t-37 46t-47 69t-37 83t-16.5 91.5q0 129 105.5 218.5t283.5 89.5q74 0 141.5 -23.5t111 -56.5t75.5 -66t46 -57l15 -23l-30 -20q-5 8 -15.5 22t-46 49.5t-74 62.5t-99.5 49t-124 22 q-149 0 -238 -77.5t-89 -189.5q0 -43 17 -90.5t41 -84.5t47.5 -68t40.5 -48l17 -16l512 -543q3 5 8.5 15.5t20 44.5t25 70.5t19.5 93.5t9 114h41q0 -63 -9.5 -124t-23 -103.5t-27 -75.5t-23.5 -49l-9 -16l266 -287h-71l-226 246q-3 -6 -10 -16.5t-30 -40t-49.5 -57 t-69 -60.5t-88.5 -56.5t-107.5 -40t-126.5 -16.5q-203 0 -332 119t-129 291zM164 369q0 -156 112 -262.5t287 -106.5q61 0 118.5 15t101 39.5t82.5 54t65.5 59t46 54t28.5 39.5l9 15l-512 543q-7 -3 -19 -9t-47.5 -26.5t-67 -44.5t-70.5 -64t-67.5 -82.5t-47.5 -101.5 t-19 -122z" />
<glyph unicode="'" horiz-adv-x="368" d="M154 1167v267h61v-267l-20 -245h-21z" />
<glyph unicode="(" horiz-adv-x="737" d="M195 553q0 108 16.5 213.5t44.5 191.5t64 166t75.5 143t79.5 117t76 92.5t64 66t45 41.5l16 13l20 -30q-9 -8 -25 -23t-61.5 -67t-87 -109.5t-92.5 -149t-87.5 -187t-61.5 -222t-25 -256.5t24.5 -256t63 -223.5t85.5 -185.5t94 -150.5t85.5 -108t63.5 -67.5l24 -23 l-20 -31q-10 8 -27.5 22.5t-67.5 66.5t-95 110t-100.5 151t-95.5 192t-67.5 232t-27.5 271z" />
<glyph unicode=")" horiz-adv-x="737" d="M41 -461q9 8 25 23t61.5 67t87 109.5t92.5 149t87.5 187t61.5 222t25 256.5t-24.5 256t-63 223.5t-85.5 185.5t-94 150.5t-85.5 108t-62.5 67.5l-25 23l20 30q10 -8 27.5 -22.5t67.5 -66t95.5 -109.5t101 -151t95.5 -192t67.5 -232t27.5 -271t-26.5 -270t-69 -233 t-94 -191.5t-103 -153t-94 -108t-68.5 -67.5l-27 -22z" />
<glyph unicode="*" horiz-adv-x="870" d="M102 1157l11 51l297 -92v318h51v-318l297 92l10 -51l-287 -92l195 -266l-41 -31l-195 268h-10l-194 -268l-41 31l194 266z" />
<glyph unicode="+" horiz-adv-x="1054" d="M82 696v52h420v430h51v-430h420v-52h-420v-430h-51v430h-420z" />
<glyph unicode="," horiz-adv-x="389" d="M82 -195q5 3 12.5 8.5t27 23.5t34.5 37.5t27 48t12 57.5q-23 0 -42.5 19t-19.5 42t19.5 42t42.5 19q24 0 42.5 -20.5t18.5 -50.5q0 -49 -16 -93t-38.5 -72.5t-45 -50t-38.5 -31.5l-16 -9z" />
<glyph unicode="-" horiz-adv-x="1003" d="M82 696v52h840v-52h-840z" />
<glyph unicode="." horiz-adv-x="389" d="M133 41q0 23 19.5 42t42.5 19t42 -19t19 -42t-19 -42t-42 -19t-42.5 19t-19.5 42z" />
<glyph unicode="/" horiz-adv-x="849" d="M82 -102l635 1638h51l-635 -1638h-51z" />
<glyph unicode="0" horiz-adv-x="1474" d="M133 717q0 172 49.5 316.5t133.5 240t193 148.5t228 53t228 -53t193 -148.5t133.5 -240t49.5 -316.5t-49.5 -316.5t-133.5 -240t-193 -148.5t-228 -53t-228 53t-193 148.5t-133.5 240t-49.5 316.5zM195 717q0 -164 46 -301.5t122 -227t173 -139t201 -49.5t201.5 49.5 t173.5 139t122 227t46 301.5t-46 301.5t-122 227t-173.5 139t-201.5 49.5t-201 -49.5t-173 -139t-122 -227t-46 -301.5z" />
<glyph unicode="1" horiz-adv-x="747" d="M82 1126l389 308h41v-1434h-61v1341h-11l-327 -256z" />
<glyph unicode="2" horiz-adv-x="1187" d="M82 0v41q19 12 51 33.5t124.5 90t176.5 138t187 169.5t177 193.5t124.5 200.5t50.5 199q0 157 -116 263t-304 106q-80 0 -155 -24.5t-124.5 -59t-87.5 -69t-56 -59.5l-17 -24l-31 21q7 10 19.5 27.5t57.5 61.5t95.5 78t131.5 61.5t167 27.5q217 0 349 -118t132 -292 q0 -72 -29 -153t-78.5 -157t-113 -153t-134 -145.5t-141 -131t-134 -112t-113 -86.5t-78.5 -57l-29 -19v-10h901l-10 -41h-993z" />
<glyph unicode="3" horiz-adv-x="1177" d="M61 215l31 21q6 -10 18.5 -25.5t55.5 -56.5t92 -72t129 -56.5t166 -25.5q211 0 336 113t125 286t-125.5 286.5t-335.5 113.5q-36 0 -74.5 -7.5t-58.5 -15.5l-21 -8l-20 39l584 575v11h-840v41h901v-52l-553 -542v-11q41 11 82 11q240 0 381 -125.5t141 -315.5t-141 -315 t-381 -125q-92 0 -176.5 26.5t-139.5 64t-96.5 75t-60.5 63.5z" />
<glyph unicode="4" horiz-adv-x="1290" d="M82 410v51l840 973h61v-983h266l-10 -41h-256v-410h-61v410h-840zM143 451h779v901h-11l-768 -891v-10z" />
<glyph unicode="5" horiz-adv-x="1218" d="M102 215l31 21q6 -10 18.5 -25.5t55.5 -56.5t92 -72t129 -56.5t166 -25.5q205 0 333 121.5t128 308.5t-128 308.5t-333 121.5q-60 0 -118 -10.5t-98 -25.5t-71 -30t-46 -26l-15 -10l-41 20l102 656h758l-10 -41h-697l-82 -564h11q4 3 12 8t37 17t61.5 21.5t86 17.5 t110.5 8q234 0 378 -134t144 -337t-144 -337t-378 -134q-92 0 -176.5 26.5t-139.5 64t-96.5 75t-60.5 63.5z" />
<glyph unicode="6" d="M133 614q0 352 226 580.5t602 259.5l12 -33q-367 -52 -565 -243.5t-213 -501.5h10q7 9 20.5 24t59 54t95.5 68.5t128 54t158 24.5q214 0 352.5 -135t138.5 -336t-138.5 -336t-352.5 -135q-112 0 -208.5 44t-169 125.5t-114 206.5t-41.5 279zM195 594q0 -138 37.5 -252 t102 -188t149.5 -114t182 -40q184 0 307 123t123 307t-123 307t-307 123q-59 0 -116.5 -14t-102.5 -36.5t-86.5 -50t-71 -55t-51 -50t-32.5 -36.5l-11 -14v-10z" />
<glyph unicode="7" horiz-adv-x="1085" d="M61 1393v41h943v-41l-635 -1393h-62l635 1382v11h-881z" />
<glyph unicode="8" horiz-adv-x="1310" d="M123 369q0 67 22.5 125t58.5 97.5t80 72t87.5 51t79.5 31.5t59 18l22 4v10q-7 2 -18 6t-44 18t-63 31.5t-66.5 46.5t-63 61.5t-44.5 78.5t-18 96q0 152 121.5 255.5t329.5 103.5q194 0 312 -104t118 -255q0 -54 -18.5 -102t-48.5 -81.5t-66 -61t-72 -44.5t-66 -28.5 t-49 -16.5l-18 -4v-10q9 -2 24.5 -6t60 -19.5t85.5 -34.5t90.5 -53t85 -72.5t60 -94.5t24.5 -119q0 -77 -38 -150.5t-106 -131.5t-172 -93t-227 -35q-115 0 -214.5 35t-166 93t-104 131.5t-37.5 150.5zM174 369q0 -69 34 -135t93.5 -118.5t149.5 -84t194 -31.5 q108 0 200 31.5t152.5 84t94.5 118.5t34 135q0 67 -27.5 124t-72 95t-97.5 68t-106.5 46.5t-98 27.5t-72.5 14l-27 4q-9 -1 -25.5 -3.5t-63.5 -14.5t-89.5 -28t-94.5 -46.5t-89.5 -68t-63 -94.5t-25.5 -124zM276 1116q0 -54 21.5 -101.5t56 -80t76 -59t83 -42.5t76 -26.5 t55.5 -14.5l22 -4q8 1 21.5 4t53 14.5t75 26.5t79 42t75 59.5t53 80t21.5 101.5q0 135 -103 226.5t-275 91.5q-179 0 -284.5 -91.5t-105.5 -226.5z" />
<glyph unicode="9" d="M102 1004q0 201 139 336t353 135q112 0 208.5 -44t168.5 -126t113.5 -207t41.5 -279q0 -352 -225.5 -580t-601.5 -259l-12 32q367 52 565 244t213 502h-10q-7 -9 -20.5 -24.5t-59 -54.5t-95.5 -68.5t-128 -54t-158 -24.5q-214 0 -353 135.5t-139 336.5zM164 1004 q0 -185 123 -308t307 -123q59 0 116.5 14t102.5 36.5t86.5 50t71 55t51 50t32.5 36.5l11 14v11q0 138 -37.5 252t-102 188t-149.5 114t-182 40q-184 0 -307 -123t-123 -307z" />
<glyph unicode=":" horiz-adv-x="389" d="M133 41q0 23 19.5 42t42.5 19t42 -19t19 -42t-19 -42t-42 -19t-42.5 19t-19.5 42zM133 983q0 23 19.5 42t42.5 19t42 -19t19 -42t-19 -42t-42 -19t-42.5 19t-19.5 42z" />
<glyph unicode=";" horiz-adv-x="389" d="M82 -195q5 3 12.5 8.5t27 23.5t34.5 37.5t27 48t12 57.5q-23 0 -42.5 19t-19.5 42t19.5 42t42.5 19q24 0 42.5 -20.5t18.5 -50.5q0 -49 -16 -93t-38.5 -72.5t-45 -50t-38.5 -31.5l-16 -9zM133 983q0 23 19.5 42t42.5 19t42 -19t19 -42t-19 -42t-42 -19t-42.5 19t-19.5 42 z" />
<glyph unicode="&#x3c;" horiz-adv-x="1024" d="M82 451v51l901 409v-61l-840 -369v-10l840 -369v-61z" />
<glyph unicode="=" horiz-adv-x="1003" d="M82 481v51h840v-51h-840zM82 901v51h840v-51h-840z" />
<glyph unicode="&#x3e;" horiz-adv-x="1024" d="M82 41v61l840 369v10l-840 369v61l901 -409v-51z" />
<glyph unicode="?" horiz-adv-x="1095" d="M41 1219q7 10 19.5 27.5t57.5 61.5t95.5 78t131.5 61.5t167 27.5q211 0 346 -125t135 -306q0 -84 -25.5 -156t-66 -121t-90 -88t-98.5 -62t-89.5 -38t-65.5 -21l-26 -5l-20 -225h-20l-21 256q10 1 26.5 3.5t64.5 16t91.5 32t96.5 55.5t91.5 82.5t64.5 116t26 154.5 q0 164 -119 277t-301 113q-80 0 -155 -24.5t-124.5 -59t-87.5 -69t-55 -59.5l-18 -24zM440 41q0 23 19.5 42t42.5 19t42 -19t19 -42t-19 -42t-42 -19t-42.5 19t-19.5 42z" />
<glyph unicode="@" horiz-adv-x="2129" d="M154 553q0 196 72.5 371t195.5 300t293.5 198t359.5 73q196 0 368 -69t293 -187t191 -280.5t70 -344.5q0 -250 -103.5 -381t-265.5 -131q-43 0 -85.5 14t-72 33.5t-52.5 39t-34 33.5l-12 14h-10q-4 -5 -12 -14.5t-34.5 -32.5t-55 -40.5t-73.5 -32t-91 -14.5 q-172 0 -280.5 119t-108.5 322t108.5 321.5t280.5 118.5q40 0 79 -10.5t66 -25.5t48 -30t31 -25l11 -11h10q1 18 6 38.5t10 32.5l5 11h61q-20 -52 -20 -154v-533q4 -5 11 -14t30 -32t47.5 -40.5t62 -32t74.5 -14.5q133 0 220 119t87 352q0 174 -65.5 329.5t-179 267.5 t-274 177.5t-341.5 65.5q-174 0 -332.5 -69.5t-274.5 -188.5t-184.5 -287t-68.5 -356q0 -189 70 -356t191 -287t293 -189t368 -69q80 0 162.5 14.5t142.5 36t108.5 42.5t73.5 35l25 15l20 -41q-9 -6 -26 -15.5t-72.5 -34t-114 -43.5t-146 -34.5t-173.5 -15.5 q-211 0 -394.5 73t-312.5 198.5t-202.5 299.5t-73.5 371zM768 543q0 -187 92.5 -293.5t235.5 -106.5q40 0 80 13.5t68.5 33t51 39.5t34.5 33l11 14v533q-4 5 -12 14t-33 32t-52 40.5t-67.5 32t-80.5 14.5q-143 0 -235.5 -106.5t-92.5 -292.5z" />
<glyph unicode="A" horiz-adv-x="1433" d="M82 0l614 1434h41l615 -1434h-72l-174 410h-799l-174 -410h-51zM328 451h757l-374 880h-9z" />
<glyph unicode="B" horiz-adv-x="1382" d="M236 0v1434h512q186 0 297.5 -97.5t111.5 -240.5q0 -66 -25.5 -121t-61.5 -86t-72 -53t-62 -30l-25 -7v-11q8 -1 21 -3.5t51.5 -14.5t73.5 -28.5t77.5 -47.5t73 -69.5t51.5 -97.5t21 -128q0 -166 -130.5 -282.5t-340.5 -116.5h-573zM297 41h512q181 0 295.5 104 t114.5 254t-114.5 254.5t-295.5 104.5h-512v-717zM297 799h451q157 0 252.5 85t95.5 212t-95.5 212t-252.5 85h-451v-594z" />
<glyph unicode="C" horiz-adv-x="1484" d="M133 717q0 221 93.5 395t254.5 268.5t359 94.5q77 0 149.5 -16.5t126 -42.5t100.5 -58t79 -63.5t54.5 -57.5t32.5 -43l11 -16l-31 -21q-7 11 -20 30t-60.5 66.5t-103 84t-147 66.5t-191.5 30q-133 0 -251.5 -52t-205.5 -144.5t-137.5 -227.5t-50.5 -293t50.5 -293 t137.5 -227.5t205.5 -144.5t251.5 -52q81 0 155.5 16.5t128.5 42.5t100.5 57.5t76.5 63.5t51.5 58t31.5 42l9 17l30 -21q-3 -7 -10 -18t-32 -44t-55 -63t-80.5 -66.5t-106.5 -63t-134.5 -44.5t-164.5 -18q-198 0 -359 94.5t-254.5 268.5t-93.5 395z" />
<glyph unicode="D" horiz-adv-x="1495" d="M236 0v1434h358q170 0 314 -54.5t243.5 -150t155 -228t55.5 -284.5t-55.5 -284.5t-155 -228t-243.5 -150t-314 -54.5h-358zM297 41h297q155 0 287 51t224 140.5t143.5 215t51.5 269.5t-51.5 269.5t-143.5 215t-224 140.5t-287 51h-297v-1352z" />
<glyph unicode="E" d="M236 0v1434h921l-10 -41h-850v-635h635l-10 -41h-625v-676h901v-41h-962z" />
<glyph unicode="F" horiz-adv-x="1177" d="M236 0v1434h901l-11 -41h-829v-676h655l-10 -41h-645v-676h-61z" />
<glyph unicode="G" horiz-adv-x="1617" d="M133 717q0 221 93.5 395t254.5 268.5t359 94.5q77 0 149.5 -16.5t126 -42.5t100.5 -58t79 -63.5t54.5 -57.5t32.5 -43l11 -16l-31 -21q-7 11 -20 30t-60.5 66.5t-103 84t-147 66.5t-191.5 30q-133 0 -251.5 -52t-205.5 -144.5t-137.5 -227.5t-50.5 -293t50.5 -293 t137.5 -227.5t205.5 -144.5t251.5 -52q73 0 141.5 14t119 36.5t95 50t74 55t51 50t31.5 36.5l10 14v440h-461v41h522v-737h-30l-21 195h-10q-7 -10 -20 -25.5t-60.5 -56.5t-103 -72t-147 -56.5t-191.5 -25.5q-198 0 -359 94.5t-254.5 268.5t-93.5 395z" />
<glyph unicode="H" horiz-adv-x="1556" d="M236 0v1434h61v-656h963v656h61v-1434h-61v737h-963v-737h-61z" />
<glyph unicode="I" horiz-adv-x="532" d="M236 0v1434h61v-1434h-61z" />
<glyph unicode="J" horiz-adv-x="563" d="M-102 -389q163 0 265.5 134t102.5 400v1289h62v-1289q0 -282 -118.5 -428.5t-311.5 -146.5v41z" />
<glyph unicode="K" horiz-adv-x="1341" d="M236 0v1434h61v-656h420l471 656h51l-481 -676l542 -758h-71l-533 737h-399v-737h-61z" />
<glyph unicode="L" horiz-adv-x="1198" d="M236 0v1434h61v-1393h860l-10 -41h-911z" />
<glyph unicode="M" horiz-adv-x="1925" d="M236 0v1434h61l655 -1127h11l665 1127h62v-1434h-62v1331h-10l-655 -1106h-31l-645 1106h-11v-1331h-40z" />
<glyph unicode="N" horiz-adv-x="1556" d="M236 0v1434h61l973 -1352h10v1352h41v-1434h-61l-973 1352h-11v-1352h-40z" />
<glyph unicode="O" horiz-adv-x="1679" d="M133 717q0 221 93.5 395t254.5 268.5t359 94.5q148 0 278.5 -55.5t224.5 -154t148.5 -240.5t54.5 -308t-54.5 -308t-148.5 -240.5t-224.5 -154t-278.5 -55.5q-198 0 -359 94.5t-254.5 268.5t-93.5 395zM195 717q0 -158 50.5 -293t137.5 -227.5t205.5 -144.5t251.5 -52 t251.5 52t205.5 144.5t137.5 227.5t50.5 293t-50.5 293t-137.5 227.5t-205.5 144.5t-251.5 52t-251.5 -52t-205.5 -144.5t-137.5 -227.5t-50.5 -293z" />
<glyph unicode="P" horiz-adv-x="1361" d="M236 0v1434h512q225 0 368.5 -131t143.5 -320t-143.5 -320t-368.5 -131h-451v-532h-61zM297 573h451q196 0 323 119t127 291t-127 291t-323 119h-451v-820z" />
<glyph unicode="Q" horiz-adv-x="1658" d="M133 717q0 221 93.5 395t254.5 268.5t359 94.5q148 0 278.5 -55.5t224.5 -154t148.5 -240.5t54.5 -308q0 -89 -14.5 -169.5t-38.5 -141.5t-55.5 -115t-66.5 -92.5t-70 -70t-66.5 -51t-55.5 -33t-39 -18.5l-14 -6q9 -10 26 -26.5t75.5 -61t124.5 -81t171.5 -71.5 t217.5 -46v-62q-94 12 -181 37t-151 55t-119.5 63t-92 63.5t-62.5 55t-38 39.5l-12 15q-112 -41 -245 -41q-198 0 -359 94.5t-254.5 268.5t-93.5 395zM195 717q0 -158 50.5 -293t137.5 -227.5t205.5 -144.5t251.5 -52t251.5 52t205.5 144.5t137.5 227.5t50.5 293t-50.5 293 t-137.5 227.5t-205.5 144.5t-251.5 52t-251.5 -52t-205.5 -144.5t-137.5 -227.5t-50.5 -293z" />
<glyph unicode="R" horiz-adv-x="1382" d="M236 0v1434h491q226 0 359 -120.5t133 -309.5q0 -71 -18 -132t-47 -101.5t-64 -73.5t-70 -51.5t-64 -31t-47 -16.5l-18 -4v-10l409 -584h-71l-400 573h-532v-573h-61zM297 614h430q196 0 313 109t117 281t-117 280.5t-313 108.5h-430v-779z" />
<glyph unicode="S" d="M82 276l31 21q3 -6 9.5 -17t30 -41.5t50.5 -58.5t73.5 -62.5t97.5 -59t122.5 -41.5t148.5 -17q101 0 186.5 30t143 81t89.5 118t32 140q0 79 -51 139t-132 99t-179.5 73t-197 70t-179.5 80t-132 114.5t-51 161.5q0 69 34 135t94.5 118.5t152.5 84t200 31.5 q63 0 122.5 -14t105 -36.5t86.5 -50t69 -55t48.5 -50t29.5 -36.5l10 -14l-30 -21q-6 10 -18 25.5t-54.5 56.5t-89.5 72t-123 56.5t-156 25.5q-184 0 -301.5 -99t-117.5 -229q0 -79 51 -139t132 -99t179 -73t196.5 -70t179.5 -80t132 -114.5t51 -161.5q0 -81 -36 -155 t-100.5 -130.5t-162.5 -90.5t-213 -34q-81 0 -156.5 17.5t-130 45.5t-102 61.5t-79 67.5t-53.5 62t-32 45z" />
<glyph unicode="T" horiz-adv-x="1208" d="M41 1393v41h1126l-10 -41h-522v-1393h-62v1393h-532z" />
<glyph unicode="U" horiz-adv-x="1556" d="M236 532v902h61v-902q0 -242 135 -387t346 -145q225 0 363.5 144t138.5 388v902h41v-902q0 -259 -151.5 -416t-391.5 -157t-391 157t-151 416z" />
<glyph unicode="V" horiz-adv-x="1351" d="M61 1434h72l549 -1332h8l549 1332h51l-594 -1434h-41z" />
<glyph unicode="W" horiz-adv-x="2078" d="M82 1434h61l430 -1342h11l430 1342h61l430 -1342h11l430 1342h51l-461 -1434h-61l-431 1341h-10l-430 -1341h-61z" />
<glyph unicode="X" horiz-adv-x="1300" d="M61 0l553 727l-522 707h72l481 -656h10l482 656h51l-512 -697l563 -737h-72l-522 686h-10l-522 -686h-52z" />
<glyph unicode="Y" horiz-adv-x="1249" d="M41 1434h72l518 -881h8l518 881h51l-553 -942v-492h-61v492z" />
<glyph unicode="Z" horiz-adv-x="1187" d="M61 0v41l953 1341v11h-912v41h983v-41l-952 -1342v-10h993l-10 -41h-1055z" />
<glyph unicode="[" horiz-adv-x="706" d="M236 -451v2007h409v-40h-348v-1926h348v-41h-409z" />
<glyph unicode="\" horiz-adv-x="849" d="M82 1536h51l635 -1638h-51z" />
<glyph unicode="]" horiz-adv-x="706" d="M61 -410h349v1926h-349v40h410v-2007h-410v41z" />
<glyph unicode="^" horiz-adv-x="911" d="M82 840l348 594h51l348 -594h-61l-307 522h-10l-308 -522h-61z" />
<glyph unicode="_" horiz-adv-x="901" d="M41 -205h819v-51h-819v51z" />
<glyph unicode="`" horiz-adv-x="450" d="M82 1434h72l215 -390h-41z" />
<glyph unicode="a" horiz-adv-x="1157" d="M92 307q0 151 108 244.5t302 93.5q91 0 193.5 -25.5t158.5 -51.5l57 -25v82q0 183 -99 286t-269 103q-57 0 -112 -16t-92.5 -38.5t-66.5 -45t-43 -38.5l-14 -16l-31 21q5 7 15.5 19t46 42t74 52.5t99.5 41.5t124 19q199 0 314.5 -115.5t115.5 -314.5v-379 q0 -68 7.5 -129.5t15.5 -88.5l8 -28h-62q-20 92 -20 184h-11q-7 -9 -19.5 -23.5t-53.5 -51.5t-86 -65.5t-113 -51.5t-137 -23q-194 0 -302 93.5t-108 244.5zM154 307q0 -134 91.5 -215.5t256.5 -81.5q69 0 136.5 24.5t114.5 59t84 69t55 59.5l19 24v246q-8 5 -23 12.5 t-61.5 26.5t-92.5 34t-110.5 27t-121.5 12q-165 0 -256.5 -81.5t-91.5 -215.5z" />
<glyph unicode="b" horiz-adv-x="1300" d="M174 0q31 92 31 246v1229h61v-625h10q6 8 18 22t52 49.5t83 62.5t110.5 49t136.5 22q224 0 373 -153.5t149 -389.5t-149 -389.5t-373 -153.5q-69 0 -136.5 22t-114.5 53.5t-84.5 63.5t-56.5 54l-18 22h-10q0 -41 -5 -87t-10 -71l-5 -26h-62zM266 246q7 -10 19.5 -25.5 t54 -56.5t86 -72t113 -56.5t137.5 -25.5q127 0 232 63t167 178.5t62 260.5t-62 260.5t-167 178.5t-232 63q-69 0 -136.5 -24.5t-114.5 -59t-84.5 -69t-56.5 -59.5l-18 -24v-532z" />
<glyph unicode="c" horiz-adv-x="1085" d="M102 512q0 155 68 280t185 194t259 69q69 0 134.5 -20t109.5 -48.5t78.5 -57.5t51.5 -49l16 -20l-31 -20q-5 7 -15.5 19t-46 42t-74 52.5t-99.5 41.5t-124 19q-188 0 -319 -141.5t-131 -360.5t131 -360.5t319 -141.5q74 0 143 22t113.5 53.5t78.5 63.5t49 54l16 22 l30 -20q-3 -5 -9 -13.5t-26.5 -33t-43.5 -47t-61 -49.5t-79 -46.5t-96.5 -33t-114.5 -13.5q-142 0 -259 69t-185 194t-68 280z" />
<glyph unicode="d" horiz-adv-x="1300" d="M102 512q0 236 149.5 389.5t373.5 153.5q69 0 135.5 -21t112 -51.5t81.5 -60.5t53 -51l17 -21h10v625h62v-1229q0 -68 7.5 -129.5t14.5 -88.5l8 -28h-61q-21 92 -21 184h-10q-7 -9 -19.5 -23.5t-53.5 -51.5t-86 -65.5t-113 -51.5t-137 -23q-224 0 -373.5 153.5 t-149.5 389.5zM164 512q0 -145 62 -260.5t167 -178.5t232 -63q69 0 136.5 24.5t114.5 59t84 69t56 59.5l18 24v532q-7 10 -19.5 25.5t-53.5 56.5t-86 72t-113 56.5t-137 25.5q-127 0 -232 -63t-167 -178.5t-62 -260.5z" />
<glyph unicode="e" horiz-adv-x="1177" d="M102 512q0 116 39.5 218t106.5 173t157 111.5t189 40.5q98 0 188.5 -40.5t157 -109.5t106 -166.5t39.5 -206.5q0 -9 -2.5 -19t-4.5 -15l-3 -6h-911q0 -135 61 -246t164 -173.5t225 -62.5q74 0 143 22t113.5 53.5t78.5 63.5t49 54l16 22l30 -20q-3 -5 -9 -13.5t-26.5 -33 t-43.5 -47t-61 -49.5t-79 -46.5t-96.5 -33t-114.5 -13.5q-142 0 -259 69t-185 194t-68 280zM164 532h860q0 101 -35.5 191.5t-95 153.5t-137.5 100t-162 37t-162 -37t-137.5 -100t-95 -153.5t-35.5 -191.5z" />
<glyph unicode="f" horiz-adv-x="757" d="M41 963v41h225v102q0 159 94 258.5t234 99.5q46 0 90.5 -13.5t74.5 -33t54 -39.5t35 -34l12 -13l-31 -20q-4 5 -11 12.5t-30.5 26.5t-49 34t-65 27t-79.5 12q-111 0 -188.5 -87.5t-77.5 -229.5v-102h368l-10 -41h-358v-963h-62v963h-225z" />
<glyph unicode="g" horiz-adv-x="1300" d="M102 530q0 146 68.5 266t188.5 188.5t266 68.5q69 0 136.5 -22t114.5 -54t84 -63.5t56 -53.5l18 -22h10q0 41 5 87t11 71l5 26h61q-30 -92 -30 -246v-756q0 -208 -135.5 -339.5t-356.5 -131.5q-74 0 -141.5 20t-111 48.5t-75.5 57.5t-46 49l-15 20l31 20q5 -7 14 -19 t41.5 -42t70.5 -52.5t100.5 -41.5t131.5 -19q192 0 311 119t119 311v193h-10q-6 -8 -18 -22t-51.5 -49.5t-83 -62.5t-110.5 -49t-136 -22q-146 0 -266 68t-188.5 188t-68.5 266zM164 530q0 -205 134 -343t327 -138q69 0 136.5 24.5t114.5 59t84 69t56 58.5l18 25v491 q-7 10 -19.5 25.5t-53.5 56.5t-86 72t-113 56.5t-137 25.5q-193 0 -327 -138t-134 -344z" />
<glyph unicode="h" horiz-adv-x="1280" d="M205 0v1475h61v-625h10q6 8 18 22t52 49.5t83 62.5t110.5 49t136.5 22q191 0 305.5 -111t114.5 -289v-655h-62v655q0 154 -102 256.5t-256 102.5q-69 0 -136.5 -24.5t-114.5 -59t-84.5 -69t-56.5 -59.5l-18 -24v-778h-61z" />
<glyph unicode="i" horiz-adv-x="471" d="M174 1393q0 23 19.5 42t42.5 19t42 -19t19 -42t-19 -42.5t-42 -19.5t-42.5 19.5t-19.5 42.5zM205 0v1024h61v-1024h-61z" />
<glyph unicode="j" horiz-adv-x="501" d="M-113 -389q159 0 254 110.5t95 319.5v983h61v-983q0 -226 -111 -348.5t-299 -122.5v41zM205 1393q0 23 19 42t42 19t42.5 -19t19.5 -42t-19.5 -42.5t-42.5 -19.5t-42 19.5t-19 42.5z" />
<glyph unicode="k" horiz-adv-x="1064" d="M205 0v1475h61v-922h338l318 471h51l-328 -481l379 -543h-72l-358 512h-328v-512h-61z" />
<glyph unicode="l" horiz-adv-x="471" d="M205 0v1475h61v-1475h-61z" />
<glyph unicode="m" horiz-adv-x="1904" d="M174 1024h62q20 -92 20 -184h10q6 9 17 23.5t47.5 51.5t75.5 65.5t99 51.5t120 23q52 0 99.5 -13t81.5 -34t62.5 -46t47 -50t31.5 -46t19 -34l5 -13h10q6 10 18 25.5t50.5 56.5t79 72t102 56.5t121.5 25.5q156 0 262 -112.5t106 -287.5v-655h-61v655q0 157 -90 258 t-217 101q-60 0 -120.5 -26.5t-103 -64t-77 -75t-51.5 -64.5l-17 -26q10 -62 10 -103v-655h-61v655q0 157 -90 258t-217 101q-60 0 -119 -24.5t-100.5 -59t-74.5 -69t-49 -59.5l-16 -24v-778h-61v778q0 68 -7.5 129.5t-15.5 88.5z" />
<glyph unicode="n" horiz-adv-x="1280" d="M174 1024h62q20 -92 20 -184h10q7 9 19.5 23.5t54 51.5t86 65.5t113 51.5t137.5 23q191 0 305.5 -111t114.5 -289v-655h-62v655q0 154 -102 256.5t-256 102.5q-69 0 -136.5 -24.5t-114.5 -59t-84.5 -69t-56.5 -59.5l-18 -24v-778h-61v778q0 68 -7.5 129.5t-15.5 88.5z " />
<glyph unicode="o" horiz-adv-x="1228" d="M102 512q0 155 68 280t185 194t259 69t259 -69t185 -194t68 -280t-68 -280t-185 -194t-259 -69t-259 69t-185 194t-68 280zM164 512q0 -219 131 -360.5t319 -141.5q92 0 174.5 37t143.5 102t97 159.5t36 203.5t-36 203.5t-97 159.5t-143.5 102t-174.5 37 q-188 0 -319 -141.5t-131 -360.5z" />
<glyph unicode="p" horiz-adv-x="1300" d="M174 1024h62q20 -92 20 -184h10q7 9 19.5 23.5t54 51.5t86 65.5t113 51.5t137.5 23q224 0 373 -153.5t149 -389.5t-149 -389.5t-373 -153.5q-69 0 -135.5 21t-112 51t-81.5 60.5t-53 51.5l-18 21h-10v-584h-61v1188q0 68 -7.5 129.5t-15.5 88.5zM266 246 q7 -10 19.5 -25.5t54 -56.5t86 -72t113 -56.5t137.5 -25.5q127 0 232 63t167 178.5t62 260.5t-62 260.5t-167 178.5t-232 63q-69 0 -136.5 -24.5t-114.5 -59t-84.5 -69t-56.5 -59.5l-18 -24v-532z" />
<glyph unicode="q" horiz-adv-x="1300" d="M102 512q0 236 149.5 389.5t373.5 153.5q69 0 136.5 -22t114.5 -54t84 -63.5t56 -53.5l18 -22h10q0 41 5 87t11 71l5 26h61q-30 -92 -30 -246v-1188h-62v584h-10q-6 -8 -18 -22t-51.5 -49.5t-83 -62.5t-110.5 -49t-136 -22q-224 0 -373.5 153.5t-149.5 389.5zM164 512 q0 -145 62 -260.5t167 -178.5t232 -63q69 0 136.5 24.5t114.5 59t84 69t56 59.5l18 24v532q-7 10 -19.5 25.5t-53.5 56.5t-86 72t-113 56.5t-137 25.5q-127 0 -232 -63t-167 -178.5t-62 -260.5z" />
<glyph unicode="r" horiz-adv-x="788" d="M174 1024h62q20 -92 20 -184h10q6 9 17 23.5t48 51.5t77 65.5t102 51.5t125 23q36 0 69.5 -5.5t48.5 -10.5l15 -5l-20 -51q-52 21 -113 21q-63 0 -124 -23.5t-103.5 -56.5t-76 -66t-49.5 -56l-16 -24v-778h-61v778q0 68 -7.5 129.5t-15.5 88.5z" />
<glyph unicode="s" horiz-adv-x="962" d="M61 205l31 20q5 -9 15.5 -23.5t47 -51.5t77 -65.5t105.5 -51.5t134 -23q161 0 254.5 75t93.5 181q0 62 -38.5 106t-100 69.5t-135.5 45.5t-148 42.5t-135.5 52t-100 81.5t-38.5 125q0 107 100.5 187t268.5 80q63 0 124 -18t103.5 -43.5t75.5 -51t49 -43.5l16 -18l-31 -21 q-5 6 -15.5 16.5t-44 37t-70.5 47t-93.5 37t-113.5 16.5q-139 0 -223.5 -68t-84.5 -158q0 -62 38.5 -106t100 -69.5t135.5 -45.5t148.5 -42.5t136 -52t100 -81.5t38.5 -125q0 -123 -110 -210t-300 -87q-74 0 -144 24.5t-116 59t-81.5 69t-51.5 58.5z" />
<glyph unicode="t" horiz-adv-x="880" d="M41 983v41h225l31 307h31v-307h368l-10 -41h-358v-655q0 -142 77.5 -230t188.5 -88q40 0 79 11.5t66 28t48 33.5t31 29l11 11l31 -21q-4 -5 -12 -14t-34.5 -32t-55 -40.5t-73.5 -32t-91 -14.5q-140 0 -234 100t-94 259v655h-225z" />
<glyph unicode="u" horiz-adv-x="1300" d="M205 369v655h61v-655q0 -154 102.5 -256.5t256.5 -102.5q69 0 136.5 24.5t114.5 59t84 69t56 59.5l18 24v778h62v-778q0 -68 7.5 -129.5t14.5 -88.5l8 -28h-61q-21 92 -21 184h-10q-7 -9 -19.5 -23.5t-53.5 -51.5t-86 -65.5t-113 -51.5t-137 -23q-191 0 -305.5 111 t-114.5 289z" />
<glyph unicode="v" horiz-adv-x="1044" d="M41 1024h72l409 -930h10l420 930h52l-461 -1024h-41z" />
<glyph unicode="w" horiz-adv-x="1587" d="M61 1024h62l317 -942h11l317 942h61l318 -942h10l318 942h51l-348 -1024h-62l-317 942h-11l-317 -942h-61z" />
<glyph unicode="x" horiz-adv-x="993" d="M41 0l420 522l-400 502h72l359 -451h10l358 451h51l-389 -492l430 -532h-71l-389 481h-11l-389 -481h-51z" />
<glyph unicode="y" horiz-adv-x="1300" d="M205 389v635h61v-635q0 -154 102.5 -256t256.5 -102q69 0 136.5 24t114.5 58.5t84 69.5t56 59l18 24v758h62v-1004q0 -208 -135.5 -339.5t-356.5 -131.5q-74 0 -141.5 20t-111 48.5t-75.5 57.5t-46 49l-15 20l31 20q5 -7 14 -19t41.5 -42t70.5 -52.5t100.5 -41.5 t131.5 -19q192 0 311 119t119 311v175h-10q-6 -8 -18 -22t-51.5 -49.5t-83 -62.5t-110.5 -49t-136 -22q-191 0 -305.5 110.5t-114.5 288.5z" />
<glyph unicode="z" horiz-adv-x="942" d="M41 0v51l768 922v10h-727v41h799v-51l-768 -922v-10h788l-10 -41h-850z" />
<glyph unicode="{" horiz-adv-x="757" d="M82 532v41q109 0 167 62t58 184v410q0 154 87 240.5t241 86.5h61v-40h-61q-124 0 -195 -75t-71 -212v-410q0 -63 -17 -113t-41 -77t-48 -44.5t-41 -22.5l-17 -5v-8q7 -2 18 -5.5t39 -22t50 -44.5t39.5 -76.5t17.5 -113.5v-410q0 -137 71 -212t195 -75h61v-41h-61 q-154 0 -241 87t-87 241v410q0 121 -58 183t-167 62z" />
<glyph unicode="|" horiz-adv-x="573" d="M256 -246v1925h61v-1925h-61z" />
<glyph unicode="}" horiz-adv-x="757" d="M61 -410h62q124 0 195 75t71 212v410q0 46 9 85t23.5 65.5t32 47t35 32.5t32 19.5t23.5 9.5l9 3v8q-7 2 -18 5.5t-39 22t-50 44.5t-39.5 76.5t-17.5 113.5v410q0 137 -71 212t-195 75h-62v40h62q154 0 241 -86.5t87 -240.5v-410q0 -122 58 -184t167 -62v-41 q-109 0 -167 -62t-58 -183v-410q0 -154 -87 -241t-241 -87h-62v41z" />
<glyph unicode="~" horiz-adv-x="1044" d="M82 645q1 5 4 14t13 34.5t22 48.5t33 51.5t45 49t57.5 34.5t71.5 14q48 0 92.5 -23t79 -56.5t68 -66.5t72 -56t77.5 -23q43 0 80 21t59 51t38 60t22 51l6 21l41 -20q-1 -5 -4 -14t-13 -34.5t-22 -48.5t-33 -51.5t-45 -49t-57.5 -34.5t-71.5 -14q-48 0 -92.5 23t-79 56 t-68 66.5t-72 56.5t-77.5 23q-43 0 -80 -21t-59 -51t-38 -60t-22 -51l-6 -21z" />
<glyph unicode="&#xa2;" horiz-adv-x="1085" d="M102 512q0 223 134 374.5t337 166.5v196h41v-194q69 0 134.5 -20t109.5 -48.5t78.5 -57.5t51.5 -49l16 -20l-31 -20q-5 7 -15.5 19t-46 42t-74 52.5t-99.5 41.5t-124 19q-188 0 -319 -141.5t-131 -360.5t131 -360.5t319 -141.5q74 0 143 22t113.5 53.5t78.5 63.5t49 54 l16 22l30 -20q-3 -5 -9 -13.5t-26.5 -33t-43.5 -47t-61 -49.5t-79 -46.5t-96.5 -33t-114.5 -13.5v-194h-41v196q-204 15 -337.5 165.5t-133.5 375.5z" />
<glyph unicode="&#xa3;" horiz-adv-x="1116" d="M41 0v41h61q11 5 29 15t64 48t81 83t64 121.5t29 162.5v287h-226v41h226v307q0 159 93.5 258.5t233.5 99.5q46 0 90.5 -13.5t75 -33t54.5 -39.5t36 -34l11 -13l-31 -20q-4 5 -11 12.5t-31 26.5t-49.5 34t-65 27t-79.5 12q-111 0 -188.5 -87.5t-77.5 -229.5v-307h369 l-11 -41h-358v-287q0 -80 -23 -153t-56 -119.5t-66.5 -81.5t-56.5 -51l-23 -15v-10h891l-11 -41h-1044z" />
<glyph unicode="&#xa5;" horiz-adv-x="1290" d="M61 1434h72l518 -881h8l519 881h51l-447 -758h314v-41h-336l-84 -143v-123h420v-41h-420v-328h-62v328h-419v41h419v123l-84 143h-335v41h311z" />
<glyph unicode="&#xa8;" horiz-adv-x="675" d="M82 1393q0 23 19 42t42 19t42.5 -19t19.5 -42t-19.5 -42.5t-42.5 -19.5t-42 19.5t-19 42.5zM471 1393q0 23 19 42t42 19t42.5 -19t19.5 -42t-19.5 -42.5t-42.5 -19.5t-42 19.5t-19 42.5z" />
<glyph unicode="&#xa9;" horiz-adv-x="2150" d="M154 553q0 196 72.5 371t195.5 300t293.5 198t359.5 73t359.5 -73t294 -198t196 -300t72.5 -371t-72.5 -371t-196 -300t-294 -198t-359.5 -73t-359.5 73t-293.5 198t-195.5 300t-72.5 371zM215 553q0 -188 68.5 -356t184.5 -287t274.5 -188.5t332.5 -69.5t332.5 69.5 t274.5 188.5t184.5 287t68.5 356t-68.5 356t-184.5 287t-274.5 188.5t-332.5 69.5t-332.5 -69.5t-274.5 -188.5t-184.5 -287t-68.5 -356zM686 543q0 191 122.5 315.5t307.5 124.5q46 0 91.5 -12.5t77.5 -30.5t57.5 -36.5t37.5 -31.5l13 -12l-31 -31q-4 5 -12 12.5t-33.5 27 t-52.5 34.5t-67.5 27t-80.5 12q-156 0 -262 -112t-106 -287t106 -287.5t262 -112.5q47 0 93 13.5t77.5 33t57 39.5t37.5 33l12 14l30 -30q-5 -6 -14.5 -15.5t-40.5 -34.5t-64.5 -44t-84.5 -34.5t-103 -15.5q-185 0 -307.5 125t-122.5 316z" />
<glyph unicode="&#xab;" horiz-adv-x="798" d="M102 532l215 390h62l-215 -385v-9l215 -385h-62zM420 532l215 390h61l-215 -385v-9l215 -385h-61z" />
<glyph unicode="&#xad;" horiz-adv-x="1003" d="M82 696v52h840v-52h-840z" />
<glyph unicode="&#xae;" horiz-adv-x="2150" d="M154 553q0 196 72.5 371t195.5 300t293.5 198t359.5 73t359.5 -73t294 -198t196 -300t72.5 -371t-72.5 -371t-196 -300t-294 -198t-359.5 -73t-359.5 73t-293.5 198t-195.5 300t-72.5 371zM215 553q0 -188 68.5 -356t184.5 -287t274.5 -188.5t332.5 -69.5t332.5 69.5 t274.5 188.5t184.5 287t68.5 356t-68.5 356t-184.5 287t-274.5 188.5t-332.5 69.5t-332.5 -69.5t-274.5 -188.5t-184.5 -287t-68.5 -356zM788 123v840h349q120 0 198 -72t78 -174q0 -52 -20 -95t-48.5 -68t-57 -42.5t-48.5 -23.5l-20 -7v-10l235 -348h-72l-235 348h-297 v-348h-62zM850 512h287q91 0 153 60t62 145t-62 145t-153 60h-287v-410z" />
<glyph unicode="&#xb4;" horiz-adv-x="450" d="M82 1167l215 389h72l-246 -389h-41z" />
<glyph unicode="&#xb8;" horiz-adv-x="614" d="M82 -471l20 31q8 -8 23 -20t63.5 -32t98.5 -20q83 0 133.5 46.5t50.5 117.5t-50.5 117.5t-133.5 46.5h-62l62 184h51l-51 -143q5 0 14 -0.5t34.5 -4.5t48.5 -11t51 -22.5t48.5 -36t34.5 -54.5t14 -76q0 -88 -66.5 -146.5t-178.5 -58.5q-37 0 -72 8.5t-58 20.5t-41 24 t-26 20z" />
<glyph unicode="&#xbb;" horiz-adv-x="798" d="M102 143l215 385v9l-215 385h62l215 -390l-215 -389h-62zM420 143l215 385v9l-215 385h61l215 -390l-215 -389h-61z" />
<glyph unicode="&#x2c6;" horiz-adv-x="849" d="M82 1167l317 389h52l317 -389h-61l-277 338h-10l-277 -338h-61z" />
<glyph unicode="&#x2da;" horiz-adv-x="634" d="M82 1413q0 93 68 159t167 66t167.5 -66t68.5 -159t-68.5 -159t-167.5 -66t-167 66t-68 159zM133 1413q0 -77 53.5 -130.5t130.5 -53.5t131 54t54 130t-54 130t-131 54t-130.5 -53.5t-53.5 -130.5z" />
<glyph unicode="&#x2dc;" horiz-adv-x="819" d="M82 1280q1 8 4 22t16 49.5t30.5 62.5t50.5 49t73 22q38 0 82.5 -27t79 -60t75 -60t70.5 -27q32 0 58.5 16t41.5 38.5t25.5 44.5t14.5 38l4 16l30 -10q-1 -8 -4 -22t-16 -49.5t-30.5 -62.5t-50.5 -49t-73 -22q-38 0 -82.5 27t-79 60t-75 60t-70.5 27q-32 0 -58 -16 t-41 -38.5t-25.5 -44.5t-14.5 -38l-4 -16z" />
<glyph unicode="&#x401;" d="M236 0v1434h921l-10 -41h-850v-635h635l-10 -41h-625v-676h901v-41h-962zM440 1761q0 23 19.5 42.5t42.5 19.5t42 -19.5t19 -42.5t-19 -42t-42 -19t-42.5 19t-19.5 42zM829 1761q0 23 19.5 42.5t42.5 19.5t42 -19.5t19 -42.5t-19 -42t-42 -19t-42.5 19t-19.5 42z" />
<glyph unicode="&#x402;" horiz-adv-x="1495" d="M0 1393v41h922l-11 -41h-481v-615q10 5 28 13.5t72 29.5t106.5 37t123.5 29.5t131 13.5q234 0 368 -123.5t134 -326.5q0 -260 -132.5 -396.5t-379.5 -136.5v41q218 0 334 124.5t116 367.5q0 186 -117.5 297.5t-322.5 111.5q-96 0 -211 -31t-182 -61l-68 -31v-737h-61 v1393h-369z" />
<glyph unicode="&#x403;" horiz-adv-x="1095" d="M236 0v1434h839l-10 -41h-768v-1393h-61zM614 1597l215 390h72l-246 -390h-41z" />
<glyph unicode="&#x404;" horiz-adv-x="1484" d="M133 717q0 221 93.5 395t254.5 268.5t359 94.5q77 0 149.5 -16.5t126 -42.5t100.5 -58t79 -63.5t54.5 -57.5t32.5 -43l11 -16l-31 -21q-7 11 -20 30t-60.5 66.5t-103 84t-147 66.5t-191.5 30q-133 0 -251.5 -52t-205.5 -142.5t-137.5 -221t-50.5 -281.5h747l-10 -41h-737 q0 -151 50.5 -281.5t137.5 -221t205.5 -142t251.5 -51.5q81 0 155.5 16.5t128.5 42.5t100.5 57.5t76.5 63.5t51.5 58t31.5 42l9 17l30 -21q-3 -7 -10 -18t-32 -44t-55 -63t-80.5 -66.5t-106.5 -63t-134.5 -44.5t-164.5 -18q-198 0 -359 94.5t-254.5 268.5t-93.5 395z" />
<glyph unicode="&#x405;" d="M82 276l31 21q3 -6 9.5 -17t30 -41.5t50.5 -58.5t73.5 -62.5t97.5 -59t122.5 -41.5t148.5 -17q101 0 186.5 30t143 81t89.5 118t32 140q0 79 -51 139t-132 99t-179.5 73t-197 70t-179.5 80t-132 114.5t-51 161.5q0 69 34 135t94.5 118.5t152.5 84t200 31.5 q63 0 122.5 -14t105 -36.5t86.5 -50t69 -55t48.5 -50t29.5 -36.5l10 -14l-30 -21q-6 10 -18 25.5t-54.5 56.5t-89.5 72t-123 56.5t-156 25.5q-184 0 -301.5 -99t-117.5 -229q0 -79 51 -139t132 -99t179 -73t196.5 -70t179.5 -80t132 -114.5t51 -161.5q0 -81 -36 -155 t-100.5 -130.5t-162.5 -90.5t-213 -34q-81 0 -156.5 17.5t-130 45.5t-102 61.5t-79 67.5t-53.5 62t-32 45z" />
<glyph unicode="&#x406;" horiz-adv-x="532" d="M236 0v1434h61v-1434h-61z" />
<glyph unicode="&#x407;" horiz-adv-x="512" d="M-20 1761q0 23 19 42.5t42 19.5t42 -19.5t19 -42.5t-19 -42t-42 -19t-42 19t-19 42zM225 0v1434h62v-1434h-62zM369 1761q0 23 19 42.5t42 19.5t42.5 -19.5t19.5 -42.5t-19.5 -42t-42.5 -19t-42 19t-19 42z" />
<glyph unicode="&#x408;" horiz-adv-x="563" d="M-102 -389q163 0 265.5 134t102.5 400v1289h62v-1289q0 -282 -118.5 -428.5t-311.5 -146.5v41z" />
<glyph unicode="&#x409;" horiz-adv-x="2181" d="M0 10h72q55 0 105.5 28t94 83t74.5 145t43 205l103 963h716v-533h328q112 0 209 -36t162.5 -97t103 -143t37.5 -174q0 -189 -143.5 -320t-368.5 -131h-389v1393h-594l-102 -922q-28 -257 -130.5 -384.5t-248.5 -127.5q-14 0 -32 2.5t-29 4.5l-11 3v41zM1208 41h328 q196 0 323.5 119t127.5 291t-127.5 290.5t-323.5 118.5h-328v-819z" />
<glyph unicode="&#x40a;" horiz-adv-x="2140" d="M236 0v1434h61v-615h778v615h62v-615h399q210 0 340.5 -118t130.5 -291t-130.5 -291.5t-340.5 -118.5h-461v778h-778v-778h-61zM1137 41h399q181 0 295.5 106t114.5 263t-114.5 262.5t-295.5 105.5h-399v-737z" />
<glyph unicode="&#x40b;" horiz-adv-x="1587" d="M0 1393v41h922l-11 -41h-481v-615q10 5 28 13.5t72 29.5t106.5 37t123.5 29.5t131 13.5q234 0 368 -123.5t134 -326.5v-451h-62v451q0 186 -117.5 297.5t-322.5 111.5q-96 0 -211 -31t-182 -61l-68 -31v-737h-61v1393h-369z" />
<glyph unicode="&#x40c;" horiz-adv-x="1341" d="M236 0v1434h61v-656h420l471 656h51l-481 -676l542 -758h-71l-533 737h-399v-737h-61zM676 1597l215 390h72l-246 -390h-41z" />
<glyph unicode="&#x40e;" horiz-adv-x="1331" d="M61 1434h72l563 -1127h11l532 1127h51l-573 -1209q-69 -144 -141.5 -210t-176.5 -66q-23 0 -48.5 5t-39.5 10l-14 5v31q51 -10 102 -10q83 0 147.5 58.5t119.5 176.5zM358 1905l31 10q4 -9 11.5 -23.5t35 -51.5t59.5 -65.5t86.5 -51.5t114.5 -23t114 22t88 54t59 63.5 t36 53.5l11 22l30 -10q-3 -11 -10 -29t-35 -64t-63 -81t-96.5 -64t-133.5 -29q-52 0 -99 14.5t-80 38.5t-61 52.5t-45.5 56.5t-30 52t-17.5 38z" />
<glyph unicode="&#x40f;" horiz-adv-x="1556" d="M236 0v1434h61v-1393h963v1393h61v-1434h-512l-10 -369h-41l-10 369h-512z" />
<glyph unicode="&#x410;" horiz-adv-x="1433" d="M82 0l614 1434h41l615 -1434h-72l-174 410h-799l-174 -410h-51zM328 451h757l-374 880h-9z" />
<glyph unicode="&#x411;" horiz-adv-x="1361" d="M236 0v1434h880l-10 -41h-809v-553h451q225 0 358 -119t133 -301t-133 -301t-358 -119h-512zM297 41h451q196 0 313 107t117 272t-117 272t-313 107h-451v-758z" />
<glyph unicode="&#x412;" horiz-adv-x="1382" d="M236 0v1434h512q186 0 297.5 -97.5t111.5 -240.5q0 -66 -25.5 -121t-61.5 -86t-72 -53t-62 -30l-25 -7v-11q8 -1 21 -3.5t51.5 -14.5t73.5 -28.5t77.5 -47.5t73 -69.5t51.5 -97.5t21 -128q0 -166 -130.5 -282.5t-340.5 -116.5h-573zM297 41h512q181 0 295.5 104 t114.5 254t-114.5 254.5t-295.5 104.5h-512v-717zM297 799h451q157 0 252.5 85t95.5 212t-95.5 212t-252.5 85h-451v-594z" />
<glyph unicode="&#x413;" horiz-adv-x="1095" d="M236 0v1434h839l-10 -41h-768v-1393h-61z" />
<glyph unicode="&#x414;" horiz-adv-x="1505" d="M0 41h82q8 5 22 15t50.5 48t66 83t58.5 121.5t38 162.5l103 963h799v-1393h204v-410h-41l-20 369h-1301l-20 -369h-41v410zM154 41h1003v1352h-686l-102 -922q-11 -86 -37.5 -161t-56 -120.5t-57.5 -78.5t-46 -47l-18 -13v-10z" />
<glyph unicode="&#x415;" d="M236 0v1434h921l-10 -41h-850v-635h635l-10 -41h-625v-676h901v-41h-962z" />
<glyph unicode="&#x416;" horiz-adv-x="2068" d="M41 0l543 758l-482 676h52l471 -656h379v656h61v-656h379l471 656h51l-481 -676l543 -758h-72l-533 737h-358v-737h-61v737h-359l-532 -737h-72z" />
<glyph unicode="&#x417;" horiz-adv-x="1269" d="M61 276l31 21q3 -6 9.5 -17t30 -41.5t51 -58.5t73.5 -62.5t97.5 -59t123 -41.5t148.5 -17q134 0 238 52t158 135.5t54 181.5q0 74 -31 140t-88 117t-145.5 81t-196.5 30h-163v41h143q184 0 302 99.5t118 228.5t-118 228.5t-302 99.5q-80 0 -155 -24.5t-124.5 -59 t-87.5 -69t-55 -59.5l-18 -24l-31 21q7 10 19.5 27.5t57.5 61.5t95.5 78t131.5 61.5t167 27.5q108 0 200 -31.5t152.5 -84t94.5 -118.5t34 -135q0 -52 -17 -99t-44 -80t-59.5 -61t-65.5 -45.5t-60 -30t-44 -17.5l-17 -5v-10q8 -1 21 -4t51.5 -16t73.5 -30t77.5 -48.5t73 -70 t51.5 -96t21 -124.5q0 -81 -36 -155t-100.5 -130.5t-162.5 -90.5t-213 -34q-64 0 -124.5 11t-108 29t-91 42t-76 50.5t-60.5 52.5t-46.5 50t-32 42t-19.5 29z" />
<glyph unicode="&#x418;" horiz-adv-x="1556" d="M236 0v1434h61v-1342h10l953 1342h61v-1434h-61v1341h-11l-952 -1341h-61z" />
<glyph unicode="&#x419;" horiz-adv-x="1556" d="M236 0v1434h61v-1342h10l953 1342h61v-1434h-61v1341h-11l-952 -1341h-61zM440 1905l31 10q4 -9 11.5 -23.5t35 -51.5t59.5 -65.5t86.5 -51.5t114.5 -23q44 0 84.5 12t70.5 31t56 42t43 45.5t29.5 41.5t18.5 31l5 12l31 -10q-3 -11 -10 -29t-35 -64t-63 -81t-96.5 -64 t-133.5 -29q-52 0 -99 14.5t-80 38.5t-61 52.5t-45.5 56.5t-30 52t-17.5 38z" />
<glyph unicode="&#x41a;" horiz-adv-x="1341" d="M236 0v1434h61v-656h420l471 656h51l-481 -676l542 -758h-71l-533 737h-399v-737h-61z" />
<glyph unicode="&#x41b;" horiz-adv-x="1525" d="M0 10h72q55 0 105.5 28t94 83t74.5 145t43 205l103 963h798v-1434h-61v1393h-676l-102 -922q-28 -257 -130.5 -384.5t-248.5 -127.5q-14 0 -32 2.5t-29 4.5l-11 3v41z" />
<glyph unicode="&#x41c;" horiz-adv-x="1925" d="M236 0v1434h61l655 -1127h11l665 1127h62v-1434h-62v1331h-10l-655 -1106h-31l-645 1106h-11v-1331h-40z" />
<glyph unicode="&#x41d;" horiz-adv-x="1556" d="M236 0v1434h61v-697h963v697h61v-1434h-61v696h-963v-696h-61z" />
<glyph unicode="&#x41e;" horiz-adv-x="1679" d="M133 717q0 221 93.5 395t254.5 268.5t359 94.5q148 0 278.5 -55.5t224.5 -154t148.5 -240.5t54.5 -308t-54.5 -308t-148.5 -240.5t-224.5 -154t-278.5 -55.5q-198 0 -359 94.5t-254.5 268.5t-93.5 395zM195 717q0 -158 50.5 -293t137.5 -227.5t205.5 -144.5t251.5 -52 t251.5 52t205.5 144.5t137.5 227.5t50.5 293t-50.5 293t-137.5 227.5t-205.5 144.5t-251.5 52t-251.5 -52t-205.5 -144.5t-137.5 -227.5t-50.5 -293z" />
<glyph unicode="&#x41f;" horiz-adv-x="1556" d="M236 0v1434h1085v-1434h-61v1393h-963v-1393h-61z" />
<glyph unicode="&#x420;" horiz-adv-x="1361" d="M236 0v1434h512q225 0 368.5 -131t143.5 -320t-143.5 -320t-368.5 -131h-451v-532h-61zM297 573h451q196 0 323 119t127 291t-127 291t-323 119h-451v-820z" />
<glyph unicode="&#x421;" horiz-adv-x="1484" d="M133 717q0 221 93.5 395t254.5 268.5t359 94.5q77 0 149.5 -16.5t126 -42.5t100.5 -58t79 -63.5t54.5 -57.5t32.5 -43l11 -16l-31 -21q-7 11 -20 30t-60.5 66.5t-103 84t-147 66.5t-191.5 30q-133 0 -251.5 -52t-205.5 -144.5t-137.5 -227.5t-50.5 -293t50.5 -293 t137.5 -227.5t205.5 -144.5t251.5 -52q81 0 155.5 16.5t128.5 42.5t100.5 57.5t76.5 63.5t51.5 58t31.5 42l9 17l30 -21q-3 -7 -10 -18t-32 -44t-55 -63t-80.5 -66.5t-106.5 -63t-134.5 -44.5t-164.5 -18q-198 0 -359 94.5t-254.5 268.5t-93.5 395z" />
<glyph unicode="&#x422;" horiz-adv-x="1208" d="M41 1393v41h1126l-10 -41h-522v-1393h-62v1393h-532z" />
<glyph unicode="&#x423;" horiz-adv-x="1331" d="M61 1434h72l563 -1127h11l532 1127h51l-573 -1209q-69 -144 -141.5 -210t-176.5 -66q-23 0 -51 5t-44 10l-17 5v41q61 -20 112 -20q83 0 147.5 58.5t119.5 176.5z" />
<glyph unicode="&#x424;" horiz-adv-x="1925" d="M102 717q0 105 33.5 199.5t102.5 174.5t167 138t233 90.5t294 32.5v204h61v-204q159 0 294 -32.5t233 -90.5t167 -138t102.5 -174.5t33.5 -199.5t-33.5 -199.5t-102.5 -174.5t-167 -138t-233 -90.5t-294 -32.5v-184h-61v184q-159 0 -294 32.5t-233 90.5t-167 138 t-102.5 174.5t-33.5 199.5zM164 717q0 -124 50 -231.5t144.5 -188.5t242.5 -127.5t331 -46.5v1188q-183 0 -331 -46.5t-242.5 -127.5t-144.5 -188.5t-50 -231.5zM993 123q183 0 331 46.5t242.5 127.5t144.5 188.5t50 231.5t-50 231.5t-144.5 188.5t-242.5 127.5t-331 46.5 v-1188z" />
<glyph unicode="&#x425;" horiz-adv-x="1300" d="M61 0l553 729l-534 705h72l493 -656h10l469 656h52l-500 -695l563 -739h-72l-522 686h-10l-522 -686h-52z" />
<glyph unicode="&#x426;" horiz-adv-x="1587" d="M236 0v1434h61v-1393h942v1393h61v-1393h205v-410h-41l-20 369h-1208z" />
<glyph unicode="&#x427;" horiz-adv-x="1454" d="M195 963v471h61v-471q0 -187 117.5 -298.5t322.5 -111.5q60 0 129.5 12.5t126 30.5t104.5 36.5t74 31.5l27 12v758h62v-1434h-62v635q-10 -5 -28 -13.5t-72 -29.5t-106.5 -37t-123.5 -29.5t-131 -13.5q-234 0 -367.5 124t-133.5 327z" />
<glyph unicode="&#x428;" horiz-adv-x="2211" d="M236 0v1434h61v-1393h778v1393h62v-1393h778v1393h61v-1434h-1740z" />
<glyph unicode="&#x429;" horiz-adv-x="2263" d="M236 0v1434h61v-1393h778v1393h62v-1393h778v1393h61v-1393h205v-410h-41l-20 369h-1884z" />
<glyph unicode="&#x42a;" horiz-adv-x="1464" d="M0 1393v41h430v-533h389q112 0 209 -36t162.5 -97t103 -143t37.5 -174q0 -189 -143.5 -320t-368.5 -131h-450v1393h-369zM430 41h389q196 0 323.5 119t127.5 291t-127.5 290.5t-323.5 118.5h-389v-819z" />
<glyph unicode="&#x42b;" horiz-adv-x="1822" d="M236 0v1434h61v-533h389q112 0 209 -36t162.5 -97t103 -143t37.5 -174q0 -189 -143.5 -320t-368.5 -131h-450zM297 41h389q196 0 323.5 119t127.5 291t-127.5 290.5t-323.5 118.5h-389v-819zM1526 0v1434h61v-1434h-61z" />
<glyph unicode="&#x42c;" horiz-adv-x="1351" d="M236 0v1434h61v-533h410q112 0 209 -36t162.5 -97t103 -143t37.5 -174q0 -189 -143.5 -320t-368.5 -131h-471zM297 41h410q196 0 323 119t127 291t-127 290.5t-323 118.5h-410v-819z" />
<glyph unicode="&#x42d;" horiz-adv-x="1484" d="M61 276l31 21q3 -6 9.5 -17t30.5 -41.5t52 -58.5t76 -62.5t101 -59t128 -41.5t156 -17q133 0 251.5 51.5t205.5 142t137.5 221t50.5 281.5h-747v41h747q0 151 -50.5 281.5t-137.5 221t-205.5 142.5t-251.5 52q-73 0 -141.5 -15.5t-119 -39.5t-95 -53.5t-74 -59.5t-51 -54 t-31.5 -40l-10 -15l-31 21q4 6 11 17t32.5 41.5t55 58.5t78 62.5t101 59t125.5 41.5t150 17q198 0 359 -94.5t254.5 -268.5t93.5 -395t-93.5 -395t-254.5 -268.5t-359 -94.5q-67 0 -130.5 11t-113 29t-94.5 42t-78.5 50.5t-62 52.5t-47.5 50t-32.5 42t-19.5 29z" />
<glyph unicode="&#x42e;" horiz-adv-x="2150" d="M236 0v1434h61v-697h389q0 162 52.5 300.5t142 234t212 149.5t259.5 54q138 0 259.5 -54t211.5 -151.5t142 -240.5t52 -312t-52 -312t-142 -240.5t-211.5 -151.5t-259.5 -54q-137 0 -259.5 54t-212 149t-142 233.5t-52.5 300.5h-389v-696h-61zM748 717q0 -161 48.5 -297 t130.5 -227t192 -142t233 -51t233 51t192 142t130.5 227t48.5 297t-48.5 297t-130.5 227t-192 142t-233 51t-233 -51t-192 -142t-130.5 -227t-48.5 -297z" />
<glyph unicode="&#x42f;" horiz-adv-x="1361" d="M82 0l430 594v10q-7 2 -18.5 5.5t-46 18.5t-65.5 34t-68.5 53t-65 74t-46 99t-18.5 126q0 181 132 300.5t350 119.5h460v-1434h-61v594h-481l-430 -594h-72zM246 1014q0 -164 115.5 -271.5t304.5 -107.5h399v758h-399q-189 0 -304.5 -107.5t-115.5 -271.5z" />
<glyph unicode="&#x430;" horiz-adv-x="1157" d="M92 307q0 151 108 244.5t302 93.5q91 0 193.5 -25.5t158.5 -51.5l57 -25v82q0 183 -99 286t-269 103q-57 0 -112 -16t-92.5 -38.5t-66.5 -45t-43 -38.5l-14 -16l-31 21q5 7 15.5 19t46 42t74 52.5t99.5 41.5t124 19q199 0 314.5 -115.5t115.5 -314.5v-379 q0 -68 7.5 -129.5t15.5 -88.5l8 -28h-62q-20 92 -20 184h-11q-7 -9 -19.5 -23.5t-53.5 -51.5t-86 -65.5t-113 -51.5t-137 -23q-194 0 -302 93.5t-108 244.5zM154 307q0 -134 91.5 -215.5t256.5 -81.5q69 0 136.5 24.5t114.5 59t84 69t55 59.5l19 24v246q-8 5 -23 12.5 t-61.5 26.5t-92.5 34t-110.5 27t-121.5 12q-165 0 -256.5 -81.5t-91.5 -215.5z" />
<glyph unicode="&#x431;" horiz-adv-x="1218" d="M133 512v195q0 168 37 300t103 216t149 131.5t182 58.5l266 31q45 5 91.5 20.5t70.5 27.5l23 13v-51q-9 -7 -26 -17t-65.5 -30t-93.5 -25l-266 -30q-87 -10 -161 -54t-133 -120.5t-92.5 -197.5t-33.5 -273h11q5 11 15 29t48.5 63.5t84.5 81t124.5 64t167.5 28.5 q215 0 358.5 -143.5t143.5 -358.5t-143.5 -358.5t-358.5 -143.5q-218 0 -360 150t-142 393zM195 471q0 -198 127 -329.5t313 -131.5t313 131.5t127 329.5t-127 329.5t-313 131.5t-313 -131.5t-127 -329.5z" />
<glyph unicode="&#x432;" horiz-adv-x="1126" d="M205 0v1024h409q162 0 250 -70t88 -176q0 -46 -19 -84t-46 -60t-54 -37t-46 -21l-19 -5v-10q6 -1 16 -3t38.5 -10.5t54.5 -20t58 -33.5t55 -49t38.5 -68.5t15.5 -89.5q0 -129 -96.5 -208t-281.5 -79h-461zM266 41h400q156 0 236.5 67t80.5 179t-80.5 178.5t-236.5 66.5 h-400v-491zM266 573h348q133 0 205 58t72 147t-72 147t-205 58h-348v-410z" />
<glyph unicode="&#x433;" horiz-adv-x="911" d="M205 0v1024h686l-10 -41h-615v-983h-61z" />
<glyph unicode="&#x434;" horiz-adv-x="1218" d="M0 41h72q7 4 18.5 12.5t41.5 41t54.5 71t48 104.5t31.5 140l62 614h665v-983h164v-369h-41l-20 328h-1035l-20 -328h-41v369zM143 41h789v942h-553l-62 -573q-8 -74 -29 -138.5t-45 -103.5t-47 -67t-38 -39l-15 -11v-10z" />
<glyph unicode="&#x435;" horiz-adv-x="1177" d="M102 512q0 116 39.5 218t106.5 173t157 111.5t189 40.5q98 0 188.5 -40.5t157 -109.5t106 -166.5t39.5 -206.5q0 -9 -2.5 -19t-4.5 -15l-3 -6h-911q0 -135 61 -246t164 -173.5t225 -62.5q74 0 143 22t113.5 53.5t78.5 63.5t49 54l16 22l30 -20q-3 -5 -9 -13.5t-26.5 -33 t-43.5 -47t-61 -49.5t-79 -46.5t-96.5 -33t-114.5 -13.5q-142 0 -259 69t-185 194t-68 280zM164 532h860q0 101 -35.5 191.5t-95 153.5t-137.5 100t-162 37t-162 -37t-137.5 -100t-95 -153.5t-35.5 -191.5z" />
<glyph unicode="&#x436;" horiz-adv-x="1576" d="M41 0l379 543l-328 481h51l318 -471h297v471h61v-471h297l318 471h51l-328 -481l379 -543h-72l-358 512h-287v-512h-61v512h-287l-358 -512h-72z" />
<glyph unicode="&#x437;" horiz-adv-x="952" d="M41 205l31 20q5 -9 15.5 -23.5t47 -51.5t77 -65.5t105.5 -51.5t134 -23q161 0 254.5 75t93.5 181q0 112 -86 184t-242 72h-143v41h153q126 0 206.5 68t80.5 157q0 90 -84 158t-223 68q-57 0 -113 -16t-95 -38.5t-69.5 -45t-45.5 -38.5l-15 -16l-31 21q6 7 17 19t48 42 t77 52.5t102 41.5t125 19q168 0 268 -80t100 -187q0 -40 -13 -74.5t-33.5 -57.5t-45.5 -42t-50.5 -30t-46 -18.5t-33.5 -9.5l-13 -3v-10q11 -2 29 -6t63.5 -24t81 -47.5t64 -80.5t28.5 -119q0 -123 -109.5 -210t-299.5 -87q-74 0 -144 24.5t-116 59t-81.5 69t-51.5 58.5z " />
<glyph unicode="&#x438;" d="M205 0v1024h61v-932h10l717 932h62v-1024h-62v932h-10l-717 -932h-61z" />
<glyph unicode="&#x439;" d="M205 0v1024h61v-932h10l717 932h62v-1024h-62v932h-10l-717 -932h-61zM369 1434l30 10q4 -8 11 -21t33.5 -46.5t57 -59.5t80.5 -47t105 -21t104.5 20t81.5 48.5t56 57.5t34 49l11 20l31 -10q-3 -10 -10 -26.5t-34 -59t-60 -75t-90.5 -59t-123.5 -26.5t-123 25.5t-91 61.5 t-58.5 72t-34.5 61z" />
<glyph unicode="&#x43a;" horiz-adv-x="1064" d="M205 0v1024h61v-471h338l318 471h51l-328 -481l379 -543h-72l-358 512h-328v-512h-61z" />
<glyph unicode="&#x43b;" horiz-adv-x="1249" d="M0 10h72q85 0 155 99.5t90 300.5l62 614h665v-1024h-61v983h-543l-61 -573q-25 -226 -108.5 -338.5t-198.5 -112.5q-14 0 -32 2.5t-29 4.5l-11 3v41z" />
<glyph unicode="&#x43c;" horiz-adv-x="1536" d="M205 0v1024h61l482 -778h10l512 778h61v-1024h-61v922h-10l-502 -758h-31l-471 758h-10v-922h-41z" />
<glyph unicode="&#x43d;" d="M205 0v1024h61v-471h727v471h62v-1024h-62v512h-727v-512h-61z" />
<glyph unicode="&#x43e;" horiz-adv-x="1228" d="M102 512q0 155 68 280t185 194t259 69t259 -69t185 -194t68 -280t-68 -280t-185 -194t-259 -69t-259 69t-185 194t-68 280zM164 512q0 -219 131 -360.5t319 -141.5q92 0 174.5 37t143.5 102t97 159.5t36 203.5t-36 203.5t-97 159.5t-143.5 102t-174.5 37 q-188 0 -319 -141.5t-131 -360.5z" />
<glyph unicode="&#x43f;" d="M205 0v1024h850v-1024h-62v983h-727v-983h-61z" />
<glyph unicode="&#x440;" horiz-adv-x="1300" d="M174 1024h62q20 -92 20 -184h10q7 9 19.5 23.5t54 51.5t86 65.5t113 51.5t137.5 23q224 0 373 -153.5t149 -389.5t-149 -389.5t-373 -153.5q-69 0 -135.5 21t-112 51t-81.5 60.5t-53 51.5l-18 21h-10v-584h-61v1188q0 68 -7.5 129.5t-15.5 88.5zM266 246 q7 -10 19.5 -25.5t54 -56.5t86 -72t113 -56.5t137.5 -25.5q127 0 232 63t167 178.5t62 260.5t-62 260.5t-167 178.5t-232 63q-69 0 -136.5 -24.5t-114.5 -59t-84.5 -69t-56.5 -59.5l-18 -24v-532z" />
<glyph unicode="&#x441;" horiz-adv-x="1085" d="M102 512q0 155 68 280t185 194t259 69q69 0 134.5 -20t109.5 -48.5t78.5 -57.5t51.5 -49l16 -20l-31 -20q-5 7 -15.5 19t-46 42t-74 52.5t-99.5 41.5t-124 19q-188 0 -319 -141.5t-131 -360.5t131 -360.5t319 -141.5q74 0 143 22t113.5 53.5t78.5 63.5t49 54l16 22 l30 -20q-3 -5 -9 -13.5t-26.5 -33t-43.5 -47t-61 -49.5t-79 -46.5t-96.5 -33t-114.5 -13.5q-142 0 -259 69t-185 194t-68 280z" />
<glyph unicode="&#x442;" horiz-adv-x="942" d="M20 983v41h902l-11 -41h-409v-983h-62v983h-420z" />
<glyph unicode="&#x443;" horiz-adv-x="1044" d="M41 1024h72l430 -942h10l399 942h52l-472 -1106q-84 -199 -167 -284t-191 -85q-23 0 -46 5.5t-34 10.5l-12 5v41q41 -21 92 -21q86 0 159.5 77t147.5 251l31 72z" />
<glyph unicode="&#x444;" horiz-adv-x="1843" d="M102 512q0 247 131.5 395t329.5 148q52 0 103.5 -13.5t88.5 -33t66.5 -39.5t44.5 -33l15 -14h10v512h61v-512h11q5 5 15.5 14t43 32t67.5 40.5t87 32t104 14.5q198 0 329.5 -148t131.5 -395t-131.5 -395t-329.5 -148q-52 0 -103.5 13.5t-88 33t-66 39.5t-44.5 33l-15 14 h-11v-512h-61v512h-10q-5 -5 -15.5 -14t-43.5 -32t-68 -40.5t-87 -32t-104 -14.5q-198 0 -329.5 148t-131.5 395zM164 512q0 -230 115.5 -366t283.5 -136q52 0 104.5 16t91 38.5t69.5 45t47 38.5l16 16v696l-16.5 16.5t-45.5 37t-71.5 47t-89.5 37t-105 16.5 q-168 0 -283.5 -136t-115.5 -366zM952 164l16.5 -16.5t45.5 -37t71.5 -47t89.5 -37t105 -16.5q168 0 283.5 136t115.5 366t-115.5 366t-283.5 136q-52 0 -104.5 -16t-91 -38.5t-69.5 -45t-47 -38.5l-16 -16v-696z" />
<glyph unicode="&#x445;" horiz-adv-x="972" d="M41 0l410 522l-390 502h72l348 -451h11l348 451h51l-379 -492l420 -532h-72l-379 481h-10l-379 -481h-51z" />
<glyph unicode="&#x446;" d="M205 0v1024h61v-983h707v983h61v-983h164v-369h-41l-20 328h-932z" />
<glyph unicode="&#x447;" horiz-adv-x="1198" d="M164 737v287h61v-287q0 -162 90 -250t258 -88q82 0 171.5 20.5t138.5 40.5l49 21v543h61v-1024h-61v440q-20 -9 -54 -22.5t-128.5 -36.5t-176.5 -23q-197 0 -303 100t-106 279z" />
<glyph unicode="&#x448;" horiz-adv-x="1802" d="M205 0v1024h61v-983h604v983h62v-983h604v983h61v-1024h-1392z" />
<glyph unicode="&#x449;" horiz-adv-x="1822" d="M205 0v1024h61v-983h604v983h62v-983h604v983h61v-983h164v-369h-41l-20 328h-1495z" />
<glyph unicode="&#x44a;" horiz-adv-x="1187" d="M0 983v41h389v-369h307q186 0 298 -95.5t112 -231.5t-112.5 -232t-297.5 -96h-368v983h-328zM389 41h307q156 0 252 83.5t96 203.5t-95.5 203t-252.5 83h-307v-573z" />
<glyph unicode="&#x44b;" horiz-adv-x="1536" d="M205 0v1024h61v-369h307q186 0 298 -95.5t112 -231.5t-112.5 -232t-297.5 -96h-368zM266 41h307q157 0 253 83.5t96 203.5t-96 203t-253 83h-307v-573zM1270 0v1044h61v-1044h-61z" />
<glyph unicode="&#x44c;" horiz-adv-x="1085" d="M205 0v1024h61v-369h328q186 0 298 -95.5t112 -231.5t-112.5 -232t-297.5 -96h-389zM266 41h328q156 0 252 83.5t96 203.5t-95.5 203t-252.5 83h-328v-573z" />
<glyph unicode="&#x44d;" horiz-adv-x="1085" d="M41 205l31 20q5 -9 16 -23.5t48 -51.5t79.5 -65.5t112 -51.5t143.5 -23q122 0 225.5 62.5t164.5 173.5t61 246h-523v40h523q0 135 -61 246t-164.5 173.5t-225.5 62.5q-63 0 -123 -18t-101 -43.5t-72.5 -51t-46.5 -43.5l-15 -18l-31 20q6 8 17 21t49 46.5t80 59.5t108 47 t135 21q142 0 259 -69t185 -194t68 -280t-68 -280t-185 -194t-259 -69q-80 0 -154 24.5t-122 59t-84.5 69t-52.5 58.5z" />
<glyph unicode="&#x44e;" horiz-adv-x="1638" d="M205 0v1024h61v-471h307q5 141 71.5 256.5t175 180.5t235.5 65q204 0 342.5 -151t138.5 -392t-138.5 -392t-342.5 -151t-343 151t-139 392h-307v-512h-61zM635 512q0 -224 123 -363t297 -139t297 139t123 363t-123 363t-297 139t-297 -139t-123 -363z" />
<glyph unicode="&#x44f;" horiz-adv-x="1146" d="M82 0l297 420v10q-10 2 -25.5 7t-56.5 26.5t-72 50.5t-56.5 83t-25.5 120q0 129 105.5 218t283.5 89h410v-1024h-61v410h-441l-286 -410h-72zM205 717q0 -112 89 -189t238 -77h349v532h-349q-149 0 -238 -77t-89 -189z" />
<glyph unicode="&#x451;" horiz-adv-x="1177" d="M102 512q0 116 39.5 218t106.5 173t157 111.5t189 40.5q98 0 188.5 -40.5t157 -109.5t106 -166.5t39.5 -206.5q0 -9 -2.5 -19t-4.5 -15l-3 -6h-911q0 -135 61 -246t164 -173.5t225 -62.5q74 0 143 22t113.5 53.5t78.5 63.5t49 54l16 22l30 -20q-3 -5 -9 -13.5t-26.5 -33 t-43.5 -47t-61 -49.5t-79 -46.5t-96.5 -33t-114.5 -13.5q-142 0 -259 69t-185 194t-68 280zM164 532h860q0 101 -35.5 191.5t-95 153.5t-137.5 100t-162 37t-162 -37t-137.5 -100t-95 -153.5t-35.5 -191.5zM318 1393q0 23 19 42t42 19t42.5 -19t19.5 -42t-19.5 -42.5 t-42.5 -19.5t-42 19.5t-19 42.5zM707 1393q0 23 19 42t42 19t42.5 -19t19.5 -42t-19.5 -42.5t-42.5 -19.5t-42 19.5t-19 42.5z" />
<glyph unicode="&#x452;" horiz-adv-x="1218" d="M20 1188v41h205v246h62v-246h409l-10 -41h-399v-481h10q6 8 18 22t51.5 49t83 62t110.5 49t136 22q191 0 305.5 -110.5t114.5 -288.5v-102q0 -214 -124.5 -342.5t-325.5 -128.5v41q172 0 280.5 117t108.5 313v102q0 154 -102.5 256t-256.5 102q-69 0 -136.5 -24 t-114.5 -59t-84 -69.5t-55 -58.5l-19 -24v-635h-62v1188h-205z" />
<glyph unicode="&#x453;" horiz-adv-x="911" d="M205 0v1024h686l-10 -41h-615v-983h-61zM512 1188l215 389h72l-246 -389h-41z" />
<glyph unicode="&#x454;" horiz-adv-x="1085" d="M102 512q0 155 68 280t185 194t259 69q69 0 134.5 -20t109.5 -48.5t78.5 -57.5t51.5 -49l16 -20l-31 -20q-5 7 -15.5 19t-46 42t-74 52.5t-99.5 41.5t-124 19q-122 0 -225 -62.5t-164 -173.5t-61 -246h522l-10 -40h-512q0 -135 61 -246t164 -173.5t225 -62.5q74 0 143 22 t113.5 53.5t78.5 63.5t49 54l16 22l30 -20q-3 -5 -9 -13.5t-26.5 -33t-43.5 -47t-61 -49.5t-79 -46.5t-96.5 -33t-114.5 -13.5q-142 0 -259 69t-185 194t-68 280z" />
<glyph unicode="&#x455;" horiz-adv-x="962" d="M61 205l31 20q5 -9 15.5 -23.5t47 -51.5t77 -65.5t105.5 -51.5t134 -23q161 0 254.5 75t93.5 181q0 62 -38.5 106t-100 69.5t-135.5 45.5t-148 42.5t-135.5 52t-100 81.5t-38.5 125q0 107 100.5 187t268.5 80q63 0 124 -18t103.5 -43.5t75.5 -51t49 -43.5l16 -18l-31 -21 q-5 6 -15.5 16.5t-44 37t-70.5 47t-93.5 37t-113.5 16.5q-139 0 -223.5 -68t-84.5 -158q0 -62 38.5 -106t100 -69.5t135.5 -45.5t148.5 -42.5t136 -52t100 -81.5t38.5 -125q0 -123 -110 -210t-300 -87q-74 0 -144 24.5t-116 59t-81.5 69t-51.5 58.5z" />
<glyph unicode="&#x456;" horiz-adv-x="471" d="M174 1393q0 23 19.5 42t42.5 19t42 -19t19 -42t-19 -42.5t-42 -19.5t-42.5 19.5t-19.5 42.5zM205 0v1024h61v-1024h-61z" />
<glyph unicode="&#x457;" horiz-adv-x="471" d="M-41 1393q0 23 19 42t42 19t42.5 -19t19.5 -42t-19.5 -42.5t-42.5 -19.5t-42 19.5t-19 42.5zM205 0v1024h61v-1024h-61zM348 1393q0 23 19.5 42t42.5 19t42 -19t19 -42t-19 -42.5t-42 -19.5t-42.5 19.5t-19.5 42.5z" />
<glyph unicode="&#x458;" horiz-adv-x="501" d="M-113 -389q159 0 254 110.5t95 319.5v983h61v-983q0 -226 -111 -348.5t-299 -122.5v41zM205 1393q0 23 19 42t42 19t42.5 -19t19.5 -42t-19.5 -42.5t-42.5 -19.5t-42 19.5t-19 42.5z" />
<glyph unicode="&#x459;" horiz-adv-x="1761" d="M0 10h72q85 0 155 99.5t90 300.5l62 614h604v-369h287q185 0 297 -95.5t112 -231.5t-112 -232t-297 -96h-348v983h-482l-61 -573q-25 -226 -108.5 -338.5t-198.5 -112.5q-14 0 -32 2.5t-29 4.5l-11 3v41zM983 41h287q156 0 252 83.5t96 203.5t-95.5 203t-252.5 83h-287 v-573z" />
<glyph unicode="&#x45a;" horiz-adv-x="1730" d="M205 0v1024h61v-410h604v410h62v-410h328q178 0 283.5 -89t105.5 -218t-105.5 -218t-283.5 -89h-390v573h-604v-573h-61zM932 41h328q149 0 238 77t89 189t-89 189t-238 77h-328v-532z" />
<glyph unicode="&#x45b;" horiz-adv-x="1300" d="M20 1188v41h205v246h62v-246h409l-10 -41h-399v-481h10q6 8 18 22t51.5 49t83 62t110.5 49t136 22q191 0 305.5 -110.5t114.5 -288.5v-512h-61v512q0 154 -102.5 256t-256.5 102q-69 0 -136.5 -24t-114.5 -59t-84 -69.5t-55 -58.5l-19 -24v-635h-62v1188h-205z" />
<glyph unicode="&#x45c;" horiz-adv-x="1064" d="M205 0v1024h61v-471h338l318 471h51l-328 -481l379 -543h-72l-358 512h-328v-512h-61zM522 1188l215 389h72l-246 -389h-41z" />
<glyph unicode="&#x45e;" horiz-adv-x="1044" d="M41 1024h72l430 -942h10l399 942h52l-472 -1106q-84 -199 -167 -284t-191 -85q-23 0 -46 5.5t-34 10.5l-12 5v41q41 -21 92 -21q86 0 159.5 77t147.5 251l31 72zM225 1454l31 10q4 -8 11 -21t33.5 -46.5t57 -59t80.5 -46.5t105 -21t104.5 20t81 48.5t55.5 57t34 48.5 l11 20l31 -10q-2 -5 -5.5 -14t-16.5 -34.5t-28.5 -48.5t-42.5 -51.5t-58 -49t-74.5 -34.5t-91.5 -14q-66 0 -123 25.5t-91.5 61.5t-59 72t-34.5 61z" />
<glyph unicode="&#x45f;" horiz-adv-x="1249" d="M205 0v1024h61v-983h717v983h61v-1024h-389l-10 -328h-41l-10 328h-389z" />
<glyph unicode="&#x490;" horiz-adv-x="1095" d="M236 0v1434h778l20 245h41v-286h-778v-1393h-61z" />
<glyph unicode="&#x491;" horiz-adv-x="890" d="M205 0v1024h604l20 225h41v-266h-604v-983h-61z" />
<glyph unicode="&#x2000;" horiz-adv-x="993" />
<glyph unicode="&#x2001;" horiz-adv-x="1987" />
<glyph unicode="&#x2002;" horiz-adv-x="993" />
<glyph unicode="&#x2003;" horiz-adv-x="1987" />
<glyph unicode="&#x2004;" horiz-adv-x="662" />
<glyph unicode="&#x2005;" horiz-adv-x="496" />
<glyph unicode="&#x2006;" horiz-adv-x="331" />
<glyph unicode="&#x2007;" horiz-adv-x="331" />
<glyph unicode="&#x2008;" horiz-adv-x="248" />
<glyph unicode="&#x2009;" horiz-adv-x="397" />
<glyph unicode="&#x200a;" horiz-adv-x="110" />
<glyph unicode="&#x2010;" horiz-adv-x="1003" d="M82 696v52h840v-52h-840z" />
<glyph unicode="&#x2011;" horiz-adv-x="1003" d="M82 696v52h840v-52h-840z" />
<glyph unicode="&#x2012;" horiz-adv-x="1003" d="M82 696v52h840v-52h-840z" />
<glyph unicode="&#x2013;" horiz-adv-x="1249" d="M82 655v41h1085v-41h-1085z" />
<glyph unicode="&#x2014;" horiz-adv-x="1576" d="M82 655v41h1413v-41h-1413z" />
<glyph unicode="&#x2018;" horiz-adv-x="389" d="M133 1198q0 49 16 93t38.5 72.5t45 50t38.5 30.5l16 10l20 -31q-5 -3 -12.5 -8.5t-26.5 -23.5t-34 -37t-27 -47.5t-12 -57.5q23 0 42 -19t19 -42t-19 -42.5t-42 -19.5q-24 0 -43 21t-19 51z" />
<glyph unicode="&#x2019;" horiz-adv-x="389" d="M82 1157q5 3 12.5 8.5t27 23.5t34.5 37t27 47.5t12 57.5q-23 0 -42.5 19.5t-19.5 42.5t19.5 42t42.5 19q24 0 42.5 -21t18.5 -51q0 -49 -16 -93t-38.5 -72.5t-45 -50t-38.5 -30.5l-16 -10z" />
<glyph unicode="&#x201a;" horiz-adv-x="389" d="M82 -195q5 3 12.5 8.5t27 23.5t34.5 37.5t27 48t12 57.5q-23 0 -42.5 19t-19.5 42t19.5 42t42.5 19q24 0 42.5 -20.5t18.5 -50.5q0 -49 -16 -93t-38.5 -72.5t-45 -50t-38.5 -31.5l-16 -9z" />
<glyph unicode="&#x201c;" horiz-adv-x="675" d="M133 1198q0 49 16 93t38.5 72.5t45 50t38.5 30.5l16 10l20 -31q-5 -3 -12.5 -8.5t-26.5 -23.5t-34 -37t-27 -47.5t-12 -57.5q23 0 42 -19t19 -42t-19 -42.5t-42 -19.5q-24 0 -43 21t-19 51zM420 1198q0 49 16 93t38.5 72.5t44.5 50t38 30.5l16 10l21 -31 q-5 -3 -12.5 -8.5t-27 -23.5t-34.5 -37t-27 -47.5t-12 -57.5q23 0 42.5 -19t19.5 -42t-19.5 -42.5t-42.5 -19.5q-24 0 -42.5 21t-18.5 51z" />
<glyph unicode="&#x201d;" horiz-adv-x="675" d="M82 1157q5 3 12.5 8.5t27 23.5t34.5 37t27 47.5t12 57.5q-23 0 -42.5 19.5t-19.5 42.5t19.5 42t42.5 19q24 0 42.5 -21t18.5 -51q0 -49 -16 -93t-38.5 -72.5t-45 -50t-38.5 -30.5l-16 -10zM369 1157q5 3 12.5 8.5t26.5 23.5t34 37t27 47.5t12 57.5q-23 0 -42 19.5 t-19 42.5t19 42t42 19q24 0 43 -21t19 -51q0 -49 -16 -93t-38.5 -72.5t-45 -50t-38.5 -30.5l-16 -10z" />
<glyph unicode="&#x201e;" horiz-adv-x="624" d="M82 -195q5 3 12.5 8.5t27 23.5t34.5 37.5t27 48t12 57.5q-23 0 -42.5 19t-19.5 42t19.5 42t42.5 19q24 0 42.5 -20.5t18.5 -50.5q0 -49 -16 -93t-38.5 -72.5t-45 -50t-38.5 -31.5l-16 -9zM369 -195q5 3 12.5 8.5t26.5 23.5t34 37.5t27 48t12 57.5q-23 0 -42 19t-19 42 t19 42t42 19q24 0 43 -20.5t19 -50.5q0 -49 -16 -93t-38.5 -72.5t-45 -50t-38.5 -31.5l-16 -9z" />
<glyph unicode="&#x2026;" horiz-adv-x="1249" d="M133 41q0 23 19.5 42t42.5 19t42 -19t19 -42t-19 -42t-42 -19t-42.5 19t-19.5 42zM563 41q0 23 19.5 42t42.5 19t42 -19t19 -42t-19 -42t-42 -19t-42.5 19t-19.5 42zM993 41q0 23 19.5 42t42.5 19t42 -19t19 -42t-19 -42t-42 -19t-42.5 19t-19.5 42z" />
<glyph unicode="&#x202f;" horiz-adv-x="397" />
<glyph unicode="&#x2039;" horiz-adv-x="634" d="M61 512l451 481l41 -30l-420 -447v-8l420 -447l-41 -30z" />
<glyph unicode="&#x203a;" horiz-adv-x="634" d="M82 61l420 447v8l-420 447l41 30l450 -481l-450 -481z" />
<glyph unicode="&#x205f;" horiz-adv-x="496" />
<glyph unicode="&#x20ac;" horiz-adv-x="1597" d="M61 522v41h195q-10 93 -10 154q0 27 2.5 65.5t5.5 63.5l2 24h-195v41h205q42 167 131.5 292t232 198.5t322.5 73.5q77 0 149.5 -16.5t126 -42.5t100.5 -58t79 -63.5t54.5 -57.5t32.5 -43l11 -16l-30 -21q-7 11 -20 30t-61 66.5t-103.5 84t-147 66.5t-191.5 30 q-238 0 -399 -142t-225 -381h737v-41h-748q-10 -92 -10 -153q0 -27 2.5 -65.5t4.5 -63.5l3 -25h748v-41h-737q55 -237 219.5 -379.5t404.5 -142.5q81 0 155.5 16.5t128.5 42.5t100.5 57.5t76.5 63.5t51.5 58t31.5 42l9 17l31 -21q-3 -7 -10 -18t-32.5 -44t-55 -63t-80 -66.5 t-107 -63t-135 -44.5t-164.5 -18q-135 0 -254 44.5t-205.5 122t-145 179t-81.5 217.5h-205z" />
<glyph unicode="&#x2122;" horiz-adv-x="1832" d="M41 1393v41h645l-10 -41h-287v-697h-61v697h-287zM819 696v738h62l348 -553h10l358 553h62v-738h-62v656h-10l-348 -543h-31l-338 543h-10v-656h-41z" />
<glyph unicode="&#x25fc;" horiz-adv-x="1024" d="M0 0v1024h1024v-1024h-1024z" />
</font>
</defs>
</svg>
