<svg width="512" height="512" viewBox="0 0 512 512" fill="none" xmlns="http://www.w3.org/2000/svg">
<path d="M512 256C512 214.241 501.784 173.115 482.244 136.21C462.704 99.3045 434.432 67.7396 399.893 44.2674C365.355 20.7952 325.599 6.12842 284.092 1.546C242.585 -3.03643 200.587 2.6046 161.76 17.9772C122.933 33.3498 88.4566 57.9873 61.3361 89.7413C34.2156 121.495 15.2748 159.402 6.16531 200.155C-2.9442 240.909 -1.94585 283.272 9.0733 323.551C20.0924 363.831 40.7978 400.803 69.384 431.244L136.566 368.156C118.271 348.674 105.019 325.012 97.9669 299.233C90.9147 273.454 90.2757 246.342 96.1058 220.259C101.936 194.177 114.058 169.917 131.415 149.594C148.772 129.272 170.837 113.504 195.686 103.665C220.536 93.8269 247.414 90.2167 273.979 93.1494C300.543 96.0822 325.987 105.469 348.092 120.491C370.196 135.513 388.29 155.715 400.796 179.334C413.302 202.954 419.84 229.274 419.84 256H512Z" fill="url(#paint0_linear)"/>
<path d="M512 256C512 299.12 501.108 341.542 480.335 379.329C459.561 417.116 429.579 449.043 393.172 472.148L354.764 411.627C380.977 394.991 402.564 372.003 417.521 344.797C432.478 317.59 440.32 287.047 440.32 256H512Z" fill="url(#paint1_linear)" fill-opacity="0.8"/>
<path d="M512 256C512 290.972 504.834 325.574 490.945 357.67C477.056 389.766 456.738 418.676 431.244 442.616C405.75 466.556 375.622 485.019 342.717 496.865C309.812 508.712 274.829 513.691 239.926 511.495L243.141 460.396C271.063 462.153 299.05 458.17 325.374 448.692C351.697 439.215 375.8 424.445 396.195 405.293C416.59 386.141 432.845 363.013 443.956 337.336C455.068 311.659 460.8 283.978 460.8 256H512Z" fill="url(#paint2_linear)" fill-opacity="0.6"/>
<path d="M512 256C512 296.399 502.439 336.225 484.098 372.222C465.757 408.218 439.157 439.362 406.473 463.108C373.789 486.855 335.949 502.528 296.047 508.848C256.145 515.168 215.314 511.955 176.892 499.47L186.385 470.254C220.196 481.24 256.128 484.068 291.242 478.506C326.355 472.945 359.654 459.152 388.416 438.255C417.178 417.359 440.586 389.952 456.726 358.275C472.866 326.598 481.28 291.552 481.28 256H512Z" fill="url(#paint3_linear)" fill-opacity="0.4"/>
<path d="M512 256C512 308.689 495.743 360.094 465.446 403.201C435.15 446.309 392.291 479.018 342.717 496.865C293.143 514.713 239.27 516.83 188.448 502.927C137.627 489.024 92.3336 459.778 58.7486 419.181L66.6387 412.653C98.8803 451.627 142.362 479.703 191.151 493.05C239.939 506.397 291.657 504.365 339.248 487.231C386.839 470.097 427.984 438.696 457.068 397.313C486.153 355.93 501.76 306.581 501.76 256H512Z" fill="url(#paint4_linear)" fill-opacity="0.4"/>
<defs>
<linearGradient id="paint0_linear" x1="256" y1="0" x2="256" y2="512" gradientUnits="userSpaceOnUse">
<stop stop-color="#FCDC84"/>
<stop offset="1" stop-color="#F8C810"/>
</linearGradient>
<linearGradient id="paint1_linear" x1="256" y1="0" x2="256" y2="512" gradientUnits="userSpaceOnUse">
<stop stop-color="#FCDC84"/>
<stop offset="1" stop-color="#F8C810"/>
</linearGradient>
<linearGradient id="paint2_linear" x1="256" y1="0" x2="256" y2="512" gradientUnits="userSpaceOnUse">
<stop stop-color="#FCDC84"/>
<stop offset="1" stop-color="#F8C810"/>
</linearGradient>
<linearGradient id="paint3_linear" x1="256" y1="0" x2="256" y2="512" gradientUnits="userSpaceOnUse">
<stop stop-color="#FCDC84"/>
<stop offset="1" stop-color="#F8C810"/>
</linearGradient>
<linearGradient id="paint4_linear" x1="256" y1="0" x2="256" y2="512" gradientUnits="userSpaceOnUse">
<stop stop-color="#FCDC84"/>
<stop offset="1" stop-color="#F8C810"/>
</linearGradient>
</defs>
</svg>
