<?xml version="1.0" standalone="no"?>
<!DOCTYPE svg PUBLIC "-//W3C//DTD SVG 1.1//EN" "http://www.w3.org/Graphics/SVG/1.1/DTD/svg11.dtd" >
<svg xmlns="http://www.w3.org/2000/svg" xmlns:xlink="http://www.w3.org/1999/xlink" version="1.1">
<metadata>
Created by FontForge 20170731 at Fri Oct 11 15:10:01 2013
 By Aleksey,,,
Copyright (c) October 1, 2013 by Jovanny Lemonad (lemonad@jovanny.ru), with Reserved Font Name "Imperial" and "Imperial One". This Font Software is licensed under the SIL Open Font License, Version 1.1. This license is available with a FAQ at: http://scripts.sil.org/OFL

This font is based on the corporate font for the game The Mandate. The Mandate is a science fiction roleplaying game which sees the player as a disgraced space captain who gets one chance at redemption and is the last desperate hope for the newly crowned Empress to restore peace and secure the future of humanity. 

Find out more at www.mandategame.com
</metadata>
<defs>
<font id="ImperialOne" horiz-adv-x="950" >
  <font-face 
    font-family="Imperial One"
    font-weight="400"
    font-stretch="normal"
    units-per-em="1000"
    panose-1="2 0 5 5 4 0 0 2 0 3"
    ascent="800"
    descent="-200"
    x-height="520"
    cap-height="700"
    bbox="-50 -340 1485 1030"
    underline-thickness="50"
    underline-position="-200"
    unicode-range="U+0020-2122"
  />
<missing-glyph horiz-adv-x="370" 
 />
    <glyph glyph-name=".notdef" horiz-adv-x="370" 
 />
    <glyph glyph-name=".null" horiz-adv-x="0" 
 />
    <glyph glyph-name="nonmarkingreturn" horiz-adv-x="333" 
 />
    <glyph glyph-name="space" unicode=" " horiz-adv-x="370" 
 />
    <glyph glyph-name="exclam" unicode="!" horiz-adv-x="415" 
d="M85 700h245v-270l-25 -180h-195l-25 180v270zM95 0v190h225v-190h-225z" />
    <glyph glyph-name="quotedbl" unicode="&#x22;" horiz-adv-x="540" 
d="M60 700h180v-150l-30 -130h-120l-30 130v150zM300 700h180v-150l-30 -130h-120l-30 130v150z" />
    <glyph glyph-name="numbersign" unicode="#" horiz-adv-x="900" 
d="M35 290h130l50 120h-95v170h170l50 120h210l-50 -120h95l50 120h210l-50 -120h60v-170h-135l-50 -120h100v-170h-170l-50 -120h-210l50 120h-95l-50 -120h-210l50 120h-60v170zM425 410l-50 -120h95l50 120h-95z" />
    <glyph glyph-name="dollar" unicode="$" horiz-adv-x="890" 
d="M330 0h-245v240h235v-50h240v40l-475 115v355h245v80h230v-80h245v-240h-235v50h-240v-35l475 -115v-360h-245v-80h-230v80z" />
    <glyph glyph-name="percent" unicode="%" horiz-adv-x="1075" 
d="M415 0h-250l495 700h250zM245 590q-23 0 -39 -16t-16 -39t16 -39t39 -16t39 16t16 39t-16 39t-39 16zM245 730q92 0 153.5 -57.5t61.5 -137.5t-61.5 -137.5t-153.5 -57.5t-153.5 57.5t-61.5 137.5t61.5 137.5t153.5 57.5zM830 220q-22 0 -38.5 -16t-16.5 -39t16.5 -39
t38.5 -16t38.5 16t16.5 39t-16.5 39t-38.5 16zM830 360q92 0 153.5 -57.5t61.5 -137.5t-61.5 -137.5t-153.5 -57.5t-153.5 57.5t-61.5 137.5t61.5 137.5t153.5 57.5z" />
    <glyph glyph-name="ampersand" unicode="&#x26;" horiz-adv-x="1045" 
d="M350 210v-10h220v-200h-505v200l135 150l-126 150v200h496v-200h-210v-10l35 -40h270v150h230v-150h120v-190h-120v-260h-230v260h-270z" />
    <glyph glyph-name="quotesingle" unicode="'" horiz-adv-x="300" 
d="M60 700h180v-150l-30 -130h-120l-30 130v150z" />
    <glyph glyph-name="parenleft" unicode="(" horiz-adv-x="515" 
d="M75 310q0 101 29.5 201t71.5 170.5t83.5 126.5t70.5 84l30 28l165 -140q-9 -9 -23.5 -24.5t-51.5 -65.5t-65.5 -102.5t-51.5 -128.5t-23 -149t22 -148t54 -130.5t63.5 -100.5t53.5 -68l22 -23l-165 -140q-12 10 -31 29t-68 81.5t-86.5 129.5t-68.5 168t-31 202z" />
    <glyph glyph-name="parenright" unicode=")" horiz-adv-x="515" 
d="M440 310q0 -101 -29.5 -201t-71 -170.5t-83.5 -126.5t-72 -84l-29 -28l-165 140q9 9 23.5 24.5t51.5 65.5t65.5 102.5t51.5 128.5t23 149t-22 148t-53.5 130.5t-63.5 100.5t-54 68l-22 23l165 140q12 -10 31 -29t68 -81.5t86.5 -129.5t68.5 -168t31 -202z" />
    <glyph glyph-name="asterisk" unicode="*" horiz-adv-x="600" 
d="M380 240l-75 110h-10l-75 -110l-130 90l70 105v5l-120 40l50 145l120 -35l5 5v125h170v-125l5 -5l120 35l50 -145l-120 -40v-5l70 -105z" />
    <glyph glyph-name="plus" unicode="+" horiz-adv-x="640" 
d="M230 90v160h-170v190h170v160h180v-160h170v-190h-170v-160h-180z" />
    <glyph glyph-name="comma" unicode="," horiz-adv-x="355" 
d="M65 0v190h225v-170l-65 -130h-140l55 110h-75z" />
    <glyph glyph-name="hyphen" unicode="-" horiz-adv-x="600" 
d="M60 440h480v-190h-480v190z" />
    <glyph glyph-name="period" unicode="." horiz-adv-x="355" 
d="M65 0v190h225v-190h-225z" />
    <glyph glyph-name="slash" unicode="/" horiz-adv-x="785" 
d="M265 -140h-265l520 940h265z" />
    <glyph glyph-name="zero" unicode="0" horiz-adv-x="870" 
d="M765 700v-700h-660v700h660zM520 500h-170v-300h170v300z" />
    <glyph glyph-name="one" unicode="1" horiz-adv-x="615" 
d="M75 500v200h365v-500h125v-200h-500v200h130v300h-120z" />
    <glyph glyph-name="two" unicode="2" horiz-adv-x="805" 
d="M735 0h-655v210l410 260v40h-175v-90h-235v280h655v-295l-310 -195v-10h310v-200z" />
    <glyph glyph-name="three" unicode="3" horiz-adv-x="835" 
d="M320 500v-80h-235v280h675v-200l-125 -150l135 -150v-200h-685v280h235v-80h175v10l-125 140l115 140v10h-165z" />
    <glyph glyph-name="four" unicode="4" horiz-adv-x="800" 
d="M670 700v-410h100v-190h-100v-100h-245v100h-395v200l360 400h280zM425 290v145h-9l-121 -135v-10h130z" />
    <glyph glyph-name="five" unicode="5" horiz-adv-x="815" 
d="M730 0h-635v260h235v-70h155v70l-390 95v345h635v-190h-390v-35l390 -95v-380z" />
    <glyph glyph-name="six" unicode="6" horiz-adv-x="750" 
d="M465 230q0 32 -25 56t-65 24q-35 0 -60 -24.5t-25 -55.5t25 -55.5t60 -24.5q37 0 63.5 24.5t26.5 55.5zM35 260q0 35 10 71.5t23.5 63.5t27.5 49.5t24 33.5l10 12l180 210h275l-180 -210h25q125 0 207.5 -76.5t82.5 -183.5q0 -103 -95.5 -181.5t-249.5 -78.5t-247 83.5
t-93 206.5z" />
    <glyph glyph-name="seven" unicode="7" horiz-adv-x="710" 
d="M265 430h-235v270h650v-200l-265 -500h-255l260 490v10h-155v-70z" />
    <glyph glyph-name="eight" unicode="8" horiz-adv-x="770" 
d="M385 135q37 0 61 22t24 53t-24 53t-61 22t-61 -22t-24 -53t24 -53t61 -22zM385 730q138 0 221.5 -64.5t83.5 -145.5q0 -31 -10.5 -56.5t-25 -40.5t-29 -25t-25.5 -14l-10 -4v-10q5 -2 14.5 -5.5t32.5 -17t41 -31t32.5 -49t14.5 -67.5q0 -97 -88 -163.5t-252 -66.5
t-252 66.5t-88 163.5q0 36 14 67t33.5 49t39.5 31t34 18l14 5v10q-4 1 -11 4t-24 14t-30 25t-24 40t-11 57q0 81 83.5 145.5t221.5 64.5zM385 565q-26 0 -43 -16t-17 -39t17 -39t43 -16t43 16t17 39t-17 39t-43 16z" />
    <glyph glyph-name="nine" unicode="9" horiz-adv-x="750" 
d="M285 470q0 -32 25 -56t65 -24q35 0 60 24.5t25 55.5t-25 55.5t-60 24.5q-37 0 -63.5 -24.5t-26.5 -55.5zM715 440q0 -35 -10 -71.5t-23.5 -63.5t-27.5 -49.5t-24 -33.5l-10 -12l-180 -210h-275l180 210h-25q-125 0 -207.5 76.5t-82.5 183.5q0 103 95.5 181.5t249.5 78.5
t247 -83.5t93 -206.5z" />
    <glyph glyph-name="colon" unicode=":" horiz-adv-x="355" 
d="M65 0v190h225v-190h-225zM65 330v190h225v-190h-225z" />
    <glyph glyph-name="semicolon" unicode=";" horiz-adv-x="355" 
d="M65 330v190h225v-190h-225zM65 0v190h225v-170l-65 -130h-140l55 110h-75z" />
    <glyph glyph-name="less" unicode="&#x3c;" horiz-adv-x="625" 
d="M55 350l490 190v-190l-240 -85v-10l240 -85v-190l-490 190v180z" />
    <glyph glyph-name="equal" unicode="=" horiz-adv-x="620" 
d="M70 280h480v-170h-480v170zM70 530h480v-170h-480v170z" />
    <glyph glyph-name="greater" unicode="&#x3e;" horiz-adv-x="625" 
d="M80 540l490 -190v-180l-490 -190v190l240 85v10l-240 85v190z" />
    <glyph glyph-name="question" unicode="?" horiz-adv-x="790" 
d="M30 700h710v-360l-255 -60v-30h-215v155l225 55v60h-230v-80h-235v260zM265 0v190h225v-190h-225z" />
    <glyph glyph-name="at" unicode="@" horiz-adv-x="1000" 
d="M760 100l60 -140q-16 -9 -45 -22.5t-111.5 -35.5t-158.5 -22q-127 0 -233.5 59.5t-166.5 158t-60 212.5t60 212.5t166.5 158t233.5 59.5q95 0 179.5 -32.5t143.5 -86t93 -122t34 -139.5q0 -98 -72 -169t-173 -71q-36 0 -69.5 11t-49.5 23l-16 11h-10q-4 -5 -12 -12.5
t-37.5 -20t-65.5 -12.5q-69 0 -119.5 54.5t-50.5 135.5t50.5 135.5t119.5 54.5q29 0 55 -11t38 -23l12 -11h5v35h155v-235q6 -5 15 -5q18 0 34 28t16 82q0 86 -81.5 158t-193.5 72q-116 0 -200.5 -83.5t-84.5 -196.5t84.5 -196.5t200.5 -83.5q62 0 126 17.5t97 34.5z
M560 310q0 29 -18.5 49.5t-41.5 20.5t-41.5 -20.5t-18.5 -49.5t18.5 -49.5t41.5 -20.5t41.5 20.5t18.5 49.5z" />
    <glyph glyph-name="A" unicode="A" 
d="M325 110l-45 -110h-270l310 700h310l310 -700h-270l-45 110h-300zM555 290l-75 190h-10l-75 -190h160z" />
    <glyph glyph-name="B" unicode="B" horiz-adv-x="940" 
d="M875 0h-770v700h760v-200l-125 -150l135 -150v-200zM350 500v-300h250v10l-125 140l115 140v10h-240z" />
    <glyph glyph-name="C" unicode="C" horiz-adv-x="930" 
d="M200 0l-180 350l180 350h645v-280h-235v80h-245l-75 -150l75 -150h245v80h235v-280h-645z" />
    <glyph glyph-name="D" unicode="D" horiz-adv-x="940" 
d="M105 700h395q172 0 286 -104t114 -246t-114 -246t-286 -104h-395v700zM500 500h-150v-300h150q57 0 101 45t44 105t-44 105t-101 45z" />
    <glyph glyph-name="E" unicode="E" horiz-adv-x="915" 
d="M830 430h-235v80h-245v-80h190v-170h-190v-70h245v80h235v-270h-725v700h725v-270z" />
    <glyph glyph-name="F" unicode="F" horiz-adv-x="845" 
d="M815 430h-235v70h-230v-100h200v-190h-200v-210h-245v700h710v-270z" />
    <glyph glyph-name="G" unicode="G" horiz-adv-x="940" 
d="M490 250v160h355v-410h-645l-180 350l180 350h645v-240h-235v40h-245l-75 -150l75 -150h245v50h-120z" />
    <glyph glyph-name="H" unicode="H" horiz-adv-x="965" 
d="M860 700v-700h-245v220h-265v-220h-245v700h245v-280h265v280h245z" />
    <glyph glyph-name="I" unicode="I" horiz-adv-x="655" 
d="M65 500v200h525v-200h-140v-300h140v-200h-525v200h140v300h-140z" />
    <glyph glyph-name="J" unicode="J" horiz-adv-x="605" 
d="M65 -10v200h110q37 0 63.5 26t26.5 64v220h-150v200h395v-420q0 -128 -81 -209t-209 -81h-155z" />
    <glyph glyph-name="K" unicode="K" horiz-adv-x="910" 
d="M350 700v-700h-245v700h245zM655 350l245 -350h-275l-235 350l225 350h275z" />
    <glyph glyph-name="L" unicode="L" horiz-adv-x="835" 
d="M560 290h235v-290h-690v700h245v-500h210v90z" />
    <glyph glyph-name="M" unicode="M" horiz-adv-x="1090" 
d="M545 485l185 215h255v-700h-245v375h-10l-185 -215l-185 215h-10v-375h-245v700h255z" />
    <glyph glyph-name="N" unicode="N" horiz-adv-x="965" 
d="M606 480h9v220h245v-700h-245v180l-255 220h-10v-400h-245v700h245z" />
    <glyph glyph-name="O" unicode="O" 
d="M655 350q0 75 -52.5 127.5t-127.5 52.5t-127.5 -52.5t-52.5 -127.5t52.5 -127.5t127.5 -52.5t127.5 52.5t52.5 127.5zM910 350q0 -150 -126 -265t-309 -115t-309 115t-126 265t126 265t309 115t309 -115t126 -265z" />
    <glyph glyph-name="P" unicode="P" horiz-adv-x="890" 
d="M105 700h455q128 0 211.5 -76t83.5 -184t-83.5 -184t-211.5 -76h-210v-180h-245v700zM600 440q0 30 -20 50t-49 20h-181v-140h181q29 0 49 20t20 50z" />
    <glyph glyph-name="Q" unicode="Q" horiz-adv-x="970" 
d="M865 700v-700h-265v-110l-230 -40v150h-265v700h760zM620 500h-270v-300h270v300z" />
    <glyph glyph-name="R" unicode="R" horiz-adv-x="960" 
d="M630 0l-120 240h-160v-240h-245v700h760v-460h-95l120 -240h-260zM350 510v-90h270v90h-270z" />
    <glyph glyph-name="S" unicode="S" horiz-adv-x="890" 
d="M85 345v355h720v-240h-235v50h-240v-35l475 -115v-360h-720v240h235v-50h240v40z" />
    <glyph glyph-name="T" unicode="T" horiz-adv-x="805" 
d="M775 500h-250v-500h-245v500h-250v200h745v-200z" />
    <glyph glyph-name="U" unicode="U" 
d="M475 170q57 0 96 40t39 100v390h245v-390q0 -145 -105.5 -242.5t-274.5 -97.5t-274.5 97.5t-105.5 242.5v390h245v-390q0 -60 39 -100t96 -40z" />
    <glyph glyph-name="V" unicode="V" horiz-adv-x="920" 
d="M455 220h10l175 480h270l-295 -700h-310l-295 700h270z" />
    <glyph glyph-name="W" unicode="W" horiz-adv-x="1220" 
d="M755 700l95 -460h10l75 460h255l-150 -700h-340l-85 420h-10l-85 -420h-340l-150 700h255l75 -460h10l95 460h290z" />
    <glyph glyph-name="X" unicode="X" horiz-adv-x="880" 
d="M315 700l120 -210h10l120 210h285l-220 -350l240 -350h-285l-140 220h-10l-140 -220h-285l240 350l-220 350h285z" />
    <glyph glyph-name="Y" unicode="Y" horiz-adv-x="845" 
d="M425 420l145 280h275l-300 -500v-200h-245v200l-300 500h275l145 -280h5z" />
    <glyph glyph-name="Z" unicode="Z" horiz-adv-x="900" 
d="M80 210l390 280v10h-155v-70h-235v270h730v-210l-390 -280v-10h165v70h235v-270h-740v210z" />
    <glyph glyph-name="bracketleft" unicode="[" horiz-adv-x="485" 
d="M455 -230h-350v1080h350v-190h-115v-700h115v-190z" />
    <glyph glyph-name="backslash" unicode="\" horiz-adv-x="785" 
d="M785 -140h-265l-520 940h265z" />
    <glyph glyph-name="bracketright" unicode="]" horiz-adv-x="485" 
d="M380 -230h-350v190h115v700h-115v190h350v-1080z" />
    <glyph glyph-name="asciicircum" unicode="^" horiz-adv-x="610" 
d="M210 700h190l200 -290h-220l-70 120h-10l-70 -120h-220z" />
    <glyph glyph-name="underscore" unicode="_" horiz-adv-x="540" 
d="M30 0h480v-190h-480v190z" />
    <glyph glyph-name="grave" unicode="`" horiz-adv-x="410" 
d="M50 700h225l85 -200h-170z" />
    <glyph glyph-name="a" unicode="a" horiz-adv-x="785" 
d="M35 260q0 119 78.5 199.5t191.5 80.5q49 0 87.5 -17.5t53.5 -34.5l14 -18h10v50h230v-520h-230v50h-10q-2 -3 -5.5 -7.5t-17.5 -16.5t-30 -21.5t-43.5 -17t-58.5 -7.5q-113 0 -191.5 80.5t-78.5 199.5zM370 365q-42 0 -71 -30t-29 -75t29 -75t71 -30t71 30t29 75t-29 75
t-71 30z" />
    <glyph glyph-name="b" unicode="b" horiz-adv-x="790" 
d="M770 260l-135 -260h-545v700h230v-180h315zM320 180h165l40 80l-40 80h-165v-160z" />
    <glyph glyph-name="c" unicode="c" horiz-adv-x="760" 
d="M305 180h155v45h220v-225h-525l-135 260l135 260h525v-225h-220v45h-155l-40 -80z" />
    <glyph glyph-name="d" unicode="d" horiz-adv-x="790" 
d="M35 260q0 119 78.5 199.5t191.5 80.5q49 0 87.5 -17.5t53.5 -34.5l14 -18h10v230h230v-700h-230v50h-10q-2 -3 -5.5 -7.5t-17.5 -16.5t-30 -21.5t-43.5 -17t-58.5 -7.5q-113 0 -191.5 80.5t-78.5 199.5zM370 365q-42 0 -71 -30t-29 -75t29 -75t71 -30t71 30t29 75t-29 75
t-71 30z" />
    <glyph glyph-name="e" unicode="e" horiz-adv-x="780" 
d="M465 340v35h-150v-70zM695 190v-190h-610v520h610v-250l-380 -90v-35h160v45h220z" />
    <glyph glyph-name="f" unicode="f" horiz-adv-x="547" 
d="M40 280v180h92v10q0 98 73 169t177 71h145v-180h-100q-26 0 -45.5 -20.5t-19.5 -49.5h125v-180h-125v-280h-230v280h-92z" />
    <glyph glyph-name="g" unicode="g" horiz-adv-x="790" 
d="M150 60l-120 230l120 230h555v-700h-615v205h220v-35h165v70h-325zM305 350l-30 -60l30 -60h170v120h-170z" />
    <glyph glyph-name="h" unicode="h" horiz-adv-x="800" 
d="M490 320l-170 40v-360h-230v700h230v-150l400 -95v-455h-230v320z" />
    <glyph glyph-name="i" unicode="i" horiz-adv-x="410" 
d="M320 500v-500h-230v500h230zM325 660q0 -46 -34 -78t-86 -32t-86 32t-34 78t34 78t86 32t86 -32t34 -78z" />
    <glyph glyph-name="j" unicode="j" horiz-adv-x="415" 
d="M325 500v-440q0 -98 -73 -169t-177 -71h-125v180h80q26 0 45.5 20.5t19.5 49.5v430h230zM330 660q0 -46 -34 -78t-86 -32t-86 32t-34 78t34 78t86 32t86 -32t34 -78z" />
    <glyph glyph-name="k" unicode="k" horiz-adv-x="760" 
d="M320 700v-700h-230v700h230zM510 0l-160 260l150 260h240l-155 -260l165 -260h-240z" />
    <glyph glyph-name="l" unicode="l" horiz-adv-x="445" 
d="M30 700h325v-700h-230v520h-95v180z" />
    <glyph glyph-name="m" unicode="m" horiz-adv-x="1135" 
d="M1055 310v-310h-230v310q0 23 -16.5 39t-39.5 16q-22 0 -43 -18.5t-31 -37.5l-10 -19v-290h-230v310q0 22 -16.5 38.5t-38.5 16.5t-43.5 -18.5t-31.5 -37.5l-10 -19v-290h-230v520h230v-50h10q6 8 17.5 19.5t48 31t74.5 19.5q36 0 67 -9.5t49 -22.5t31 -26t18 -22l5 -10
h10q3 4 9 10t25 21.5t39.5 27.5t52.5 21.5t64 9.5q94 0 157 -65t63 -165z" />
    <glyph glyph-name="n" unicode="n" horiz-adv-x="800" 
d="M720 315v-315h-230v290q0 30 -22.5 52.5t-52.5 22.5q-29 0 -54 -18.5t-35 -37.5l-11 -19v-290h-230v520h230v-50h10q2 3 5.5 7.5t17.5 16.5t30 21.5t43.5 17t58.5 7.5q104 0 172 -65t68 -160z" />
    <glyph glyph-name="o" unicode="o" horiz-adv-x="760" 
d="M380 375q-45 0 -77.5 -33.5t-32.5 -81.5t32.5 -81.5t77.5 -33.5t77.5 33.5t32.5 81.5t-32.5 81.5t-77.5 33.5zM380 550q149 0 247 -87t98 -203t-98 -203t-247 -87t-247 87t-98 203t98 203t247 87z" />
    <glyph glyph-name="p" unicode="p" horiz-adv-x="785" 
d="M750 260q0 -119 -78.5 -199.5t-191.5 -80.5q-49 0 -87.5 17.5t-52.5 34.5l-15 18h-10v-220h-230v690h230v-50h10q2 3 5.5 7.5t17.5 16.5t30 21.5t43.5 17t58.5 7.5q113 0 191.5 -80.5t78.5 -199.5zM415 365q-42 0 -71 -30t-29 -75t29 -75t71 -30t71 30t29 75t-29 75
t-71 30z" />
    <glyph glyph-name="q" unicode="q" horiz-adv-x="800" 
d="M85 65v455h630v-690h-230v140zM315 200l170 -40v180h-170v-140z" />
    <glyph glyph-name="r" unicode="r" horiz-adv-x="580" 
d="M85 520h455v-180h-225v-340h-230v520z" />
    <glyph glyph-name="s" unicode="s" horiz-adv-x="740" 
d="M75 0v185h220v-35h140v25l-360 85v260h590v-185h-220v35h-140v-20l360 -85v-265h-590z" />
    <glyph glyph-name="t" unicode="t" horiz-adv-x="570" 
d="M170 520v180h230v-180h130v-180h-130v-340h-230v340h-130v180h130z" />
    <glyph glyph-name="u" unicode="u" horiz-adv-x="805" 
d="M85 205v315h230v-290q0 -30 22.5 -52.5t52.5 -22.5q29 0 54 18.5t36 37.5l10 19v290h230v-520h-230v50h-10q-2 -3 -5.5 -7.5t-17.5 -16.5t-30 -21.5t-43.5 -17t-58.5 -7.5q-104 0 -172 65t-68 160z" />
    <glyph glyph-name="v" unicode="v" horiz-adv-x="720" 
d="M510 0h-300l-200 520h245l100 -320h10l100 320h245z" />
    <glyph glyph-name="w" unicode="w" horiz-adv-x="1050" 
d="M530 310h-10l-65 -310h-305l-110 520h235l55 -310h10l65 310h240l65 -310h10l55 310h235l-110 -520h-305z" />
    <glyph glyph-name="x" unicode="x" horiz-adv-x="700" 
d="M445 0l-90 145h-10l-90 -145h-245l170 255l-160 265h245l80 -145h10l80 145h245l-160 -265l170 -255h-245z" />
    <glyph glyph-name="y" unicode="y" horiz-adv-x="710" 
d="M295 0h-95l-190 520h245l95 -320h10l95 320h245l-245 -690h-220z" />
    <glyph glyph-name="z" unicode="z" horiz-adv-x="730" 
d="M665 205v-205h-600v170l305 180v10h-95v-45h-210v205h590v-170l-305 -180v-10h105v45h210z" />
    <glyph glyph-name="braceleft" unicode="{" horiz-adv-x="490" 
d="M30 410h40q22 0 38.5 16t16.5 39v165q0 97 59.5 158.5t150.5 61.5h125v-190h-45q-23 0 -39 -16t-16 -39v-165q0 -44 -25 -74t-50 -38l-25 -8v-10q4 -1 11 -3t24 -10.5t30 -20.5t24 -35t11 -51v-175q0 -23 16 -39t39 -16h45v-190h-125q-91 0 -150.5 61.5t-59.5 158.5v175
q0 23 -16.5 39t-38.5 16h-40v190z" />
    <glyph glyph-name="bar" unicode="|" horiz-adv-x="440" 
d="M105 -230v1080h230v-1080h-230z" />
    <glyph glyph-name="braceright" unicode="}" horiz-adv-x="490" 
d="M420 410h40v-190h-40q-22 0 -38.5 -16t-16.5 -39v-175q0 -97 -59.5 -158.5t-150.5 -61.5h-125v190h45q23 0 39 16t16 39v175q0 44 25 74t50 38l25 8v10q-4 1 -11 3t-24 10.5t-30 20.5t-24 35t-11 51v165q0 23 -16 39t-39 16h-45v190h125q91 0 150.5 -61.5t59.5 -158.5
v-165q0 -23 16.5 -39t38.5 -16z" />
    <glyph glyph-name="asciitilde" unicode="~" horiz-adv-x="645" 
d="M575 500v-180q0 -45 -28.5 -72.5t-76.5 -27.5q-24 0 -49 7.5t-38 14.5l-13 8l-100 60h-10v-80h-190v181q0 45 28.5 72t76.5 27q26 0 51 -7.5t37 -14.5l12 -8l100 -60h10v80h190z" />
    <glyph glyph-name="nbspace" unicode="&#xa0;" horiz-adv-x="370" 
 />
    <glyph glyph-name="exclamdown" unicode="&#xa1;" horiz-adv-x="415" 
d="M330 -180h-245v270l25 180h195l25 -180v-270zM95 330v190h225v-190h-225z" />
    <glyph glyph-name="cent" unicode="&#xa2;" horiz-adv-x="760" 
d="M290 600h210v-80h180v-225h-220v45h-155l-40 -80l40 -80h155v45h220v-225h-180v-80h-210v80h-135l-135 260l135 260h135v80z" />
    <glyph glyph-name="sterling" unicode="&#xa3;" horiz-adv-x="780" 
d="M160 255v25h-90v180h90v10q0 98 73 169t177 71h235v-180h-190q-26 0 -45.5 -20.5t-19.5 -49.5h120v-180h-120v-25q0 -24 -12.5 -40.5t-25.5 -20.5l-12 -4v-10h170v50h230v-230h-700v180h60q2 1 6.5 2.5t14.5 8t18 14.5t14.5 21.5t6.5 28.5z" />
    <glyph glyph-name="currency" unicode="&#xa4;" horiz-adv-x="780" 
d="M290 350q0 -41 29.5 -70.5t70.5 -29.5t70.5 29.5t29.5 70.5t-29.5 70.5t-70.5 29.5t-70.5 -29.5t-29.5 -70.5zM680 350q0 -33 -8.5 -64.5t-17.5 -45.5l-9 -15l70 -75l-140 -130l-70 75q-50 -25 -115 -25q-29 0 -57.5 6t-42.5 12l-15 7l-70 -75l-140 130l70 75
q-35 50 -35 125q0 33 9 64.5t17 45.5l9 15l-70 75l140 130l70 -75q50 25 115 25q29 0 57.5 -6t42.5 -12l15 -7l70 75l140 -130l-70 -75q35 -50 35 -125z" />
    <glyph glyph-name="yen" unicode="&#xa5;" horiz-adv-x="845" 
d="M150 380h40l-190 320h275l145 -280h5l145 280h275l-190 -320h40v-130h-120l-30 -50h150v-130h-150v-70h-245v70h-150v130h150l-30 50h-120v130z" />
    <glyph glyph-name="brokenbar" unicode="&#xa6;" horiz-adv-x="440" 
d="M335 700v-370h-230v370h230zM105 -180v370h230v-370h-230z" />
    <glyph glyph-name="section" unicode="&#xa7;" horiz-adv-x="815" 
d="M720 405v-200l-95 -60v-10l95 -25v-260l-310 -90l-315 90v175h235v-60l80 -20l75 20v55l-390 95v200l95 60v10l-95 25v260l310 90l315 -90v-175h-235v60l-80 20l-75 -20v-55zM330 230l155 -40v100l-155 40v-100z" />
    <glyph glyph-name="dieresis" unicode="&#xa8;" horiz-adv-x="570" 
d="M260 600q0 -42 -30 -71t-75 -29t-75 29t-30 71t30 71t75 29t75 -29t30 -71zM310 600q0 42 30 71t75 29t75 -29t30 -71t-30 -71t-75 -29t-75 29t-30 71z" />
    <glyph glyph-name="copyright" unicode="&#xa9;" horiz-adv-x="1010" 
d="M460 250h85v40h150v-160h-345l-90 180l90 180h345v-160h-150v40h-85l-30 -60zM790 310q0 113 -84.5 196.5t-200.5 83.5t-200.5 -83.5t-84.5 -196.5t84.5 -196.5t200.5 -83.5t200.5 83.5t84.5 196.5zM965 310q0 -114 -60 -212.5t-166.5 -158t-233.5 -59.5t-233.5 59.5
t-166.5 158t-60 212.5t60 212.5t166.5 158t233.5 59.5t233.5 -59.5t166.5 -158t60 -212.5z" />
    <glyph glyph-name="guillemotleft" unicode="&#xab;" horiz-adv-x="720" 
d="M40 260l135 230h205l-135 -230l135 -230h-205zM340 260l135 230h205l-135 -230l135 -230h-205z" />
    <glyph glyph-name="logicalnot" unicode="&#xac;" horiz-adv-x="655" 
d="M60 490h535v-300h-220v110h-315v190z" />
    <glyph glyph-name="uni00AD" unicode="&#xad;" horiz-adv-x="600" 
d="M60 440h480v-190h-480v190z" />
    <glyph glyph-name="registered" unicode="&#xae;" horiz-adv-x="1010" 
d="M460 130h-155v360h395v-235h-50l65 -125h-155l-65 125h-35v-125zM460 390v-35h80v35h-80zM790 310q0 113 -84.5 196.5t-200.5 83.5t-200.5 -83.5t-84.5 -196.5t84.5 -196.5t200.5 -83.5t200.5 83.5t84.5 196.5zM965 310q0 -114 -60 -212.5t-166.5 -158t-233.5 -59.5
t-233.5 59.5t-166.5 158t-60 212.5t60 212.5t166.5 158t233.5 59.5t233.5 -59.5t166.5 -158t60 -212.5z" />
    <glyph glyph-name="macron" unicode="&#xaf;" horiz-adv-x="480" 
d="M50 700h380v-160h-380v160z" />
    <glyph glyph-name="degree" unicode="&#xb0;" horiz-adv-x="500" 
d="M250 600q-26 0 -45.5 -19.5t-19.5 -45.5t19.5 -45.5t45.5 -19.5t45.5 19.5t19.5 45.5t-19.5 45.5t-45.5 19.5zM250 730q88 0 151.5 -59t63.5 -136t-63.5 -136t-151.5 -59t-151.5 59t-63.5 136t63.5 136t151.5 59z" />
    <glyph glyph-name="plusminus" unicode="&#xb1;" horiz-adv-x="650" 
d="M75 200h160v120h-170v180h170v160h180v-160h170v-180h-170v-120h160v-180h-500v180z" />
    <glyph glyph-name="twosuperior" unicode="&#xb2;" horiz-adv-x="490" 
d="M430 310h-370v130l220 130v10h-80v-40h-140v160h370v-180l-160 -80v-10h160v-120z" />
    <glyph glyph-name="threesuperior" unicode="&#xb3;" horiz-adv-x="505" 
d="M200 580v-40h-140v160h380v-120l-70 -75l75 -75v-120h-385v160h140v-40h80v10l-65 65l60 65v10h-75z" />
    <glyph glyph-name="acute" unicode="&#xb4;" horiz-adv-x="410" 
d="M135 700h225l-140 -200h-170z" />
    <glyph glyph-name="mu" unicode="&#xb5;" horiz-adv-x="805" 
d="M315 520v-290q0 -30 22.5 -52.5t52.5 -22.5q29 0 54 18.5t36 37.5l10 19v290h230v-520h-230v50h-10q-2 -3 -5.5 -7.5t-17.5 -16.5t-30 -21.5t-43.5 -17t-58.5 -7.5h-10v-160h-230v700h230z" />
    <glyph glyph-name="mu" unicode="&#x3bc;" horiz-adv-x="805" 
d="M315 520v-290q0 -30 22.5 -52.5t52.5 -22.5q29 0 54 18.5t36 37.5l10 19v290h230v-520h-230v50h-10q-2 -3 -5.5 -7.5t-17.5 -16.5t-30 -21.5t-43.5 -17t-58.5 -7.5h-10v-160h-230v700h230z" />
    <glyph glyph-name="paragraph" unicode="&#xb6;" horiz-adv-x="805" 
d="M775 700v-180h-75v-700h-190v700h-60v-700h-190v470q-96 0 -158 59t-62 146t62 146t158 59h515z" />
    <glyph glyph-name="periodcentered" unicode="&#xb7;" horiz-adv-x="375" 
d="M75 250v190h225v-190h-225z" />
    <glyph glyph-name="cedilla" unicode="&#xb8;" horiz-adv-x="380" 
d="M60 -120v150h130v-54q60 -4 100 -43.5t40 -92.5q0 -62 -50 -106t-130 -44q-22 0 -47 2.5t-39 5.5l-14 2v110q50 -10 90 -10q15 0 27.5 12.5t12.5 27.5t-12.5 27.5t-27.5 12.5h-80z" />
    <glyph glyph-name="onesuperior" unicode="&#xb9;" horiz-adv-x="430" 
d="M60 580v120h230v-270h80v-120h-310v120h80v150h-80z" />
    <glyph glyph-name="ordmasculine" unicode="&#xba;" horiz-adv-x="530" 
d="M265 560q-23 0 -39 -16t-16 -39t16 -39t39 -16t39 16t16 39t-16 39t-39 16zM265 700q92 0 153.5 -57.5t61.5 -137.5t-61.5 -137.5t-153.5 -57.5t-153.5 57.5t-61.5 137.5t61.5 137.5t153.5 57.5z" />
    <glyph glyph-name="guillemotright" unicode="&#xbb;" horiz-adv-x="720" 
d="M545 490l135 -230l-135 -230h-205l135 230l-135 230h205zM245 490l135 -230l-135 -230h-205l135 230l-135 230h205z" />
    <glyph glyph-name="onequarter" unicode="&#xbc;" horiz-adv-x="1075" 
d="M405 0h-250l495 700h250zM50 580v120h230v-270h80v-120h-310v120h80v150h-80zM970 390v-230h55v-110h-55v-50h-150v50h-220v120l200 220h170zM820 160v80h-10l-65 -70v-10h75z" />
    <glyph glyph-name="onehalf" unicode="&#xbd;" horiz-adv-x="1120" 
d="M405 0h-250l495 700h250zM50 580v120h230v-270h80v-120h-310v120h80v150h-80zM1070 0h-370v130l220 130v10h-80v-40h-140v160h370v-180l-160 -80v-10h160v-120z" />
    <glyph glyph-name="threequarters" unicode="&#xbe;" horiz-adv-x="1165" 
d="M495 0h-250l495 700h250zM1060 390v-230h55v-110h-55v-50h-150v50h-220v120l200 220h170zM910 160v80h-10l-65 -70v-10h75zM190 580v-40h-140v160h380v-120l-70 -75l75 -75v-120h-385v160h140v-40h80v10l-65 65l60 65v10h-75z" />
    <glyph glyph-name="questiondown" unicode="&#xbf;" horiz-adv-x="790" 
d="M760 -180h-710v360l255 60v30h215v-155l-225 -55v-60h230v80h235v-260zM525 520v-190h-225v190h225z" />
    <glyph glyph-name="Agrave" unicode="&#xc0;" 
d="M325 110l-45 -110h-270l310 700h310l310 -700h-270l-45 110h-300zM555 290l-75 190h-10l-75 -190h160zM260 960h225l85 -200h-170z" />
    <glyph glyph-name="Aacute" unicode="&#xc1;" 
d="M325 110l-45 -110h-270l310 700h310l310 -700h-270l-45 110h-300zM555 290l-75 190h-10l-75 -190h160zM468 960h225l-140 -200h-170z" />
    <glyph glyph-name="Acircumflex" unicode="&#xc2;" 
d="M325 110l-45 -110h-270l310 700h310l310 -700h-270l-45 110h-300zM555 290l-75 190h-10l-75 -190h160zM375 964h200l140 -195h-180l-55 75h-10l-55 -75h-180z" />
    <glyph glyph-name="Atilde" unicode="&#xc3;" 
d="M325 110l-45 -110h-270l310 700h310l310 -700h-270l-45 110h-300zM555 290l-75 190h-10l-75 -190h160zM670 990v-140q0 -38 -21 -59t-59 -21q-18 0 -38 6t-31 12l-11 7l-75 40h-10v-60h-145v140q0 37 21 58t59 21q18 0 38 -6t31 -12l11 -7l75 -39h10v60h145z" />
    <glyph glyph-name="Adieresis" unicode="&#xc4;" 
d="M325 110l-45 -110h-270l310 700h310l310 -700h-270l-45 110h-300zM555 290l-75 190h-10l-75 -190h160zM450 870q0 -42 -30 -71t-75 -29t-75 29t-30 71t30 71t75 29t75 -29t30 -71zM500 870q0 42 30 71t75 29t75 -29t30 -71t-30 -71t-75 -29t-75 29t-30 71z" />
    <glyph glyph-name="Aring" unicode="&#xc5;" 
d="M325 110l-45 -110h-270l308 696q-13 31 -13 59q0 61 50 108t120 47t120 -47t50 -108q0 -29 -14 -59l309 -696h-270l-45 110h-300zM555 290l-75 190h-10l-75 -190h160zM475 800q-19 0 -32 -13t-13 -32t13 -32t32 -13t32 13t13 32t-13 32t-32 13z" />
    <glyph glyph-name="AE" unicode="&#xc6;" horiz-adv-x="1435" 
d="M330 150l-60 -150h-270l310 700h1040v-270h-235v80h-245v-80h190v-170h-190v-70h245v80h235v-270h-725v150h-295zM470 510l-70 -180h225v180h-155z" />
    <glyph glyph-name="Ccedilla" unicode="&#xc7;" horiz-adv-x="930" 
d="M200 0l-180 350l180 350h645v-280h-235v80h-245l-75 -150l75 -150h245v80h235v-280h-310v-24q60 -4 100 -43.5t40 -92.5q0 -62 -50 -106t-130 -44q-22 0 -47 2.5t-39 5.5l-14 2v110q50 -10 90 -10q15 0 27.5 12.5t12.5 27.5t-12.5 27.5t-27.5 12.5h-80v120h-205z" />
    <glyph glyph-name="Egrave" unicode="&#xc8;" horiz-adv-x="915" 
d="M830 430h-235v80h-245v-80h190v-170h-190v-70h245v80h235v-270h-725v700h725v-270zM252 960h225l85 -200h-170z" />
    <glyph glyph-name="Eacute" unicode="&#xc9;" horiz-adv-x="915" 
d="M830 430h-235v80h-245v-80h190v-170h-190v-70h245v80h235v-270h-725v700h725v-270zM467 960h225l-140 -200h-170z" />
    <glyph glyph-name="Ecircumflex" unicode="&#xca;" horiz-adv-x="915" 
d="M830 430h-235v80h-245v-80h190v-170h-190v-70h245v80h235v-270h-725v700h725v-270zM357 960h200l140 -195h-180l-55 75h-10l-55 -75h-180z" />
    <glyph glyph-name="Edieresis" unicode="&#xcb;" horiz-adv-x="915" 
d="M830 430h-235v80h-245v-80h190v-170h-190v-70h245v80h235v-270h-725v700h725v-270zM432 870q0 -42 -30 -71t-75 -29t-75 29t-30 71t30 71t75 29t75 -29t30 -71zM482 870q0 42 30 71t75 29t75 -29t30 -71t-30 -71t-75 -29t-75 29t-30 71z" />
    <glyph glyph-name="Igrave" unicode="&#xcc;" horiz-adv-x="655" 
d="M65 500v200h525v-200h-140v-300h140v-200h-525v200h140v300h-140zM112 960h225l85 -200h-170z" />
    <glyph glyph-name="Iacute" unicode="&#xcd;" horiz-adv-x="655" 
d="M65 500v200h525v-200h-140v-300h140v-200h-525v200h140v300h-140zM327 960h225l-140 -200h-170z" />
    <glyph glyph-name="Icircumflex" unicode="&#xce;" horiz-adv-x="655" 
d="M65 500v200h525v-200h-140v-300h140v-200h-525v200h140v300h-140zM227 970h200l140 -195h-180l-55 75h-10l-55 -75h-180z" />
    <glyph glyph-name="Idieresis" unicode="&#xcf;" horiz-adv-x="655" 
d="M65 500v200h525v-200h-140v-300h140v-200h-525v200h140v300h-140zM302 870q0 -42 -30 -71t-75 -29t-75 29t-30 71t30 71t75 29t75 -29t30 -71zM352 870q0 42 30 71t75 29t75 -29t30 -71t-30 -71t-75 -29t-75 29t-30 71z" />
    <glyph glyph-name="Eth" unicode="&#xd0;" horiz-adv-x="940" 
d="M20 430h85v270h395q172 0 286 -104t114 -246t-114 -246t-286 -104h-395v270h-85v160zM500 500h-150v-70h150v-160h-150v-70h150q57 0 101 45t44 105t-44 105t-101 45z" />
    <glyph glyph-name="Ntilde" unicode="&#xd1;" horiz-adv-x="965" 
d="M606 480h9v220h245v-700h-245v180l-255 220h-10v-400h-245v700h245zM667 980v-140q0 -38 -21.5 -59t-58.5 -21q-18 0 -38 6t-31 12l-11 7l-75 40h-10v-60h-145v140q0 37 21 58t59 21q18 0 38 -6t31 -12l11 -7l75 -39h10v60h145z" />
    <glyph glyph-name="Ograve" unicode="&#xd2;" 
d="M655 350q0 75 -52.5 127.5t-127.5 52.5t-127.5 -52.5t-52.5 -127.5t52.5 -127.5t127.5 -52.5t127.5 52.5t52.5 127.5zM910 350q0 -150 -126 -265t-309 -115t-309 115t-126 265t126 265t309 115t309 -115t126 -265zM260 980h225l85 -200h-170z" />
    <glyph glyph-name="Oacute" unicode="&#xd3;" 
d="M655 350q0 75 -52.5 127.5t-127.5 52.5t-127.5 -52.5t-52.5 -127.5t52.5 -127.5t127.5 -52.5t127.5 52.5t52.5 127.5zM910 350q0 -150 -126 -265t-309 -115t-309 115t-126 265t126 265t309 115t309 -115t126 -265zM465 980h225l-140 -200h-170z" />
    <glyph glyph-name="Ocircumflex" unicode="&#xd4;" 
d="M655 350q0 75 -52.5 127.5t-127.5 52.5t-127.5 -52.5t-52.5 -127.5t52.5 -127.5t127.5 -52.5t127.5 52.5t52.5 127.5zM910 350q0 -150 -126 -265t-309 -115t-309 115t-126 265t126 265t309 115t309 -115t126 -265zM375 974h200l140 -195h-180l-55 75h-10l-55 -75h-180z
" />
    <glyph glyph-name="Otilde" unicode="&#xd5;" 
d="M655 350q0 75 -52.5 127.5t-127.5 52.5t-127.5 -52.5t-52.5 -127.5t52.5 -127.5t127.5 -52.5t127.5 52.5t52.5 127.5zM910 350q0 -150 -126 -265t-309 -115t-309 115t-126 265t126 265t309 115t309 -115t126 -265zM670 1010v-140q0 -38 -21 -59t-59 -21q-18 0 -38 6
t-31 12l-11 7l-75 40h-10v-60h-145v140q0 37 21 58t59 21q18 0 38 -6t31 -12l11 -7l75 -39h10v60h145z" />
    <glyph glyph-name="Odieresis" unicode="&#xd6;" 
d="M655 350q0 75 -52.5 127.5t-127.5 52.5t-127.5 -52.5t-52.5 -127.5t52.5 -127.5t127.5 -52.5t127.5 52.5t52.5 127.5zM910 350q0 -150 -126 -265t-309 -115t-309 115t-126 265t126 265t309 115t309 -115t126 -265zM450 880q0 -42 -30 -71t-75 -29t-75 29t-30 71t30 71
t75 29t75 -29t30 -71zM500 880q0 42 30 71t75 29t75 -29t30 -71t-30 -71t-75 -29t-75 29t-30 71z" />
    <glyph glyph-name="multiply" unicode="&#xd7;" horiz-adv-x="620" 
d="M445 350l115 -115l-135 -135l-115 115l-115 -115l-135 135l115 115l-115 115l135 135l115 -115l115 115l135 -135z" />
    <glyph glyph-name="Oslash" unicode="&#xd8;" 
d="M237 -20h-185l103 115q-115 112 -115 255q0 150 126 265t309 115q108 0 205 -46l32 36h185l-103 -115q116 -111 116 -255q0 -150 -126 -265t-309 -115q-111 0 -206 46zM655 350q0 40 -18 78l-222 -248q27 -10 60 -10q75 0 127.5 52.5t52.5 127.5zM295 350q0 -42 17 -78
l222 248q-27 10 -59 10q-75 0 -127.5 -52.5t-52.5 -127.5z" />
    <glyph glyph-name="Ugrave" unicode="&#xd9;" 
d="M475 170q57 0 96 40t39 100v390h245v-390q0 -145 -105.5 -242.5t-274.5 -97.5t-274.5 97.5t-105.5 242.5v390h245v-390q0 -60 39 -100t96 -40zM270 960h225l85 -200h-170z" />
    <glyph glyph-name="Uacute" unicode="&#xda;" 
d="M475 170q57 0 96 40t39 100v390h245v-390q0 -145 -105.5 -242.5t-274.5 -97.5t-274.5 97.5t-105.5 242.5v390h245v-390q0 -60 39 -100t96 -40zM470 960h225l-140 -200h-170z" />
    <glyph glyph-name="Ucircumflex" unicode="&#xdb;" 
d="M475 170q57 0 96 40t39 100v390h245v-390q0 -145 -105.5 -242.5t-274.5 -97.5t-274.5 97.5t-105.5 242.5v390h245v-390q0 -60 39 -100t96 -40zM375 960h200l140 -195h-180l-55 75h-10l-55 -75h-180z" />
    <glyph glyph-name="Udieresis" unicode="&#xdc;" 
d="M475 170q57 0 96 40t39 100v390h245v-390q0 -145 -105.5 -242.5t-274.5 -97.5t-274.5 97.5t-105.5 242.5v390h245v-390q0 -60 39 -100t96 -40zM450 880q0 -42 -30 -71t-75 -29t-75 29t-30 71t30 71t75 29t75 -29t30 -71zM500 880q0 42 30 71t75 29t75 -29t30 -71t-30 -71
t-75 -29t-75 29t-30 71z" />
    <glyph glyph-name="Yacute" unicode="&#xdd;" horiz-adv-x="845" 
d="M425 420l145 280h275l-300 -500v-200h-245v200l-300 500h275l145 -280h5zM422 960h225l-140 -200h-170z" />
    <glyph glyph-name="Thorn" unicode="&#xde;" horiz-adv-x="890" 
d="M105 700h245v-80h210q128 0 211.5 -76t83.5 -184t-83.5 -184t-211.5 -76h-210v-100h-245v700zM600 360q0 30 -20 50t-49 20h-181v-140h181q29 0 49 20t20 50z" />
    <glyph glyph-name="germandbls" unicode="&#xdf;" horiz-adv-x="785" 
d="M475 530h-80q-26 0 -45.5 -20.5t-19.5 -49.5v-460h-230v290h-70v180h70q0 98 73 169t177 71h360v-260l-90 -110l100 -110v-240h-320v160h85v80l-100 110l90 110v80z" />
    <glyph glyph-name="agrave" unicode="&#xe0;" horiz-adv-x="785" 
d="M35 260q0 119 78.5 199.5t191.5 80.5q49 0 87.5 -17.5t53.5 -34.5l14 -18h10v50h230v-520h-230v50h-10q-2 -3 -5.5 -7.5t-17.5 -16.5t-30 -21.5t-43.5 -17t-58.5 -7.5q-113 0 -191.5 80.5t-78.5 199.5zM370 365q-42 0 -71 -30t-29 -75t29 -75t71 -30t71 30t29 75t-29 75
t-71 30zM197 800h225l85 -200h-170z" />
    <glyph glyph-name="aacute" unicode="&#xe1;" horiz-adv-x="785" 
d="M35 260q0 119 78.5 199.5t191.5 80.5q49 0 87.5 -17.5t53.5 -34.5l14 -18h10v50h230v-520h-230v50h-10q-2 -3 -5.5 -7.5t-17.5 -16.5t-30 -21.5t-43.5 -17t-58.5 -7.5q-113 0 -191.5 80.5t-78.5 199.5zM370 365q-42 0 -71 -30t-29 -75t29 -75t71 -30t71 30t29 75t-29 75
t-71 30zM402 800h225l-140 -200h-170z" />
    <glyph glyph-name="acircumflex" unicode="&#xe2;" horiz-adv-x="785" 
d="M35 260q0 119 78.5 199.5t191.5 80.5q49 0 87.5 -17.5t53.5 -34.5l14 -18h10v50h230v-520h-230v50h-10q-2 -3 -5.5 -7.5t-17.5 -16.5t-30 -21.5t-43.5 -17t-58.5 -7.5q-113 0 -191.5 80.5t-78.5 199.5zM370 365q-42 0 -71 -30t-29 -75t29 -75t71 -30t71 30t29 75t-29 75
t-71 30zM292 810h200l140 -195h-180l-55 75h-10l-55 -75h-180z" />
    <glyph glyph-name="atilde" unicode="&#xe3;" horiz-adv-x="785" 
d="M35 260q0 119 78.5 199.5t191.5 80.5q49 0 87.5 -17.5t53.5 -34.5l14 -18h10v50h230v-520h-230v50h-10q-2 -3 -5.5 -7.5t-17.5 -16.5t-30 -21.5t-43.5 -17t-58.5 -7.5q-113 0 -191.5 80.5t-78.5 199.5zM370 365q-42 0 -71 -30t-29 -75t29 -75t71 -30t71 30t29 75t-29 75
t-71 30zM587 820v-140q0 -38 -21 -59t-59 -21q-18 0 -38 6t-31 12l-11 7l-75 40h-10v-60h-145v140q0 37 21 58t59 21q18 0 38 -6t31 -12l11 -7l75 -39h10v60h145z" />
    <glyph glyph-name="adieresis" unicode="&#xe4;" horiz-adv-x="785" 
d="M35 260q0 119 78.5 199.5t191.5 80.5q49 0 87.5 -17.5t53.5 -34.5l14 -18h10v50h230v-520h-230v50h-10q-2 -3 -5.5 -7.5t-17.5 -16.5t-30 -21.5t-43.5 -17t-58.5 -7.5q-113 0 -191.5 80.5t-78.5 199.5zM370 365q-42 0 -71 -30t-29 -75t29 -75t71 -30t71 30t29 75t-29 75
t-71 30zM367 710q0 -42 -30 -71t-75 -29t-75 29t-30 71t30 71t75 29t75 -29t30 -71zM417 710q0 42 30 71t75 29t75 -29t30 -71t-30 -71t-75 -29t-75 29t-30 71z" />
    <glyph glyph-name="aring" unicode="&#xe5;" horiz-adv-x="785" 
d="M35 260q0 119 78.5 199.5t191.5 80.5q49 0 87.5 -17.5t53.5 -34.5l14 -18h10v50h230v-520h-230v50h-10q-2 -3 -5.5 -7.5t-17.5 -16.5t-30 -21.5t-43.5 -17t-58.5 -7.5q-113 0 -191.5 80.5t-78.5 199.5zM370 365q-42 0 -71 -30t-29 -75t29 -75t71 -30t71 30t29 75t-29 75
t-71 30zM410 744q-15 0 -26 -10.5t-11 -26.5q0 -15 11 -26t26 -11q16 0 26.5 11t10.5 26q0 16 -10.5 26.5t-26.5 10.5zM410 835q58 0 99 -39t41 -89t-41 -88.5t-99 -38.5t-99 38.5t-41 88.5t41 89t99 39z" />
    <glyph glyph-name="ae" unicode="&#xe6;" horiz-adv-x="1165" 
d="M1080 190v-190h-610v50h-10q-2 -3 -5.5 -7.5t-17.5 -16.5t-30 -21.5t-43.5 -17t-58.5 -7.5q-113 0 -191.5 80.5t-78.5 199.5t78.5 199.5t191.5 80.5q49 0 87.5 -17.5t53.5 -34.5l14 -18h10v50h610v-250l-380 -90v-35h160v45h220zM370 365q-42 0 -71 -30t-29 -75t29 -75
t71 -30q40 0 69.5 28.5t30.5 71.5v5q0 45 -29 75t-71 30zM850 340v35h-150v-70z" />
    <glyph glyph-name="ccedilla" unicode="&#xe7;" horiz-adv-x="760" 
d="M305 180h155v45h220v-225h-240v-24q60 -4 100 -43.5t40 -92.5q0 -62 -50 -106t-130 -44q-22 0 -47 2.5t-39 5.5l-14 2v110q50 -10 90 -10q15 0 27.5 12.5t12.5 27.5t-12.5 27.5t-27.5 12.5h-80v120h-155l-135 260l135 260h525v-225h-220v45h-155l-40 -80z" />
    <glyph glyph-name="egrave" unicode="&#xe8;" horiz-adv-x="780" 
d="M465 340v35h-150v-70zM695 190v-190h-610v520h610v-250l-380 -90v-35h160v45h220zM195 800h225l85 -200h-170z" />
    <glyph glyph-name="eacute" unicode="&#xe9;" horiz-adv-x="780" 
d="M465 340v35h-150v-70zM695 190v-190h-610v520h610v-250l-380 -90v-35h160v45h220zM390 800h225l-140 -200h-170z" />
    <glyph glyph-name="ecircumflex" unicode="&#xea;" horiz-adv-x="780" 
d="M465 340v35h-150v-70zM695 190v-190h-610v520h610v-250l-380 -90v-35h160v45h220zM290 800h200l140 -195h-180l-55 75h-10l-55 -75h-180z" />
    <glyph glyph-name="edieresis" unicode="&#xeb;" horiz-adv-x="780" 
d="M465 340v35h-150v-70zM695 190v-190h-610v520h610v-250l-380 -90v-35h160v45h220zM365 690q0 -42 -30 -71t-75 -29t-75 29t-30 71t30 71t75 29t75 -29t30 -71zM415 690q0 42 30 71t75 29t75 -29t30 -71t-30 -71t-75 -29t-75 29t-30 71z" />
    <glyph glyph-name="igrave" unicode="&#xec;" horiz-adv-x="410" 
d="M320 520v-520h-230v520h230zM-20 800h225l85 -200h-170z" />
    <glyph glyph-name="iacute" unicode="&#xed;" horiz-adv-x="410" 
d="M320 520v-520h-230v520h230zM195 800h225l-140 -200h-170z" />
    <glyph glyph-name="icircumflex" unicode="&#xee;" horiz-adv-x="410" 
d="M320 520v-520h-230v520h230zM105 800h200l140 -195h-180l-55 75h-10l-55 -75h-180z" />
    <glyph glyph-name="idieresis" unicode="&#xef;" horiz-adv-x="410" 
d="M320 520v-520h-230v520h230zM180 690q0 -42 -30 -71t-75 -29t-75 29t-30 71t30 71t75 29t75 -29t30 -71zM230 690q0 42 30 71t75 29t75 -29t30 -71t-30 -71t-75 -29t-75 29t-30 71z" />
    <glyph glyph-name="eth" unicode="&#xf0;" horiz-adv-x="740" 
d="M215 575l35 65l-70 40l70 140l75 -35l35 70l125 -65l-35 -70q111 -59 178 -154t67 -186v-90q0 -136 -94 -228t-236 -92q-145 0 -237.5 79.5t-92.5 185.5q0 117 76 191t199 74q40 0 77.5 -15t54.5 -30l18 -15h10q-7 35 -36.5 69.5t-63.5 56.5l-35 -56zM365 325
q-41 0 -68 -26t-27 -64t27 -64t68 -26t68 26t27 64t-27 64t-68 26z" />
    <glyph glyph-name="ntilde" unicode="&#xf1;" horiz-adv-x="800" 
d="M720 315v-315h-230v290q0 30 -22.5 52.5t-52.5 22.5q-29 0 -54 -18.5t-35 -37.5l-11 -19v-290h-230v520h230v-50h10q2 3 5.5 7.5t17.5 16.5t30 21.5t43.5 17t58.5 7.5q104 0 172 -65t68 -160zM595 820v-140q0 -38 -21.5 -59t-58.5 -21q-18 0 -38 6t-31 12l-11 7l-75 40
h-10v-60h-145v140q0 37 21 58t59 21q18 0 38 -6t31 -12l11 -7l75 -39h10v60h145z" />
    <glyph glyph-name="ograve" unicode="&#xf2;" horiz-adv-x="760" 
d="M380 375q-45 0 -77.5 -33.5t-32.5 -81.5t32.5 -81.5t77.5 -33.5t77.5 33.5t32.5 81.5t-32.5 81.5t-77.5 33.5zM380 550q149 0 247 -87t98 -203t-98 -203t-247 -87t-247 87t-98 203t98 203t247 87zM175 810h225l85 -200h-170z" />
    <glyph glyph-name="oacute" unicode="&#xf3;" horiz-adv-x="760" 
d="M380 375q-45 0 -77.5 -33.5t-32.5 -81.5t32.5 -81.5t77.5 -33.5t77.5 33.5t32.5 81.5t-32.5 81.5t-77.5 33.5zM380 550q149 0 247 -87t98 -203t-98 -203t-247 -87t-247 87t-98 203t98 203t247 87zM380 810h225l-140 -200h-170z" />
    <glyph glyph-name="ocircumflex" unicode="&#xf4;" horiz-adv-x="760" 
d="M380 375q-45 0 -77.5 -33.5t-32.5 -81.5t32.5 -81.5t77.5 -33.5t77.5 33.5t32.5 81.5t-32.5 81.5t-77.5 33.5zM380 550q149 0 247 -87t98 -203t-98 -203t-247 -87t-247 87t-98 203t98 203t247 87zM280 800h200l140 -195h-180l-55 75h-10l-55 -75h-180z" />
    <glyph glyph-name="otilde" unicode="&#xf5;" horiz-adv-x="760" 
d="M380 375q-45 0 -77.5 -33.5t-32.5 -81.5t32.5 -81.5t77.5 -33.5t77.5 33.5t32.5 81.5t-32.5 81.5t-77.5 33.5zM380 550q149 0 247 -87t98 -203t-98 -203t-247 -87t-247 87t-98 203t98 203t247 87zM585 830v-140q0 -38 -21.5 -59t-58.5 -21q-18 0 -38 6t-31 12l-11 7
l-75 40h-10v-60h-145v140q0 37 21 58t59 21q18 0 38 -6t31 -12l11 -7l75 -39h10v60h145z" />
    <glyph glyph-name="odieresis" unicode="&#xf6;" horiz-adv-x="760" 
d="M380 375q-45 0 -77.5 -33.5t-32.5 -81.5t32.5 -81.5t77.5 -33.5t77.5 33.5t32.5 81.5t-32.5 81.5t-77.5 33.5zM380 550q149 0 247 -87t98 -203t-98 -203t-247 -87t-247 87t-98 203t98 203t247 87zM355 700q0 -42 -30 -71t-75 -29t-75 29t-30 71t30 71t75 29t75 -29
t30 -71zM405 700q0 42 30 71t75 29t75 -29t30 -71t-30 -71t-75 -29t-75 29t-30 71z" />
    <glyph glyph-name="divide" unicode="&#xf7;" horiz-adv-x="640" 
d="M70 440h500v-190h-500v190zM220 510v150h200v-150h-200zM220 30v150h200v-150h-200z" />
    <glyph glyph-name="oslash" unicode="&#xf8;" horiz-adv-x="760" 
d="M183 -20h-175l100 100q-73 79 -73 180q0 116 98 203t247 87q86 0 164 -34l24 24h185l-102 -100q74 -80 74 -180q0 -116 -98 -203t-247 -87q-91 0 -170 37zM490 260q0 8 -2 20l-134 -132q12 -3 26 -3q45 0 77.5 33.5t32.5 81.5zM380 375q-45 0 -77.5 -33.5t-32.5 -81.5
q0 -12 1 -17l130 130q-14 2 -21 2z" />
    <glyph glyph-name="ugrave" unicode="&#xf9;" horiz-adv-x="805" 
d="M85 205v315h230v-290q0 -30 22.5 -52.5t52.5 -22.5q29 0 54 18.5t36 37.5l10 19v290h230v-520h-230v50h-10q-2 -3 -5.5 -7.5t-17.5 -16.5t-30 -21.5t-43.5 -17t-58.5 -7.5q-104 0 -172 65t-68 160zM177 800h225l85 -200h-170z" />
    <glyph glyph-name="uacute" unicode="&#xfa;" horiz-adv-x="805" 
d="M85 205v315h230v-290q0 -30 22.5 -52.5t52.5 -22.5q29 0 54 18.5t36 37.5l10 19v290h230v-520h-230v50h-10q-2 -3 -5.5 -7.5t-17.5 -16.5t-30 -21.5t-43.5 -17t-58.5 -7.5q-104 0 -172 65t-68 160zM402 800h225l-140 -200h-170z" />
    <glyph glyph-name="ucircumflex" unicode="&#xfb;" horiz-adv-x="805" 
d="M85 205v315h230v-290q0 -30 22.5 -52.5t52.5 -22.5q29 0 54 18.5t36 37.5l10 19v290h230v-520h-230v50h-10q-2 -3 -5.5 -7.5t-17.5 -16.5t-30 -21.5t-43.5 -17t-58.5 -7.5q-104 0 -172 65t-68 160zM302 800h200l140 -195h-180l-55 75h-10l-55 -75h-180z" />
    <glyph glyph-name="udieresis" unicode="&#xfc;" horiz-adv-x="805" 
d="M85 205v315h230v-290q0 -30 22.5 -52.5t52.5 -22.5q29 0 54 18.5t36 37.5l10 19v290h230v-520h-230v50h-10q-2 -3 -5.5 -7.5t-17.5 -16.5t-30 -21.5t-43.5 -17t-58.5 -7.5q-104 0 -172 65t-68 160zM377 690q0 -42 -30 -71t-75 -29t-75 29t-30 71t30 71t75 29t75 -29
t30 -71zM427 690q0 42 30 71t75 29t75 -29t30 -71t-30 -71t-75 -29t-75 29t-30 71z" />
    <glyph glyph-name="yacute" unicode="&#xfd;" horiz-adv-x="710" 
d="M295 0h-95l-190 520h245l95 -320h10l95 320h245l-245 -690h-220zM355 800h225l-140 -200h-170z" />
    <glyph glyph-name="thorn" unicode="&#xfe;" horiz-adv-x="785" 
d="M750 260q0 -119 -78.5 -199.5t-191.5 -80.5q-49 0 -87.5 17.5t-52.5 34.5l-15 18h-10v-220h-230v870h230v-230h10q2 3 5.5 7.5t17.5 16.5t30 21.5t43.5 17t58.5 7.5q113 0 191.5 -80.5t78.5 -199.5zM415 365q-42 0 -71 -30t-29 -75t29 -75t71 -30t71 30t29 75t-29 75
t-71 30z" />
    <glyph glyph-name="ydieresis" unicode="&#xff;" horiz-adv-x="710" 
d="M295 0h-95l-190 520h245l95 -320h10l95 320h245l-245 -690h-220zM330 690q0 -42 -30 -71t-75 -29t-75 29t-30 71t30 71t75 29t75 -29t30 -71zM380 690q0 42 30 71t75 29t75 -29t30 -71t-30 -71t-75 -29t-75 29t-30 71z" />
    <glyph glyph-name="Amacron" unicode="&#x100;" 
d="M325 110l-45 -110h-270l310 700h310l310 -700h-270l-45 110h-300zM555 290l-75 190h-10l-75 -190h160zM285 950h380v-160h-380v160z" />
    <glyph glyph-name="amacron" unicode="&#x101;" horiz-adv-x="785" 
d="M35 260q0 119 78.5 199.5t191.5 80.5q49 0 87.5 -17.5t53.5 -34.5l14 -18h10v50h230v-520h-230v50h-10q-2 -3 -5.5 -7.5t-17.5 -16.5t-30 -21.5t-43.5 -17t-58.5 -7.5q-113 0 -191.5 80.5t-78.5 199.5zM370 365q-42 0 -71 -30t-29 -75t29 -75t71 -30t71 30t29 75t-29 75
t-71 30zM202 790h380v-160h-380v160z" />
    <glyph glyph-name="Abreve" unicode="&#x102;" 
d="M325 110l-45 -110h-270l310 700h310l310 -700h-270l-45 110h-300zM555 290l-75 190h-10l-75 -190h160zM515 770h-80q-71 0 -118 46t-47 114v40h155v-15q0 -23 13.5 -36.5t36.5 -13.5q22 0 36 14t14 36v15h155v-40q0 -68 -47 -114t-118 -46z" />
    <glyph glyph-name="abreve" unicode="&#x103;" horiz-adv-x="785" 
d="M35 260q0 119 78.5 199.5t191.5 80.5q49 0 87.5 -17.5t53.5 -34.5l14 -18h10v50h230v-520h-230v50h-10q-2 -3 -5.5 -7.5t-17.5 -16.5t-30 -21.5t-43.5 -17t-58.5 -7.5q-113 0 -191.5 80.5t-78.5 199.5zM370 365q-42 0 -71 -30t-29 -75t29 -75t71 -30t71 30t29 75t-29 75
t-71 30zM442 600h-80q-71 0 -118 46t-47 114v40h155v-15q0 -23 14 -36.5t36 -13.5t36 14t14 36v15h155v-40q0 -68 -47 -114t-118 -46z" />
    <glyph glyph-name="Aogonek" unicode="&#x104;" 
d="M325 110l-45 -110h-270l310 700h310l310 -700v-20q-6 -2 -16 -6.5t-36 -18t-46 -27.5t-36 -32.5t-16 -35.5q0 -16 14 -28t36 -12q13 0 33 2.5t33 5.5l14 2v-110q-50 -10 -110 -10q-79 0 -124.5 37.5t-45.5 92.5q0 30 15 57.5t35 44.5t44 31.5t37 19.5t18 7h-119l-45 110
h-300zM555 290l-75 190h-10l-75 -190h160z" />
    <glyph glyph-name="aogonek" unicode="&#x105;" horiz-adv-x="785" 
d="M35 260q0 119 78.5 199.5t191.5 80.5q49 0 87.5 -17.5t53.5 -34.5l14 -18h10v50h230v-540q-6 -2 -16 -6.5t-36 -18t-46 -27.5t-36 -32.5t-16 -35.5q0 -16 14 -28t36 -12q13 0 33 2.5t33 5.5l14 2v-110q-50 -10 -110 -10q-79 0 -124.5 37.5t-45.5 92.5q0 30 15 57.5
t35 44.5t44 31.5t37 19.5t18 7h-79v50h-10q-2 -3 -5.5 -7.5t-17.5 -16.5t-30 -21.5t-43.5 -17t-58.5 -7.5q-113 0 -191.5 80.5t-78.5 199.5zM370 365q-42 0 -71 -30t-29 -75t29 -75t71 -30t71 30t29 75t-29 75t-71 30z" />
    <glyph glyph-name="Cacute" unicode="&#x106;" horiz-adv-x="930" 
d="M200 0l-180 350l180 350h645v-280h-235v80h-245l-75 -150l75 -150h245v80h235v-280h-645zM495 960h225l-140 -200h-170z" />
    <glyph glyph-name="cacute" unicode="&#x107;" horiz-adv-x="760" 
d="M305 180h155v45h220v-225h-525l-135 260l135 260h525v-225h-220v45h-155l-40 -80zM380 800h225l-140 -200h-170z" />
    <glyph glyph-name="Ccircumflex" unicode="&#x108;" horiz-adv-x="930" 
d="M200 0l-180 350l180 350h645v-280h-235v80h-245l-75 -150l75 -150h245v80h235v-280h-645zM395 960h200l140 -195h-180l-55 75h-10l-55 -75h-180z" />
    <glyph glyph-name="ccircumflex" unicode="&#x109;" horiz-adv-x="760" 
d="M305 180h155v45h220v-225h-525l-135 260l135 260h525v-225h-220v45h-155l-40 -80zM300 790h200l140 -195h-180l-55 75h-10l-55 -75h-180z" />
    <glyph glyph-name="Cdotaccent" unicode="&#x10a;" horiz-adv-x="930" 
d="M200 0l-180 350l180 350h645v-280h-235v80h-245l-75 -150l75 -150h245v80h235v-280h-645zM605 875q0 -42 -32.5 -73.5t-77.5 -31.5t-77.5 31.5t-32.5 73.5q-2 41 31.5 73t78.5 32t77.5 -31.5t32.5 -73.5z" />
    <glyph glyph-name="cdotaccent" unicode="&#x10b;" horiz-adv-x="760" 
d="M305 180h155v45h220v-225h-525l-135 260l135 260h525v-225h-220v45h-155l-40 -80zM500 695q0 -42 -32.5 -73.5t-77.5 -31.5t-77.5 31.5t-32.5 73.5q-2 41 31.5 73t78.5 32t77.5 -31.5t32.5 -73.5z" />
    <glyph glyph-name="Ccaron" unicode="&#x10c;" horiz-adv-x="930" 
d="M200 0l-180 350l180 350h645v-280h-235v80h-245l-75 -150l75 -150h245v80h235v-280h-645zM595 765h-200l-140 195h180l55 -75h10l55 75h180z" />
    <glyph glyph-name="ccaron" unicode="&#x10d;" horiz-adv-x="760" 
d="M305 180h155v45h220v-225h-525l-135 260l135 260h525v-225h-220v45h-155l-40 -80zM490 595h-200l-140 195h180l55 -75h10l55 75h180z" />
    <glyph glyph-name="Dcaron" unicode="&#x10e;" horiz-adv-x="940" 
d="M105 700h395q172 0 286 -104t114 -246t-114 -246t-286 -104h-395v700zM500 500h-150v-300h150q57 0 101 45t44 105t-44 105t-101 45zM540 764h-200l-140 195h180l55 -75h10l55 75h180z" />
    <glyph glyph-name="dcaron" unicode="&#x10f;" horiz-adv-x="1000" 
d="M35 260q0 119 78.5 199.5t191.5 80.5q49 0 87.5 -17.5t53.5 -34.5l14 -18h10v230h230v-700h-230v50h-10q-2 -3 -5.5 -7.5t-17.5 -16.5t-30 -21.5t-43.5 -17t-58.5 -7.5q-113 0 -191.5 80.5t-78.5 199.5zM370 365q-42 0 -71 -30t-29 -75t29 -75t71 -30t71 30t29 75t-29 75
t-71 30zM760 530v170h205v-150l-60 -120h-125l50 100h-70z" />
    <glyph glyph-name="Dcroat" unicode="&#x110;" horiz-adv-x="940" 
d="M20 430h85v270h395q172 0 286 -104t114 -246t-114 -246t-286 -104h-395v270h-85v160zM500 500h-150v-70h150v-160h-150v-70h150q57 0 101 45t44 105t-44 105t-101 45z" />
    <glyph glyph-name="dcroat" unicode="&#x111;" horiz-adv-x="790" 
d="M470 0v50h-10q-2 -3 -5.5 -7.5t-17.5 -16.5t-30 -21.5t-43.5 -17t-58.5 -7.5q-113 0 -191.5 79t-78.5 191t78.5 191t191.5 79q49 0 87.5 -17.5t53.5 -34.5l14 -18h10v80h-100v150h100v50h230v-50h70v-150h-70v-530h-230zM370 345q-41 0 -70.5 -28.5t-29.5 -66.5
t29.5 -66.5t70.5 -28.5q39 0 68.5 27.5t31.5 63.5v4q0 38 -29.5 66.5t-70.5 28.5z" />
    <glyph glyph-name="Emacron" unicode="&#x112;" horiz-adv-x="915" 
d="M830 430h-235v80h-245v-80h190v-170h-190v-70h245v80h235v-270h-725v700h725v-270zM267 950h380v-160h-380v160z" />
    <glyph glyph-name="emacron" unicode="&#x113;" horiz-adv-x="780" 
d="M465 340v35h-150v-70zM695 190v-190h-610v520h610v-250l-380 -90v-35h160v45h220zM200 780h380v-160h-380v160z" />
    <glyph glyph-name="Ebreve" unicode="&#x114;" horiz-adv-x="915" 
d="M830 430h-235v80h-245v-80h190v-170h-190v-70h245v80h235v-270h-725v700h725v-270zM497 770h-80q-71 0 -118 46t-47 114v40h155v-15q0 -23 13.5 -36.5t36.5 -13.5q22 0 36 14t14 36v15h155v-40q0 -68 -47 -114t-118 -46z" />
    <glyph glyph-name="ebreve" unicode="&#x115;" horiz-adv-x="780" 
d="M465 340v35h-150v-70zM695 190v-190h-610v520h610v-250l-380 -90v-35h160v45h220zM430 590h-80q-71 0 -118 46t-47 114v40h155v-15q0 -23 14 -36.5t36 -13.5t36 14t14 36v15h155v-40q0 -68 -47 -114t-118 -46z" />
    <glyph glyph-name="Edotaccent" unicode="&#x116;" horiz-adv-x="915" 
d="M830 430h-235v80h-245v-80h190v-170h-190v-70h245v80h235v-270h-725v700h725v-270zM567 875q0 -42 -32.5 -73.5t-77.5 -31.5t-77.5 31.5t-32.5 73.5q-2 41 31.5 73t78.5 32t77.5 -31.5t32.5 -73.5z" />
    <glyph glyph-name="edotaccent" unicode="&#x117;" horiz-adv-x="780" 
d="M465 340v35h-150v-70zM695 190v-190h-610v520h610v-250l-380 -90v-35h160v45h220zM500 695q0 -42 -32.5 -73.5t-77.5 -31.5t-77.5 31.5t-32.5 73.5q-2 41 31.5 73t78.5 32t77.5 -31.5t32.5 -73.5z" />
    <glyph glyph-name="Eogonek" unicode="&#x118;" horiz-adv-x="915" 
d="M830 430h-235v80h-245v-80h190v-170h-190v-70h245v80h235v-270h-181q-178 -59 -197 -126q-2 -7 -2 -14q0 -16 14 -28t36 -12q13 0 33 2.5t33 5.5l14 2v-110q-50 -10 -110 -10q-79 0 -124.5 37.5t-45.5 92.5q0 30 15 57.5t35 44.5t44 31.5t37 19.5t18 7h-344v700h725v-270
z" />
    <glyph glyph-name="eogonek" unicode="&#x119;" horiz-adv-x="780" 
d="M695 190v-190h-156q-10 -4 -31.5 -14.5t-57 -30t-60.5 -45.5t-25 -50q0 -16 14 -28t36 -12q13 0 33 2.5t34 5.5l13 2v-110q-50 -10 -110 -10q-79 0 -124.5 37.5t-45.5 92.5q0 30 15 57.5t35 44.5t44 31.5t37 19.5t18 7h-279v520h610v-250l-380 -90v-35h160v45h220z
M465 340v35h-150v-70z" />
    <glyph glyph-name="Ecaron" unicode="&#x11a;" horiz-adv-x="915" 
d="M830 430h-235v80h-245v-80h190v-170h-190v-70h245v80h235v-270h-725v700h725v-270zM557 765h-200l-140 195h180l55 -75h10l55 75h180z" />
    <glyph glyph-name="ecaron" unicode="&#x11b;" horiz-adv-x="780" 
d="M465 340v35h-150v-70zM695 190v-190h-610v520h610v-250l-380 -90v-35h160v45h220zM490 595h-200l-140 195h180l55 -75h10l55 75h180z" />
    <glyph glyph-name="Gcircumflex" unicode="&#x11c;" horiz-adv-x="940" 
d="M490 250v160h355v-410h-645l-180 350l180 350h645v-240h-235v40h-245l-75 -150l75 -150h245v50h-120zM370 960h200l140 -195h-180l-55 75h-10l-55 -75h-180z" />
    <glyph glyph-name="gcircumflex" unicode="&#x11d;" horiz-adv-x="790" 
d="M150 60l-120 230l120 230h555v-700h-615v205h220v-35h165v70h-325zM305 350l-30 -60l30 -60h170v120h-170zM325 800h200l140 -195h-180l-55 75h-10l-55 -75h-180z" />
    <glyph glyph-name="Gbreve" unicode="&#x11e;" horiz-adv-x="940" 
d="M490 250v160h355v-410h-645l-180 350l180 350h645v-240h-235v40h-245l-75 -150l75 -150h245v50h-120zM510 770h-80q-71 0 -118 46t-47 114v40h155v-15q0 -23 13.5 -36.5t36.5 -13.5q22 0 36 14t14 36v15h155v-40q0 -68 -47 -114t-118 -46z" />
    <glyph glyph-name="gbreve" unicode="&#x11f;" horiz-adv-x="790" 
d="M150 60l-120 230l120 230h555v-700h-615v205h220v-35h165v70h-325zM305 350l-30 -60l30 -60h170v120h-170zM445 600h-80q-71 0 -118 46t-47 114v40h155v-15q0 -23 13.5 -36.5t36.5 -13.5q22 0 36 14t14 36v15h155v-40q0 -68 -47 -114t-118 -46z" />
    <glyph glyph-name="Gdotaccent" unicode="&#x120;" horiz-adv-x="940" 
d="M490 250v160h355v-410h-645l-180 350l180 350h645v-240h-235v40h-245l-75 -150l75 -150h245v50h-120zM590 875q0 -42 -32.5 -73.5t-77.5 -31.5t-77.5 31.5t-32.5 73.5q-2 41 31.5 73t78.5 32t77.5 -31.5t32.5 -73.5z" />
    <glyph glyph-name="gdotaccent" unicode="&#x121;" horiz-adv-x="790" 
d="M150 60l-120 230l120 230h555v-700h-615v205h220v-35h165v70h-325zM305 350l-30 -60l30 -60h170v120h-170zM515 705q0 -42 -32.5 -73.5t-77.5 -31.5t-77.5 31.5t-32.5 73.5q-2 41 31.5 73t78.5 32t77.5 -31.5t32.5 -73.5z" />
    <glyph glyph-name="Gcommaaccent" unicode="&#x122;" horiz-adv-x="940" 
d="M490 250v160h355v-410h-645l-180 350l180 350h645v-240h-235v40h-245l-75 -150l75 -150h245v50h-120zM377 -220v170h205v-150l-60 -120h-125l50 100h-70z" />
    <glyph glyph-name="gcommaaccent" unicode="&#x123;" horiz-adv-x="790" 
d="M150 60l-120 230l120 230h555v-700h-615v205h220v-35h165v70h-325zM305 350l-30 -60l30 -60h170v120h-170zM515 770v-170h-205v150l60 120h125l-50 -100h70z" />
    <glyph glyph-name="Hcircumflex" unicode="&#x124;" horiz-adv-x="965" 
d="M860 700v-700h-245v220h-265v-220h-245v700h245v-280h265v280h245zM382 960h200l140 -195h-180l-55 75h-10l-55 -75h-180z" />
    <glyph glyph-name="hcircumflex" unicode="&#x125;" horiz-adv-x="800" 
d="M490 320l-170 40v-360h-230v700h230v-150l400 -95v-455h-230v320zM100 950h200l140 -195h-180l-55 75h-10l-55 -75h-180z" />
    <glyph glyph-name="hbar" unicode="&#x127;" horiz-adv-x="810" 
d="M750 0h-230v230l-170 40v-270h-230v490h-100v160h100v70h230v-70h135v-160h-135v-40l400 -95v-355z" />
    <glyph glyph-name="Itilde" unicode="&#x128;" horiz-adv-x="655" 
d="M65 500v200h525v-200h-140v-300h140v-200h-525v200h140v300h-140zM522 990v-140q0 -38 -21 -59t-59 -21q-18 0 -38 6t-31 12l-11 7l-75 40h-10v-60h-145v140q0 37 21 58t59 21q18 0 38 -6t31 -12l11 -7l75 -39h10v60h145z" />
    <glyph glyph-name="itilde" unicode="&#x129;" horiz-adv-x="410" 
d="M320 520v-520h-230v520h230zM400 810v-140q0 -38 -21 -59t-59 -21q-18 0 -38 6t-31 12l-11 7l-75 40h-10v-60h-145v140q0 37 21 58t59 21q18 0 38 -6t31 -12l11 -7l75 -39h10v60h145z" />
    <glyph glyph-name="Imacron" unicode="&#x12a;" horiz-adv-x="655" 
d="M65 500v200h525v-200h-140v-300h140v-200h-525v200h140v300h-140zM137 950h380v-160h-380v160z" />
    <glyph glyph-name="imacron" unicode="&#x12b;" horiz-adv-x="410" 
d="M320 520v-520h-230v520h230zM15 780h380v-160h-380v160z" />
    <glyph glyph-name="Ibreve" unicode="&#x12c;" horiz-adv-x="655" 
d="M65 500v200h525v-200h-140v-300h140v-200h-525v200h140v300h-140zM367 770h-80q-71 0 -118 46t-47 114v40h155v-15q0 -23 13.5 -36.5t36.5 -13.5q22 0 36 14t14 36v15h155v-40q0 -68 -47 -114t-118 -46z" />
    <glyph glyph-name="ibreve" unicode="&#x12d;" horiz-adv-x="410" 
d="M320 520v-520h-230v520h230zM245 600h-80q-71 0 -118 46t-47 114v40h155v-15q0 -23 13.5 -36.5t36.5 -13.5q22 0 36 14t14 36v15h155v-40q0 -68 -47 -114t-118 -46z" />
    <glyph glyph-name="Iogonek" unicode="&#x12e;" horiz-adv-x="655" 
d="M65 500v200h525v-200h-140v-300h140v-200h-101q-11 -4 -24 -8.5t-45.5 -19.5t-56.5 -30t-43.5 -37.5t-19.5 -44.5q0 -16 14 -28t36 -12q13 0 33 2.5t33 5.5l14 2v-110q-50 -10 -110 -10q-79 0 -124.5 37.5t-45.5 92.5q0 30 15 57.5t35 44.5t44 31.5t37 19.5t18 7h-234
v200h140v300h-140z" />
    <glyph glyph-name="iogonek" unicode="&#x12f;" horiz-adv-x="410" 
d="M320 500v-520q-6 -2 -16 -6.5t-36 -18t-46 -27.5t-36 -32.5t-16 -35.5q0 -16 14 -28t36 -12q13 0 33 2.5t33 5.5l14 2v-110q-50 -10 -110 -10q-79 0 -124.5 37.5t-45.5 92.5q0 30 15 57.5t35 44.5t44 31.5t37 19.5t18 7h-79v500h230zM325 660q0 -46 -34 -78t-86 -32
t-86 32t-34 78t34 78t86 32t86 -32t34 -78z" />
    <glyph glyph-name="Idotaccent" unicode="&#x130;" horiz-adv-x="655" 
d="M65 500v200h525v-200h-140v-300h140v-200h-525v200h140v300h-140zM437 885q0 -42 -32.5 -73.5t-77.5 -31.5t-77.5 31.5t-32.5 73.5q-2 41 31.5 73t78.5 32t77.5 -31.5t32.5 -73.5z" />
    <glyph glyph-name="dotlessi" unicode="&#x131;" horiz-adv-x="410" 
d="M320 520v-520h-230v520h230z" />
    <glyph glyph-name="IJ" unicode="&#x132;" horiz-adv-x="1190" 
d="M65 500v200h1020v-410q0 -128 -81.5 -209t-208.5 -81h-145v200h100q38 0 64 26t26 64v210h-390v-300h140v-200h-525v200h140v300h-140z" />
    <glyph glyph-name="ij" unicode="&#x133;" horiz-adv-x="805" 
d="M715 500v-440q0 -98 -73 -169t-177 -71h-125v180h80q26 0 45.5 20.5t19.5 49.5v260h-165v-330h-230v500h625zM720 660q0 -46 -34 -78t-86 -32t-86 32t-34 78t34 78t86 32t86 -32t34 -78zM325 660q0 -46 -34 -78t-86 -32t-86 32t-34 78t34 78t86 32t86 -32t34 -78z" />
    <glyph glyph-name="Jcircumflex" unicode="&#x134;" horiz-adv-x="605" 
d="M65 -10v200h110q37 0 63.5 26t26.5 64v220h-150v200h395v-420q0 -128 -81 -209t-209 -81h-155zM212 970h200l140 -195h-180l-55 75h-10l-55 -75h-180z" />
    <glyph glyph-name="jcircumflex" unicode="&#x135;" horiz-adv-x="415" 
d="M325 520v-460q0 -98 -73 -169t-177 -71h-125v180h80q26 0 45.5 20.5t19.5 49.5v450h230zM108 790h200l140 -195h-180l-55 75h-10l-55 -75h-180z" />
    <glyph glyph-name="Kcommaaccent" unicode="&#x136;" horiz-adv-x="910" 
d="M350 700v-700h-245v700h245zM655 350l245 -350h-275l-235 350l225 350h275zM375 -210v170h205v-150l-60 -120h-125l50 100h-70z" />
    <glyph glyph-name="kcommaaccent" unicode="&#x137;" horiz-adv-x="760" 
d="M320 700v-700h-230v700h230zM510 0l-160 260l150 260h240l-155 -260l165 -260h-240zM297 -210v170h205v-150l-60 -120h-125l50 100h-70z" />
    <glyph glyph-name="kgreenlandic" unicode="&#x138;" horiz-adv-x="755" 
d="M315 520v-520h-230v520h230zM505 0l-160 260l150 260h240l-155 -260l165 -260h-240z" />
    <glyph glyph-name="Lacute" unicode="&#x139;" horiz-adv-x="835" 
d="M560 290h235v-290h-690v700h245v-500h210v90zM217 960h225l-140 -200h-170z" />
    <glyph glyph-name="lacute" unicode="&#x13a;" horiz-adv-x="445" 
d="M30 700h325v-700h-230v520h-95v180zM212 970h225l-140 -200h-170z" />
    <glyph glyph-name="Lcommaaccent" unicode="&#x13b;" horiz-adv-x="835" 
d="M560 290h235v-290h-690v700h245v-500h210v90zM356 -230v170h205v-150l-60 -120h-125l50 100h-70z" />
    <glyph glyph-name="lcommaaccent" unicode="&#x13c;" horiz-adv-x="445" 
d="M30 700h325v-700h-230v520h-95v180zM135 -240v170h205v-150l-60 -120h-125l50 100h-70z" />
    <glyph glyph-name="Lcaron" unicode="&#x13d;" horiz-adv-x="835" 
d="M560 290h235v-290h-690v700h245v-500h210v90zM410 530v170h205v-150l-60 -120h-125l50 100h-70z" />
    <glyph glyph-name="lcaron" unicode="&#x13e;" horiz-adv-x="660" 
d="M30 700h325v-700h-230v520h-95v180zM410 530v170h205v-150l-60 -120h-125l50 100h-70z" />
    <glyph glyph-name="Ldot" unicode="&#x13f;" horiz-adv-x="835" 
d="M410 350v170h205v-170h-205zM560 290h235v-290h-690v700h245v-500h210v90z" />
    <glyph glyph-name="ldot" unicode="&#x140;" horiz-adv-x="680" 
d="M425 280v170h205v-170h-205zM30 700h325v-700h-230v520h-95v180z" />
    <glyph glyph-name="Lslash" unicode="&#x141;" horiz-adv-x="835" 
d="M20 400l85 39v261h245v-147l100 47v-190l-100 -47v-163h210v90h235v-290h-690v249l-85 -39v190z" />
    <glyph glyph-name="lslash" unicode="&#x142;" horiz-adv-x="470" 
d="M30 700h325v-245l95 45v-190l-95 -45v-265h-230v160l-105 -50v190l105 50v170h-95v180z" />
    <glyph glyph-name="Nacute" unicode="&#x143;" horiz-adv-x="965" 
d="M606 480h9v220h245v-700h-245v180l-255 220h-10v-400h-245v700h245zM455 960h225l-140 -200h-170z" />
    <glyph glyph-name="nacute" unicode="&#x144;" horiz-adv-x="800" 
d="M720 315v-315h-230v290q0 30 -22.5 52.5t-52.5 22.5q-29 0 -54 -18.5t-35 -37.5l-11 -19v-290h-230v520h230v-50h10q2 3 5.5 7.5t17.5 16.5t30 21.5t43.5 17t58.5 7.5q104 0 172 -65t68 -160zM420 800h225l-140 -200h-170z" />
    <glyph glyph-name="Ncommaaccent" unicode="&#x145;" horiz-adv-x="965" 
d="M606 480h9v220h245v-700h-245v180l-255 220h-10v-400h-245v700h245zM380 -200v170h205v-150l-60 -120h-125l50 100h-70z" />
    <glyph glyph-name="ncommaaccent" unicode="&#x146;" horiz-adv-x="800" 
d="M720 315v-315h-230v290q0 30 -22.5 52.5t-52.5 22.5q-29 0 -54 -18.5t-35 -37.5l-11 -19v-290h-230v520h230v-50h10q2 3 5.5 7.5t17.5 16.5t30 21.5t43.5 17t58.5 7.5q104 0 172 -65t68 -160zM305 -220v170h205v-150l-60 -120h-125l50 100h-70z" />
    <glyph glyph-name="Ncaron" unicode="&#x147;" horiz-adv-x="965" 
d="M606 480h9v220h245v-700h-245v180l-255 220h-10v-400h-245v700h245zM572 770h-200l-140 195h180l55 -75h10l55 75h180z" />
    <glyph glyph-name="ncaron" unicode="&#x148;" horiz-adv-x="800" 
d="M720 315v-315h-230v290q0 30 -22.5 52.5t-52.5 22.5q-29 0 -54 -18.5t-35 -37.5l-11 -19v-290h-230v520h230v-50h10q2 3 5.5 7.5t17.5 16.5t30 21.5t43.5 17t58.5 7.5q104 0 172 -65t68 -160zM500 605h-200l-140 195h180l55 -75h10l55 75h180z" />
    <glyph glyph-name="Omacron" unicode="&#x14c;" 
d="M655 350q0 75 -52.5 127.5t-127.5 52.5t-127.5 -52.5t-52.5 -127.5t52.5 -127.5t127.5 -52.5t127.5 52.5t52.5 127.5zM910 350q0 -150 -126 -265t-309 -115t-309 115t-126 265t126 265t309 115t309 -115t126 -265zM285 960h380v-160h-380v160z" />
    <glyph glyph-name="omacron" unicode="&#x14d;" horiz-adv-x="760" 
d="M380 375q-45 0 -77.5 -33.5t-32.5 -81.5t32.5 -81.5t77.5 -33.5t77.5 33.5t32.5 81.5t-32.5 81.5t-77.5 33.5zM380 550q149 0 247 -87t98 -203t-98 -203t-247 -87t-247 87t-98 203t98 203t247 87zM190 780h380v-160h-380v160z" />
    <glyph glyph-name="Obreve" unicode="&#x14e;" 
d="M655 350q0 75 -52.5 127.5t-127.5 52.5t-127.5 -52.5t-52.5 -127.5t52.5 -127.5t127.5 -52.5t127.5 52.5t52.5 127.5zM910 350q0 -150 -126 -265t-309 -115t-309 115t-126 265t126 265t309 115t309 -115t126 -265zM515 790h-80q-71 0 -118 46t-47 114v40h155v-15
q0 -23 13.5 -36.5t36.5 -13.5q22 0 36 14t14 36v15h155v-40q0 -68 -47 -114t-118 -46z" />
    <glyph glyph-name="obreve" unicode="&#x14f;" horiz-adv-x="760" 
d="M380 375q-45 0 -77.5 -33.5t-32.5 -81.5t32.5 -81.5t77.5 -33.5t77.5 33.5t32.5 81.5t-32.5 81.5t-77.5 33.5zM380 550q149 0 247 -87t98 -203t-98 -203t-247 -87t-247 87t-98 203t98 203t247 87zM420 600h-80q-71 0 -118 46t-47 114v40h155v-15q0 -23 14 -36.5t36 -13.5
t36 14t14 36v15h155v-40q0 -68 -47 -114t-118 -46z" />
    <glyph glyph-name="Ohungarumlaut" unicode="&#x150;" 
d="M655 350q0 75 -52.5 127.5t-127.5 52.5t-127.5 -52.5t-52.5 -127.5t52.5 -127.5t127.5 -52.5t127.5 52.5t52.5 127.5zM910 350q0 -150 -126 -265t-309 -115t-309 115t-126 265t126 265t309 115t309 -115t126 -265zM380 990h185l-150 -200h-140zM610 990h185l-150 -200
h-140z" />
    <glyph glyph-name="ohungarumlaut" unicode="&#x151;" horiz-adv-x="760" 
d="M380 375q-45 0 -77.5 -33.5t-32.5 -81.5t32.5 -81.5t77.5 -33.5t77.5 33.5t32.5 81.5t-32.5 81.5t-77.5 33.5zM380 550q149 0 247 -87t98 -203t-98 -203t-247 -87t-247 87t-98 203t98 203t247 87zM295 810h185l-150 -200h-140zM525 810h185l-150 -200h-140z" />
    <glyph glyph-name="OE" unicode="&#x152;" horiz-adv-x="1400" 
d="M440 700h875v-270h-235v80h-245v-80h190v-170h-190v-70h245v80h235v-270h-875q-172 0 -286 104t-114 246t114 246t286 104zM590 500h-150q-57 0 -101 -45t-44 -105t44 -105t101 -45h150v300z" />
    <glyph glyph-name="oe" unicode="&#x153;" horiz-adv-x="1150" 
d="M1065 190v-190h-695q-148 0 -241.5 78.5t-93.5 181.5t93.5 181.5t241.5 78.5h695v-250l-380 -90v-35h160v45h220zM370 345q-44 0 -72 -25t-28 -60t28 -60t72 -25h85v170h-85zM835 340v35h-150v-70z" />
    <glyph glyph-name="Racute" unicode="&#x154;" horiz-adv-x="960" 
d="M630 0l-120 240h-160v-240h-245v700h760v-460h-95l120 -240h-260zM350 510v-90h270v90h-270zM460 960h225l-140 -200h-170z" />
    <glyph glyph-name="racute" unicode="&#x155;" horiz-adv-x="580" 
d="M85 520h455v-180h-225v-340h-230v520zM290 800h225l-140 -200h-170z" />
    <glyph glyph-name="Rcommaaccent" unicode="&#x156;" horiz-adv-x="960" 
d="M630 0l-120 240h-160v-240h-245v700h760v-460h-95l120 -240h-260zM350 510v-90h270v90h-270zM377 -200v170h205v-150l-60 -120h-125l50 100h-70z" />
    <glyph glyph-name="rcommaaccent" unicode="&#x157;" horiz-adv-x="580" 
d="M85 520h455v-180h-225v-340h-230v520zM95 -220v170h205v-150l-60 -120h-125l50 100h-70z" />
    <glyph glyph-name="Rcaron" unicode="&#x158;" horiz-adv-x="960" 
d="M630 0l-120 240h-160v-240h-245v700h760v-460h-95l120 -240h-260zM350 510v-90h270v90h-270zM570 765h-200l-140 195h180l55 -75h10l55 75h180z" />
    <glyph glyph-name="rcaron" unicode="&#x159;" horiz-adv-x="580" 
d="M85 520h455v-180h-225v-340h-230v520zM410 605h-200l-140 195h180l55 -75h10l55 75h180z" />
    <glyph glyph-name="Sacute" unicode="&#x15a;" horiz-adv-x="890" 
d="M85 345v355h720v-240h-235v50h-240v-35l475 -115v-360h-720v240h235v-50h240v40zM425 960h225l-140 -200h-170z" />
    <glyph glyph-name="sacute" unicode="&#x15b;" horiz-adv-x="740" 
d="M75 0v185h220v-35h140v25l-360 85v260h590v-185h-220v35h-140v-20l360 -85v-265h-590zM350 790h225l-140 -200h-170z" />
    <glyph glyph-name="Scircumflex" unicode="&#x15c;" horiz-adv-x="890" 
d="M85 345v355h720v-240h-235v50h-240v-35l475 -115v-360h-720v240h235v-50h240v40zM345 970h200l140 -195h-180l-55 75h-10l-55 -75h-180z" />
    <glyph glyph-name="scircumflex" unicode="&#x15d;" horiz-adv-x="740" 
d="M75 0v185h220v-35h140v25l-360 85v260h590v-185h-220v35h-140v-20l360 -85v-265h-590zM270 800h200l140 -195h-180l-55 75h-10l-55 -75h-180z" />
    <glyph glyph-name="Scedilla" unicode="&#x15e;" horiz-adv-x="890" 
d="M85 345v355h720v-240h-235v50h-240v-35l475 -115v-360h-320v-24q60 -4 100 -43.5t40 -92.5q0 -62 -50 -106t-130 -44q-22 0 -47 2.5t-39 5.5l-14 2v110q50 -10 90 -10q15 0 27.5 12.5t12.5 27.5t-12.5 27.5t-27.5 12.5h-80v120h-270v240h235v-50h240v40z" />
    <glyph glyph-name="scedilla" unicode="&#x15f;" horiz-adv-x="740" 
d="M75 0v185h220v-35h140v25l-360 85v260h590v-185h-220v35h-140v-20l360 -85v-265h-255v-24q60 -4 100 -43.5t40 -92.5q0 -62 -50 -106t-130 -44q-22 0 -47 2.5t-39 5.5l-14 2v110q50 -10 90 -10q15 0 27.5 12.5t12.5 27.5t-12.5 27.5t-27.5 12.5h-80v120h-205z" />
    <glyph glyph-name="Scaron" unicode="&#x160;" horiz-adv-x="890" 
d="M85 345v355h720v-240h-235v50h-240v-35l475 -115v-360h-720v240h235v-50h240v40zM535 765h-200l-140 195h180l55 -75h10l55 75h180z" />
    <glyph glyph-name="scaron" unicode="&#x161;" horiz-adv-x="740" 
d="M75 0v185h220v-35h140v25l-360 85v260h590v-185h-220v35h-140v-20l360 -85v-265h-590zM470 595h-200l-140 195h180l55 -75h10l55 75h180z" />
    <glyph glyph-name="Tcommaaccent" unicode="&#x162;" horiz-adv-x="805" 
d="M775 500h-250v-500h-245v500h-250v200h745v-200zM300 -230v170h205v-150l-60 -120h-125l50 100h-70z" />
    <glyph glyph-name="tcommaaccent" unicode="&#x163;" horiz-adv-x="570" 
d="M170 520v180h230v-180h130v-180h-130v-340h-230v340h-130v180h130zM182 -230v170h205v-150l-60 -120h-125l50 100h-70z" />
    <glyph glyph-name="Tcaron" unicode="&#x164;" horiz-adv-x="805" 
d="M775 500h-250v-500h-245v500h-250v200h745v-200zM502 765h-200l-140 195h180l55 -75h10l55 75h180z" />
    <glyph glyph-name="tcaron" unicode="&#x165;" horiz-adv-x="820" 
d="M170 520v180h230v-180h130v-180h-130v-340h-230v340h-130v180h130zM580 530v170h205v-150l-60 -120h-125l50 100h-70z" />
    <glyph glyph-name="Utilde" unicode="&#x168;" 
d="M475 170q57 0 96 40t39 100v390h245v-390q0 -145 -105.5 -242.5t-274.5 -97.5t-274.5 97.5t-105.5 242.5v390h245v-390q0 -60 39 -100t96 -40zM670 980v-140q0 -38 -21 -59t-59 -21q-18 0 -38 6t-31 12l-11 7l-75 40h-10v-60h-145v140q0 37 21 58t59 21q18 0 38 -6
t31 -12l11 -7l75 -39h10v60h145z" />
    <glyph glyph-name="utilde" unicode="&#x169;" horiz-adv-x="805" 
d="M85 205v315h230v-290q0 -30 22.5 -52.5t52.5 -22.5q29 0 54 18.5t36 37.5l10 19v290h230v-520h-230v50h-10q-2 -3 -5.5 -7.5t-17.5 -16.5t-30 -21.5t-43.5 -17t-58.5 -7.5q-104 0 -172 65t-68 160zM597 810v-140q0 -38 -21.5 -59t-58.5 -21q-18 0 -38 6t-31 12l-11 7
l-75 40h-10v-60h-145v140q0 37 21 58t59 21q18 0 38 -6t31 -12l11 -7l75 -39h10v60h145z" />
    <glyph glyph-name="Umacron" unicode="&#x16a;" 
d="M475 170q57 0 96 40t39 100v390h245v-390q0 -145 -105.5 -242.5t-274.5 -97.5t-274.5 97.5t-105.5 242.5v390h245v-390q0 -60 39 -100t96 -40zM275 950h380v-160h-380v160z" />
    <glyph glyph-name="umacron" unicode="&#x16b;" horiz-adv-x="805" 
d="M85 205v315h230v-290q0 -30 22.5 -52.5t52.5 -22.5q29 0 54 18.5t36 37.5l10 19v290h230v-520h-230v50h-10q-2 -3 -5.5 -7.5t-17.5 -16.5t-30 -21.5t-43.5 -17t-58.5 -7.5q-104 0 -172 65t-68 160zM212 770h380v-160h-380v160z" />
    <glyph glyph-name="Ubreve" unicode="&#x16c;" 
d="M475 170q57 0 96 40t39 100v390h245v-390q0 -145 -105.5 -242.5t-274.5 -97.5t-274.5 97.5t-105.5 242.5v390h245v-390q0 -60 39 -100t96 -40zM515 760h-80q-71 0 -118 46t-47 114v40h155v-15q0 -23 13.5 -36.5t36.5 -13.5q22 0 36 14t14 36v15h155v-40q0 -68 -47 -114
t-118 -46z" />
    <glyph glyph-name="ubreve" unicode="&#x16d;" horiz-adv-x="805" 
d="M85 205v315h230v-290q0 -30 22.5 -52.5t52.5 -22.5q29 0 54 18.5t36 37.5l10 19v290h230v-520h-230v50h-10q-2 -3 -5.5 -7.5t-17.5 -16.5t-30 -21.5t-43.5 -17t-58.5 -7.5q-104 0 -172 65t-68 160zM442 590h-80q-71 0 -118 46t-47 114v40h155v-15q0 -23 14 -36.5
t36 -13.5t36 14t14 36v15h155v-40q0 -68 -47 -114t-118 -46z" />
    <glyph glyph-name="Uring" unicode="&#x16e;" 
d="M475 170q57 0 96 40t39 100v390h245v-390q0 -145 -105.5 -242.5t-274.5 -97.5t-274.5 97.5t-105.5 242.5v390h245v-390q0 -60 39 -100t96 -40zM475 920q-19 0 -32 -13t-13 -32t13 -32t32 -13t32 13t13 32t-13 32t-32 13zM475 1030q70 0 120 -47t50 -108t-50 -108
t-120 -47t-120 47t-50 108t50 108t120 47z" />
    <glyph glyph-name="uring" unicode="&#x16f;" horiz-adv-x="805" 
d="M85 205v315h230v-290q0 -30 22.5 -52.5t52.5 -22.5q29 0 54 18.5t36 37.5l10 19v290h230v-520h-230v50h-10q-2 -3 -5.5 -7.5t-17.5 -16.5t-30 -21.5t-43.5 -17t-58.5 -7.5q-104 0 -172 65t-68 160zM400 724q-15 0 -26 -10.5t-11 -26.5q0 -15 11 -26t26 -11q16 0 26.5 11
t10.5 26q0 16 -10.5 26.5t-26.5 10.5zM400 815q58 0 99 -39t41 -89t-41 -88.5t-99 -38.5t-99 38.5t-41 88.5t41 89t99 39z" />
    <glyph glyph-name="Uhungarumlaut" unicode="&#x170;" 
d="M475 170q57 0 96 40t39 100v390h245v-390q0 -145 -105.5 -242.5t-274.5 -97.5t-274.5 97.5t-105.5 242.5v390h245v-390q0 -60 39 -100t96 -40zM370 970h185l-150 -200h-140zM600 970h185l-150 -200h-140z" />
    <glyph glyph-name="uhungarumlaut" unicode="&#x171;" horiz-adv-x="805" 
d="M85 205v315h230v-290q0 -30 22.5 -52.5t52.5 -22.5q29 0 54 18.5t36 37.5l10 19v290h230v-520h-230v50h-10q-2 -3 -5.5 -7.5t-17.5 -16.5t-30 -21.5t-43.5 -17t-58.5 -7.5q-104 0 -172 65t-68 160zM317 800h185l-150 -200h-140zM547 800h185l-150 -200h-140z" />
    <glyph glyph-name="Uogonek" unicode="&#x172;" 
d="M475 170q57 0 96 40t39 100v390h245v-390q0 -119 -73.5 -209t-197.5 -119q-119 -73 -119 -122q0 -16 14 -28t36 -12q13 0 33 2.5t34 5.5l13 2v-110q-50 -10 -110 -10q-79 0 -124.5 37.5t-45.5 92.5q0 80 95 135q-143 19 -229 112t-86 223v390h245v-390q0 -60 39 -100
t96 -40z" />
    <glyph glyph-name="uogonek" unicode="&#x173;" horiz-adv-x="805" 
d="M85 205v315h230v-290q0 -30 22.5 -52.5t52.5 -22.5q29 0 54 18.5t36 37.5l10 19v290h230v-540q-6 -2 -16 -6.5t-36 -18t-46 -27.5t-36 -32.5t-16 -35.5q0 -16 14 -28t36 -12q13 0 33 2.5t33 5.5l14 2v-110q-50 -10 -110 -10q-79 0 -124.5 37.5t-45.5 92.5q0 30 15 57.5
t35 44.5t44 31.5t37 19.5t18 7h-79v50h-10q-2 -3 -5.5 -7.5t-17.5 -16.5t-30 -21.5t-43.5 -17t-58.5 -7.5q-104 0 -172 65t-68 160z" />
    <glyph glyph-name="Wcircumflex" unicode="&#x174;" horiz-adv-x="1220" 
d="M755 700l95 -460h10l75 460h255l-150 -700h-340l-85 420h-10l-85 -420h-340l-150 700h255l75 -460h10l95 460h290zM510 970h200l140 -195h-180l-55 75h-10l-55 -75h-180z" />
    <glyph glyph-name="wcircumflex" unicode="&#x175;" horiz-adv-x="1050" 
d="M530 310h-10l-65 -310h-305l-110 520h235l55 -310h10l65 310h240l65 -310h10l55 310h235l-110 -520h-305zM425 790h200l140 -195h-180l-55 75h-10l-55 -75h-180z" />
    <glyph glyph-name="Ycircumflex" unicode="&#x176;" horiz-adv-x="845" 
d="M425 420l145 280h275l-300 -500v-200h-245v200l-300 500h275l145 -280h5zM322 970h200l140 -195h-180l-55 75h-10l-55 -75h-180z" />
    <glyph glyph-name="ycircumflex" unicode="&#x177;" horiz-adv-x="710" 
d="M295 0h-95l-190 520h245l95 -320h10l95 320h245l-245 -690h-220zM255 790h200l140 -195h-180l-55 75h-10l-55 -75h-180z" />
    <glyph glyph-name="Ydieresis" unicode="&#x178;" horiz-adv-x="845" 
d="M425 420l145 280h275l-300 -500v-200h-245v200l-300 500h275l145 -280h5zM397 870q0 -42 -30 -71t-75 -29t-75 29t-30 71t30 71t75 29t75 -29t30 -71zM447 870q0 42 30 71t75 29t75 -29t30 -71t-30 -71t-75 -29t-75 29t-30 71z" />
    <glyph glyph-name="Zacute" unicode="&#x179;" horiz-adv-x="900" 
d="M80 210l390 280v10h-155v-70h-235v270h730v-210l-390 -280v-10h165v70h235v-270h-740v210zM440 960h225l-140 -200h-170z" />
    <glyph glyph-name="zacute" unicode="&#x17a;" horiz-adv-x="730" 
d="M665 205v-205h-600v170l305 180v10h-95v-45h-210v205h590v-170l-305 -180v-10h105v45h210zM355 790h225l-140 -200h-170z" />
    <glyph glyph-name="Zdotaccent" unicode="&#x17b;" horiz-adv-x="900" 
d="M80 210l390 280v10h-155v-70h-235v270h730v-210l-390 -280v-10h165v70h235v-270h-740v210zM560 875q0 -42 -32.5 -73.5t-77.5 -31.5t-77.5 31.5t-32.5 73.5q-2 41 31.5 73t78.5 32t77.5 -31.5t32.5 -73.5z" />
    <glyph glyph-name="zdotaccent" unicode="&#x17c;" horiz-adv-x="730" 
d="M665 205v-205h-600v170l305 180v10h-95v-45h-210v205h590v-170l-305 -180v-10h105v45h210zM475 695q0 -42 -32.5 -73.5t-77.5 -31.5t-77.5 31.5t-32.5 73.5q-2 41 31.5 73t78.5 32t77.5 -31.5t32.5 -73.5z" />
    <glyph glyph-name="Zcaron" unicode="&#x17d;" horiz-adv-x="900" 
d="M80 210l390 280v10h-155v-70h-235v270h730v-210l-390 -280v-10h165v70h235v-270h-740v210zM550 765h-200l-140 195h180l55 -75h10l55 75h180z" />
    <glyph glyph-name="zcaron" unicode="&#x17e;" horiz-adv-x="730" 
d="M665 205v-205h-600v170l305 180v10h-95v-45h-210v205h590v-170l-305 -180v-10h105v45h210zM465 595h-200l-140 195h180l55 -75h10l55 75h180z" />
    <glyph glyph-name="florin" unicode="&#x192;" horiz-adv-x="600" 
d="M243 460l2 10q21 105 106 172.5t194 67.5h150l-40 -180h-100q-26 0 -49.5 -20t-30.5 -50h125l-40 -180h-125l-45 -220q-22 -105 -106.5 -172.5t-193.5 -67.5h-125l35 180h80q27 0 50 20t30 50l46 210h-96l40 180h93z" />
    <glyph glyph-name="Oslashacute" unicode="&#x1fe;" 
d="M237 -20h-185l103 115q-115 112 -115 255q0 150 126 265t309 115q108 0 205 -46l32 36h185l-103 -115q116 -111 116 -255q0 -150 -126 -265t-309 -115q-111 0 -206 46zM655 350q0 40 -18 78l-222 -248q27 -10 60 -10q75 0 127.5 52.5t52.5 127.5zM295 350q0 -42 17 -78
l222 248q-27 10 -59 10q-75 0 -127.5 -52.5t-52.5 -127.5zM465 990h225l-140 -200h-170z" />
    <glyph glyph-name="oslashacute" unicode="&#x1ff;" horiz-adv-x="760" 
d="M183 -20h-175l100 100q-73 79 -73 180q0 116 98 203t247 87q86 0 164 -34l24 24h185l-102 -100q74 -80 74 -180q0 -116 -98 -203t-247 -87q-91 0 -170 37zM490 260q0 8 -2 20l-134 -132q12 -3 26 -3q45 0 77.5 33.5t32.5 81.5zM380 375q-45 0 -77.5 -33.5t-32.5 -81.5
q0 -12 1 -17l130 130q-14 2 -21 2zM380 820h225l-140 -200h-170z" />
    <glyph glyph-name="Scommaaccent" unicode="&#x218;" horiz-adv-x="890" 
d="M85 345v355h720v-240h-235v50h-240v-35l475 -115v-360h-720v240h235v-50h240v40zM337 -220v170h205v-150l-60 -120h-125l50 100h-70z" />
    <glyph glyph-name="scommaaccent" unicode="&#x219;" horiz-adv-x="740" 
d="M75 0v185h220v-35h140v25l-360 85v260h590v-185h-220v35h-140v-20l360 -85v-265h-590zM267 -220v170h205v-150l-60 -120h-125l50 100h-70z" />
    <glyph glyph-name="circumflex" unicode="&#x2c6;" horiz-adv-x="580" 
d="M190 700h200l140 -195h-180l-55 75h-10l-55 -75h-180z" />
    <glyph glyph-name="caron" unicode="&#x2c7;" horiz-adv-x="580" 
d="M390 505h-200l-140 195h180l55 -75h10l55 75h180z" />
    <glyph glyph-name="breve" unicode="&#x2d8;" horiz-adv-x="510" 
d="M295 500h-80q-71 0 -118 46t-47 114v40h155v-15q0 -23 13.5 -36.5t36.5 -13.5q22 0 36 14t14 36v15h155v-40q0 -68 -47 -114t-118 -46z" />
    <glyph glyph-name="dotaccent" unicode="&#x2d9;" horiz-adv-x="321" 
d="M271 595q0 -42 -32.5 -73.5t-77.5 -31.5t-77.5 31.5t-32.5 73.5q-2 41 31.5 73t78.5 32t77.5 -31.5t32.5 -73.5z" />
    <glyph glyph-name="ring" unicode="&#x2da;" horiz-adv-x="440" 
d="M220 590q-19 0 -32 -13t-13 -32t13 -32t32 -13t32 13t13 32t-13 32t-32 13zM220 700q70 0 120 -47t50 -108t-50 -108t-120 -47t-120 47t-50 108t50 108t120 47z" />
    <glyph glyph-name="ogonek" unicode="&#x2db;" horiz-adv-x="400" 
d="M200 0h150v-20q-6 -2 -16 -6.5t-36 -18t-46 -27.5t-36 -32.5t-16 -35.5q0 -16 14 -28t36 -12q13 0 33 2.5t33 5.5l14 2v-110q-50 -10 -110 -10q-79 0 -124.5 37.5t-45.5 92.5q0 31 15.5 58.5t37.5 45.5t44 31t37 19z" />
    <glyph glyph-name="tilde" unicode="&#x2dc;" horiz-adv-x="490" 
d="M440 700v-140q0 -38 -21 -59t-59 -21q-18 0 -38 6t-31 12l-11 7l-75 40h-10v-60h-145v140q0 37 21 58t59 21q18 0 38 -6t31 -12l11 -7l75 -39h10v60h145z" />
    <glyph glyph-name="hungarumlaut" unicode="&#x2dd;" horiz-adv-x="620" 
d="M155 700h185l-150 -200h-140zM385 700h185l-150 -200h-140z" />
    <glyph glyph-name="afii10023" unicode="&#x401;" horiz-adv-x="915" 
d="M430 870q0 -42 -30 -71t-75 -29t-75 29t-30 71t30 71t75 29t75 -29t30 -71zM830 430h-235v80h-245v-80h190v-170h-190v-70h245v80h235v-270h-725v700h725v-270zM500 870q0 42 30 71t75 29t75 -29t30 -71t-30 -71t-75 -29t-75 29t-30 71z" />
    <glyph glyph-name="afii10051" unicode="&#x402;" horiz-adv-x="955" 
d="M540 150h120v40l-255 65v-255h-245v510h-130v190h550v-190h-175v-50l500 -125v-345h-365v160z" />
    <glyph glyph-name="afii10052" unicode="&#x403;" horiz-adv-x="850" 
d="M445 980h225l-140 -200h-170zM810 410h-235v90h-225v-500h-245v700h705v-290z" />
    <glyph glyph-name="afii10053" unicode="&#x404;" horiz-adv-x="930" 
d="M200 0l-180 350l180 350h645v-275h-230v85h-250l-40 -75h235v-170h-235l40 -75h250v85h230v-275h-645z" />
    <glyph glyph-name="afii10054" unicode="&#x405;" horiz-adv-x="890" 
d="M85 345v355h720v-240h-235v50h-240v-35l475 -115v-360h-720v240h235v-50h240v40z" />
    <glyph glyph-name="afii10055" unicode="&#x406;" horiz-adv-x="655" 
d="M65 500v200h525v-200h-140v-300h140v-200h-525v200h140v300h-140z" />
    <glyph glyph-name="afii10056" unicode="&#x407;" horiz-adv-x="655" 
d="M296 870q0 -42 -30 -71t-75 -29t-75 29t-30 71t30 71t75 29t75 -29t30 -71zM355 870q0 42 30 71t75 29t75 -29t30 -71t-30 -71t-75 -29t-75 29t-30 71zM65 500v200h525v-200h-140v-300h140v-200h-525v200h140v300h-140z" />
    <glyph glyph-name="afii10057" unicode="&#x408;" horiz-adv-x="605" 
d="M65 -10v200h110q37 0 63.5 26t26.5 64v220h-150v200h395v-420q0 -128 -81 -209t-209 -81h-155z" />
    <glyph glyph-name="afii10058" unicode="&#x409;" horiz-adv-x="1300" 
d="M970 0h-425v500h-145l-30 -280q-11 -98 -80.5 -166.5t-159.5 -68.5h-110v200h30q30 0 53 23t27 57l45 435h615v-220h179q138 0 217 -69t79 -171t-79 -171t-216 -69zM1010 240q0 30 -20 50t-50 20h-150v-140h150q30 0 50 20t20 50z" />
    <glyph glyph-name="afii10059" unicode="&#x40a;" horiz-adv-x="1330" 
d="M1010 0h-435v280h-225v-280h-245v700h245v-240h225v240h245v-240h190q135 0 210 -64.5t75 -165.5t-75 -165.5t-210 -64.5zM1040 230q0 26 -17 43t-43 17h-160v-120h160q26 0 43 17t17 43z" />
    <glyph glyph-name="afii10060" unicode="&#x40b;" horiz-adv-x="965" 
d="M905 0h-245v190l-255 65v-255h-245v510h-130v190h550v-190h-175v-50l500 -125v-335z" />
    <glyph glyph-name="afii10061" unicode="&#x40c;" horiz-adv-x="910" 
d="M465 960h225l-140 -200h-170zM350 700v-700h-245v700h245zM655 350l245 -350h-275l-235 350l225 350h275z" />
    <glyph glyph-name="afii10062" unicode="&#x40e;" horiz-adv-x="865" 
d="M255 180l-245 520h285l140 -320h10l125 320h285l-330 -700h-255l80 180h-95zM480 750h-90q-72 0 -118.5 47.5t-46.5 122.5v35h160v-20q0 -23 13.5 -36.5t36.5 -13.5t36.5 13.5t13.5 36.5v20h160v-35q0 -75 -46.5 -122.5t-118.5 -47.5z" />
    <glyph glyph-name="afii10145" unicode="&#x40f;" horiz-adv-x="965" 
d="M370 0h-265v700h245v-500h265v500h245v-700h-265v-110l-225 -40v150z" />
    <glyph glyph-name="afii10017" unicode="&#x410;" 
d="M325 110l-45 -110h-270l310 700h310l310 -700h-270l-45 110h-300zM555 290l-75 190h-10l-75 -190h160z" />
    <glyph glyph-name="afii10018" unicode="&#x411;" horiz-adv-x="930" 
d="M817 510h-467v-70h260q127 0 201 -63t74 -157t-74 -157t-201 -63h-505v700h712v-190zM630 220q0 19 -14 32t-36 13h-230v-90h230q22 0 36 13t14 32z" />
    <glyph glyph-name="afii10019" unicode="&#x412;" horiz-adv-x="940" 
d="M875 0h-770v700h760v-200l-125 -150l135 -150v-200zM350 500v-300h250v10l-125 140l115 140v10h-240z" />
    <glyph glyph-name="afii10020" unicode="&#x413;" horiz-adv-x="850" 
d="M810 410h-235v90h-225v-500h-245v700h705v-290z" />
    <glyph glyph-name="afii10021" unicode="&#x414;" horiz-adv-x="975" 
d="M940 200v-340h-245v140h-430v-140h-245v340h60l7.5 5t17 13t22 21t18 27.5t10.5 33.5l40 400h640v-500h105zM590 500h-170l-20 -200q-3 -27 -23 -49.5t-39 -31.5l-18 -9v-10h270v300z" />
    <glyph glyph-name="afii10022" unicode="&#x415;" horiz-adv-x="915" 
d="M830 430h-235v80h-245v-80h190v-170h-190v-70h245v80h235v-270h-725v700h725v-270z" />
    <glyph glyph-name="afii10024" unicode="&#x416;" horiz-adv-x="1345" 
d="M1090 350l245 -350h-275l-235 350l225 350h275zM10 0l245 350l-235 350h275l225 -350l-235 -350h-275zM550 0v700h245v-700h-245z" />
    <glyph glyph-name="afii10025" unicode="&#x417;" horiz-adv-x="910" 
d="M320 500v-80h-235v280h750v-200l-125 -150l135 -150v-200h-760v280h235v-80h250v10l-125 140l115 140v10h-240z" />
    <glyph glyph-name="afii10026" unicode="&#x418;" horiz-adv-x="970" 
d="M620 570v130h245v-700h-245v310h-10l-260 -180v-130h-245v700h245v-310h10z" />
    <glyph glyph-name="afii10027" unicode="&#x419;" horiz-adv-x="970" 
d="M620 570v130h245v-700h-245v310h-10l-260 -180v-130h-245v700h245v-310h10zM530 750h-90q-72 0 -118.5 47.5t-46.5 122.5v35h160v-20q0 -23 13.5 -36.5t36.5 -13.5t36.5 13.5t13.5 36.5v20h160v-35q0 -75 -46.5 -122.5t-118.5 -47.5z" />
    <glyph glyph-name="afii10028" unicode="&#x41a;" horiz-adv-x="910" 
d="M350 700v-700h-245v700h245zM655 350l245 -350h-275l-235 350l225 350h275z" />
    <glyph glyph-name="afii10029" unicode="&#x41b;" horiz-adv-x="935" 
d="M585 500h-185l-30 -280q-11 -98 -80.5 -166.5t-159.5 -68.5h-110v200h30q30 0 53 23t27 57l45 435h655v-700h-245v500z" />
    <glyph glyph-name="afii10030" unicode="&#x41c;" horiz-adv-x="1090" 
d="M545 485l185 215h255v-700h-245v375h-10l-185 -215l-185 215h-10v-375h-245v700h255z" />
    <glyph glyph-name="afii10031" unicode="&#x41d;" horiz-adv-x="965" 
d="M860 700v-700h-245v220h-265v-220h-245v700h245v-280h265v280h245z" />
    <glyph glyph-name="afii10032" unicode="&#x41e;" 
d="M655 350q0 75 -52.5 127.5t-127.5 52.5t-127.5 -52.5t-52.5 -127.5t52.5 -127.5t127.5 -52.5t127.5 52.5t52.5 127.5zM910 350q0 -150 -126 -265t-309 -115t-309 115t-126 265t126 265t309 115t309 -115t126 -265z" />
    <glyph glyph-name="afii10033" unicode="&#x41f;" horiz-adv-x="965" 
d="M860 700v-700h-245v500h-265v-500h-245v700h755z" />
    <glyph glyph-name="afii10034" unicode="&#x420;" horiz-adv-x="890" 
d="M105 700h455q128 0 211.5 -76t83.5 -184t-83.5 -184t-211.5 -76h-210v-180h-245v700zM600 440q0 30 -20 50t-49 20h-181v-140h181q29 0 49 20t20 50z" />
    <glyph glyph-name="afii10035" unicode="&#x421;" horiz-adv-x="930" 
d="M200 0l-180 350l180 350h645v-280h-235v80h-245l-75 -150l75 -150h245v80h235v-280h-645z" />
    <glyph glyph-name="afii10036" unicode="&#x422;" horiz-adv-x="805" 
d="M775 500h-250v-500h-245v500h-250v200h745v-200z" />
    <glyph glyph-name="afii10037" unicode="&#x423;" horiz-adv-x="865" 
d="M255 180l-245 520h285l140 -320h10l125 320h285l-330 -700h-255l80 180h-95z" />
    <glyph glyph-name="afii10038" unicode="&#x424;" horiz-adv-x="1085" 
d="M420 230v260q-52 0 -91 -39t-39 -91t39 -91t91 -39zM665 760v-80q178 -15 281.5 -105.5t103.5 -214.5t-103.5 -214.5t-281.5 -105.5v-80h-245v80q-178 15 -281.5 105.5t-103.5 214.5t103.5 214.5t281.5 105.5v80h245zM665 490v-260q53 0 91.5 39t38.5 91t-38.5 91
t-91.5 39z" />
    <glyph glyph-name="afii10039" unicode="&#x425;" horiz-adv-x="880" 
d="M315 700l120 -210h10l120 210h285l-220 -350l240 -350h-285l-140 220h-10l-140 -220h-285l240 350l-220 350h285z" />
    <glyph glyph-name="afii10040" unicode="&#x426;" horiz-adv-x="995" 
d="M700 0h-595v700h245v-500h255v500h245v-510l165 -165l-170 -170z" />
    <glyph glyph-name="afii10041" unicode="&#x427;" horiz-adv-x="940" 
d="M330 700v-250l260 -65v315h245v-700h-245v180l-505 125v395h245z" />
    <glyph glyph-name="afii10042" unicode="&#x428;" horiz-adv-x="1305" 
d="M1200 700v-700h-1095v700h245v-500h180v500h245v-500h180v500h245z" />
    <glyph glyph-name="afii10043" unicode="&#x429;" horiz-adv-x="1345" 
d="M1050 0h-945v700h245v-500h180v500h245v-500h180v500h245v-510l165 -165l-170 -170z" />
    <glyph glyph-name="afii10044" unicode="&#x42a;" horiz-adv-x="960" 
d="M630 0h-455v510h-155v190h400v-220h210q134 0 214.5 -69.5t80.5 -170.5t-80.5 -170.5t-214.5 -69.5zM670 240q0 30 -20 50t-50 20h-180v-140h180q30 0 50 20t20 50z" />
    <glyph glyph-name="afii10045" unicode="&#x42b;" horiz-adv-x="1250" 
d="M1145 700v-700h-245v700h245zM520 0h-415v700h245v-220h170q134 0 214.5 -69.5t80.5 -170.5t-80.5 -170.5t-214.5 -69.5zM560 240q0 30 -20 50t-50 20h-140v-140h140q30 0 50 20t20 50z" />
    <glyph glyph-name="afii10046" unicode="&#x42c;" horiz-adv-x="900" 
d="M570 0h-465v700h245v-220h220q134 0 214.5 -69.5t80.5 -170.5t-80.5 -170.5t-214.5 -69.5zM610 240q0 30 -20 50t-50 20h-190v-140h190q30 0 50 20t20 50z" />
    <glyph glyph-name="afii10047" unicode="&#x42d;" horiz-adv-x="930" 
d="M910 350l-180 -350h-645v275h230v-85h250l40 75h-235v170h235l-40 75h-250v-85h-230v275h645z" />
    <glyph glyph-name="afii10048" unicode="&#x42e;" horiz-adv-x="1265" 
d="M815 730q181 0 295.5 -108.5t114.5 -271.5t-114.5 -271.5t-295.5 -108.5q-156 0 -257 79t-138 201h-70v-250h-245v700h245v-250h70q37 122 138 201t257 79zM815 530q-65 0 -110 -49.5t-45 -130.5t45 -130.5t110 -49.5q66 0 110.5 49.5t44.5 130.5t-44.5 130.5
t-110.5 49.5z" />
    <glyph glyph-name="afii10049" unicode="&#x42f;" horiz-adv-x="935" 
d="M355 700h475v-700h-245v220h-115l-150 -220h-270l170 245q-7 2 -17.5 7t-38 23t-48.5 40t-38.5 61t-17.5 84q0 102 79 171t216 69zM315 460q0 -30 20 -50t50 -20h200v140h-200q-30 0 -50 -20t-20 -50z" />
    <glyph glyph-name="afii10065" unicode="&#x430;" horiz-adv-x="785" 
d="M35 260q0 119 78.5 199.5t191.5 80.5q49 0 87.5 -17.5t53.5 -34.5l14 -18h10v50h230v-520h-230v50h-10q-2 -3 -5.5 -7.5t-17.5 -16.5t-30 -21.5t-43.5 -17t-58.5 -7.5q-113 0 -191.5 80.5t-78.5 199.5zM370 365q-42 0 -71 -30t-29 -75t29 -75t71 -30t71 30t29 75t-29 75
t-71 30z" />
    <glyph glyph-name="afii10066" unicode="&#x431;" horiz-adv-x="740" 
d="M705 235q0 -106 -92.5 -185.5t-237.5 -79.5q-142 0 -236 92t-94 228v120q0 130 84 218t216 102l300 30l20 -190l-300 -30q-41 -4 -71 -36t-34 -74h10q7 8 19.5 19.5t54.5 31t86 19.5q123 0 199 -74t76 -191zM375 325q-41 0 -68 -26t-27 -64t27 -64t68 -26t68 26t27 64
t-27 64t-68 26z" />
    <glyph glyph-name="afii10067" unicode="&#x432;" horiz-adv-x="760" 
d="M700 0h-615v520h605v-160l-80 -100l90 -100v-160zM455 360h-140v-200h150v10l-80 90l70 90v10z" />
    <glyph glyph-name="afii10068" unicode="&#x433;" horiz-adv-x="630" 
d="M85 520h505v-180h-275v-340h-230v520z" />
    <glyph glyph-name="afii10069" unicode="&#x434;" horiz-adv-x="805" 
d="M285 170h170v180h-90l-10 -95q-2 -22 -19.5 -41t-33.5 -26l-17 -8v-10zM20 170h45q7 4 18 11t30.5 29.5t21.5 44.5l25 265h520v-350h85v-280h-230v110h-285v-110h-230v280z" />
    <glyph glyph-name="afii10070" unicode="&#x435;" horiz-adv-x="780" 
d="M465 340v35h-150v-70zM695 190v-190h-610v520h610v-250l-380 -90v-35h160v45h220z" />
    <glyph glyph-name="afii10072" unicode="&#x436;" horiz-adv-x="1100" 
d="M665 520v-520h-230v520h230zM850 0l-160 260l150 260h240l-155 -260l165 -260h-240zM410 260l-160 -260h-240l165 260l-155 260h240z" />
    <glyph glyph-name="afii10073" unicode="&#x437;" horiz-adv-x="740" 
d="M435 360h-135v-55h-220v215h590v-160l-80 -100l90 -100v-160h-600v215h220v-55h145v10l-80 90l70 90v10z" />
    <glyph glyph-name="afii10074" unicode="&#x438;" horiz-adv-x="790" 
d="M705 520v-520h-230v190h-10l-150 -105v-85h-230v520h230v-225h10l150 105v120h230z" />
    <glyph glyph-name="afii10075" unicode="&#x439;" horiz-adv-x="790" 
d="M435 570h-80q-71 0 -118 46t-47 114v35h155v-15q0 -22 13.5 -36t36.5 -14q22 0 36 14t14 36v15h155v-35q0 -68 -47 -114t-118 -46zM705 520v-520h-230v190h-10l-150 -105v-85h-230v520h230v-225h10l150 105v120h230z" />
    <glyph glyph-name="afii10076" unicode="&#x43a;" horiz-adv-x="755" 
d="M315 520v-520h-230v520h230zM505 0l-160 260l150 260h240l-155 -260l165 -260h-240z" />
    <glyph glyph-name="afii10077" unicode="&#x43b;" horiz-adv-x="760" 
d="M345 340l-15 -170q-7 -75 -63 -130t-127 -55h-120v180h30q23 0 40 17t20 43l30 295h535v-520h-230v340h-100z" />
    <glyph glyph-name="afii10078" unicode="&#x43c;" horiz-adv-x="920" 
d="M460 365l135 155h240v-520h-230v245h-10l-135 -155l-135 155h-10v-245h-230v520h240z" />
    <glyph glyph-name="afii10079" unicode="&#x43d;" horiz-adv-x="790" 
d="M705 520v-520h-230v160h-160v-160h-230v520h230v-180h160v180h230z" />
    <glyph glyph-name="afii10080" unicode="&#x43e;" horiz-adv-x="760" 
d="M380 375q-45 0 -77.5 -33.5t-32.5 -81.5t32.5 -81.5t77.5 -33.5t77.5 33.5t32.5 81.5t-32.5 81.5t-77.5 33.5zM380 550q149 0 247 -87t98 -203t-98 -203t-247 -87t-247 87t-98 203t98 203t247 87z" />
    <glyph glyph-name="afii10081" unicode="&#x43f;" horiz-adv-x="790" 
d="M705 520v-520h-230v340h-160v-340h-230v520h620z" />
    <glyph glyph-name="afii10082" unicode="&#x440;" horiz-adv-x="785" 
d="M750 260q0 -119 -78.5 -199.5t-191.5 -80.5q-49 0 -87.5 17.5t-52.5 34.5l-15 18h-10v-220h-230v690h230v-50h10q2 3 5.5 7.5t17.5 16.5t30 21.5t43.5 17t58.5 7.5q113 0 191.5 -80.5t78.5 -199.5zM415 365q-42 0 -71 -30t-29 -75t29 -75t71 -30t71 30t29 75t-29 75
t-71 30z" />
    <glyph glyph-name="afii10083" unicode="&#x441;" horiz-adv-x="760" 
d="M305 180h155v45h220v-225h-525l-135 260l135 260h525v-225h-220v45h-155l-40 -80z" />
    <glyph glyph-name="afii10084" unicode="&#x442;" horiz-adv-x="690" 
d="M230 0v340h-190v180h610v-180h-190v-340h-230z" />
    <glyph glyph-name="afii10085" unicode="&#x443;" horiz-adv-x="710" 
d="M295 0h-95l-190 520h245l95 -320h10l95 320h245l-245 -690h-220z" />
    <glyph glyph-name="afii10086" unicode="&#x444;" horiz-adv-x="890" 
d="M555 350v-180q31 0 55.5 26.5t24.5 63.5t-24.5 63.5t-55.5 26.5zM330 700h230v-180q136 -7 215.5 -80t79.5 -180t-79.5 -180t-215.5 -80v-170h-230v170q-136 7 -215.5 80t-79.5 180t79.5 180t215.5 80v180zM335 170v180q-31 0 -55.5 -26.5t-24.5 -63.5t24.5 -63.5
t55.5 -26.5z" />
    <glyph glyph-name="afii10087" unicode="&#x445;" horiz-adv-x="700" 
d="M445 0l-90 145h-10l-90 -145h-245l170 255l-160 265h245l80 -145h10l80 145h245l-160 -265l170 -255h-245z" />
    <glyph glyph-name="afii10088" unicode="&#x446;" horiz-adv-x="805" 
d="M545 0h-460v520h230v-340h150v340h230v-360l125 -125l-155 -155z" />
    <glyph glyph-name="afii10089" unicode="&#x447;" horiz-adv-x="760" 
d="M675 520v-520h-230v140l-380 90v290h230v-165l150 -35v200h230z" />
    <glyph glyph-name="afii10090" unicode="&#x448;" horiz-adv-x="1090" 
d="M1005 520v-520h-920v520h230v-340h115v340h230v-340h115v340h230z" />
    <glyph glyph-name="afii10091" unicode="&#x449;" horiz-adv-x="1110" 
d="M1000 520v-360l125 -125l-155 -155l-120 120h-770v520h230v-340h115v340h230v-340h115v340h230z" />
    <glyph glyph-name="afii10092" unicode="&#x44a;" horiz-adv-x="770" 
d="M495 0h-355v360h-120v160h345v-150h130q115 0 182.5 -54.5t67.5 -130.5t-67.5 -130.5t-182.5 -54.5zM365 225v-80h100q15 0 27.5 12.5t12.5 27.5t-12.5 27.5t-27.5 12.5h-100z" />
    <glyph glyph-name="afii10093" unicode="&#x44b;" horiz-adv-x="1050" 
d="M310 225v-80h80q15 0 27.5 12.5t12.5 27.5t-12.5 27.5t-27.5 12.5h-80zM420 0h-335v520h225v-150h110q115 0 182.5 -54.5t67.5 -130.5t-67.5 -130.5t-182.5 -54.5zM965 520v-520h-230v520h230z" />
    <glyph glyph-name="afii10094" unicode="&#x44c;" horiz-adv-x="725" 
d="M310 225v-80h110q15 0 27.5 12.5t12.5 27.5t-12.5 27.5t-27.5 12.5h-110zM450 0h-365v520h225v-150h140q115 0 182.5 -54.5t67.5 -130.5t-67.5 -130.5t-182.5 -54.5z" />
    <glyph glyph-name="afii10095" unicode="&#x44d;" horiz-adv-x="755" 
d="M285 150h170l24 45h-154v130h154l-24 45h-170v-55h-210v205h525l135 -260l-135 -260h-525v205h210v-55z" />
    <glyph glyph-name="afii10096" unicode="&#x44e;" horiz-adv-x="1040" 
d="M1005 260q0 -119 -92.5 -204.5t-232.5 -85.5q-115 0 -193 58t-112 142h-60v-170h-230v520h230v-170h60q34 84 112 142t193 58q140 0 232.5 -85.5t92.5 -204.5zM680 375q-36 0 -63 -32.5t-27 -82.5t27 -82.5t63 -32.5t63 32.5t27 82.5t-27 82.5t-63 32.5z" />
    <glyph glyph-name="afii10097" unicode="&#x44f;" horiz-adv-x="750" 
d="M300 520h365v-520h-230v150h-64l-91 -150h-240l120 190q-4 1 -11.5 4t-26.5 15t-33.5 27t-26.5 41.5t-12 57.5q0 76 67.5 130.5t182.5 54.5zM435 295v80h-110q-15 0 -27.5 -12.5t-12.5 -27.5t12.5 -27.5t27.5 -12.5h110z" />
    <glyph glyph-name="afii10071" unicode="&#x451;" horiz-adv-x="780" 
d="M465 340v35h-150v-70zM695 190v-190h-610v520h610v-250l-380 -90v-35h160v45h220zM355 690q0 -42 -30 -71t-75 -29t-75 29t-30 71t30 71t75 29t75 -29t30 -71zM415 690q0 42 30 71t75 29t75 -29t30 -71t-30 -71t-75 -29t-75 29t-30 71z" />
    <glyph glyph-name="afii10099" unicode="&#x452;" horiz-adv-x="810" 
d="M435 140h85v90l-170 40v-270h-230v490h-100v160h100v70h230v-70h135v-160h-135v-40l400 -95v-365h-315v150z" />
    <glyph glyph-name="afii10100" unicode="&#x453;" horiz-adv-x="630" 
d="M325 790h225l-140 -200h-170zM85 520h505v-180h-275v-340h-230v520z" />
    <glyph glyph-name="afii10101" unicode="&#x454;" horiz-adv-x="760" 
d="M300 150h170v55h210v-205h-525l-135 260l135 260h525v-205h-210v55h-170l-24 -45h154v-130h-154z" />
    <glyph glyph-name="afii10102" unicode="&#x455;" horiz-adv-x="740" 
d="M75 0v185h220v-35h140v25l-360 85v260h590v-185h-220v35h-140v-20l360 -85v-265h-590z" />
    <glyph glyph-name="afii10103" unicode="&#x456;" horiz-adv-x="410" 
d="M320 500v-500h-230v500h230zM325 660q0 -46 -34 -78t-86 -32t-86 32t-34 78t34 78t86 32t86 -32t34 -78z" />
    <glyph glyph-name="afii10104" unicode="&#x457;" horiz-adv-x="420" 
d="M325 500v-500h-230v500h230zM180 670q0 -42 -30 -71t-75 -29t-75 29t-30 71t30 71t75 29t75 -29t30 -71zM240 670q0 42 30 71t75 29t75 -29t30 -71t-30 -71t-75 -29t-75 29t-30 71z" />
    <glyph glyph-name="afii10105" unicode="&#x458;" horiz-adv-x="415" 
d="M325 500v-440q0 -98 -73 -169t-177 -71h-125v180h80q26 0 45.5 20.5t19.5 49.5v430h230zM330 660q0 -46 -34 -78t-86 -32t-86 32t-34 78t34 78t86 32t86 -32t34 -78z" />
    <glyph glyph-name="afii10106" unicode="&#x459;" horiz-adv-x="1025" 
d="M765 0h-350v340h-70l-15 -170q-8 -75 -63.5 -130t-126.5 -55h-120v180h30q23 0 40 17t20 43l30 295h500v-170h125q108 0 171.5 -52t63.5 -123t-63.5 -123t-171.5 -52zM640 205v-60h90q11 0 20.5 9.5t9.5 20.5t-9.5 20.5t-20.5 9.5h-90z" />
    <glyph glyph-name="afii10107" unicode="&#x45a;" horiz-adv-x="1055" 
d="M670 520v-170h125q108 0 171.5 -52t63.5 -123t-63.5 -123t-171.5 -52h-350v180h-132v-180h-228v520h228v-170h132v170h225zM670 205v-60h90q11 0 20.5 9.5t9.5 20.5t-9.5 20.5t-20.5 9.5h-90z" />
    <glyph glyph-name="afii10108" unicode="&#x45b;" horiz-adv-x="810" 
d="M750 0h-230v230l-170 40v-270h-230v490h-100v160h100v70h230v-70h135v-160h-135v-40l400 -95v-355z" />
    <glyph glyph-name="afii10109" unicode="&#x45c;" horiz-adv-x="755" 
d="M400 780h225l-140 -200h-170zM315 520v-520h-230v520h230zM505 0l-160 260l150 260h240l-155 -260l165 -260h-240z" />
    <glyph glyph-name="afii10110" unicode="&#x45e;" horiz-adv-x="710" 
d="M295 0h-95l-190 520h245l95 -320h10l95 320h245l-245 -690h-220zM400 570h-80q-71 0 -118 46t-47 114v35h155v-15q0 -22 14 -36t36 -14t36 14t14 36v15h155v-35q0 -68 -47 -114t-118 -46z" />
    <glyph glyph-name="afii10193" unicode="&#x45f;" horiz-adv-x="790" 
d="M285 0h-200v520h230v-340h160v340h230v-520h-200v-95l-220 -40v135z" />
    <glyph glyph-name="afii10050" unicode="&#x490;" horiz-adv-x="820" 
d="M555 700v80h235v-280h-440v-500h-245v700h450z" />
    <glyph glyph-name="afii10098" unicode="&#x491;" horiz-adv-x="650" 
d="M620 340h-305v-340h-230v520h315v80h220v-260z" />
    <glyph glyph-name="Wgrave" unicode="&#x1e80;" horiz-adv-x="1220" 
d="M755 700l95 -460h10l75 460h255l-150 -700h-340l-85 420h-10l-85 -420h-340l-150 700h255l75 -460h10l95 460h290zM395 960h225l85 -200h-170z" />
    <glyph glyph-name="wgrave" unicode="&#x1e81;" horiz-adv-x="1050" 
d="M530 310h-10l-65 -310h-305l-110 520h235l55 -310h10l65 310h240l65 -310h10l55 310h235l-110 -520h-305zM310 800h225l85 -200h-170z" />
    <glyph glyph-name="Wacute" unicode="&#x1e82;" horiz-adv-x="1220" 
d="M755 700l95 -460h10l75 460h255l-150 -700h-340l-85 420h-10l-85 -420h-340l-150 700h255l75 -460h10l95 460h290zM610 960h225l-140 -200h-170z" />
    <glyph glyph-name="wacute" unicode="&#x1e83;" horiz-adv-x="1050" 
d="M530 310h-10l-65 -310h-305l-110 520h235l55 -310h10l65 310h240l65 -310h10l55 310h235l-110 -520h-305zM525 800h225l-140 -200h-170z" />
    <glyph glyph-name="Wdieresis" unicode="&#x1e84;" horiz-adv-x="1220" 
d="M755 700l95 -460h10l75 460h255l-150 -700h-340l-85 420h-10l-85 -420h-340l-150 700h255l75 -460h10l95 460h290zM585 870q0 -42 -30 -71t-75 -29t-75 29t-30 71t30 71t75 29t75 -29t30 -71zM635 870q0 42 30 71t75 29t75 -29t30 -71t-30 -71t-75 -29t-75 29t-30 71z
" />
    <glyph glyph-name="wdieresis" unicode="&#x1e85;" horiz-adv-x="1050" 
d="M530 310h-10l-65 -310h-305l-110 520h235l55 -310h10l65 310h240l65 -310h10l55 310h235l-110 -520h-305zM500 690q0 -42 -30 -71t-75 -29t-75 29t-30 71t30 71t75 29t75 -29t30 -71zM550 690q0 42 30 71t75 29t75 -29t30 -71t-30 -71t-75 -29t-75 29t-30 71z" />
    <glyph glyph-name="Ygrave" unicode="&#x1ef2;" horiz-adv-x="845" 
d="M425 420l145 280h275l-300 -500v-200h-245v200l-300 500h275l145 -280h5zM217 960h225l85 -200h-170z" />
    <glyph glyph-name="ygrave" unicode="&#x1ef3;" horiz-adv-x="710" 
d="M295 0h-95l-190 520h245l95 -320h10l95 320h245l-245 -690h-220zM140 790h225l85 -200h-170z" />
    <glyph glyph-name="endash" unicode="&#x2013;" horiz-adv-x="750" 
d="M60 440h630v-190h-630v190z" />
    <glyph glyph-name="emdash" unicode="&#x2014;" horiz-adv-x="1000" 
d="M60 440h880v-190h-880v190z" />
    <glyph glyph-name="quoteleft" unicode="&#x2018;" horiz-adv-x="355" 
d="M290 590v-190h-225v170l65 130h140l-55 -110h75z" />
    <glyph glyph-name="quoteright" unicode="&#x2019;" horiz-adv-x="355" 
d="M65 510v190h225v-170l-65 -130h-140l55 110h-75z" />
    <glyph glyph-name="quotesinglbase" unicode="&#x201a;" horiz-adv-x="355" 
d="M65 0v190h225v-170l-65 -130h-140l55 110h-75z" />
    <glyph glyph-name="quotedblleft" unicode="&#x201c;" horiz-adv-x="635" 
d="M570 590v-190h-225v170l65 130h140l-55 -110h75zM290 590v-190h-225v170l65 130h140l-55 -110h75z" />
    <glyph glyph-name="quotedblright" unicode="&#x201d;" horiz-adv-x="635" 
d="M65 510v190h225v-170l-65 -130h-140l55 110h-75zM345 510v190h225v-170l-65 -130h-140l55 110h-75z" />
    <glyph glyph-name="quotedblbase" unicode="&#x201e;" horiz-adv-x="635" 
d="M65 0v190h225v-170l-65 -130h-140l55 110h-75zM345 0v190h225v-170l-65 -130h-140l55 110h-75z" />
    <glyph glyph-name="dagger" unicode="&#x2020;" horiz-adv-x="710" 
d="M240 520v180h230v-180h200v-180h-200v-520h-230v520h-200v180h200z" />
    <glyph glyph-name="daggerdbl" unicode="&#x2021;" horiz-adv-x="720" 
d="M245 540v160h230v-160h200v-180h-200v-200h200v-180h-200v-160h-230v160h-200v180h200v200h-200v180h200z" />
    <glyph glyph-name="bullet" unicode="&#x2022;" horiz-adv-x="470" 
d="M380 350q0 -57 -42.5 -98.5t-102.5 -41.5t-102.5 41.5t-42.5 98.5t42.5 98.5t102.5 41.5t102.5 -41.5t42.5 -98.5z" />
    <glyph glyph-name="ellipsis" unicode="&#x2026;" horiz-adv-x="995" 
d="M65 0v190h225v-190h-225zM385 0v190h225v-190h-225zM705 0v190h225v-190h-225z" />
    <glyph glyph-name="perthousand" unicode="&#x2030;" horiz-adv-x="1515" 
d="M415 0h-250l495 700h250zM245 590q-23 0 -39 -16t-16 -39t16 -39t39 -16t39 16t16 39t-16 39t-39 16zM245 730q92 0 153.5 -57.5t61.5 -137.5t-61.5 -137.5t-153.5 -57.5t-153.5 57.5t-61.5 137.5t61.5 137.5t153.5 57.5zM820 220q-22 0 -38.5 -16t-16.5 -39t16.5 -39
t38.5 -16t38.5 16t16.5 39t-16.5 39t-38.5 16zM820 360q92 0 153.5 -57.5t61.5 -137.5t-61.5 -137.5t-153.5 -57.5t-153.5 57.5t-61.5 137.5t61.5 137.5t153.5 57.5zM1270 220q-22 0 -38.5 -16t-16.5 -39t16.5 -39t38.5 -16t38.5 16t16.5 39t-16.5 39t-38.5 16zM1270 360
q92 0 153.5 -57.5t61.5 -137.5t-61.5 -137.5t-153.5 -57.5t-153.5 57.5t-61.5 137.5t61.5 137.5t153.5 57.5z" />
    <glyph glyph-name="guilsinglleft" unicode="&#x2039;" horiz-adv-x="440" 
d="M40 260l135 230h225l-135 -230l135 -230h-225z" />
    <glyph glyph-name="guilsinglright" unicode="&#x203a;" horiz-adv-x="440" 
d="M265 490l135 -230l-135 -230h-225l135 230l-135 230h225z" />
    <glyph glyph-name="foursuperior" unicode="&#x2074;" horiz-adv-x="545" 
d="M430 700v-230h55v-110h-55v-50h-150v50h-220v120l200 220h170zM280 470v80h-10l-65 -70v-10h75z" />
    <glyph glyph-name="Euro" unicode="&#x20ac;" horiz-adv-x="945" 
d="M365 475h210v-110h-250l-10 -15l10 -15h250v-110h-210l20 -35h240v90h235v-280h-645l-115 225h-80v110h45l-10 15l10 15h-45v110h80l115 225h645v-280h-235v90h-240z" />
    <glyph glyph-name="afii61352" unicode="&#x2116;" horiz-adv-x="1345" 
d="M545 540h10v160h245v-700h-245v250l-195 160h-10v-410h-245v700h245zM900 140v150h370v-150h-370zM1085 590q-23 0 -39 -16t-16 -39t16 -39t39 -16t39 16t16 39t-16 39t-39 16zM1085 730q92 0 153.5 -57.5t61.5 -137.5t-61.5 -137.5t-153.5 -57.5t-153.5 57.5
t-61.5 137.5t61.5 137.5t153.5 57.5z" />
    <glyph glyph-name="trademark" unicode="&#x2122;" horiz-adv-x="1045" 
d="M825 330v170h-10l-85 -105l-85 105h-10v-170h-160v370h160l95 -115l95 115h160v-370h-160zM30 560v140h400v-140h-120v-230h-160v230h-120z" />
    <glyph glyph-name="commaaccent" horiz-adv-x="305" 
d="M50 0v170h205v-150l-60 -120h-125l50 100h-70z" />
    <glyph glyph-name="foundryicon" horiz-adv-x="1345" 
d="M215 270h-165l165 165v-165zM415 350q0 -34 -25.5 -59.5t-59.5 -25.5t-59.5 25.5t-25.5 59.5t25.5 59.5t59.5 25.5t59.5 -25.5t25.5 -59.5zM415 430h180l-90 -165zM745 270v140l140 -140h-140zM730 270h-180l90 165zM905 430v-140l-140 140h140zM941 270v140l140 -140
h-140zM1101 430v-140l-140 140h140zM1115 430h180l-90 -165z" />
    </font>
</defs>
</svg>
