<?xml version="1.0" standalone="no"?>
<!DOCTYPE svg PUBLIC "-//W3C//DTD SVG 1.1//EN" "http://www.w3.org/Graphics/SVG/1.1/DTD/svg11.dtd" >
<svg xmlns="http://www.w3.org/2000/svg" xmlns:xlink="http://www.w3.org/1999/xlink" version="1.1">
<metadata></metadata>
<defs>
<font id="championsregular" horiz-adv-x="1085" >
<font-face units-per-em="2048" ascent="1536" descent="-512" />
<missing-glyph horiz-adv-x="358" />
<glyph horiz-adv-x="0" />
<glyph unicode="&#xd;" horiz-adv-x="0" />
<glyph unicode=" "  horiz-adv-x="358" />
<glyph unicode="&#x09;" horiz-adv-x="358" />
<glyph unicode="&#xa0;" horiz-adv-x="358" />
<glyph unicode="!" horiz-adv-x="503" d="M166 0v133l172 35v-168h-172zM166 336v942l172 33v-975h-172z" />
<glyph unicode="&#x22;" horiz-adv-x="788" d="M188 1311h162l-51 -430h-76zM469 1311h162l-51 -430h-76z" />
<glyph unicode="#" d="M-20 371v125h251v360h-251v125h251v348h121v-348h361v348h121v-348h274v-125h-274v-360h274v-125h-274v-371h-121v371h-361v-371h-121v371h-251zM352 496h361v360h-361v-360z" />
<glyph unicode="$" horiz-adv-x="1024" d="M115 961q0 78 28.5 138t75.5 103t110.5 69.5t135.5 35.5v178l129 22v-198q66 -4 128 -18.5t116 -37.5l-17 -143q-59 27 -129.5 42t-134.5 15q-109 0 -181.5 -46t-72.5 -132q0 -78 62 -129q29 -23 69.5 -46t87.5 -46l82 -39q156 -74 235 -167t79 -214q0 -158 -90.5 -246 t-233.5 -112v-203h-129v190q-178 0 -342 70l12 156q76 -37 159 -58.5t167 -21.5q61 0 113.5 12t90 37t60.5 61.5t23 88.5q0 47 -18.5 82.5t-52.5 64.5t-79 53.5t-96 48.5l-49 23q-57 27 -117 57.5t-109 73.5t-80.5 100.5t-31.5 135.5z" />
<glyph unicode="%" horiz-adv-x="1923" d="M135 973q0 84 20.5 159.5t60.5 133t98.5 91.5t136.5 34t137 -34t99 -91.5t60.5 -133t20.5 -159.5t-20.5 -159t-60.5 -132t-99.5 -91t-136.5 -34q-78 0 -136.5 34t-98.5 91t-60.5 132t-20.5 159zM272 973q0 -156 50.5 -229.5t128.5 -73.5q84 0 132 73.5t48 229.5 q0 158 -48 231.5t-132 73.5q-78 0 -128.5 -74t-50.5 -231zM592 -23l551 1307h157l-550 -1307h-158zM1155 373q0 84 20.5 159.5t60.5 133t98 91.5t136 34t137.5 -34t99.5 -91.5t60.5 -133t20.5 -159.5t-20.5 -159t-60.5 -132t-99.5 -91t-137.5 -34t-136 34t-98 91t-60.5 132 t-20.5 159zM1292 373q0 -156 50.5 -229.5t127.5 -73.5q84 0 132.5 73.5t48.5 229.5q0 158 -48.5 231.5t-132.5 73.5q-78 0 -128 -74t-50 -231z" />
<glyph unicode="&#x26;" horiz-adv-x="1230" d="M76 287q0 92 63.5 181t229.5 187q-94 106 -130 182t-36 156q0 70 26.5 128.5t72.5 100.5t109.5 65.5t137.5 23.5t135 -23.5t105.5 -64.5t69 -99.5t24.5 -128.5q0 -61 -24.5 -111t-64.5 -94.5t-91.5 -83t-104.5 -73.5l281 -295q14 20 30.5 54t31.5 69t27.5 69.5t18.5 59.5 l100 -29q-23 -82 -55.5 -160.5t-75.5 -148.5q47 -49 79 -81t56.5 -48.5t46 -23.5t46.5 -7l-33 -115h-31q-27 0 -52.5 6.5t-55 24t-66.5 48t-86 81.5q-68 -76 -171 -118t-208 -42q-104 0 -180 25t-126 67t-74.5 98t-24.5 120zM262 291q0 -90 54.5 -141.5t187.5 -55.5 q66 -2 140.5 30t137.5 91l-315 336q-111 -61 -158 -128t-47 -132zM356 1006q0 -53 29 -113t115 -158q113 72 178 133.5t65 141.5q0 86 -48 137t-146 51q-86 0 -139.5 -44t-53.5 -148z" />
<glyph unicode="'" horiz-adv-x="442" d="M147 1311h162l-51 -430h-76z" />
<glyph unicode="(" horiz-adv-x="593" d="M166 557q0 117 20.5 239t57.5 239.5t86 227t106 201.5h125q-104 -236 -152.5 -467t-48.5 -440t47.5 -440.5t151.5 -466.5h-125q-57 92 -106 201.5t-85 227.5t-56.5 239.5t-20.5 238.5z" />
<glyph unicode=")" horiz-adv-x="593" d="M33 -350q104 236 152 467t48 440t-47 440.5t-151 466.5h125q57 -92 106 -201.5t85 -227t56.5 -239.5t20.5 -239t-20.5 -238.5t-57.5 -239.5t-86 -227.5t-106 -201.5h-125z" />
<glyph unicode="*" horiz-adv-x="884" d="M92 782l283 136l-281 135l103 131l217 -215l-47 315h161l-59 -317l225 217l97 -131l-281 -135l283 -136l-99 -131l-225 215l57 -313h-159l47 311l-215 -211z" />
<glyph unicode="+" d="M117 494v139h356v356h139v-356h359v-139h-359v-359h-139v359h-356z" />
<glyph unicode="," horiz-adv-x="462" d="M145 141l172 35v-207l-112 -336h-60v508z" />
<glyph unicode="-" horiz-adv-x="661" d="M131 494v139h399v-139h-399z" />
<glyph unicode="." horiz-adv-x="462" d="M145 0v147l172 35v-182h-172z" />
<glyph unicode="/" horiz-adv-x="743" d="M53 -88l473 1499h164l-475 -1499h-162z" />
<glyph unicode="0" d="M90 643q0 150 30 272.5t86 210.5t140 136.5t195 48.5t195.5 -48.5t141 -136.5t86 -210.5t29.5 -272.5t-29.5 -272.5t-86 -210.5t-141.5 -136.5t-195 -48.5q-111 0 -195 48.5t-140 136.5t-86 211t-30 272zM279 643q0 -123 13 -222t44 -169t81 -108t124 -38t125 38 t81.5 108t44 169t13.5 222t-13.5 222.5t-44 169t-82 107.5t-124.5 38q-74 0 -124 -38t-81 -107.5t-44 -169t-13 -222.5z" />
<glyph unicode="1" d="M279 0v145h217v969l-207 -47v147l387 84v-1153h244l-33 -145h-608z" />
<glyph unicode="2" d="M158 0v76l32 41q45 57 86 108t81 103.5t82 110t91 126.5q70 96 109 162t58.5 111t23.5 76.5t4 60.5q0 92 -56.5 148.5t-179.5 56.5q-63 0 -131.5 -20.5t-136.5 -55.5l-12 123q66 39 148.5 61.5t170.5 22.5q92 0 164 -24.5t121 -68.5t74.5 -103.5t25.5 -129.5 q0 -53 -11 -105.5t-41 -113.5t-80 -136t-130 -173l-248 -310h537l-41 -147h-741z" />
<glyph unicode="3" d="M139 1135l35 149h660v-102l-291 -391q86 -2 156.5 -31t120.5 -79t78 -122t28 -160q0 -106 -39 -185t-103.5 -131t-150.5 -79t-180 -27q-82 0 -160 20.5t-139 55.5l12 133q66 -35 134.5 -56t131.5 -21q147 0 226 75.5t79 216.5q0 133 -72.5 206t-207.5 73q-31 0 -55.5 -4 t-45.5 -10l-30 59l297 410h-484z" />
<glyph unicode="4" d="M59 311v97l324 876h182l-305 -825h391v487l180 35v-522h232l-41 -148h-191v-311h-180v311h-592z" />
<glyph unicode="5" d="M152 66l12 127q63 -37 136 -60.5t136 -23.5q154 0 238 78.5t84 213.5q0 139 -73 219t-214 80q-55 0 -106.5 -16t-92.5 -45l-55 45l49 600h662l-39 -156h-490l-26 -327q31 10 69.5 16t79.5 6q92 0 170 -29.5t134.5 -86t88 -136t31.5 -180.5q0 -80 -28.5 -153.5t-88 -132 t-148.5 -93.5t-208 -35q-82 0 -169 23t-152 66z" />
<glyph unicode="6" d="M119 428q0 72 22.5 171t65.5 216l170 469h178l-156 -453q39 16 88.5 27.5t106.5 11.5q180 0 286.5 -117.5t106.5 -322.5q0 -92 -26.5 -175t-81 -144.5t-136 -97.5t-190.5 -36q-104 0 -185 33t-136.5 92.5t-84 142.5t-28.5 183zM307 426q0 -168 63.5 -247t182.5 -79 q121 0 183.5 79t62.5 247q0 170 -62.5 248t-183.5 78q-119 0 -182.5 -81t-63.5 -245z" />
<glyph unicode="7" d="M145 1128l39 156h754v-94l-461 -1190h-182l438 1128h-588z" />
<glyph unicode="8" d="M111 377q0 102 48 188t126 127v2q-133 88 -133 262q0 84 29.5 151t81.5 112t124 68.5t158 23.5q84 0 155.5 -23.5t124 -68.5t82 -112t29.5 -151q0 -88 -36 -153.5t-101 -110.5q80 -43 129 -129t49 -186q0 -98 -33 -173t-90 -125t-137 -76t-172 -26q-94 0 -173 26 t-137.5 76t-91 125t-32.5 173zM299 369q0 -129 63.5 -194.5t182.5 -65.5q115 0 179 65.5t64 194.5q0 139 -64 199.5t-179 60.5q-119 0 -182.5 -60.5t-63.5 -199.5zM319 956q0 -115 59.5 -169t166.5 -54q104 0 163.5 54.5t59.5 168.5q0 117 -59.5 170.5t-163.5 53.5 q-106 0 -166 -53.5t-60 -170.5z" />
<glyph unicode="9" d="M100 831q0 92 27 175.5t81 144.5t136 97t191 36q104 0 185 -32.5t136 -92t84 -142.5t29 -183q0 -72 -22.5 -171.5t-65.5 -216.5l-170 -469h-179l156 453q-39 -16 -88 -27.5t-106 -11.5q-180 0 -287 118t-107 322zM289 836q0 -170 62.5 -248t183.5 -78q119 0 182 81 t63 245q0 168 -63 246.5t-182 78.5q-121 0 -183.5 -78.5t-62.5 -246.5z" />
<glyph unicode=":" horiz-adv-x="462" d="M145 0v147l172 35v-182h-172zM145 664v147l172 35v-182h-172z" />
<glyph unicode=";" horiz-adv-x="464" d="M145 664v147l172 35v-182h-172zM147 133l172 35v-199l-112 -336h-60v500z" />
<glyph unicode="&#x3c;" d="M152 543v106l796 357v-144l-633 -264l633 -289v-139z" />
<glyph unicode="=" d="M156 344v139h772v-139h-772zM156 705v139h772v-139h-772z" />
<glyph unicode="&#x3e;" d="M137 170v139l631 289l-631 264v144l797 -357v-106z" />
<glyph unicode="?" horiz-adv-x="950" d="M106 1223q63 39 148.5 63.5t177.5 24.5t163 -24.5t117 -66.5t69.5 -98.5t23.5 -120.5q0 -41 -9.5 -79.5t-31 -77.5t-56 -81t-85.5 -89l-80 -74q-33 -31 -54.5 -53.5t-35 -44t-18.5 -47t-5 -62.5v-57h-172v76q0 59 26.5 115.5t108.5 129.5l78 70q76 66 109.5 130.5 t33.5 119.5q0 100 -57 150.5t-166 50.5q-70 0 -144.5 -24t-129.5 -62zM258 0v133l172 35v-168h-172z" />
<glyph unicode="@" horiz-adv-x="1634" d="M115 647q0 156 48 285t140 221t225.5 142.5t300.5 50.5q139 0 249 -32t196 -91q119 -84 188.5 -221.5t69.5 -319.5q0 -199 -77 -299t-200 -100q-78 0 -129 29.5t-79 82.5q-25 -41 -59 -64.5t-67.5 -34.5t-64.5 -14t-49 -3q-74 0 -133.5 26.5t-101.5 74.5t-64.5 115.5 t-22.5 149.5q0 80 25 149.5t70 121t104 81t131 29.5q47 0 109.5 -14.5t113.5 -59.5l25 56h65v-449q0 -111 33 -148.5t94 -37.5q70 0 115 77.5t45 231.5q0 150 -55 262.5t-139 175.5q-74 57 -169.5 85t-207.5 28q-152 0 -264.5 -43t-186.5 -121t-110.5 -187.5t-36.5 -244.5 q0 -139 46 -246.5t129 -181.5t199.5 -113t258.5 -39q111 0 222 19.5t210 54.5l22 -106q-41 -16 -97 -29.5t-118.5 -25t-127 -17.5t-122.5 -6q-160 0 -298 44t-239.5 132t-158.5 220t-57 304zM633 647q0 -274 198 -274q88 0 127 67.5t39 161.5v272q-29 25 -69.5 40.5 t-83.5 15.5q-94 0 -152.5 -78t-58.5 -205z" />
<glyph unicode="A" horiz-adv-x="1169" d="M27 0l491 1272l121 28l504 -1300h-201l-131 352h-489l-127 -352h-168zM375 492h383l-195 518z" />
<glyph unicode="B" horiz-adv-x="1112" d="M145 0v1284h347q125 0 210.5 -20.5t139 -59.5t77 -95t23.5 -130q0 -45 -14.5 -91t-44 -85t-72.5 -67.5t-100 -39.5v-4q80 -4 142 -33.5t104 -74.5t64.5 -102.5t22.5 -119.5q0 -80 -25.5 -146t-85 -114.5t-155.5 -75t-237 -26.5h-396zM326 141h217q162 0 231.5 57.5 t69.5 174.5q0 115 -71 173t-241 58h-206v-463zM326 748h149q156 0 218.5 52t62.5 146q0 96 -60.5 147.5t-216.5 51.5h-153v-397z" />
<glyph unicode="C" horiz-adv-x="1112" d="M74 643q0 131 41 252t118.5 213t190.5 147.5t256 55.5q98 0 182 -20.5t142 -49.5l-15 -145q-66 31 -140.5 47t-148.5 16q-109 0 -188.5 -39t-131.5 -106.5t-79 -158.5t-27 -196q0 -254 105.5 -395t320.5 -141q92 0 171 20.5t145 49.5l16 -136q-63 -35 -156.5 -57.5 t-195.5 -22.5q-92 0 -181 23t-155 63q-131 86 -200.5 237t-69.5 343z" />
<glyph unicode="D" horiz-adv-x="1257" d="M145 0v1284h318q174 0 277.5 -22.5t174.5 -65.5q133 -80 201 -225.5t68 -327.5q0 -190 -73 -334.5t-202 -220.5q-74 -43 -175 -65.5t-210 -22.5h-379zM326 141h170q106 0 199 22.5t165 90.5q66 66 94.5 160t28.5 235q0 106 -30.5 198.5t-88.5 162.5q-59 70 -157.5 101.5 t-221.5 31.5h-159v-1002z" />
<glyph unicode="E" horiz-adv-x="964" d="M145 0v1284h729l-40 -139h-508v-449h446l-33 -139h-413v-418h579l-35 -139h-725z" />
<glyph unicode="F" horiz-adv-x="894" d="M145 0v1284h729l-40 -139h-508v-449h446l-33 -139h-413v-557h-181z" />
<glyph unicode="G" horiz-adv-x="1253" d="M74 643q0 125 42 245t122.5 214t199.5 151.5t275 57.5q98 0 190 -17.5t154 -50.5l-15 -153q-143 73 -307 73h-4q-109 0 -193.5 -41t-143 -111.5t-89.5 -164.5t-31 -201q0 -147 40 -246.5t103.5 -161t138.5 -87t146 -25.5q53 0 118 11t124 34v387h-215l45 139h350v-602 q-33 -23 -79 -43t-100 -36.5t-114.5 -27t-117.5 -10.5q-145 0 -264 45.5t-202 130.5t-128 208.5t-45 281.5z" />
<glyph unicode="H" horiz-adv-x="1261" d="M145 0v1284h181v-588h610v588h180v-1284h-180v557h-610v-557h-181z" />
<glyph unicode="I" horiz-adv-x="479" d="M150 0v1284h180v-1284h-180z" />
<glyph unicode="J" horiz-adv-x="710" d="M57 133q41 -10 81 -13t81 -3q90 0 130 43t40 141v983h182v-932q0 -188 -76.5 -281.5t-248.5 -93.5q-33 0 -83 9.5t-81 19.5z" />
<glyph unicode="K" horiz-adv-x="1054" d="M145 0v1284h181v-633l465 633h190l-436 -598l479 -686h-215l-383 539h-100v-539h-181z" />
<glyph unicode="L" horiz-adv-x="931" d="M145 0v1284h181v-1145h551l-35 -139h-697z" />
<glyph unicode="M" horiz-adv-x="1529" d="M129 0l49 1284h158l442 -811l410 811h164l53 -1284h-193l-30 977h-4q-92 -190 -191.5 -386t-193.5 -388h-74l-412 758h-4q-8 -236 -17.5 -480.5t-17.5 -480.5h-139z" />
<glyph unicode="N" horiz-adv-x="1284" d="M145 0v1284h136l704 -956v956h154v-1284h-135l-705 942v-942h-154z" />
<glyph unicode="O" horiz-adv-x="1288" d="M74 643q0 137 36.5 259t109.5 212t178.5 143.5t244.5 53.5t245.5 -53.5t179.5 -143.5t109.5 -212t36.5 -259t-36.5 -259t-109.5 -212t-179.5 -143.5t-245.5 -53.5t-244.5 53.5t-178.5 143.5t-109.5 212t-36.5 259zM274 643q0 -115 24 -210t70 -163.5t114.5 -107.5 t160.5 -39t161.5 39t116 107.5t70 163.5t23.5 210q0 113 -23.5 208t-70 164.5t-116 108.5t-161.5 39t-160.5 -39t-114.5 -108.5t-70 -164.5t-24 -208z" />
<glyph unicode="P" horiz-adv-x="1079" d="M145 0v1284h353q131 0 215 -20.5t147 -61.5q72 -47 115 -128t43 -189q0 -197 -119 -301.5t-346 -104.5h-227v-479h-181zM326 621h188q154 0 231.5 58t77.5 200q0 143 -76.5 203.5t-226.5 60.5h-194v-522z" />
<glyph unicode="Q" horiz-adv-x="1294" d="M74 643q0 137 36.5 259t109.5 212t178.5 143.5t244.5 53.5t245.5 -53.5t179.5 -143.5t109.5 -212t36.5 -259q0 -180 -66.5 -328.5t-186.5 -240.5q45 -6 115.5 -8.5t127.5 -4.5l13 -145q-80 4 -144.5 12.5t-128 17.5t-132.5 17t-153 12q-123 6 -222 41t-171 103 q-96 92 -144 228t-48 296zM274 643q0 -115 24 -210t70 -163.5t114.5 -107.5t160.5 -39t161.5 39t116 107.5t70 163.5t23.5 210q0 113 -23.5 208t-70 164.5t-116 108.5t-161.5 39t-160.5 -39t-114.5 -108.5t-70 -164.5t-24 -208z" />
<glyph unicode="R" horiz-adv-x="1101" d="M145 0v1284h308q131 0 222 -17.5t154 -54.5q82 -47 120 -127.5t38 -183.5q0 -127 -54 -224t-163 -142l297 -535h-203l-274 500h-266v-500h-179zM324 641h178q147 0 220 55.5t73 194.5t-75 195.5t-222 56.5h-174v-502z" />
<glyph unicode="S" horiz-adv-x="983" d="M92 961q0 86 35 151.5t92 109.5t132 66.5t155 22.5q78 0 161 -14.5t148 -43.5l-16 -143q-59 27 -130 42t-134 15q-109 0 -181.5 -46t-72.5 -132q0 -78 61 -129q29 -23 70 -46t88 -46l82 -39q156 -74 234.5 -167t78.5 -214q0 -96 -34 -165.5t-94 -114.5t-143 -68t-180 -23 q-176 0 -344 70l13 156q76 -37 158.5 -58.5t166.5 -21.5q61 0 113.5 12t90.5 37t60.5 61.5t22.5 88.5q0 47 -18.5 82.5t-52 64.5t-79 53.5t-96.5 48.5l-49 23q-57 27 -116.5 57.5t-108.5 73.5t-81 100.5t-32 135.5z" />
<glyph unicode="T" horiz-adv-x="1064" d="M39 1143l22 141h969l-20 -141h-389v-1143h-183v1143h-399z" />
<glyph unicode="U" horiz-adv-x="1259" d="M139 469v815h178v-803q0 -176 72 -267t246 -91q109 0 174 33.5t99 86t44.5 115t10.5 121.5v805h159v-807q0 -248 -117.5 -374t-379.5 -126q-141 0 -234.5 37t-150 101.5t-79 154.5t-22.5 199z" />
<glyph unicode="V" horiz-adv-x="1122" d="M27 1284h202l355 -993l344 993h168l-461 -1284h-125z" />
<glyph unicode="W" horiz-adv-x="1705" d="M27 1284h202l299 -965l254 715l-90 250h203l330 -973l293 973h165l-413 -1284h-123l-291 827l-299 -827h-117z" />
<glyph unicode="X" horiz-adv-x="1060" d="M39 0l387 657l-373 627h209l283 -496l284 496h175l-369 -620l399 -664h-211l-317 526l-295 -526h-172z" />
<glyph unicode="Y" horiz-adv-x="1017" d="M25 1284h202l312 -620l303 620h159l-391 -784v-500h-182v502z" />
<glyph unicode="Z" horiz-adv-x="976" d="M63 0v98l594 1047h-561v139h799v-94l-612 -1051h637l-35 -139h-822z" />
<glyph unicode="[" horiz-adv-x="573" d="M135 -365v1819h406l-15 -129h-231v-1561h246l-15 -129h-391z" />
<glyph unicode="\" horiz-adv-x="688" d="M35 1411h158l473 -1499h-156z" />
<glyph unicode="]" horiz-adv-x="573" d="M33 -236h246v1561h-232l-14 129h405v-1819h-391z" />
<glyph unicode="^" horiz-adv-x="1214" d="M246 782l309 447h147l308 -447h-162l-221 348l-234 -348h-147z" />
<glyph unicode="_" horiz-adv-x="1075" d="M57 -160h961v-119h-961v119z" />
<glyph unicode="`" horiz-adv-x="819" d="M199 1298l100 150l371 -264l-54 -78z" />
<glyph unicode="a" horiz-adv-x="985" d="M66 274q0 90 48 155t133 107t200.5 62t252.5 20q0 55 -10 105.5t-39 83.5q-29 29 -79 47t-128 18q-59 0 -136 -15t-150 -46l-17 117q72 29 161 47t187 18q104 0 180 -28.5t124 -81.5q45 -51 62 -120t17 -161v-602h-77l-62 135q-31 -49 -75 -80.5t-90 -48t-90 -23 t-75 -6.5q-68 0 -128 18.5t-107 55.5t-74.5 92.5t-27.5 130.5zM258 281q0 -88 49 -135.5t135 -47.5q109 0 183.5 62.5t74.5 195.5v160q-205 -6 -323.5 -62.5t-118.5 -172.5z" />
<glyph unicode="b" horiz-adv-x="1052" d="M119 0v1276l172 35v-449q31 41 70.5 66.5t80.5 40t78 19.5t62 5q158 0 262 -108q66 -70 99.5 -170.5t33.5 -216.5q0 -90 -23.5 -183.5t-76 -168t-135.5 -122t-201 -47.5q-66 0 -141.5 30t-153.5 102l-49 -109h-78zM291 219q14 -29 38.5 -52.5t54.5 -42t60.5 -28.5 t59.5 -10q78 0 131 33t87 89t48 129t14 152q0 61 -9 136t-44 143q-29 53 -79 84t-117 31q-59 0 -109.5 -23.5t-81.5 -66.5q-29 -41 -41 -95.5t-12 -140.5v-338z" />
<glyph unicode="c" horiz-adv-x="882" d="M76 473q0 104 30.5 197.5t88.5 163.5q61 74 153 116.5t201 42.5q84 0 152.5 -16t121.5 -45l-14 -111q-53 29 -114.5 44.5t-116.5 15.5q-147 0 -226.5 -108.5t-79.5 -287.5q0 -88 16.5 -160.5t51.5 -123.5t90 -80t135 -29q135 0 246 58l18 -97q-55 -33 -136 -54.5 t-152 -21.5q-109 0 -190 30t-140 89q-66 66 -100.5 163t-34.5 214z" />
<glyph unicode="d" horiz-adv-x="1058" d="M76 471q0 135 44 238.5t116 169.5q59 57 133.5 85.5t150.5 28.5q78 0 139.5 -17.5t108.5 -45.5v346l172 35v-1311h-80l-57 125q-6 -12 -13.5 -21.5t-15.5 -19.5q-49 -57 -121.5 -82t-150.5 -25q-98 0 -177 36t-134.5 100.5t-85 155.5t-29.5 202zM268 477 q0 -68 11.5 -137.5t41 -125.5t82 -92t136.5 -36q68 0 112.5 24.5t70.5 67.5t36 101.5t10 123.5v404q-39 35 -94.5 55.5t-114.5 20.5q-104 0 -168.5 -59.5t-93.5 -149.5q-16 -47 -22.5 -98.5t-6.5 -98.5z" />
<glyph unicode="e" horiz-adv-x="1001" d="M76 496q0 106 33.5 197t93 158t142.5 104.5t181 37.5q100 0 175 -34.5t126.5 -95t77 -142.5t25.5 -176v-38t-2 -50h-660q2 -78 24.5 -143.5t64.5 -113.5t102.5 -76t138.5 -28q74 0 140.5 15.5t142.5 50.5l14 -109q-63 -35 -155.5 -55.5t-186.5 -20.5q-106 0 -194.5 35 t-151 100.5t-97 163t-34.5 220.5zM272 563h473q0 55 -6 113.5t-29.5 105.5t-66.5 77t-117 30q-66 0 -111.5 -31t-76.5 -79t-46.5 -105.5t-19.5 -110.5z" />
<glyph unicode="f" horiz-adv-x="673" d="M25 903v72h168v86q0 162 74.5 245t234.5 83q57 0 120.5 -12.5t106.5 -28.5l-10 -109q-39 12 -83 21.5t-81 9.5q-102 0 -146 -53.5t-44 -151.5v-90h280l-31 -105h-249v-870h-172v872z" />
<glyph unicode="g" horiz-adv-x="985" d="M76 -172q0 35 6 60.5t14 41.5l86 47q-41 10 -63.5 33t-22.5 68q0 25 24.5 64.5t78.5 115.5l49 68q-74 49 -112 131t-38 174q0 80 28 146.5t79 114.5t122.5 74.5t157.5 26.5q57 0 117 -15t113 -48l30 45h209v-80l-149 -47q33 -49 48 -106.5t15 -110.5q0 -78 -26.5 -144.5 t-76.5 -115.5t-122 -77t-160 -28q-59 0 -123 15l-96 -152l119 -4q16 0 32.5 -1t26.5 -1l95 -4q68 -2 131 -12.5t112 -37t79 -71.5t30 -117q0 -135 -105.5 -205.5t-337.5 -70.5q-66 0 -111.5 8t-96.5 22q-74 25 -118 76t-44 117zM229 -125q0 -80 55.5 -120t184.5 -40 q82 0 134 11.5t83 30t43 42t12 47.5q0 57 -49 82t-176 31q-20 0 -41.5 2t-42.5 2q-41 4 -71.5 4h-55.5h-18.5t-18.5 2q-16 -23 -27.5 -48t-11.5 -46zM285 629q0 -141 49 -200.5t151 -59.5q94 0 145.5 58t51.5 202q0 135 -51.5 195.5t-145.5 60.5q-90 0 -145 -60.5 t-55 -195.5z" />
<glyph unicode="h" horiz-adv-x="1067" d="M121 0v1274l172 37v-451q55 66 138 99.5t175 33.5q82 0 152.5 -27.5t113.5 -80.5q27 -33 43.5 -70t24.5 -80t11 -95t3 -118v-522h-172v528q0 92 -6 152.5t-41 112.5q-29 41 -78 62.5t-102 21.5q-45 0 -93 -16.5t-85 -53.5q-33 -31 -50.5 -66.5t-24.5 -76.5t-8 -87.5 t-1 -97.5v-479h-172z" />
<glyph unicode="i" horiz-adv-x="425" d="M127 0v975h172v-975h-172zM127 1128v148l172 35v-183h-172z" />
<glyph unicode="j" horiz-adv-x="417" d="M-127 -281q203 2 238 152q4 20 7 49t4 70t1 96v131v758h172v-764q0 -104 -3 -174t-9.5 -118t-15.5 -80t-23 -60q-41 -84 -123 -129t-217 -45zM123 1128v148l172 35v-183h-172z" />
<glyph unicode="k" horiz-adv-x="880" d="M119 0v1276l172 35v-742l330 406h194l-315 -385l354 -590h-199l-282 487h-82v-487h-172z" />
<glyph unicode="l" horiz-adv-x="425" d="M127 0v1276l172 35v-1311h-172z" />
<glyph unicode="m" horiz-adv-x="1667" d="M119 0v975h78l65 -137q51 72 136 113.5t184 41.5q63 0 132.5 -25.5t119.5 -84.5q27 -33 43 -70q47 82 137 131t203 49q72 0 139 -25.5t108 -72.5q59 -70 74.5 -157t15.5 -216v-522h-172v528q0 90 -5 155t-34 112q-29 43 -73.5 62.5t-95.5 19.5q-53 0 -103.5 -20.5 t-91.5 -70.5q-33 -47 -44 -105t-11 -159v-522h-172v528q0 90 -7.5 155t-35.5 112q-29 43 -73 62.5t-97 19.5t-104.5 -20.5t-90.5 -70.5q-37 -49 -45 -117.5t-8 -187.5v-481h-172zM883 797q1 1 1.5 1t0.5 -1h-2z" />
<glyph unicode="n" horiz-adv-x="1064" d="M119 0v975h78l69 -146q55 82 145.5 123t192.5 41q82 0 152.5 -27.5t113.5 -80.5q27 -33 43.5 -70t24.5 -80t11 -95t3 -118v-522h-172v528q0 92 -6 152.5t-41 112.5q-29 41 -78 62.5t-102 21.5q-45 0 -93 -16.5t-85 -53.5q-33 -31 -50.5 -66.5t-24.5 -76.5t-8 -87.5 t-1 -97.5v-479h-172z" />
<glyph unicode="o" horiz-adv-x="1077" d="M76 483q0 113 33.5 206t95 161t147 105.5t187.5 37.5t187 -36.5t146.5 -102.5t95 -160t33.5 -207t-33.5 -206t-95 -160.5t-146.5 -105.5t-187 -38t-187.5 37t-147 103.5t-95 160t-33.5 205.5zM268 485q0 -186 71 -290.5t200 -104.5t199.5 104.5t70.5 290.5t-70.5 291 t-199.5 105t-200 -104.5t-71 -291.5z" />
<glyph unicode="p" horiz-adv-x="1052" d="M119 -367v1342h88l49 -160q41 80 131 129t186 49q82 0 154 -26.5t121 -79.5q66 -70 97.5 -172.5t31.5 -216.5q0 -90 -23.5 -183.5t-76 -168t-135.5 -122t-201 -47.5q-57 0 -126 19.5t-124 60.5v-424h-172zM291 190q39 -49 100.5 -73.5t114.5 -24.5q78 0 131 32t86 85 t47 126t14 152q0 86 -10 148.5t-35 112.5q-33 66 -88 100.5t-123 34.5q-59 0 -106 -24.5t-78 -67.5q-29 -41 -41 -95.5t-12 -140.5v-365z" />
<glyph unicode="q" horiz-adv-x="1046" d="M76 471q0 90 24.5 183.5t77.5 168t137 122.5t203 48q158 0 285 -108l43 90h82v-1342h-172v455q-10 -16 -29 -31q-41 -35 -102.5 -57.5t-147.5 -22.5q-96 0 -171 41t-126 109t-77.5 157t-26.5 187zM268 479q0 -86 14.5 -158.5t45 -124t78 -80t112.5 -28.5q55 0 107.5 25.5 t87.5 74.5q23 33 33 79t10 100v424q-41 47 -99.5 70.5t-111.5 23.5q-78 0 -130.5 -34t-85 -89t-47 -129t-14.5 -154z" />
<glyph unicode="r" horiz-adv-x="591" d="M111 0v975h79l68 -158q29 47 72 88q47 41 106.5 64.5t130.5 23.5l-10 -151q-6 0 -13 1t-14 1q-66 0 -103.5 -15.5t-68.5 -46.5q-27 -27 -42 -62.5t-23 -75.5t-10 -82t-2 -81v-481h-170z" />
<glyph unicode="s" horiz-adv-x="794" d="M94 725q0 55 21.5 104.5t63.5 86t100.5 57t130.5 20.5q76 0 138 -13t116 -36l-11 -121q-59 27 -117.5 41.5t-105.5 14.5q-33 0 -64.5 -6.5t-56 -19.5t-39 -35.5t-14.5 -55.5q0 -47 33 -80t119 -78l47 -24q47 -25 95 -53.5t87 -66.5t63.5 -86t24.5 -112 q0 -63 -22.5 -115.5t-63.5 -87.5q-43 -41 -110.5 -61.5t-137.5 -20.5q-96 0 -163.5 15.5t-118.5 38.5l6 129q68 -29 136 -45.5t124 -16.5q88 0 144 33t56 92q0 29 -9 52.5t-30.5 45t-60.5 44t-96 51.5q-66 33 -118 63.5t-89 66.5t-57.5 80t-20.5 99z" />
<glyph unicode="t" horiz-adv-x="722" d="M12 903v72h166v227l172 35v-262h297l-31 -105h-266v-569q0 -92 38 -148.5t140 -56.5q41 0 81 7.5t85 25.5l13 -109q-43 -20 -104.5 -31.5t-121.5 -11.5q-158 0 -230.5 83t-72.5 245v567z" />
<glyph unicode="u" horiz-adv-x="1036" d="M113 449v526h172v-533q0 -109 5 -166t38 -102q29 -41 68.5 -59.5t92.5 -18.5q47 0 94.5 14.5t84.5 51.5q25 23 39 45t23 58t12 90.5t3 138.5v481h173v-975h-78l-66 133q-53 -74 -142 -115t-186 -41q-82 0 -148.5 27t-109.5 80q-27 33 -42 69.5t-22 81t-9 96.5t-2 118z " />
<glyph unicode="v" horiz-adv-x="890" d="M31 975h184l248 -701l250 701h147l-358 -975h-103z" />
<glyph unicode="w" horiz-adv-x="1366" d="M31 975h176l219 -680l211 680h106l228 -680l217 680h147l-329 -975h-99l-229 678l-217 -678h-99z" />
<glyph unicode="x" horiz-adv-x="866" d="M31 975h186l211 -357l217 357h146l-283 -459l328 -516h-197l-227 377l-228 -377h-149l299 479z" />
<glyph unicode="y" horiz-adv-x="921" d="M31 975h184l283 -742l243 742h152l-344 -1014q-35 -100 -70 -167.5t-78 -109.5t-98 -60.5t-129 -18.5l-29 125h27q43 0 75 10t57.5 34.5t47 66.5t43.5 108l23 65z" />
<glyph unicode="z" horiz-adv-x="806" d="M57 0v70l469 790h-446v115h649v-70l-471 -790h485q-10 -39 -17 -62.5t-15 -52.5h-654z" />
<glyph unicode="{" horiz-adv-x="583" d="M84 487v82q68 14 97.5 82t29.5 162q0 33 -6 82t-13.5 99t-13.5 95.5t-6 69.5q0 164 90 229.5t242 65.5l16 -104q-104 0 -150 -52.5t-46 -144.5q0 -35 6 -82t14 -97t14.5 -98.5t6.5 -87.5q0 -113 -46.5 -175t-113.5 -85q68 -23 114 -85t46 -175q0 -39 -6.5 -87t-14.5 -98 t-14 -97t-6 -82q0 -92 46 -144.5t150 -52.5l-16 -104q-152 0 -242 65.5t-90 229.5q0 25 6 69.5t13.5 95t13.5 99.5t6 82q0 94 -29.5 161.5t-97.5 81.5z" />
<glyph unicode="|" horiz-adv-x="434" d="M143 -422v1882h148v-1882h-148z" />
<glyph unicode="}" horiz-adv-x="583" d="M63 -293q104 0 150.5 52.5t46.5 144.5q0 35 -6 82t-14.5 97t-14.5 98t-6 87q0 113 46 175.5t114 84.5q-68 23 -114 85.5t-46 174.5q0 39 6 87.5t14.5 98.5t14.5 97t6 82q0 92 -46 144.5t-151 52.5l17 104q76 0 137.5 -15.5t104.5 -50t66.5 -91t23.5 -138.5 q0 -25 -6.5 -70t-13.5 -95t-13 -99t-6 -82q0 -94 29.5 -161.5t97.5 -82.5v-82q-68 -14 -97.5 -81.5t-29.5 -161.5q0 -33 6 -82t13 -99.5t13.5 -95.5t6.5 -69q0 -82 -23.5 -138.5t-66.5 -91.5t-104.5 -50t-137.5 -15z" />
<glyph unicode="~" horiz-adv-x="1214" d="M102 461q35 111 117 179.5t187 68.5q66 0 130 -22.5t105 -43.5q23 -12 51.5 -26.5t61 -26.5t65.5 -20.5t62 -8.5q70 0 112.5 24.5t77.5 90.5l84 -53q-33 -96 -102.5 -151.5t-173.5 -55.5q-63 0 -121 20.5t-115 46.5q-23 10 -53.5 23.5t-63 25t-64.5 19.5t-54 8 q-145 0 -224 -149z" />
<glyph unicode="&#xa2;" horiz-adv-x="1024" d="M137 473q0 104 31 197.5t88 163.5q51 61 124 101t159 52v170l129 23v-189q63 -4 117.5 -20.5t99.5 -38.5l-15 -111q-53 29 -114.5 44.5t-116.5 15.5q-147 0 -226 -108.5t-79 -287.5q0 -88 16.5 -160.5t51 -123.5t90 -80t135.5 -29q135 0 245 58l19 -97 q-43 -27 -103.5 -44t-119.5 -25v-197h-129v195q-164 14 -267 114q-66 66 -100.5 163t-34.5 214z" />
<glyph unicode="&#xa3;" horiz-adv-x="1024" d="M111 0v61q74 63 118.5 116.5t70.5 100t34 90.5t8 89q0 18 -4 49t-8 53l-187 51v60h154q-16 39 -34.5 78.5t-36 79.5t-29 82t-11.5 89q0 61 27 118t77 100t122.5 68.5t165.5 25.5q98 0 178 -15.5t133 -38.5l-17 -151q-76 29 -144.5 42t-123.5 13q-106 0 -170.5 -45 t-64.5 -139q0 -55 35.5 -131t66.5 -176h342l-31 -113h-290q8 -41 8 -84q0 -98 -35 -180t-86 -135h557q-6 -27 -11 -45.5t-9.5 -36t-9.5 -34.5t-13 -42h-782z" />
<glyph unicode="&#xa5;" horiz-adv-x="1024" d="M20 1284h205l314 -625l301 625h164l-277 -551h203l-41 -115h-219l-62 -118v-105h273l-41 -114h-232v-281h-180v281h-256v114h256v107l-63 116h-234v115h174z" />
<glyph unicode="&#xa8;" horiz-adv-x="819" d="M139 1118v170h178v-170h-178zM502 1118v170h178v-170h-178z" />
<glyph unicode="&#xa9;" horiz-adv-x="1517" d="M137 647q0 143 47 263t133 205t206 132t265 47q143 0 263 -47t206 -132t133.5 -204.5t47.5 -263.5q0 -145 -47.5 -265t-133.5 -206t-205.5 -133t-263.5 -47q-145 0 -265 47t-206 133t-133 206t-47 265zM225 647q0 -127 41 -231.5t115 -180t177.5 -117.5t229.5 -42 q125 0 228.5 42t177.5 117.5t115 180t41 231.5q0 125 -41 229.5t-115 180.5t-177.5 116.5t-228.5 40.5q-127 0 -230 -40.5t-177 -116.5t-115 -180.5t-41 -229.5zM494 647q0 70 21.5 133.5t62 111.5t100 75.5t133.5 27.5q59 0 110.5 -13t82.5 -34l-11 -121q-82 53 -174 54 q-84 0 -129 -58.5t-45 -169.5q0 -117 44 -180t140 -63q57 0 99.5 12t79.5 33l10 -107q-37 -25 -91.5 -39t-117.5 -14q-74 0 -133.5 26.5t-99 73.5t-61 111.5t-21.5 140.5z" />
<glyph unicode="&#xab;" horiz-adv-x="1095" d="M121 473v51l340 361l76 -84l-291 -301l293 -303l-74 -84zM532 473v51l340 361l76 -84l-291 -301l293 -303l-73 -84z" />
<glyph unicode="&#xad;" horiz-adv-x="661" d="M131 494v139h399v-139h-399z" />
<glyph unicode="&#xae;" horiz-adv-x="1513" d="M106 647q0 143 47.5 263t133.5 205t205.5 132t265.5 47q143 0 263 -47t206 -132t133 -204.5t47 -263.5q0 -145 -47 -265t-133 -206t-206 -133t-263 -47q-145 0 -265 47t-206 133t-133.5 206t-47.5 265zM195 647q0 -127 40.5 -231.5t114.5 -180t177.5 -117.5t230.5 -42 q125 0 228.5 42t177 117.5t114.5 180t41 231.5q0 125 -41 229.5t-114.5 180.5t-177 116.5t-228.5 40.5q-127 0 -230.5 -40.5t-177.5 -116.5t-114.5 -180.5t-40.5 -229.5zM532 305v674h154q88 0 148.5 -14.5t97.5 -41t52 -64.5t15 -85q0 -113 -108 -182l162 -287h-152 l-133 250h-100v-250h-136zM668 664h65q59 0 89 22.5t30 79.5t-29.5 80.5t-89.5 23.5h-65v-206z" />
<glyph unicode="&#xb4;" horiz-adv-x="819" d="M150 1182l368 262l98 -146l-419 -192z" />
<glyph unicode="&#xb8;" horiz-adv-x="819" d="M215 -293q35 -10 71 -14t66 -4q127 0 127 82q0 39 -30.5 62.5t-102.5 23.5q-41 0 -80 -9l-22 23l35 195h96l-31 -146q16 4 45 4q92 0 153.5 -40t61.5 -111q0 -78 -57.5 -123t-167.5 -45q-82 0 -152 28z" />
<glyph unicode="&#xbb;" horiz-adv-x="1095" d="M145 197l293 303l-291 301l76 84l340 -361v-51l-344 -360zM557 197l293 303l-291 301l76 84l340 -361v-51l-344 -360z" />
<glyph unicode="&#x2c6;" horiz-adv-x="819" d="M102 1171l240 234h133l240 -234l-68 -61l-237 186l-240 -186z" />
<glyph unicode="&#x2da;" horiz-adv-x="819" d="M227 1274q0 82 49.5 129t133.5 47q82 0 132 -47t50 -129t-50 -130t-132 -48q-84 0 -133.5 48t-49.5 130zM326 1274q0 -86 84 -86q82 0 82 86q0 82 -82 82q-84 0 -84 -82z" />
<glyph unicode="&#x2dc;" horiz-adv-x="819" d="M86 1182q16 59 71.5 100t123.5 41q35 0 71.5 -13.5t59.5 -25.5q37 -20 67.5 -33.5t59.5 -13.5q84 0 131 72l65 -56q-23 -59 -74 -97t-122 -38q-39 0 -74 14.5t-78 36.5q-25 12 -51.5 24.5t-54.5 12.5q-37 0 -72 -18.5t-62 -65.5z" />
<glyph unicode="&#x400;" horiz-adv-x="964" d="M145 0v1284h729l-40 -139h-508v-449h446l-33 -139h-413v-418h579l-35 -139h-725zM219 1602l100 149l371 -264l-54 -78z" />
<glyph unicode="&#x401;" horiz-adv-x="964" d="M145 0v1284h729l-40 -139h-508v-449h446l-33 -139h-413v-418h579l-35 -139h-725zM211 1454v170h178v-170h-178zM574 1454v170h178v-170h-178z" />
<glyph unicode="&#x402;" horiz-adv-x="1380" d="M39 1143l22 141h969l-20 -141h-410v-414q61 8 128 13.5t120 5.5q111 0 195.5 -18.5t141 -65t86 -127t29.5 -203.5v-189q0 -115 -8 -178t-32 -98q-39 -61 -107 -97t-174 -44l-12 147q96 8 124.5 67.5t28.5 174.5v227q0 80 -17.5 133t-55 84t-97 44t-141.5 13 q-47 0 -105.5 -4t-103.5 -14v-600h-182v1143h-379z" />
<glyph unicode="&#x403;" horiz-adv-x="933" d="M145 0v1284h734l-39 -139h-514v-1145h-181zM297 1485l369 262l98 -145l-420 -193z" />
<glyph unicode="&#x404;" horiz-adv-x="1112" d="M74 643q0 131 41 252t119.5 213t191.5 147.5t256 55.5q98 0 182 -20.5t142 -49.5l-15 -145q-66 31 -140.5 47t-148.5 16q-98 0 -174.5 -34.5t-131 -94t-85 -139.5t-37.5 -168h435v-141h-437q8 -213 119 -336t309 -123q92 0 171 20.5t145 49.5l16 -136 q-63 -35 -156.5 -57.5t-195.5 -22.5q-92 0 -181 23t-155 63q-131 86 -200.5 237t-69.5 343z" />
<glyph unicode="&#x405;" horiz-adv-x="983" d="M92 961q0 86 35 151.5t92 109.5t132 66.5t155 22.5q78 0 161 -14.5t148 -43.5l-16 -143q-59 27 -130 42t-134 15q-109 0 -181.5 -46t-72.5 -132q0 -78 61 -129q29 -23 70 -46t88 -46l82 -39q156 -74 234.5 -167t78.5 -214q0 -96 -34 -165.5t-94 -114.5t-143 -68t-180 -23 q-176 0 -344 70l13 156q76 -37 158.5 -58.5t166.5 -21.5q61 0 113.5 12t90.5 37t60.5 61.5t22.5 88.5q0 47 -18.5 82.5t-52 64.5t-79 53.5t-96.5 48.5l-49 23q-57 27 -116.5 57.5t-108.5 73.5t-81 100.5t-32 135.5z" />
<glyph unicode="&#x406;" horiz-adv-x="479" d="M150 0v1284h180v-1284h-180z" />
<glyph unicode="&#x407;" horiz-adv-x="479" d="M-29 1454v170h178v-170h-178zM150 0v1284h180v-1284h-180zM334 1454v170h178v-170h-178z" />
<glyph unicode="&#x408;" horiz-adv-x="712" d="M57 133q41 -10 81 -13t81 -3q90 0 130 43t40 141v983h182v-932q0 -188 -76.5 -281.5t-248.5 -93.5q-33 0 -83 9.5t-81 19.5z" />
<glyph unicode="&#x409;" horiz-adv-x="1894" d="M55 -10l21 143q12 -4 25.5 -5t21.5 -1q31 0 59.5 12.5t53 50t41 106.5t22.5 183l35 664h-154v141h942v-536h148q117 0 218 -14.5t177 -56.5t119 -117t43 -195q0 -80 -25.5 -146.5t-85 -115t-156 -76t-237.5 -27.5h-381v1143h-444l-35 -660q-10 -170 -43 -269t-77 -152.5 t-94 -69t-93 -15.5q-23 0 -47.5 2.5t-53.5 10.5zM1122 141h203q162 0 231.5 57.5t69.5 174.5q0 115 -70.5 173t-240.5 58h-193v-463z" />
<glyph unicode="&#x40a;" horiz-adv-x="1888" d="M145 0v1284h181v-588h610v588h180v-586h148q117 0 218 -11t177 -48t119 -107.5t43 -191.5q0 -80 -26 -142.5t-85 -106.5t-155.5 -67.5t-237.5 -23.5h-381v557h-610v-557h-181zM1116 141h203q162 0 231.5 45t69.5 162q0 115 -70.5 161t-240.5 46h-193v-414z" />
<glyph unicode="&#x40b;" horiz-adv-x="1380" d="M39 1143l22 141h969l-20 -141h-410v-414q61 8 128 13.5t120 5.5q111 0 195.5 -18.5t141 -65t86 -127t29.5 -203.5v-334h-180v344q0 80 -17.5 133t-55 84t-97 44t-141.5 13q-47 0 -105.5 -4t-103.5 -14v-600h-182v1143h-379z" />
<glyph unicode="&#x40c;" horiz-adv-x="1054" d="M145 0v1284h181v-633l465 633h190l-436 -598l479 -686h-215l-383 539h-100v-539h-181zM295 1485l368 262l98 -145l-419 -193z" />
<glyph unicode="&#x40d;" horiz-adv-x="1284" d="M145 0v1284h181v-958l661 958h152v-1284h-181v944l-663 -944h-150zM385 1602l100 149l371 -264l-53 -78z" />
<glyph unicode="&#x40e;" horiz-adv-x="1087" d="M27 1284h206l338 -733l299 733h191l-402 -909q-47 -106 -88 -182t-90 -124.5t-112.5 -71t-153.5 -22.5h-10l-39 113q37 0 75 5t74.5 25.5t72.5 63.5t67 121l20 51zM207 1669l98 29q33 -74 87 -115t145 -41q92 0 145 41t86 115l98 -29q-18 -113 -107 -185.5t-222 -72.5 q-66 0 -123.5 19.5t-100.5 53.5t-70.5 82t-35.5 103z" />
<glyph unicode="&#x40f;" horiz-adv-x="1261" d="M145 0v1284h181v-1145h610v1145h180v-1284h-407v-270h-158v270h-406z" />
<glyph unicode="&#x410;" horiz-adv-x="1169" d="M27 0l491 1272l121 28l504 -1300h-201l-131 352h-489l-127 -352h-168zM375 492h383l-195 518z" />
<glyph unicode="&#x411;" horiz-adv-x="1167" d="M55 1145v139h832v-139h-512v-397h168q117 0 218 -14.5t177 -56.5t119 -117t43 -195q0 -80 -25.5 -146.5t-85 -115t-156 -76t-237.5 -27.5h-401v1145h-140zM375 141h223q162 0 231.5 57.5t69.5 174.5q0 115 -70.5 173t-240.5 58h-213v-463z" />
<glyph unicode="&#x412;" horiz-adv-x="1112" d="M145 0v1284h347q125 0 210.5 -20.5t139 -59.5t77 -95t23.5 -130q0 -45 -14.5 -91t-44 -85t-72.5 -67.5t-100 -39.5v-4q80 -4 142 -33.5t104 -74.5t64.5 -102.5t22.5 -119.5q0 -80 -25.5 -146t-85 -114.5t-155.5 -75t-237 -26.5h-396zM326 141h217q162 0 231.5 57.5 t69.5 174.5q0 115 -71 173t-241 58h-206v-463zM326 748h149q156 0 218.5 52t62.5 146q0 96 -60.5 147.5t-216.5 51.5h-153v-397z" />
<glyph unicode="&#x413;" horiz-adv-x="931" d="M145 0v1284h732l-37 -139h-514v-1145h-181z" />
<glyph unicode="&#x414;" horiz-adv-x="1314" d="M43 141h55q37 39 70 99.5t59.5 134.5t44 156.5t21.5 166.5l20 445h-153v141h942v-1143h170v-409h-158v268h-913v-268h-158v409zM262 141h660v1002h-445l-18 -375q-12 -244 -63.5 -392.5t-133.5 -234.5z" />
<glyph unicode="&#x415;" horiz-adv-x="964" d="M145 0v1284h729l-40 -139h-508v-449h446l-33 -139h-413v-418h579l-35 -139h-725z" />
<glyph unicode="&#x416;" horiz-adv-x="1626" d="M31 0l479 686l-436 598h190l465 -633v633h168v-633l465 633h190l-436 -598l479 -686h-215l-383 539h-100v-539h-168v539h-100l-383 -539h-215z" />
<glyph unicode="&#x417;" horiz-adv-x="978" d="M68 1108q59 96 152 149.5t222 53.5q88 0 158 -24.5t118 -68.5t72.5 -102.5t24.5 -126.5q0 -111 -65.5 -185.5t-182.5 -111.5v-4q76 -10 135.5 -38.5t100.5 -73t61.5 -100.5t20.5 -120q0 -195 -140 -295q-55 -41 -131.5 -62.5t-193.5 -21.5q-82 0 -175 24t-157 60l12 142 q74 -39 153 -62.5t155 -23.5q143 0 213.5 63.5t70.5 171.5q0 117 -77.5 182.5t-245.5 65.5h-43v139h41q123 0 191.5 60.5t68.5 161.5q0 90 -57.5 142t-161.5 52q-74 0 -131.5 -32.5t-94.5 -90.5z" />
<glyph unicode="&#x418;" horiz-adv-x="1284" d="M145 0v1284h181v-958l661 958h152v-1284h-181v944l-663 -944h-150z" />
<glyph unicode="&#x419;" horiz-adv-x="1284" d="M145 0v1284h181v-958l661 958h152v-1284h-181v944l-663 -944h-150zM332 1669l98 29q33 -74 87 -115t145 -41q92 0 145 41t86 115l98 -29q-18 -113 -107 -185.5t-222 -72.5q-66 0 -123.5 19.5t-100.5 53.5t-70.5 82t-35.5 103z" />
<glyph unicode="&#x41a;" horiz-adv-x="1054" d="M145 0v1284h181v-633l465 633h190l-436 -598l479 -686h-215l-383 539h-100v-539h-181z" />
<glyph unicode="&#x41b;" horiz-adv-x="1267" d="M55 -10l21 143q12 -4 25.5 -5t21.5 -1q31 0 59.5 12.5t53 50t41 106.5t22.5 183l35 664h-154v141h942v-1284h-180v1143h-444l-35 -660q-10 -170 -43 -269t-77 -152.5t-94 -69t-93 -15.5q-23 0 -47.5 2.5t-53.5 10.5z" />
<glyph unicode="&#x41c;" horiz-adv-x="1529" d="M129 0l49 1284h158l442 -811l410 811h164l53 -1284h-193l-30 977h-4q-92 -190 -191.5 -386t-193.5 -388h-74l-412 758h-4q-8 -236 -17.5 -480.5t-17.5 -480.5h-139z" />
<glyph unicode="&#x41d;" horiz-adv-x="1261" d="M145 0v1284h181v-588h610v588h180v-1284h-180v557h-610v-557h-181z" />
<glyph unicode="&#x41e;" horiz-adv-x="1288" d="M74 643q0 137 36.5 259t109.5 212t178.5 143.5t244.5 53.5t245.5 -53.5t179.5 -143.5t109.5 -212t36.5 -259t-36.5 -259t-109.5 -212t-179.5 -143.5t-245.5 -53.5t-244.5 53.5t-178.5 143.5t-109.5 212t-36.5 259zM274 643q0 -115 24 -210t70 -163.5t114.5 -107.5 t160.5 -39t161.5 39t116 107.5t70 163.5t23.5 210q0 113 -23.5 208t-70 164.5t-116 108.5t-161.5 39t-160.5 -39t-114.5 -108.5t-70 -164.5t-24 -208z" />
<glyph unicode="&#x41f;" horiz-adv-x="1261" d="M145 0v1284h971v-1284h-180v1145h-610v-1145h-181z" />
<glyph unicode="&#x420;" horiz-adv-x="1081" d="M145 0v1284h353q131 0 215 -20.5t147 -61.5q72 -47 115 -128t43 -189q0 -197 -119 -301.5t-346 -104.5h-227v-479h-181zM326 621h188q154 0 231.5 58t77.5 200q0 143 -76.5 203.5t-226.5 60.5h-194v-522z" />
<glyph unicode="&#x421;" horiz-adv-x="1112" d="M74 643q0 131 41 252t118.5 213t190.5 147.5t256 55.5q98 0 182 -20.5t142 -49.5l-15 -145q-66 31 -140.5 47t-148.5 16q-109 0 -188.5 -39t-131.5 -106.5t-79 -158.5t-27 -196q0 -254 105.5 -395t320.5 -141q92 0 171 20.5t145 49.5l16 -136q-63 -35 -156.5 -57.5 t-195.5 -22.5q-92 0 -181 23t-155 63q-131 86 -200.5 237t-69.5 343z" />
<glyph unicode="&#x422;" horiz-adv-x="1064" d="M39 1143l22 141h969l-20 -141h-389v-1143h-183v1143h-399z" />
<glyph unicode="&#x423;" horiz-adv-x="1087" d="M27 1284h206l338 -733l299 733h191l-402 -909q-47 -106 -88 -182t-90 -124.5t-112.5 -71t-153.5 -22.5h-10l-39 113q37 0 75 5t74.5 25.5t72.5 63.5t67 121l20 51z" />
<glyph unicode="&#x424;" horiz-adv-x="1425" d="M74 643q0 121 40 217t113.5 166t176 110t225.5 46v184h166v-184q123 -6 225 -47t176 -110t115 -166t41 -216q0 -127 -41 -225.5t-115 -167t-176 -106.5t-225 -40v-186h-166v182q-123 6 -225.5 47t-176 111t-113.5 167t-40 218zM274 643q0 -182 98.5 -279.5t256.5 -117.5 v792q-158 -18 -256.5 -116.5t-98.5 -278.5zM795 248q78 8 143.5 37.5t112.5 80t72.5 119t25.5 158.5q0 184 -97.5 281.5t-256.5 115.5v-792z" />
<glyph unicode="&#x425;" horiz-adv-x="1060" d="M39 0l387 657l-373 627h209l283 -496l284 496h175l-369 -620l399 -664h-211l-317 526l-295 -526h-172z" />
<glyph unicode="&#x426;" horiz-adv-x="1329" d="M145 0v1284h181v-1145h610v1145h180v-1143h170v-409h-158v268h-983z" />
<glyph unicode="&#x427;" horiz-adv-x="1114" d="M88 950v334h180v-344q0 -80 17.5 -133t55.5 -84t96.5 -44t142.5 -13q47 0 105 4t103 14v600h181v-1284h-181v555q-61 -8 -128.5 -13t-118.5 -5q-111 0 -196 18t-141.5 64.5t-86 127t-29.5 203.5z" />
<glyph unicode="&#x428;" horiz-adv-x="1777" d="M145 0v1284h181v-1145h473v1145h180v-1143h473v1143h180v-1284h-1487z" />
<glyph unicode="&#x429;" horiz-adv-x="1845" d="M145 0v1284h181v-1145h473v1145h180v-1143h473v1143h180v-1143h170v-409h-157v268h-1500z" />
<glyph unicode="&#x42a;" horiz-adv-x="1284" d="M43 1126v158h469v-536h147q117 0 218.5 -14.5t177 -56.5t119 -117t43.5 -195q0 -80 -26 -146.5t-85 -115t-155.5 -76t-237.5 -27.5h-381v1126h-289zM512 141h203q162 0 231.5 57.5t69.5 174.5q0 115 -71 173t-240 58h-193v-463z" />
<glyph unicode="&#x42b;" horiz-adv-x="1589" d="M145 0v1284h181v-536h147q117 0 218.5 -14.5t177 -56.5t118.5 -117t43 -195q0 -80 -25.5 -146.5t-85 -115t-155.5 -76t-238 -27.5h-381zM326 141h202q162 0 231.5 57.5t69.5 174.5q0 115 -70.5 173t-240.5 58h-192v-463zM1264 0v1284h180v-1284h-180z" />
<glyph unicode="&#x42c;" horiz-adv-x="1097" d="M145 0v1284h181v-536h147q117 0 218.5 -14.5t177 -56.5t118.5 -117t43 -195q0 -80 -25.5 -146.5t-85 -115t-155.5 -76t-238 -27.5h-381zM326 141h202q162 0 231.5 57.5t69.5 174.5q0 115 -70.5 173t-240.5 58h-192v-463z" />
<glyph unicode="&#x42d;" horiz-adv-x="1112" d="M80 57l16 136q66 -29 144.5 -49.5t171.5 -20.5q199 0 309 123t119 336h-408v141h406q-6 88 -37 168t-85 139.5t-131 94t-175 34.5q-74 0 -149 -16.5t-140 -46.5l-15 145q57 29 141.5 49.5t182.5 20.5q143 0 256 -55.5t190.5 -147.5t119.5 -213t42 -252q0 -193 -69.5 -343 t-200.5 -237q-66 -41 -155 -63.5t-181 -22.5q-102 0 -195.5 23t-156.5 57z" />
<glyph unicode="&#x42e;" horiz-adv-x="1828" d="M145 0v1284h181v-588h288q6 129 47 241t113 194.5t175.5 131t234.5 48.5q139 0 245.5 -53.5t179 -143.5t109.5 -212t37 -259t-37 -259t-109.5 -212t-179 -143.5t-245.5 -53.5q-127 0 -227.5 45.5t-172 123t-113.5 184t-53 229.5h-292v-557h-181zM815 643 q0 -115 23.5 -210t69.5 -163.5t115 -107.5t161 -39t161.5 39t115.5 107.5t69.5 163.5t23.5 210q0 113 -23.5 208t-69.5 164.5t-115.5 108.5t-161.5 39t-161 -39t-115 -108.5t-69.5 -164.5t-23.5 -208z" />
<glyph unicode="&#x42f;" horiz-adv-x="1101" d="M35 0h203l274 500h266v-500h179v1284h-308q-131 0 -222 -17.5t-154 -54.5q-82 -47 -120 -127.5t-38 -183.5q0 -127 54 -224t163 -142zM307 891q0 139 75 195.5t222 56.5h174v-502h-178q-147 0 -220 55.5t-73 194.5z" />
<glyph unicode="&#x430;" horiz-adv-x="985" d="M66 274q0 90 48 155t133 107t200.5 62t252.5 20q0 55 -10 105.5t-39 83.5q-29 29 -79 47t-128 18q-59 0 -136 -15t-150 -46l-17 117q72 29 161 47t187 18q104 0 180 -28.5t124 -81.5q45 -51 62 -120t17 -161v-602h-77l-62 135q-31 -49 -75 -80.5t-90 -48t-90 -23 t-75 -6.5q-68 0 -128 18.5t-107 55.5t-74.5 92.5t-27.5 130.5zM258 281q0 -88 49 -135.5t135 -47.5q109 0 183.5 62.5t74.5 195.5v160q-205 -6 -323.5 -62.5t-118.5 -172.5z" />
<glyph unicode="&#x431;" horiz-adv-x="1095" d="M86 539q0 197 22.5 327.5t82 220t163 149.5t264.5 118q66 23 115 43t86 39l78 -123q-35 -25 -98.5 -53.5t-175.5 -65.5q-186 -59 -273.5 -158.5t-95.5 -236.5q20 31 55 56.5t76 45t86 29.5t86 10q102 0 187 -33t146.5 -94t95.5 -150.5t34 -201.5q0 -113 -34 -202 t-95.5 -151.5t-146.5 -96.5t-187 -34t-189 35t-149.5 105.5t-97.5 175t-35 246.5zM285 459q0 -186 71.5 -277.5t200.5 -91.5t199.5 91t70.5 278q0 186 -70.5 277t-199.5 91t-200.5 -91t-71.5 -277z" />
<glyph unicode="&#x432;" horiz-adv-x="1003" d="M119 0v975h317q123 0 199 -13.5t119 -41.5q43 -29 69.5 -77t26.5 -110q0 -63 -44 -122.5t-130 -88.5v-6q117 -18 184.5 -83.5t67.5 -158.5q0 -88 -38 -141t-97 -82q-72 -35 -166.5 -43t-180.5 -8h-327zM291 123h158q72 0 117.5 7t80.5 24q45 23 63.5 54.5t18.5 72.5 q0 86 -80 127q-18 8 -35.5 15t-40 10t-53.5 5t-76 2h-153v-317zM291 561h129q41 0 74.5 3t68.5 14q98 37 99 129q0 53 -27 83.5t-74 47.5q-33 10 -58.5 12t-82.5 2h-129v-291z" />
<glyph unicode="&#x433;" horiz-adv-x="817" d="M119 0v975h659l-26 -135h-461v-840h-172z" />
<glyph unicode="&#x434;" horiz-adv-x="1048" d="M39 135h35q39 37 67.5 80t48 96.5t31.5 120t19 152.5l20 256h-141v135h805v-840h86v-332h-156v197h-659v-197h-156v332zM258 135h494v705h-346l-21 -252q-6 -88 -17.5 -155.5t-26.5 -122t-35.5 -96.5t-47.5 -79z" />
<glyph unicode="&#x435;" horiz-adv-x="1001" d="M76 496q0 106 33.5 197t93 158t142.5 104.5t181 37.5q100 0 175 -34.5t126.5 -95t77 -142.5t25.5 -176v-38t-2 -50h-660q2 -78 24.5 -143.5t64.5 -113.5t102.5 -76t138.5 -28q74 0 140.5 15.5t142.5 50.5l14 -109q-63 -35 -155.5 -55.5t-186.5 -20.5q-106 0 -194.5 35 t-151 100.5t-97 163t-34.5 220.5zM272 563h473q0 55 -6 113.5t-29.5 105.5t-66.5 77t-117 30q-66 0 -111.5 -31t-76.5 -79t-46.5 -105.5t-19.5 -110.5z" />
<glyph unicode="&#x436;" horiz-adv-x="1462" d="M27 0l397 539l-297 436h170l354 -510v510h160v-510l354 510h170l-297 -436l398 -539h-197l-285 383h-143v-383h-160v383h-143l-285 -383h-196z" />
<glyph unicode="&#x437;" horiz-adv-x="964" d="M98 799q49 94 135 144t232 50q92 0 160.5 -21.5t114.5 -58t68.5 -85t22.5 -103.5q0 -63 -38.5 -116.5t-116.5 -80.5v-6q102 -20 156.5 -86.5t54.5 -154.5q0 -131 -115 -217.5t-346 -86.5q-80 0 -170 16.5t-156 45.5l9 119q68 -31 145.5 -48.5t144.5 -17.5 q162 0 228.5 52.5t66.5 136.5q0 63 -37 100q-14 14 -33.5 24.5t-49 17.5t-73.5 10t-110 3h-24v133h24q76 0 125 10.5t79 31t42 49t12 65.5q0 72 -50 114t-159 42q-78 0 -139 -37t-94 -92z" />
<glyph unicode="&#x438;" horiz-adv-x="1028" d="M119 0v975h172v-709l473 709h145v-975h-172v682l-463 -682h-155z" />
<glyph unicode="&#x439;" horiz-adv-x="1028" d="M119 0v975h172v-709l473 709h145v-975h-172v682l-463 -682h-155zM195 1407l98 29q33 -74 87 -115t144 -41q92 0 145.5 41t86.5 115l98 -29q-18 -113 -107.5 -185.5t-222.5 -72.5q-66 0 -123 19.5t-100 53t-70.5 82t-35.5 103.5z" />
<glyph unicode="&#x43a;" horiz-adv-x="944" d="M121 0v975h172v-510l354 510h170l-297 -436l398 -539h-197l-285 383h-143v-383h-172z" />
<glyph unicode="&#x43b;" d="M55 -4l8 143q10 -4 24.5 -6t25.5 -2q37 0 63.5 9.5t45 37t29.5 78.5t17 133l35 451h-141v135h805v-975h-172v840h-346l-37 -447q-10 -117 -30 -196.5t-51.5 -129t-76.5 -70t-104 -20.5q-23 0 -47.5 4.5t-47.5 14.5z" />
<glyph unicode="&#x43c;" horiz-adv-x="1259" d="M102 0q4 129 9.5 249t11.5 238.5t11 238.5t9 249h193l309 -533l277 533h190l45 -975h-174l-31 764l-311 -574h-39l-332 574l-34 -764h-134z" />
<glyph unicode="&#x43d;" horiz-adv-x="1028" d="M119 0v975h172v-424h446v424h172v-975h-172v416h-446v-416h-172z" />
<glyph unicode="&#x43e;" horiz-adv-x="1077" d="M76 483q0 113 33.5 206t95 161t147 105.5t187.5 37.5t187 -36.5t146.5 -102.5t95 -160t33.5 -207t-33.5 -206t-95 -160.5t-146.5 -105.5t-187 -38t-187.5 37t-147 103.5t-95 160t-33.5 205.5zM268 485q0 -186 71 -290.5t200 -104.5t199.5 104.5t70.5 290.5t-70.5 291 t-199.5 105t-200 -104.5t-71 -291.5z" />
<glyph unicode="&#x43f;" horiz-adv-x="1028" d="M119 0v975h790v-975h-172v840h-446v-840h-172z" />
<glyph unicode="&#x440;" horiz-adv-x="1052" d="M119 -367v1342h88l49 -160q41 80 131 129t186 49q82 0 154 -26.5t121 -79.5q66 -70 97.5 -172.5t31.5 -216.5q0 -90 -23.5 -183.5t-76 -168t-135.5 -122t-201 -47.5q-57 0 -126 19.5t-124 60.5v-424h-172zM291 190q39 -49 100.5 -73.5t114.5 -24.5q78 0 131 32t86 85 t47 126t14 152q0 86 -10 148.5t-35 112.5q-33 66 -88 100.5t-123 34.5q-59 0 -106 -24.5t-78 -67.5q-29 -41 -41 -95.5t-12 -140.5v-365z" />
<glyph unicode="&#x441;" horiz-adv-x="882" d="M76 473q0 104 30.5 197.5t88.5 163.5q61 74 153 116.5t201 42.5q84 0 152.5 -16t121.5 -45l-14 -111q-53 29 -114.5 44.5t-116.5 15.5q-147 0 -226.5 -108.5t-79.5 -287.5q0 -88 16.5 -160.5t51.5 -123.5t90 -80t135 -29q135 0 246 58l18 -97q-55 -33 -136 -54.5 t-152 -21.5q-109 0 -190 30t-140 89q-66 66 -100.5 163t-34.5 214z" />
<glyph unicode="&#x442;" horiz-adv-x="874" d="M39 836l16 139h787l-15 -139h-301v-836h-172v836h-315z" />
<glyph unicode="&#x443;" horiz-adv-x="921" d="M31 975h184l283 -742l243 742h152l-344 -1014q-35 -100 -70 -167.5t-78 -109.5t-98 -60.5t-129 -18.5l-29 125h27q43 0 75 10t57.5 34.5t47 66.5t43.5 108l23 65z" />
<glyph unicode="&#x444;" horiz-adv-x="1554" d="M76 471q0 117 27.5 214t77.5 166t122 106.5t160 37.5q70 0 118 -12t113 -51v348l170 31v-437q43 57 107.5 88t142.5 31q174 0 269.5 -119.5t95.5 -375.5q0 -244 -96.5 -383.5t-292.5 -139.5q-53 0 -115 18.5t-111 61.5v-422h-170v435q-47 -47 -113.5 -70t-136.5 -23 q-100 0 -170.5 36t-114.5 101.5t-63.5 156.5t-19.5 202zM272 477q0 -121 14.5 -196.5t41 -119.5t65.5 -60.5t88 -16.5q51 0 96.5 20.5t73.5 63.5q23 37 33 88t10 143v408q-35 31 -83 54.5t-113 23.5q-123 0 -174.5 -95.5t-51.5 -312.5zM864 188q37 -47 88.5 -72.5 t100.5 -25.5q55 0 98 17.5t72.5 62.5t45 123t15.5 199q0 115 -13.5 190.5t-39 120.5t-63.5 63.5t-89 18.5q-45 0 -88 -23.5t-73 -66.5q-29 -41 -41.5 -96.5t-12.5 -141.5v-369z" />
<glyph unicode="&#x445;" horiz-adv-x="866" d="M31 975h186l211 -357l217 357h146l-283 -459l328 -516h-197l-227 377l-228 -377h-149l299 479z" />
<glyph unicode="&#x446;" horiz-adv-x="1034" d="M119 0v975h172v-840h446v840h172v-840h86v-332h-155v197h-721z" />
<glyph unicode="&#x447;" horiz-adv-x="946" d="M76 666v309h172v-301q0 -127 56 -183.5t173 -56.5q35 0 78 7.5t100 23.5v510h172v-975h-172v336q-70 -16 -120 -23.5t-95 -7.5q-190 0 -277 87t-87 274z" />
<glyph unicode="&#x448;" horiz-adv-x="1585" d="M119 0v975h172v-840h416v840h172v-840h415v840h172v-975h-1347z" />
<glyph unicode="&#x449;" horiz-adv-x="1591" d="M119 0v975h172v-840h416v840h172v-840h415v840h172v-840h86v-332h-155v197h-1278z" />
<glyph unicode="&#x44a;" horiz-adv-x="1067" d="M51 852v123h348v-410h133q219 0 328 -57q131 -70 131 -225q0 -74 -35.5 -135.5t-105.5 -96.5q-72 -35 -156 -43t-162 -8h-305v852h-176zM399 123h136q84 0 138 9t84.5 29.5t43 50.5t12.5 71t-12.5 70.5t-43 50t-85 29.5t-137.5 9h-136v-319z" />
<glyph unicode="&#x44b;" horiz-adv-x="1320" d="M119 0v975h172v-410h133q219 0 328 -57q131 -70 131 -225q0 -74 -36 -135.5t-106 -96.5q-72 -35 -155.5 -43t-161.5 -8h-305zM291 123h135q84 0 138 9t85 29.5t43.5 50.5t12.5 71t-12.5 70.5t-43.5 50t-85 29.5t-138 9h-135v-319zM1030 0v975h172v-975h-172z" />
<glyph unicode="&#x44c;" horiz-adv-x="958" d="M119 0v975h172v-410h133q219 0 328 -57q131 -70 131 -225q0 -74 -36 -135.5t-106 -96.5q-72 -35 -155.5 -43t-161.5 -8h-305zM291 123h135q84 0 138 9t85 29.5t43.5 50.5t12.5 71t-12.5 70.5t-43.5 50t-85 29.5t-138 9h-135v-319z" />
<glyph unicode="&#x44d;" horiz-adv-x="882" d="M53 51l19 96q111 -57 245 -57q147 0 215 95.5t76 254.5h-354v135h350q-18 141 -94 224.5t-205 83.5q-55 0 -116.5 -15.5t-114.5 -44.5l-15 111q53 29 122 45t153 16q109 0 201 -43t153 -116q57 -70 88 -164t31 -199q0 -117 -35 -215t-100 -164q-59 -59 -140 -89t-190 -30 q-72 0 -152.5 21.5t-136.5 54.5z" />
<glyph unicode="&#x44e;" horiz-adv-x="1492" d="M119 0v975h172v-428h203q8 98 46 181t97 141.5t140 91t177 32.5q102 0 187.5 -36.5t147 -102.5t95 -160t33.5 -207t-33.5 -206t-95 -160.5t-146.5 -105.5t-188 -38q-94 0 -174 32t-140 88.5t-97 136t-47 178.5h-205v-412h-172zM684 485q0 -186 70.5 -290.5t199.5 -104.5 t200 104.5t71 290.5t-71 291t-200 105t-199.5 -104.5t-70.5 -291.5z" />
<glyph unicode="&#x44f;" horiz-adv-x="956" d="M27 0l223 420q-100 49 -143.5 111.5t-43.5 142.5q0 74 27 130t86 97q66 43 158 58.5t184 15.5h320v-975h-172v389h-260l-197 -389h-182zM262 682q0 -55 31 -95t84 -57q33 -10 76 -14t84 -4h129v340h-129q-57 0 -91 -3t-67 -11q-53 -14 -85 -55.5t-32 -100.5z" />
<glyph unicode="&#x450;" horiz-adv-x="1001" d="M76 496q0 106 33.5 197t93 158t142.5 104.5t181 37.5q100 0 175 -34.5t126.5 -95t77 -142.5t25.5 -176v-38t-2 -50h-660q2 -78 24.5 -143.5t64.5 -113.5t102.5 -76t138.5 -28q74 0 140.5 15.5t142.5 50.5l14 -109q-63 -35 -155.5 -55.5t-186.5 -20.5q-106 0 -194.5 35 t-151 100.5t-97 163t-34.5 220.5zM272 563h473q0 55 -6 113.5t-29.5 105.5t-66.5 77t-117 30q-66 0 -111.5 -31t-76.5 -79t-46.5 -105.5t-19.5 -110.5zM279 1298l100 150l371 -264l-54 -78z" />
<glyph unicode="&#x451;" horiz-adv-x="1001" d="M76 496q0 106 33.5 197t93 158t142.5 104.5t181 37.5q100 0 175 -34.5t126.5 -95t77 -142.5t25.5 -176v-38t-2 -50h-660q2 -78 24.5 -143.5t64.5 -113.5t102.5 -76t138.5 -28q74 0 140.5 15.5t142.5 50.5l14 -109q-63 -35 -155.5 -55.5t-186.5 -20.5q-106 0 -194.5 35 t-151 100.5t-97 163t-34.5 220.5zM262 1118v170h178v-170h-178zM272 563h473q0 55 -6 113.5t-29.5 105.5t-66.5 77t-117 30q-66 0 -111.5 -31t-76.5 -79t-46.5 -105.5t-19.5 -110.5zM625 1118v170h178v-170h-178z" />
<glyph unicode="&#x452;" horiz-adv-x="1069" d="M35 1051v120h92v103l172 37v-140h272v-120h-272v-334q55 66 138 99.5t175 33.5q82 0 153 -27.5t114 -81.5q27 -33 43 -69.5t24 -79.5t11.5 -95.5t3.5 -117.5v-383q0 -199 -52 -275q-41 -63 -104.5 -100t-155.5 -43l-26 154q94 12 129.5 70.5t35.5 172.5v410 q0 92 -6 152.5t-41 111.5q-29 41 -78 62.5t-102 21.5q-45 0 -93 -16.5t-85 -52.5q-33 -31 -50.5 -67t-24.5 -77t-8 -87t-1 -97v-336h-172v1051h-92z" />
<glyph unicode="&#x453;" horiz-adv-x="819" d="M121 0v975h659l-26 -135h-461v-840h-172zM256 1182l369 262l98 -146l-420 -192z" />
<glyph unicode="&#x454;" horiz-adv-x="882" d="M76 473q0 104 30.5 198.5t88.5 164.5q61 74 153 116.5t201 42.5q84 0 152.5 -16t121.5 -45l-14 -111q-53 29 -114.5 44.5t-116.5 15.5q-129 0 -205 -83t-94 -225h350v-135h-357q8 -160 77 -255t216 -95q135 0 246 57l18 -96q-55 -33 -136 -54.5t-152 -21.5 q-109 0 -190 30t-140 89q-66 66 -100.5 164t-34.5 215z" />
<glyph unicode="&#x455;" horiz-adv-x="794" d="M94 725q0 55 21.5 104.5t63.5 86t100.5 57t130.5 20.5q76 0 138 -13t116 -36l-11 -121q-59 27 -117.5 41.5t-105.5 14.5q-33 0 -64.5 -6.5t-56 -19.5t-39 -35.5t-14.5 -55.5q0 -47 33 -80t119 -78l47 -24q47 -25 95 -53.5t87 -66.5t63.5 -86t24.5 -112 q0 -63 -22.5 -115.5t-63.5 -87.5q-43 -41 -110.5 -61.5t-137.5 -20.5q-96 0 -163.5 15.5t-118.5 38.5l6 129q68 -29 136 -45.5t124 -16.5q88 0 144 33t56 92q0 29 -9 52.5t-30.5 45t-60.5 44t-96 51.5q-66 33 -118 63.5t-89 66.5t-57.5 80t-20.5 99z" />
<glyph unicode="&#x456;" horiz-adv-x="417" d="M127 0v975h172v-975h-172zM127 1128v148l172 35v-183h-172z" />
<glyph unicode="&#x457;" horiz-adv-x="425" d="M-54 1118v170h178v-170h-178zM127 0v975h172v-975h-172zM309 1118v170h178v-170h-178z" />
<glyph unicode="&#x458;" horiz-adv-x="417" d="M-127 -281q203 2 238 152q4 20 7 49t4 70t1 96v131v758h172v-764q0 -104 -3 -174t-9.5 -118t-15.5 -80t-23 -60q-41 -84 -123 -129t-217 -45zM123 1128v148l172 35v-183h-172z" />
<glyph unicode="&#x459;" horiz-adv-x="1634" d="M55 -4l8 143q10 -4 24.5 -6t25.5 -2q37 0 63.5 9.5t45 37t29.5 78.5t17 133l35 451h-141v135h805v-410h133q219 0 327 -57q131 -70 132 -225q0 -74 -36 -135.5t-106 -96.5q-72 -35 -155.5 -43t-161.5 -8h-305v840h-346l-37 -447q-10 -117 -30 -196.5t-51.5 -129 t-76.5 -70t-104 -20.5q-23 0 -47.5 4.5t-47.5 14.5zM967 123h135q84 0 138 9t85 29.5t43 50.5t12 71t-12 70.5t-43 50t-85 29.5t-138 9h-135v-319z" />
<glyph unicode="&#x45a;" horiz-adv-x="1576" d="M119 0v975h172v-424h446v424h172v-410h133q219 0 328 -57q131 -70 131 -225q0 -74 -35.5 -135.5t-105.5 -96.5q-72 -35 -156 -43t-162 -8h-305v416h-446v-416h-172zM909 123h135q84 0 138.5 9t85 29.5t43 50.5t12.5 71t-12.5 70.5t-43 50t-85 29.5t-138.5 9h-135v-319z " />
<glyph unicode="&#x45b;" horiz-adv-x="1069" d="M35 1051v120h92v103l172 37v-140h272v-120h-272v-334q55 66 138 99.5t175 33.5q82 0 153 -27.5t114 -81.5q27 -33 43 -69.5t24 -79.5t11.5 -95.5t3.5 -117.5v-379h-173v385q0 92 -6 152.5t-41 111.5q-29 41 -78 62.5t-102 21.5q-45 0 -93 -16.5t-85 -52.5 q-33 -31 -50.5 -67t-24.5 -77t-8 -87t-1 -97v-336h-172v1051h-92z" />
<glyph unicode="&#x45c;" horiz-adv-x="962" d="M121 0v975h172v-510l354 510h170l-297 -436l398 -539h-197l-285 383h-143v-383h-172zM277 1182l368 262l98 -146l-419 -192z" />
<glyph unicode="&#x45d;" horiz-adv-x="1028" d="M119 0v975h172v-709l473 709h145v-975h-172v682l-463 -682h-155zM246 1298l100 150l371 -264l-54 -78z" />
<glyph unicode="&#x45e;" horiz-adv-x="921" d="M31 975h184l283 -742l243 742h152l-344 -1014q-35 -100 -70 -167.5t-78 -109.5t-98 -60.5t-129 -18.5l-29 125h27q43 0 75 10t57.5 34.5t47 66.5t43.5 108l23 65zM145 1407l99 29q33 -74 87 -115t144 -41q92 0 145.5 41t86.5 115l98 -29q-18 -113 -107.5 -185.5 t-222.5 -72.5q-66 0 -123 19.5t-100 53t-70.5 82t-36.5 103.5z" />
<glyph unicode="&#x45f;" horiz-adv-x="1028" d="M119 0v975h172v-840h446v840h172v-975h-317v-197h-156v197h-317z" />
<glyph unicode="&#x462;" horiz-adv-x="1157" d="M25 1030v133h159v183h181v-183h477l-47 -133h-430v-282h167q117 0 218.5 -14.5t177.5 -56.5t119 -117t43 -195q0 -80 -26 -146.5t-85 -115t-155.5 -76t-237.5 -27.5h-402v1030h-159zM365 141h223q162 0 231.5 57.5t69.5 174.5q0 115 -70.5 173t-240.5 58h-213v-463z" />
<glyph unicode="&#x463;" horiz-adv-x="1024" d="M27 780v111h133v420h172v-420h358l-33 -111h-325v-194h133q111 0 204 -14.5t148 -43.5q66 -35 98.5 -96t32.5 -139q0 -74 -35.5 -140.5t-105.5 -101.5q-35 -16 -78 -26.5t-89 -15.5t-91 -7t-84 -2h-305v780h-133zM332 123h135q94 0 152.5 11t92 32.5t46 53.5t12.5 73 t-12.5 72.5t-46 53t-92 33t-152.5 11.5h-135v-340z" />
<glyph unicode="&#x472;" horiz-adv-x="1267" d="M74 643q0 154 32.5 276.5t101 210t174.5 134.5t251 47q147 0 252.5 -47t174 -134.5t101.5 -210t33 -276.5t-33 -276.5t-101.5 -208.5t-174 -133.5t-252.5 -47.5q-145 0 -251 47.5t-174.5 133.5t-101 208.5t-32.5 276.5zM254 582q10 -229 101 -349t278 -120 q188 0 278 119.5t101 349.5h-758zM256 707h756q-10 227 -101.5 349t-277.5 122t-276.5 -122t-100.5 -349z" />
<glyph unicode="&#x473;" horiz-adv-x="1069" d="M76 483q0 113 32.5 206t93 161t146 105.5t187.5 37.5t187 -36.5t145.5 -102.5t93 -160t32.5 -207t-32.5 -206t-93 -160.5t-145.5 -105.5t-187 -38t-187.5 37t-146 103.5t-93 160t-32.5 205.5zM260 442q10 -168 81 -260t194 -92t193.5 92t78.5 260h-547zM262 545h545 q-12 160 -83 248t-189 88q-119 0 -191 -88t-82 -248z" />
<glyph unicode="&#x474;" horiz-adv-x="1218" d="M27 1284h194l361 -1001l213 620q43 125 78.5 200t77.5 114.5t93.5 53t122.5 13.5h52v-172h-56q-41 0 -68.5 -8t-53 -39t-52 -91.5t-63.5 -164.5l-291 -809h-125z" />
<glyph unicode="&#x475;" horiz-adv-x="950" d="M31 975h178l246 -705l163 453q31 84 60 137t63.5 83t79.5 40t109 10h20v-159h-28q-35 0 -60.5 -7.5t-45 -26t-35 -50t-33.5 -82.5l-246 -668h-103z" />
<glyph unicode="&#x490;" horiz-adv-x="952" d="M145 0v1284h627v240h125v-379h-571v-1145h-181z" />
<glyph unicode="&#x491;" horiz-adv-x="819" d="M121 0v975h543v160h116v-295h-487v-840h-172z" />
<glyph unicode="&#x2000;" horiz-adv-x="875" />
<glyph unicode="&#x2001;" horiz-adv-x="1751" />
<glyph unicode="&#x2002;" horiz-adv-x="875" />
<glyph unicode="&#x2003;" horiz-adv-x="1751" />
<glyph unicode="&#x2004;" horiz-adv-x="583" />
<glyph unicode="&#x2005;" horiz-adv-x="437" />
<glyph unicode="&#x2006;" horiz-adv-x="291" />
<glyph unicode="&#x2007;" horiz-adv-x="291" />
<glyph unicode="&#x2008;" horiz-adv-x="218" />
<glyph unicode="&#x2009;" horiz-adv-x="350" />
<glyph unicode="&#x200a;" horiz-adv-x="97" />
<glyph unicode="&#x2010;" horiz-adv-x="661" d="M131 494v139h399v-139h-399z" />
<glyph unicode="&#x2011;" horiz-adv-x="661" d="M131 494v139h399v-139h-399z" />
<glyph unicode="&#x2012;" horiz-adv-x="661" d="M131 494v139h399v-139h-399z" />
<glyph unicode="&#x2013;" horiz-adv-x="1046" d="M0 494v139h1047v-139h-1047z" />
<glyph unicode="&#x2014;" horiz-adv-x="2048" d="M0 494v139h2048v-139h-2048z" />
<glyph unicode="&#x2018;" horiz-adv-x="442" d="M125 770v182l108 357h64v-539h-172z" />
<glyph unicode="&#x2019;" horiz-adv-x="442" d="M145 770v539h172v-183l-108 -356h-64z" />
<glyph unicode="&#x201a;" horiz-adv-x="442" d="M145 162h172v-182l-108 -357h-64v539z" />
<glyph unicode="&#x201c;" horiz-adv-x="821" d="M125 772v182l108 357h64v-539h-172zM504 772v182l108 357h64v-539h-172z" />
<glyph unicode="&#x201d;" horiz-adv-x="821" d="M145 770v539h172v-183l-108 -356h-64zM524 770v539h172v-183l-108 -356h-64z" />
<glyph unicode="&#x201e;" horiz-adv-x="821" d="M145 162h172v-182l-108 -357h-64v539zM524 162h172v-182l-108 -357h-64v539z" />
<glyph unicode="&#x2026;" horiz-adv-x="1415" d="M145 0v147l172 35v-182h-172zM616 0v147l172 35v-182h-172zM1087 0v147l173 35v-182h-173z" />
<glyph unicode="&#x202f;" horiz-adv-x="350" />
<glyph unicode="&#x2039;" horiz-adv-x="684" d="M121 473v51l340 361l76 -84l-291 -301l293 -303l-74 -84z" />
<glyph unicode="&#x203a;" horiz-adv-x="684" d="M145 197l293 303l-291 301l76 84l340 -361v-51l-344 -360z" />
<glyph unicode="&#x205f;" horiz-adv-x="437" />
<glyph unicode="&#x20ac;" horiz-adv-x="1175" d="M43 489v64h168q-4 23 -4 45.5v44.5v32.5t2 33.5l-166 41v63h180q18 94 58.5 177t97.5 149q76 80 181.5 126t227.5 46q100 0 180.5 -20.5t137.5 -49.5l-14 -151q-131 66 -283 65q-162 0 -260 -95t-131 -247h545l-31 -104h-529v-50q0 -29 1.5 -55t3.5 -51h452l-31 -104 h-403q37 -154 133 -238t250 -84q96 0 170 19.5t139 50.5l17 -138q-63 -35 -152.5 -58.5t-194.5 -23.5q-86 0 -169.5 23t-149.5 63q-92 61 -153.5 160t-88.5 226z" />
<glyph unicode="&#x2122;" horiz-adv-x="1316" d="M80 1161l8 76h440l-8 -76h-170v-502h-98v502h-172zM563 657l23 578h82l186 -344l176 344h84l25 -578h-101l-14 402l-68 -139l-88 -175h-43l-172 308l-4 -131l-8 -265h-78z" />
<glyph unicode="&#x25fc;" horiz-adv-x="975" d="M0 0v975h975v-975h-975z" />
</font>
</defs>
</svg>
