<svg width="512" height="512" fill="none" xmlns="http://www.w3.org/2000/svg"><path d="M512 256A256.004 256.004 0 0 0 399.893 44.267 255.998 255.998 0 0 0 6.165 200.155a256 256 0 0 0 63.219 231.089l67.182-63.088a163.836 163.836 0 0 1-40.46-147.897 163.846 163.846 0 0 1 99.58-116.594 163.848 163.848 0 0 1 152.406 16.826A163.846 163.846 0 0 1 419.84 256H512z" fill="url(#paint0_linear)"/><path d="M512 256a256.007 256.007 0 0 1-118.828 216.148l-38.408-60.521A184.32 184.32 0 0 0 440.32 256H512z" fill="url(#paint1_linear)" fill-opacity=".8"/><path d="M512 256a256.005 256.005 0 0 1-80.756 186.616 255.995 255.995 0 0 1-191.318 68.879l3.215-51.099A204.803 204.803 0 0 0 460.8 256H512z" fill="url(#paint2_linear)" fill-opacity=".6"/><path d="M512 256a256.005 256.005 0 0 1-105.527 207.108 255.994 255.994 0 0 1-229.581 36.362l9.493-29.216a225.273 225.273 0 0 0 202.031-31.999A225.268 225.268 0 0 0 481.28 256H512z" fill="url(#paint3_linear)" fill-opacity=".4"/><path d="M512 256a255.993 255.993 0 0 1-46.554 147.201 256 256 0 0 1-406.697 15.98l7.89-6.528a245.756 245.756 0 0 0 390.429-15.34A245.756 245.756 0 0 0 501.76 256H512z" fill="url(#paint4_linear)" fill-opacity=".4"/><defs><linearGradient id="paint0_linear" x1="256" y1="0" x2="256" y2="512" gradientUnits="userSpaceOnUse"><stop stop-color="#FCDC84"/><stop offset="1" stop-color="#F8C810"/></linearGradient><linearGradient id="paint1_linear" x1="256" y1="0" x2="256" y2="512" gradientUnits="userSpaceOnUse"><stop stop-color="#FCDC84"/><stop offset="1" stop-color="#F8C810"/></linearGradient><linearGradient id="paint2_linear" x1="256" y1="0" x2="256" y2="512" gradientUnits="userSpaceOnUse"><stop stop-color="#FCDC84"/><stop offset="1" stop-color="#F8C810"/></linearGradient><linearGradient id="paint3_linear" x1="256" y1="0" x2="256" y2="512" gradientUnits="userSpaceOnUse"><stop stop-color="#FCDC84"/><stop offset="1" stop-color="#F8C810"/></linearGradient><linearGradient id="paint4_linear" x1="256" y1="0" x2="256" y2="512" gradientUnits="userSpaceOnUse"><stop stop-color="#FCDC84"/><stop offset="1" stop-color="#F8C810"/></linearGradient></defs></svg>