<svg xmlns="http://www.w3.org/2000/svg" width="81.714" height="82.714" viewBox="0 0 81.714 82.714">
  <g id="logo" transform="translate(-360 -3796.286)">
    <path id="red" d="M39.357,0A39.353,39.353,0,0,0,10.343,65.944V39.163A29.047,29.047,0,1,1,39.39,68.21a8.183,8.183,0,0,1,0-16.366A12.681,12.681,0,1,0,26.709,39.163V76.625A39.357,39.357,0,1,0,39.357,0Z" transform="translate(363 3800.286)" fill="#d82f14"/>
    <path id="blue" d="M39.357,0A39.353,39.353,0,0,0,10.343,65.944V39.163A29.047,29.047,0,1,1,39.39,68.21a8.183,8.183,0,0,1,0-16.366A12.681,12.681,0,1,0,26.709,39.163V76.625A39.357,39.357,0,1,0,39.357,0Z" transform="translate(360 3796.286)" fill="#244690"/>
  </g>
</svg>
